<?xml version="1.0" encoding="UTF-8" standalone="no"?>
<svg
   xmlns:dc="http://purl.org/dc/elements/1.1/"
   xmlns:cc="http://creativecommons.org/ns#"
   xmlns:rdf="http://www.w3.org/1999/02/22-rdf-syntax-ns#"
   xmlns:svg="http://www.w3.org/2000/svg"
   xmlns="http://www.w3.org/2000/svg"
   xmlns:sodipodi="http://sodipodi.sourceforge.net/DTD/sodipodi-0.dtd"
   xmlns:inkscape="http://www.inkscape.org/namespaces/inkscape"
   height="64"
   version="1.1"
   viewBox="0 0 32 64"
   width="32"
   id="svg2"
   inkscape:version="0.48.4 r9939"
   sodipodi:docname="eye.svg">
  <metadata
     id="metadata15">
    <rdf:RDF>
      <cc:Work
         rdf:about="">
        <dc:format>image/svg+xml</dc:format>
        <dc:type
           rdf:resource="http://purl.org/dc/dcmitype/StillImage" />
      </cc:Work>
    </rdf:RDF>
  </metadata>
  <sodipodi:namedview
     pagecolor="#ffffff"
     bordercolor="#666666"
     borderopacity="1"
     objecttolerance="10"
     gridtolerance="10"
     guidetolerance="10"
     inkscape:pageopacity="0"
     inkscape:pageshadow="2"
     inkscape:window-width="640"
     inkscape:window-height="480"
     id="namedview13"
     showgrid="false"
     inkscape:snap-bbox="true"
     inkscape:snap-bbox-midpoints="true"
     inkscape:snap-center="true"
     inkscape:zoom="8"
     inkscape:cx="8.1333952"
     inkscape:cy="12.001925"
     inkscape:current-layer="svg2" />
  <title
     id="title4" />
  <desc
     id="desc6" />
  <defs
     id="defs8" />
  <path
     style="fill:#1b90fd;fill-rule:evenodd;stroke:none;fill-opacity:1"
     d="m 16,39.384615 c -11.0769231,0 -16,8.615384 -16,8.615384 0,0 4.9230769,8.615386 16,8.615385 11.076923,-10e-7 16,-8.615385 16,-8.615385 0,0 -4.923077,-8.615384 -16,-8.615384 z m 0,0.692307 c 4.37843,0 7.923077,3.544648 7.923077,7.923077 0,4.37843 -3.544647,7.923077 -7.923077,7.923077 -4.37843,0 -7.923077,-3.544647 -7.923077,-7.923077 0,-4.378429 3.544647,-7.923077 7.923077,-7.923077 z"
     id="eye"
     inkscape:connector-curvature="0" />
  <g
     id="g3064"
     transform="matrix(1.2307692,0,0,1.2307778,-3.6923072,-3.6924448)"
     style="fill:#1b90fd;fill-opacity:1">
    <path
       id="path3061"
       d="m 13.25,21.75 -0.84375,0.84375 C 13.503714,22.845247 14.695489,23 16,23 c 9,-1e-6 13,-7 13,-7 0,0 -1.602259,-2.845063 -5.09375,-4.90625 L 21.75,13.25 c 0.04558,0.09451 0.146471,0.152997 0.1875,0.25 0.325951,0.770636 0.5,1.610631 0.5,2.5 0,0.889369 -0.174049,1.729364 -0.5,2.5 -0.325951,0.770636 -0.79217,1.47967 -1.375,2.0625 -0.58283,0.58283 -1.291864,1.049049 -2.0625,1.375 -0.770636,0.325951 -1.610631,0.5 -2.5,0.5 -0.889369,0 -1.729364,-0.174049 -2.5,-0.5 -0.097,-0.04103 -0.155494,-0.141923 -0.25,-0.1875 z"
       style="fill:#1b90fd;stroke:none;fill-opacity:1"
       inkscape:connector-curvature="0" />
    <path
       id="path3055"
       d="m 10.25,18.75 c -0.04558,-0.09451 -0.146471,-0.152997 -0.1875,-0.25 -0.3259514,-0.770636 -0.5,-1.610631 -0.5,-2.5 0,-0.889369 0.1740486,-1.729364 0.5,-2.5 0.325951,-0.770636 0.79217,-1.47967 1.375,-2.0625 0.58283,-0.58283 1.291864,-1.049049 2.0625,-1.375 0.770636,-0.3259514 1.610631,-0.5 2.5,-0.5 0.889369,0 1.729364,0.1740486 2.5,0.5 0.097,0.04103 0.155494,0.141923 0.25,0.1875 L 19.59375,9.40625 C 18.496286,9.1547535 17.304511,9 16,9 7,9 3,16 3,16 c 0,0 1.6022593,2.845064 5.09375,4.90625 L 10.25,18.75 z"
       style="fill:#1b90fd;stroke:none;fill-opacity:1"
       inkscape:connector-curvature="0" />
    <path
       id="path3053"
       d="m 24,7 -4.03125,4.03125 -8.9375,8.9375 L 7,24 l 1,1 4.03125,-4.03125 8.9375,-8.9375 L 25,8 24,7 z"
       style="fill:#1b90fd;stroke:none;fill-opacity:1"
       inkscape:connector-curvature="0" />
  </g>
  <path
     sodipodi:type="arc"
     style="color:#000000;fill:#1b90fd;fill-opacity:1;fill-rule:nonzero;stroke:none;stroke-width:2;marker:none;visibility:visible;display:inline;overflow:visible;enable-background:accumulate"
     id="path3071"
     sodipodi:cx="11.25"
     sodipodi:cy="33.875"
     sodipodi:rx="3.4375"
     sodipodi:ry="3.4375"
     d="m 14.6875,33.875 a 3.4375,3.4375 0 1 1 -6.875,0 3.4375,3.4375 0 1 1 6.875,0 z"
     transform="matrix(1.1636364,0,0,1.1636364,2.9090905,8.5818165)" />
  <path
     style="color:#000000;fill:#1b90fd;fill-opacity:1;fill-rule:nonzero;stroke:none;stroke-width:2;marker:none;visibility:visible;display:inline;overflow:visible;enable-background:accumulate"
     d="m 16,12 c -2.209139,0 -4,1.790861 -4,4 0,0.323086 0.05268,0.6241 0.125,0.925 l 4.8,-4.8 C 16.6241,12.052684 16.323086,12 16,12 z m 3.875,3.05 -4.8,4.825 C 15.3759,19.947316 15.676914,20 16,20 c 2.209139,0 4,-1.790861 4,-4 0,-0.331371 -0.04904,-0.642084 -0.125,-0.95 z"
     id="path3071-4"
     inkscape:connector-curvature="0" />
</svg>
