<?xml version="1.0" encoding="UTF-8" standalone="no"?>
<svg
   xmlns:dc="http://purl.org/dc/elements/1.1/"
   xmlns:cc="http://creativecommons.org/ns#"
   xmlns:rdf="http://www.w3.org/1999/02/22-rdf-syntax-ns#"
   xmlns:svg="http://www.w3.org/2000/svg"
   xmlns="http://www.w3.org/2000/svg"
   xmlns:sodipodi="http://sodipodi.sourceforge.net/DTD/sodipodi-0.dtd"
   xmlns:inkscape="http://www.inkscape.org/namespaces/inkscape"
   version="1.1"
   viewBox="0 0 32 32"
   id="svg2"
   inkscape:version="0.48.4 r9939"
   width="100%"
   height="100%"
   sodipodi:docname="file_generic.svg">
  <defs
     id="defs16" />
  <sodipodi:namedview
     pagecolor="#ffffff"
     bordercolor="#666666"
     borderopacity="1"
     objecttolerance="10"
     gridtolerance="10"
     guidetolerance="10"
     inkscape:pageopacity="0"
     inkscape:pageshadow="2"
     inkscape:window-width="640"
     inkscape:window-height="480"
     id="namedview14"
     showgrid="false"
     inkscape:snap-center="true"
     inkscape:snap-object-midpoints="true"
     inkscape:snap-bbox="true"
     inkscape:bbox-paths="true"
     inkscape:bbox-nodes="true"
     inkscape:snap-bbox-edge-midpoints="true"
     inkscape:snap-bbox-midpoints="true"
     inkscape:snap-page="true"
     inkscape:object-paths="true"
     inkscape:snap-intersection-paths="true"
     inkscape:object-nodes="true"
     inkscape:snap-smooth-nodes="true"
     inkscape:snap-midpoints="true"
     inkscape:zoom="12.574951"
     inkscape:cx="3.406385"
     inkscape:cy="11.083966"
     inkscape:current-layer="svg2" />
  <metadata
     id="metadata4">
    <rdf:RDF>
      <cc:Work
         rdf:about="">
        <dc:format>image/svg+xml</dc:format>
        <dc:type
           rdf:resource="http://purl.org/dc/dcmitype/StillImage" />
        <dc:title />
      </cc:Work>
    </rdf:RDF>
  </metadata>
  <desc
     id="desc6" />
  <g
     id="Page-1"
     style="fill:#1b90fd;stroke:none;fill-opacity:1"
     transform="translate(-0.5,-0.5)">
    <g
       id="icon-74-document-file-jpg"
       style="fill:#1b90fd;fill-opacity:1">
      <path
         id="document-file-jpg"
         d="m 21,26 0,2.002578 C 21,29.109075 20.105724,30 19.002578,30 L 3.9974219,30 C 2.8909254,30 2,29.101288 2,27.99267 L 2,5.0073299 C 2,3.8983383 2.8992496,3 4.0085302,3 L 14,3 14,9.0018986 C 14,10.113294 14.898081,11 16.005919,11 L 21,11 l 0,2 -8.993152,0 C 10.346212,13 9,14.342264 9,15.998786 l 0,7.002428 C 9,24.657398 10.335992,26 12.006848,26 L 21,26 21,26 z M 15,3 15,8.9970707 C 15,9.5509732 15.450975,10 15.990778,10 L 21,10 15,3 15,3 z M 11.994562,14 C 10.892996,14 10,14.900176 10,15.992017 l 0,7.015966 C 10,24.108144 10.902344,25 11.994562,25 l 17.010876,0 C 30.107004,25 31,24.099824 31,23.007983 l 0,-7.015966 C 31,14.891856 30.097656,14 29.005438,14 l -17.010876,0 0,0 z M 12,20 12,20.994081 C 12,22.101919 12.8939,23 14.004882,23 l 0.990237,0 C 16.102384,23 17,22.113445 17,20.994081 L 17,16 l -1,0 0,5.009222 C 16,21.549025 15.552752,22 15.001043,22 l -1.002086,0 C 13.44266,22 13,21.552285 13,21 l 0,-1 -1,0 0,0 z m 6,-2 0,5 1,0 0,-3 1.995118,0 C 22.102384,20 23,19.11227 23,18 23,16.89543 22.1061,16 20.995118,16 L 18,16 l 0,2 0,0 z m 1,-1 0,2 2.001043,0 C 21.552752,19 22,18.556135 22,18 22,17.447715 21.55734,17 21.001043,17 L 19,17 l 0,0 z m 9,3 0,2 -2.000193,0 C 25.443717,22 25,21.552371 25,21.000192 l 0,-3.000385 C 25,17.443717 25.447629,17 25.999807,17 L 29,17 29,16 26.004881,16 C 24.897616,16 24,16.886555 24,18.005919 l 0,2.988162 C 24,22.101919 24.8939,23 26.004881,23 L 29,23 l 0,-0.75 0,0 0,-2.25 0,-1 -3,0 0,1 2,0 0,0 z"
         inkscape:connector-curvature="0"
         style="fill:#1b90fd;fill-opacity:1" />
    </g>
  </g>
</svg>
