<?xml version="1.0" encoding="UTF-8" standalone="no"?>
<svg
   xmlns:dc="http://purl.org/dc/elements/1.1/"
   xmlns:cc="http://creativecommons.org/ns#"
   xmlns:rdf="http://www.w3.org/1999/02/22-rdf-syntax-ns#"
   xmlns:svg="http://www.w3.org/2000/svg"
   xmlns="http://www.w3.org/2000/svg"
   xmlns:sodipodi="http://sodipodi.sourceforge.net/DTD/sodipodi-0.dtd"
   xmlns:inkscape="http://www.inkscape.org/namespaces/inkscape"
   height="64"
   version="1.1"
   viewBox="0 0 32 64"
   width="32"
   id="svg2"
   inkscape:version="0.48.4 r9939"
   sodipodi:docname="lock.svg">
  <metadata
     id="metadata15">
    <rdf:RDF>
      <cc:Work
         rdf:about="">
        <dc:format>image/svg+xml</dc:format>
        <dc:type
           rdf:resource="http://purl.org/dc/dcmitype/StillImage" />
      </cc:Work>
    </rdf:RDF>
  </metadata>
  <sodipodi:namedview
     pagecolor="#ffffff"
     bordercolor="#666666"
     borderopacity="1"
     objecttolerance="10"
     gridtolerance="10"
     guidetolerance="10"
     inkscape:pageopacity="0"
     inkscape:pageshadow="2"
     inkscape:window-width="640"
     inkscape:window-height="480"
     id="namedview13"
     showgrid="false"
     inkscape:snap-bbox="true"
     inkscape:bbox-paths="true"
     inkscape:bbox-nodes="true"
     inkscape:snap-bbox-edge-midpoints="true"
     inkscape:snap-bbox-midpoints="true"
     inkscape:snap-object-midpoints="true"
     inkscape:snap-center="true"
     inkscape:zoom="8.8918333"
     inkscape:cx="16.034424"
     inkscape:cy="20.216241"
     inkscape:current-layer="svg2" />
  <title
     id="title4" />
  <desc
     id="desc6" />
  <defs
     id="defs8" />
  <path
     style="fill:#1b90fd;fill-rule:evenodd;stroke:none;fill-opacity:1"
     d="m 19.407396,55.414647 0,2.594348 c 0,0.271174 0.231934,0.491005 0.5,0.491005 0.276142,0 0.5,-0.227881 0.5,-0.491005 l 0,-2.594348 c 0.582596,-0.205918 1,-0.761538 1,-1.414647 0,-0.828427 -0.671573,-1.5 -1.5,-1.5 -0.828427,0 -1.5,0.671573 -1.5,1.5 0,0.653109 0.417404,1.208729 1,1.414647 l 0,0 z m -7,-7.914634 0,-3.500778 c 0,-4.14253 3.357864,-7.499235 7.5,-7.499235 4.133707,0 7.5,3.357522 7.5,7.499235 l 0,3.500778 c 1.659147,0.0047 3,1.350304 3,3.009465 l 0,9.981044 c 0,1.672847 -1.34708,3.009478 -3.008788,3.009478 l -14.982424,0 c -1.663197,0 -3.0087872,-1.347389 -3.0087872,-3.009478 l 0,-9.981044 c 0,-1.669897 1.3423332,-3.004763 2.9999992,-3.009465 l 0,0 0,0 z m 3,-1.3e-5 0,-3.499146 c 0,-2.491606 2.014719,-4.500854 4.5,-4.500854 2.480224,0 4.5,2.015101 4.5,4.500854 l 0,3.499146 -9,0 0,0 0,0 z"
     id="lock"
     inkscape:connector-curvature="0" />
  <g
     id="Page-1"
     style="fill:none;stroke:none"
     transform="translate(-0.59260356,-0.5)">
    <g
       id="icon-115-lock-open"
       style="fill:#1b90fd;fill-opacity:1">
      <path
         id="lock-open"
         d="m 20,23.914647 0,2.594348 C 20,26.780169 20.231934,27 20.5,27 20.776142,27 21,26.772119 21,26.508995 l 0,-2.594348 C 21.582596,23.708729 22,23.153109 22,22.5 22,21.671573 21.328427,21 20.5,21 19.671573,21 19,21.671573 19,22.5 c 0,0.653109 0.417404,1.208729 1,1.414647 l 0,0 0,0 z M 13,8.4999175 C 13,6.0146817 10.980224,4 8.5,4 6.0147186,4 4,6.0168811 4,8.4999175 L 4,10 4,12.499167 C 4,13.321455 3.3284271,14 2.5,14 1.6657972,14 1,13.328054 1,12.499167 L 1,10 1,8.499235 C 1,4.3567048 4.3578644,1 8.5,1 12.633707,1 16,4.3575219 16,8.499235 L 16,16 27.991212,16 C 29.65441,16 31,17.347389 31,19.009478 l 0,9.981044 C 31,30.663369 29.65292,32 27.991212,32 L 13.008788,32 C 11.34559,32 10,30.652611 10,28.990522 l 0,-9.981044 c 0,-1.669897 1.342334,-3.004763 3,-3.009466 l 0,-7.5000945 0,0 z"
         inkscape:connector-curvature="0"
         style="fill:#1b90fd;fill-opacity:1" />
    </g>
  </g>
</svg>
