<?xml version="1.0" encoding="UTF-8"?>
<!DOCTYPE svg PUBLIC "-//W3C//DTD SVG 1.1//EN" "http://www.w3.org/Graphics/SVG/1.1/DTD/svg11.dtd">
<!-- Creator: CorelDRAW X7 -->
<svg xmlns="http://www.w3.org/2000/svg" xml:space="preserve" width="0.666669in" height="0.291173in" version="1.1" style="shape-rendering:geometricPrecision; text-rendering:geometricPrecision; image-rendering:optimizeQuality; fill-rule:evenodd; clip-rule:evenodd"
viewBox="0 0 635 277"
 xmlns:xlink="http://www.w3.org/1999/xlink">
 <defs>
  <style type="text/css">
   <![CDATA[
    .fil3 {fill:none}
    .fil5 {fill:#FEFEFE}
    .fil4 {fill:#373435}
    .fil1 {fill:#FCCE36}
    .fil0 {fill:#FEFEFE;fill-rule:nonzero}
    .fil2 {fill:#F9E396;fill-rule:nonzero}
   ]]>
  </style>
    <clipPath id="id0">
     <path d="M12 0l137 0c6,0 11,5 11,11l0 131c0,6 -5,11 -11,11l-137 0c-6,0 -11,-5 -11,-11l0 -131c0,-6 5,-11 11,-11z"/>
    </clipPath>
 </defs>
 <g id="Layer_x0020_1">
  <metadata id="CorelCorpID_0Corel-Layer"/>
  <g id="_651148768">
   <path class="fil0" d="M0 213l5 0 0 0 0 1 0 44 19 0 0 0 0 0 0 5 0 0 0 0 -24 0 0 0 0 0 0 -49 0 -1 0 0zm62 38l4 2 0 0 0 0c-1,1 -1,2 -2,3 -1,1 -2,2 -3,3l0 0c0,1 -1,2 -2,2 -1,1 -2,1 -3,2l0 0c-1,0 -3,0 -4,1 -1,0 -2,0 -4,0 -3,0 -5,-1 -8,-2 -2,-1 -4,-2 -6,-4 -1,-2 -3,-4 -4,-6 0,-2 -1,-5 -1,-7 0,-3 0,-5 1,-7 1,-2 2,-4 3,-6l0 0c2,-2 4,-4 7,-5 2,-1 5,-2 8,-2 3,0 6,1 9,2 2,1 4,3 6,5l0 0c2,2 3,4 3,6 1,2 1,4 1,7l0 0 0 0 -33 0c0,2 1,4 1,6 1,1 2,3 3,4 2,1 3,2 5,3 1,1 3,1 5,1 2,0 4,0 5,-1 1,0 2,-1 3,-1 0,0 1,-1 2,-1 0,-1 1,-2 2,-2 0,-1 1,-2 2,-3l0 -1 0 1zm0 -10c-1,-1 -1,-2 -1,-3 -1,-1 -1,-2 -2,-3 -1,-1 -1,-1 -2,-2 -1,0 -2,-1 -3,-1 -1,-1 -2,-1 -3,-1 -1,-1 -2,-1 -3,-1 -2,0 -3,0 -5,1 -1,1 -3,1 -4,3l0 0c-1,0 -2,1 -2,3 -1,1 -2,2 -2,4l27 0zm50 -15l0 37 0 0 0 0 -5 0 0 0 0 0 0 -6c-1,1 -2,2 -3,3 -1,1 -2,2 -3,2l0 0c-1,1 -3,1 -4,1 -1,1 -3,1 -4,1 -6,0 -10,-2 -14,-6l0 0c-2,-2 -3,-4 -4,-6 -1,-2 -1,-5 -1,-7 0,-3 0,-6 1,-8 1,-2 3,-4 4,-6 2,-2 4,-3 7,-4l0 0c2,-1 4,-2 7,-2 3,0 6,1 8,2l0 0c1,1 2,2 3,3 1,0 2,1 3,2l0 -6 0 0 0 0 5 0 0 0 0 0zm-19 4c-1,0 -2,0 -4,1 -1,0 -2,1 -3,1l0 0c-1,1 -2,2 -3,2 -1,1 -1,2 -2,3 -1,2 -1,3 -2,4 0,1 0,2 0,4 0,1 0,2 0,3 1,2 1,3 2,4 1,1 1,2 2,3 1,1 2,2 3,2l0 0c1,1 2,1 4,2 1,0 2,0 3,0 1,0 3,0 4,0 1,-1 2,-1 3,-2l0 0c1,0 2,-1 3,-2l0 0c1,-1 2,-2 2,-3 1,-1 2,-2 2,-3 0,-2 0,-3 0,-4 0,-2 0,-4 -1,-6l0 0c0,-2 -1,-3 -3,-5 -1,-1 -3,-2 -4,-3 -2,0 -4,-1 -6,-1zm28 -4l5 0 0 0 0 0 0 5c0,-1 1,-2 2,-2 0,-1 1,-2 2,-2l0 0c1,-1 2,-1 2,-1 1,-1 2,-1 3,-1 1,0 3,1 4,2l0 0 0 0 -2 4 0 0 0 0c-1,0 -1,0 -2,-1 0,0 0,0 -1,0 -1,0 -1,0 -2,1l0 0c-1,0 -1,1 -2,1 -1,1 -1,2 -2,3 -1,1 -1,2 -1,3 -1,1 -1,3 -1,5 0,2 0,4 0,7l0 13 0 0 0 0 -5 0 -1 0 0 0 0 -37 0 0 1 0zm22 0l5 0 0 0 0 0 0 6c1,-1 2,-2 3,-3 1,0 2,-1 3,-2l0 0c1,0 2,-1 4,-1 1,-1 2,-1 3,-1 2,0 3,0 4,1l0 0c2,0 3,1 4,1 1,1 2,2 3,3 0,1 1,2 2,3 0,1 1,3 1,5l0 0c0,1 0,4 0,6l0 19 0 0 0 0 -5 0 0 0 0 0 0 -18c0,-2 0,-3 0,-5 0,-1 0,-2 -1,-3l0 0c0,-1 0,-2 -1,-3l0 0c0,-1 -1,-2 -2,-2l0 0c0,-1 -1,-1 -2,-1 -1,-1 -2,-1 -3,-1 -2,0 -3,0 -4,1 -2,0 -3,1 -4,2l0 0c-1,1 -2,2 -3,3l0 0c0,1 -1,2 -1,4l0 0c-1,1 -1,2 -1,3 0,2 0,4 0,6l0 14 0 0 0 0 -5 0 0 0 0 0 0 -37 0 0 0 0zm44 -15c0,0 1,0 1,1 1,0 1,0 1,0l0 0c1,1 1,1 1,2 1,0 1,1 1,1 0,1 -1,2 -2,3l0 0c0,1 0,1 -1,1 0,0 -1,0 -1,0 -1,0 -2,0 -2,0l0 0c-1,0 -1,0 -1,-1 -1,0 -1,-1 -1,-1 0,-1 -1,-1 -1,-2 0,-1 1,-2 2,-3l0 0c0,0 0,0 1,0 0,-1 1,-1 2,-1zm-3 15l5 0 0 0 0 0 0 37 0 0 0 0 -5 0 0 0 0 0 0 -37 0 0 0 0zm15 0l4 0 1 0 0 0 0 6c0,-1 1,-2 2,-3 1,0 2,-1 3,-2l0 0c2,0 3,-1 4,-1 1,-1 3,-1 4,-1 1,0 3,0 4,1l0 0c1,0 2,1 3,1 1,1 2,2 3,3 1,1 2,2 2,3 1,1 1,3 1,5l0 0c1,1 1,4 1,6l0 19 0 0 -1 0 -4 0 0 0 0 0 0 -18c0,-2 -1,-3 -1,-5 0,-1 0,-2 0,-3l0 0c0,-1 -1,-2 -1,-3l0 0c-1,-1 -1,-2 -2,-2l0 0c-1,-1 -2,-1 -3,-1 -1,-1 -2,-1 -3,-1 -1,0 -3,0 -4,1 -1,0 -2,1 -3,2l0 0c-2,1 -2,2 -3,3l0 0c-1,1 -1,2 -2,4l0 0c0,1 0,2 0,3 0,2 0,4 0,6l0 14 0 0 -1 0 -4 0 -1 0 0 0 0 -37 0 0 1 0zm73 0l5 0 0 0 0 0 0 29c0,3 0,5 -1,7 0,2 0,3 -1,5 0,1 -1,3 -2,4 -1,1 -3,3 -4,3 -2,1 -3,2 -5,3 -2,0 -4,0 -6,0 -2,0 -3,0 -5,0 -1,0 -2,-1 -4,-1l0 0c-1,-1 -2,-1 -3,-2 -1,0 -2,-1 -3,-2 -1,0 -1,-1 -2,-3 -1,-1 -1,-2 -2,-3l0 -1 0 0 5 0 0 0 0 0c1,2 2,3 3,4 1,0 2,1 3,2l0 0c1,0 2,1 3,1 2,0 3,0 5,0 1,0 3,0 4,0 1,0 3,-1 4,-1 1,-1 2,-2 2,-2 1,-1 2,-2 2,-3 1,-1 1,-2 1,-3 0,-2 1,-3 1,-5l0 -1c-1,0 -2,1 -3,2 -1,1 -2,2 -4,2 -1,1 -2,1 -3,2 -2,0 -3,0 -5,0 -1,0 -3,0 -5,-1 -1,0 -3,-1 -4,-1 -2,-1 -3,-2 -4,-3 -1,-2 -2,-3 -3,-4l0 0c-1,-2 -2,-3 -2,-5 0,-1 -1,-3 -1,-5 0,-1 1,-3 1,-5l0 0c0,-1 1,-3 2,-4 1,-2 2,-3 3,-4 1,-1 2,-2 4,-3 1,-1 3,-2 5,-2l0 0c1,-1 3,-1 4,-1 2,0 3,0 4,1 2,0 3,0 4,1 1,1 3,1 4,2 1,1 2,2 3,3l0 -6 0 0 0 0zm-14 4c-1,0 -3,0 -4,1 -1,0 -2,1 -3,1 -2,1 -4,3 -5,5 -1,2 -2,3 -2,4 0,1 0,2 0,4 0,2 0,3 1,5 0,2 1,3 3,4 1,2 2,3 4,3 2,1 4,1 6,1 2,0 4,0 5,-1 2,0 4,-1 5,-3 1,-1 2,-2 3,-4 0,-2 1,-4 1,-6 0,-1 0,-2 -1,-3 0,-2 0,-3 -1,-4 -1,-1 -1,-2 -2,-3 -1,-1 -2,-1 -3,-2 -1,0 -2,-1 -3,-1 -2,-1 -3,-1 -4,-1zm69 -17l23 50 0 0 -1 0 -5 0 0 0 0 0 -8 -16 -21 0 -7 16 0 0 -1 0 -5 0 0 0 0 0 23 -50 0 0 0 0 1 0 1 0 0 0zm-1 11l-8 18 16 0 -8 -18zm30 2l5 0 0 0 0 0 0 6c1,-1 2,-2 3,-3 1,0 2,-1 3,-2l0 0c1,0 2,-1 4,-1 1,-1 2,-1 4,-1 1,0 2,0 3,1l0 0c2,0 3,1 4,1 1,1 2,2 3,3 1,1 1,2 2,3 0,1 1,3 1,5l0 0c0,1 0,4 0,6l0 19 0 0 0 0 -5 0 0 0 0 0 0 -18c0,-2 0,-3 0,-5 0,-1 0,-2 0,-3l0 0c-1,-1 -1,-2 -2,-3l0 0c0,-1 -1,-2 -2,-2 0,-1 -1,-1 -2,-1 -1,-1 -2,-1 -3,-1 -2,0 -3,0 -4,1 -2,0 -3,1 -4,2l0 0c-1,1 -2,2 -3,3l0 0c0,1 -1,2 -1,4l0 0c0,1 -1,2 -1,3 0,2 0,4 0,6l0 14 0 0 0 0 -5 0 0 0 0 0 0 -37 0 0 0 0zm38 0l5 0 0 0 0 0 12 28 12 -28 1 0 0 0 5 0 0 0 0 1 -22 49 0 0 0 0 -5 0 0 0 0 0 7 -16 -15 -33 0 -1 0 0zm36 0l5 0 0 0 0 0 11 26 11 -26 0 0 0 0 1 0 0 0 0 0 12 26 11 -26 0 0 0 0 5 0 0 0 0 1 -16 36 0 0 0 0 -1 0 0 0 0 0 -11 -26 -12 26 0 0 0 0 -1 0 0 0 0 0 -15 -36 -1 -1 1 0zm62 -14l4 0 1 0 0 0 0 20c0,-1 1,-2 2,-2l0 0c1,-1 2,-2 3,-3l0 0c2,0 3,-1 4,-1 1,-1 3,-1 4,-1 1,0 3,0 4,1l0 0c1,0 2,1 3,1 1,1 2,2 3,3 1,1 2,2 2,3l0 0c1,1 1,3 1,5 1,1 1,4 1,6l0 19 0 0 -1 0 -4 0 0 0 0 0 0 -18c0,-2 -1,-3 -1,-5 0,-1 0,-2 0,-3l0 0c0,-1 -1,-2 -1,-3 -1,-1 -1,-2 -2,-2l0 0c-1,-1 -2,-1 -3,-1 -1,-1 -2,-1 -3,-1 -1,0 -3,0 -4,1 -1,0 -2,1 -3,2l0 0c-2,1 -2,2 -3,3 -1,1 -1,2 -2,4 0,1 0,2 0,3 0,2 0,4 0,6l0 14 0 0 -1 0 -4 0 -1 0 0 0 0 -51 0 0 1 0zm72 39l4 2 0 0 0 0c0,1 -1,2 -2,3 -1,1 -1,2 -2,3l0 0c-1,1 -2,2 -3,2 -1,1 -2,1 -3,2l0 0c-1,0 -2,0 -3,1 -2,0 -3,0 -4,0 -3,0 -6,-1 -8,-2 -3,-1 -5,-2 -6,-4 -2,-2 -3,-4 -4,-6 -1,-2 -2,-5 -2,-7 0,-3 1,-5 1,-7 1,-2 2,-4 4,-6l0 0c2,-2 4,-4 6,-5 3,-1 5,-2 8,-2 4,0 6,1 9,2 2,1 5,3 7,5l0 0c1,2 2,4 3,6 0,2 1,4 1,7l0 0 -1 0 -32 0c0,2 0,4 1,6 0,1 1,3 3,4 1,1 2,2 4,3 2,1 3,1 5,1 2,0 4,0 6,-1 0,0 1,-1 2,-1 1,0 1,-1 2,-1 1,-1 1,-2 2,-2 1,-1 1,-2 2,-3l0 -1 0 1zm0 -10c0,-1 -1,-2 -1,-3 -1,-1 -1,-2 -2,-3 0,-1 -1,-1 -2,-2 -1,0 -1,-1 -2,-1 -1,-1 -2,-1 -3,-1 -1,-1 -2,-1 -4,-1 -1,0 -3,0 -4,1 -2,1 -3,1 -5,3l0 0c-1,0 -1,1 -2,3 -1,1 -1,2 -2,4l27 0zm12 -15l5 0 0 0 0 0 0 5c1,-1 1,-2 2,-2 1,-1 2,-2 2,-2l0 0c1,-1 2,-1 3,-1 1,-1 2,-1 2,-1 2,0 3,1 5,2l0 0 0 0 -3 4 0 0 0 0c0,0 -1,0 -1,-1 -1,0 -1,0 -1,0 -1,0 -2,0 -3,1l0 0c0,0 -1,1 -2,1 0,1 -1,2 -2,3 0,1 -1,2 -1,3 0,1 0,3 -1,5 0,2 0,4 0,7l0 13 0 0 0 0 -5 0 0 0 0 0 0 -37 0 0 0 0zm53 25l4 2 1 0 -1 0c0,1 -1,2 -2,3 0,1 -1,2 -2,3l0 0c-1,1 -2,2 -3,2 -1,1 -2,1 -3,2l0 0c-1,0 -2,0 -3,1 -2,0 -3,0 -4,0 -3,0 -6,-1 -8,-2 -3,-1 -5,-2 -6,-4 -2,-2 -3,-4 -4,-6 -1,-2 -1,-5 -1,-7 0,-3 0,-5 1,-7 0,-2 1,-4 3,-6l0 0c2,-2 4,-4 6,-5 3,-1 5,-2 9,-2 3,0 6,1 8,2 3,1 5,3 7,5l0 0c1,2 2,4 3,6 0,2 1,4 1,7l0 0 -1 0 -32 0c0,2 0,4 1,6 1,1 2,3 3,4 1,1 3,2 4,3 2,1 3,1 5,1 2,0 4,0 6,-1 1,0 1,-1 2,-1 1,0 2,-1 2,-1 1,-1 1,-2 2,-2 1,-1 1,-2 2,-3l0 -1 0 1zm0 -10c0,-1 -1,-2 -1,-3 0,-1 -1,-2 -2,-3 0,-1 -1,-1 -2,-2 0,0 -1,-1 -2,-1 -1,-1 -2,-1 -3,-1 -1,-1 -2,-1 -3,-1 -2,0 -4,0 -5,1 -2,1 -3,1 -4,3l0 0c-1,0 -2,1 -3,3 -1,1 -1,2 -2,4l27 0z"/>
   <path class="fil1" d="M12 0l137 0c6,0 11,5 11,11l0 131c0,6 -5,11 -11,11l-137 0c-6,0 -11,-5 -11,-11l0 -131c0,-6 5,-11 11,-11z"/>
   <g style="clip-path:url(#id0)">
    <g>
     <g>
      <path id="1" class="fil2" d="M103 109c-3,-7 -5,-14 -7,-21 -4,-11 -8,-22 -12,-34 -2,-6 -4,-13 -6,-19 -1,-1 -1,-3 0,-3 8,-10 16,-19 24,-29 1,0 1,0 1,0 0,35 0,71 0,106 0,0 0,0 0,0z"/>
      <path class="fil2" d="M4 118c21,-25 43,-50 64,-75 0,0 1,0 1,0 -1,1 -1,2 -1,3 -3,8 -6,15 -9,23 -3,9 -6,18 -9,27 -2,6 -4,11 -6,17 0,1 0,1 1,1 1,0 1,0 2,0 17,0 34,0 51,0 1,0 2,0 2,0 3,0 3,0 3,3 0,8 0,16 0,24 0,3 0,7 0,10 0,2 0,3 -2,2 -6,-2 -12,-4 -18,-6 -7,-3 -13,-5 -20,-8 -9,-3 -18,-6 -27,-10 -8,-2 -16,-5 -24,-8 -3,-1 -5,-2 -8,-3z"/>
     </g>
    </g>
   </g>
   <path class="fil3" d="M12 0l137 0c6,0 11,5 11,11l0 131c0,6 -5,11 -11,11l-137 0c-6,0 -11,-5 -11,-11l0 -131c0,-6 5,-11 11,-11z"/>
   <path class="fil4" d="M140 128l8 4 0 0 0 0c-1,2 -3,4 -4,6 -2,2 -3,4 -5,5l0 0c-1,2 -3,3 -5,4 -1,1 -3,2 -5,3l0 0c-2,1 -4,1 -7,2 -2,0 -4,0 -7,0 -5,0 -10,-1 -15,-2 -4,-2 -8,-5 -11,-9 -3,-3 -5,-7 -7,-11 -1,-4 -2,-9 -2,-13 0,-4 1,-9 2,-12 1,-4 3,-8 6,-11l0 0c3,-4 7,-8 12,-10 4,-2 9,-3 15,-3 6,0 11,1 15,3 5,3 9,6 13,10l0 0c2,3 4,7 5,11 1,3 2,8 2,12l0 1 0 0 -61 0c0,3 1,7 2,10 1,3 3,6 6,8 2,3 5,5 8,6 3,1 6,2 9,2 2,0 4,0 6,-1 1,0 3,0 4,-1 2,-1 4,-1 5,-2 1,-1 3,-2 4,-3 1,-1 2,-2 3,-4 1,-1 3,-3 4,-5l0 0 0 0zm0 -18c-1,-3 -1,-5 -2,-6 -1,-2 -2,-4 -3,-5l0 0c-1,-1 -2,-3 -4,-4 -1,-1 -3,-2 -5,-3 -1,-1 -3,-1 -5,-2 -2,0 -4,0 -6,0 -3,0 -6,0 -9,1 -3,1 -6,3 -8,5l0 0c-2,2 -3,4 -5,6 -1,2 -2,5 -3,8l50 0z"/>
   <path class="fil5" d="M139 127l8 4 0 0 0 0c-1,2 -3,4 -4,6 -1,2 -3,4 -5,5l0 0c-1,2 -3,3 -5,4 -1,1 -3,2 -5,3l0 0c-2,1 -4,1 -7,2 -2,0 -4,0 -7,0 -5,0 -10,-1 -15,-3 -4,-1 -8,-4 -11,-8 -3,-3 -5,-7 -7,-11 -1,-4 -2,-9 -2,-13 0,-5 1,-9 2,-12 1,-4 3,-8 6,-11l0 0c3,-4 7,-8 12,-10 4,-2 9,-3 15,-3 6,0 11,1 15,3 5,2 9,6 13,10l0 0c2,3 4,7 5,11 1,3 2,8 2,12l0 0 0 0 -61 0c0,4 1,8 2,11 1,3 3,6 6,8 2,3 5,5 8,6 3,1 6,2 10,2 1,0 3,-1 5,-1 1,0 3,-1 4,-1 2,-1 4,-1 5,-2 1,-1 3,-2 4,-3 1,-1 2,-2 3,-4 1,-1 3,-3 4,-5l0 0 0 0zm0 -18c-1,-3 -1,-5 -2,-6 -1,-2 -2,-4 -3,-5l0 0c-1,-2 -2,-3 -4,-4 -1,-1 -3,-2 -5,-3 -1,-1 -3,-1 -5,-2 -2,0 -4,0 -6,0 -3,0 -6,0 -9,1 -3,1 -6,3 -8,5l0 0c-2,2 -3,3 -5,6 -1,2 -2,5 -3,8l50 0z"/>
   <path class="fil0" d="M245 41l52 112 1 1 -2 0 -12 0 0 0 -1 -1 -17 -36 -47 0 -17 36 0 1 -1 0 -12 0 -2 0 1 -2 53 -111 0 0 0 0 3 0 1 0 0 0zm-2 26l-18 38 35 0 -17 -38zm67 -29l11 0 1 0 0 1 0 114 0 1 -1 0 -11 0 -1 0 0 -1 0 -114 0 -1 1 0zm33 32l10 0 1 0 0 1 0 12c2,-2 4,-4 5,-5 3,-3 5,-4 8,-6l0 0c3,-1 6,-2 9,-3 3,-1 6,-1 10,-1 6,0 11,1 17,3l0 0c5,2 9,5 14,10 4,4 7,9 9,14 2,5 3,11 3,17 0,6 -1,11 -3,17 -2,5 -5,10 -9,14l0 0c-5,4 -9,8 -14,10 -5,2 -11,3 -17,3 -3,0 -6,0 -9,-1 -4,-1 -6,-2 -9,-3l0 0c-3,-2 -6,-3 -8,-5 -2,-2 -4,-4 -6,-6l0 42 0 1 -1 0 -10 0 -1 0 0 -1 0 -112 0 -1 1 0zm42 10c-4,0 -8,1 -12,2 -4,2 -7,4 -10,7 -3,3 -6,7 -7,11 -2,3 -2,8 -2,12 0,3 0,6 1,9 0,3 1,5 3,8l0 0c1,2 3,4 5,6 2,2 4,4 6,5l0 0c3,1 5,2 8,3 3,1 5,1 8,1 3,0 6,0 8,-1 3,-1 5,-2 8,-3l0 0c2,-1 4,-3 6,-5 2,-2 4,-4 5,-7 2,-3 3,-5 4,-8 0,-3 1,-5 1,-8 0,-6 -2,-11 -5,-16 -1,-3 -3,-5 -5,-7 -2,-2 -4,-4 -6,-5l0 0c-3,-1 -5,-2 -8,-3 -2,-1 -5,-1 -8,-1zm63 -42l11 0 1 0 0 1 0 44c1,-2 3,-4 5,-6 2,-2 5,-4 7,-5l0 0c3,-1 6,-3 9,-3 3,-1 6,-1 9,-1 3,0 6,0 9,1 2,1 5,2 8,4 2,1 4,3 6,5 2,2 3,5 5,8l0 0c1,2 2,6 2,10 1,4 1,9 1,15l0 42 0 1 -1 0 -10 0 -1 0 0 -1 0 -39c0,-5 -1,-9 -1,-12 0,-3 0,-5 -1,-7l0 0c0,-3 -1,-5 -2,-7 -1,-2 -3,-3 -4,-5l0 0c-2,-1 -4,-2 -6,-3 -2,0 -5,-1 -7,-1 -4,0 -6,1 -9,2 -3,1 -6,2 -8,5l0 0c-3,2 -5,4 -6,6 -2,3 -3,6 -4,9l0 0c0,2 -1,4 -1,8 0,4 0,8 0,14l0 30 0 1 -1 0 -11 0 -1 0 0 -1 0 -114 0 -1 1 0zm178 33l0 82 0 1 -1 0 -11 0 -1 0 0 -1 0 -12c-2,2 -4,4 -5,6 -3,2 -6,3 -8,5l0 0c-3,1 -6,2 -9,3 -3,1 -7,1 -10,1 -6,0 -11,-1 -16,-3 -6,-2 -10,-6 -14,-10l0 0c-5,-4 -8,-9 -10,-14 -2,-6 -3,-11 -3,-17 0,-12 4,-23 13,-31 4,-5 9,-8 14,-10l0 0c5,-2 10,-3 16,-3 4,0 7,0 10,1 3,1 6,2 9,3l0 0c3,2 6,3 8,6 2,1 3,3 5,5l0 -12 0 -1 1 0 11 0 1 0 0 1zm-44 9c-3,0 -5,0 -8,1 -3,1 -5,2 -8,3l0 0c-2,1 -4,3 -6,5 -2,2 -4,4 -5,7 -2,2 -3,5 -3,8 -1,2 -1,5 -1,8 0,3 0,5 1,8 0,3 1,5 3,8l0 0c1,3 3,5 5,7 2,2 4,4 6,5l0 0c3,1 5,2 8,3 3,1 5,1 8,1 3,0 6,0 8,-1 3,-1 6,-2 8,-3l0 0c3,-1 5,-3 7,-5 2,-2 3,-4 5,-6l0 0c1,-3 2,-5 3,-8 0,-3 1,-6 1,-9 0,-4 -1,-9 -3,-12 -1,-4 -3,-8 -6,-11 -3,-3 -7,-5 -11,-7 -3,-1 -7,-2 -12,-2z"/>
  </g>
 </g>
</svg>
