<?xml version="1.0" encoding="utf-8"?>
<!-- Generator: Adobe Illustrator 22.1.0, SVG Export Plug-In . SVG Version: 6.00 Build 0)  -->
<svg version="1.1" id="Layer_1" xmlns="http://www.w3.org/2000/svg" xmlns:xlink="http://www.w3.org/1999/xlink" x="0px" y="0px"
	 viewBox="0 0 24 24" style="enable-background:new 0 0 24 24;" xml:space="preserve">
<style type="text/css">
	.st0{fill:#FFFFFF;fill-opacity:0;}
</style>
<g transform="matrix( 1, 0, 0, 1, 0,0) ">
	<g>
		<g id="Layer1_0_FILL">
			<path class="st0" d="M0,0v24h24V0H0z"/>
		</g>
	</g>
</g>
<g transform="matrix( 1, 0, 0, 1, 0,0) ">
	<g>
		<g id="Layer0_0_FILL">
			<path d="M23,6c0-0.5-0.2-1-0.6-1.4C22,4.2,21.6,4,21,4h-2v2h2v14H3V6h1.9V4H3c-0.5,0-1,0.2-1.4,0.6C1.2,5,1,5.5,1,6v14
				c0,0.6,0.2,1.1,0.5,1.5C2,21.8,2.4,22,3,22h18c0.6,0,1-0.2,1.4-0.5c0.4-0.4,0.6-0.9,0.6-1.5V6z"/>
		</g>
	</g>
</g>
<g transform="matrix( 0.77490234375, 0, 0, 0.77490234375, 2.6,1.5) ">
	<g>
		<g id="Layer0_1_FILL">
			<path d="M5.3,7.8C4.5,9.1,4.1,10.5,4.1,12c0,2.2,0.8,4.1,2.4,5.7C8,19.2,9.9,20,12.1,20v3l4-4l-4-4v3c-1.7,0-3.1-0.6-4.3-1.8
				c-1.2-1.2-1.8-2.6-1.8-4.3c0-0.9,0.2-1.9,0.7-2.8L5.3,7.8 M17.8,6.4C16.2,4.8,14.3,4,12.1,4V1l-4,4l4,4V6c1.7,0,3.1,0.6,4.3,1.8
				c1.2,1.2,1.8,2.6,1.8,4.3c0,1.1-0.3,2-0.8,2.9l1.5,1.4c0.8-1.4,1.3-2.8,1.3-4.3C20.1,9.8,19.3,7.9,17.8,6.4z"/>
		</g>
	</g>
</g>
</svg>
