
<svg xmlns="http://www.w3.org/2000/svg" version="1.1" xmlns:xlink="http://www.w3.org/1999/xlink" preserveAspectRatio="none" x="0px" y="0px" width="24px" height="24px" viewBox="0 0 24 24">
<defs>
<g id="Layer1_0_FILL">
<path fill="#FFFFFF" fill-opacity="0" stroke="none" d="
M 0 0
L 0 24 24 24 24 0 0 0 Z"/>
</g>

<g id="Layer0_0_FILL">
<path fill="#000000" stroke="none" d="
M 22.45 15.35
L 21.45 13.6
Q 21.35 13.4 21.15 13.5
L 19.9 14 19.05 13.5 18.85 12.2
Q 18.85 12 18.6 12
L 16.6 12
Q 16.4 12 16.35 12.2
L 16.15 13.5 15.3 14 14.1 13.5
Q 13.9 13.45 13.75 13.6
L 12.75 15.35
Q 12.65 15.5 12.8 15.6 12.8 15.65 12.85 15.65
L 13.9 16.5 13.85 16.95 13.9 17.45 12.85 18.3
Q 12.65 18.4 12.75 18.6
L 13.75 20.35
Q 13.9 20.5 14.1 20.45
L 15.3 19.95
Q 15.95 20.4 16.15 20.45
L 16.35 21.75
Q 16.4 21.95 16.6 21.95
L 18.6 21.95
Q 18.85 21.95 18.85 21.75
L 19.05 20.45 19.9 19.95 21.15 20.45
Q 21.35 20.55 21.45 20.35
L 22.45 18.6
Q 22.55 18.4 22.4 18.3
L 21.35 17.45 21.35 16.5 22.4 15.65
Q 22.55 15.55 22.45 15.35
M 17.6 18.45
Q 17 18.45 16.55 18 16.1 17.6 16.1 16.95 16.1 16.35 16.55 15.9 16.75 15.7 16.95 15.6 17.25 15.45 17.6 15.45 18 15.45 18.3 15.6 18.5 15.7 18.65 15.9 19.1 16.35 19.1 16.95 19.1 17.6 18.65 18 18.25 18.45 17.6 18.45
M 10.85 14
Q 11.4 12.95 12.25 12
L 2 12 2 14 10.85 14
M 2 16
L 2 18 10.3 18 10.2 17
Q 10.2 16.5 10.25 16
L 2 16
M 19 6
L 19 4 2 4 2 6 19 6
M 18 9.5
L 19 9.6 19 8 2 8 2 10 15.2 10
Q 16.5 9.5 18 9.5 Z"/>
</g>
</defs>

<g transform="matrix( 1, 0, 0, 1, 0,0) ">
<use xlink:href="#Layer1_0_FILL"/>
</g>

<g transform="matrix( 1, 0, 0, 1, 0,0) ">
<use xlink:href="#Layer0_0_FILL"/>
</g>
</svg>
