
<svg xmlns="http://www.w3.org/2000/svg" version="1.1" xmlns:xlink="http://www.w3.org/1999/xlink" preserveAspectRatio="none" x="0px" y="0px" width="24px" height="24px" viewBox="0 0 24 24">
<defs>
<g id="Layer1_0_FILL">
<path fill="#FFFFFF" fill-opacity="0" stroke="none" d="
M 0 0
L 0 24 24 24 24 0 0 0 Z"/>
</g>

<g id="Layer0_0_FILL">
<path fill="#000000" stroke="none" d="
M 21 21
L 21 17 17 17 17 18 7 18 7 15 17 15 17 16 21 16 21 12 17 12 17 13 7 13 7 10 17 10 17 11 21 11 21 7 17 7 17 8 7 8 7 6 8 6 8 2 4 2 4 6 5 6 5 20.05 7 20.05 7 20 17 20 17 21 21 21 Z"/>
</g>
</defs>

<g transform="matrix( 1, 0, 0, 1, 0,0) ">
<use xlink:href="#Layer1_0_FILL"/>
</g>

<g transform="matrix( 1, 0, 0, 1, 0,0) ">
<use xlink:href="#Layer0_0_FILL"/>
</g>
</svg>
