<?xml version="1.0" encoding="utf-8"?>
<!-- Generator: Adobe Illustrator 15.1.0, SVG Export Plug-In . SVG Version: 6.00 Build 0)  -->
<!DOCTYPE svg PUBLIC "-//W3C//DTD SVG 1.1//EN" "http://www.w3.org/Graphics/SVG/1.1/DTD/svg11.dtd">
<svg version="1.1" id="Warstwa_1" xmlns="http://www.w3.org/2000/svg" xmlns:xlink="http://www.w3.org/1999/xlink" x="0px" y="0px"
	 width="248px" height="70px" viewBox="0 0 248 70" enable-background="new 0 0 248 70" xml:space="preserve">
<g id="logo">
	<path fill="#944D9D" d="M50.11,56.582c0,2.568-2.082,4.65-4.65,4.65H9.183c-2.568,0-4.65-2.082-4.65-4.65V20.304
		c0-2.568,2.082-4.65,4.65-4.65H45.46c2.568,0,4.65,2.082,4.65,4.65V56.582z"/>
	<path fill="#944D9D" d="M50.11,56.582c0,2.568-2.082,4.65-4.65,4.65H9.183c-2.568,0-4.65-2.082-4.65-4.65V20.304
		c0-2.568,2.082-4.65,4.65-4.65H45.46c2.568,0,4.65,2.082,4.65,4.65V56.582z"/>
	<g>
		<g>
			<path fill="#FFFFFF" d="M34.071,49.332v6.871c0,1.086-0.246,1.9-0.738,2.441c-0.492,0.543-1.142,0.814-1.949,0.814
				c-0.783,0-1.417-0.271-1.902-0.814c-0.486-0.541-0.729-1.355-0.729-2.441v-8.234c0-1.3-0.045-2.31-0.133-3.029
				c-0.089-0.719-0.328-1.309-0.72-1.77s-1.01-0.691-1.854-0.691c-1.691,0-2.806,0.58-3.342,1.742
				c-0.537,1.16-0.805,2.826-0.805,4.997v6.985c0,1.072-0.243,1.884-0.729,2.433c-0.486,0.55-1.127,0.824-1.922,0.824
				c-0.783,0-1.424-0.274-1.922-0.824c-0.498-0.549-0.748-1.358-0.748-2.433V41.417c0-0.971,0.225-1.709,0.673-2.215
				c0.448-0.504,1.038-0.757,1.771-0.757c0.706,0,1.296,0.237,1.77,0.71c0.473,0.473,0.71,1.127,0.71,1.959v0.492
				c0.896-1.072,1.854-1.861,2.878-2.366c1.021-0.505,2.158-0.757,3.406-0.757c1.301,0,2.418,0.259,3.352,0.775
				c0.934,0.518,1.703,1.301,2.31,2.348c0.87-1.06,1.805-1.846,2.802-2.356c0.996-0.511,2.102-0.767,3.312-0.767
				c1.414,0,2.632,0.277,3.654,0.833c1.021,0.556,1.785,1.351,2.29,2.386c0.442,0.934,0.663,2.403,0.663,4.41v10.09
				c0,1.086-0.246,1.899-0.738,2.442c-0.492,0.543-1.143,0.813-1.95,0.813c-0.782,0-1.423-0.274-1.921-0.824
				c-0.5-0.549-0.748-1.358-0.748-2.433v-8.689c0-1.109-0.047-2-0.143-2.668c-0.094-0.67-0.35-1.231-0.767-1.686
				c-0.417-0.455-1.048-0.682-1.894-0.682c-0.681,0-1.328,0.202-1.939,0.605c-0.613,0.404-1.089,0.947-1.43,1.629
				C34.261,45.583,34.071,47.123,34.071,49.332z"/>
			<path fill="#ffffff" d="M80.19,50.221c0,0.885-0.219,1.84-0.654,2.868c-0.436,1.028-1.119,2.038-2.054,3.028
				s-2.126,1.796-3.577,2.414c-1.452,0.617-3.143,0.928-5.074,0.928c-1.464,0-2.795-0.141-3.994-0.417
				c-1.199-0.276-2.287-0.71-3.266-1.297s-1.877-1.359-2.697-2.318c-0.732-0.87-1.357-1.846-1.875-2.926
				c-0.518-1.078-0.905-2.229-1.164-3.454c-0.259-1.224-0.388-2.523-0.388-3.899c0-2.234,0.325-4.234,0.975-6.002
				c0.649-1.767,1.581-3.277,2.792-4.533c1.212-1.256,2.632-2.212,4.26-2.869c1.628-0.655,3.363-0.984,5.206-0.984
				c2.246,0,4.247,0.449,6.001,1.345s3.098,2.004,4.032,3.322c0.935,1.319,1.401,2.565,1.401,3.739c0,0.644-0.228,1.211-0.682,1.703
				c-0.455,0.492-1.004,0.738-1.646,0.738c-0.721,0-1.26-0.17-1.619-0.511c-0.359-0.341-0.761-0.928-1.202-1.761
				c-0.731-1.375-1.594-2.404-2.584-3.086c-0.991-0.682-2.212-1.021-3.663-1.021c-2.31,0-4.149,0.877-5.519,2.631
				c-1.37,1.754-2.054,4.247-2.054,7.479c0,2.157,0.303,3.953,0.908,5.385c0.605,1.435,1.464,2.502,2.574,3.209
				c1.111,0.707,2.411,1.062,3.9,1.062c1.615,0,2.981-0.4,4.099-1.202c1.116-0.802,1.959-1.979,2.527-3.53
				c0.239-0.731,0.536-1.327,0.89-1.788c0.354-0.462,0.921-0.691,1.703-0.691c0.67,0,1.244,0.232,1.723,0.699
				C79.95,48.947,80.19,49.527,80.19,50.221z"/>
			<path fill="#ffffff" d="M104.231,48.953c0,1.539-0.239,2.959-0.719,4.26c-0.48,1.299-1.174,2.416-2.082,3.352
				c-0.909,0.934-1.994,1.649-3.257,2.147c-1.262,0.498-2.682,0.748-4.259,0.748c-1.565,0-2.973-0.253-4.223-0.758
				c-1.249-0.505-2.331-1.228-3.246-2.167s-1.609-2.051-2.082-3.332c-0.474-1.281-0.71-2.697-0.71-4.25
				c0-1.564,0.239-2.998,0.72-4.297c0.479-1.301,1.166-2.411,2.062-3.332c0.896-0.922,1.981-1.631,3.256-2.13
				s2.682-0.748,4.223-0.748c1.564,0,2.984,0.253,4.259,0.757c1.274,0.506,2.366,1.225,3.275,2.158
				c0.909,0.935,1.6,2.045,2.073,3.332C103.995,45.98,104.231,47.4,104.231,48.953z M99.045,48.953c0-2.107-0.464-3.748-1.392-4.922
				c-0.928-1.174-2.174-1.761-3.738-1.761c-1.01,0-1.9,0.262-2.67,0.786c-0.77,0.523-1.363,1.296-1.779,2.318
				s-0.625,2.215-0.625,3.578c0,1.351,0.205,2.53,0.615,3.54s0.997,1.781,1.761,2.318c0.764,0.537,1.663,0.806,2.698,0.806
				c1.564,0,2.811-0.591,3.738-1.771C98.58,52.664,99.045,51.035,99.045,48.953z"/>
			<path fill="#ffffff" d="M121.724,56.543v-0.662c-0.618,0.782-1.268,1.438-1.949,1.969c-0.681,0.531-1.427,0.926-2.234,1.184
				c-0.808,0.259-1.729,0.389-2.764,0.389c-1.25,0-2.369-0.259-3.36-0.775c-0.991-0.518-1.757-1.23-2.3-2.14
				c-0.644-1.099-0.966-2.676-0.966-4.733V41.532c0-1.034,0.233-1.808,0.7-2.319c0.467-0.511,1.086-0.767,1.855-0.767
				c0.783,0,1.414,0.259,1.894,0.776s0.72,1.287,0.72,2.31v8.272c0,1.198,0.1,2.204,0.303,3.02c0.201,0.814,0.564,1.451,1.088,1.912
				s1.234,0.69,2.13,0.69c0.871,0,1.69-0.259,2.461-0.776c0.77-0.518,1.331-1.191,1.685-2.025c0.291-0.73,0.436-2.334,0.436-4.809
				v-6.284c0-1.022,0.24-1.792,0.72-2.31c0.479-0.518,1.104-0.776,1.873-0.776s1.388,0.256,1.855,0.767
				c0.467,0.512,0.701,1.285,0.701,2.319v14.975c0,0.984-0.225,1.724-0.672,2.216c-0.449,0.491-1.027,0.737-1.732,0.737
				c-0.707,0-1.291-0.256-1.752-0.767C121.954,58.182,121.724,57.465,121.724,56.543z"/>
			<path fill="#ffffff" d="M136.85,52v4.316c0,1.048-0.246,1.832-0.738,2.355c-0.491,0.523-1.116,0.786-1.875,0.786
				c-0.743,0-1.356-0.267-1.836-0.796s-0.719-1.312-0.719-2.348V41.929c0-2.322,0.838-3.483,2.519-3.483
				c0.856,0,1.478,0.271,1.854,0.813c0.377,0.543,0.586,1.345,0.623,2.404c0.619-1.06,1.254-1.861,1.904-2.404
				c0.648-0.542,1.518-0.813,2.602-0.813c1.086,0,2.14,0.271,3.162,0.813c1.021,0.543,1.533,1.263,1.533,2.158
				c0,0.632-0.217,1.152-0.652,1.562c-0.435,0.41-0.906,0.615-1.412,0.615c-0.188,0-0.646-0.117-1.371-0.351
				c-0.727-0.233-1.366-0.351-1.922-0.351c-0.758,0-1.375,0.199-1.854,0.597c-0.479,0.396-0.853,0.987-1.117,1.771
				c-0.264,0.782-0.446,1.713-0.549,2.792S136.85,50.449,136.85,52z"/>
			<path fill="#ffffff" d="M164.375,52.701c0,1.426-0.348,2.646-1.041,3.663c-0.695,1.017-1.721,1.786-3.076,2.31
				c-1.357,0.523-3.008,0.786-4.951,0.786c-1.854,0-3.445-0.284-4.771-0.853c-1.324-0.567-2.304-1.277-2.935-2.131
				c-0.631-0.852-0.947-1.705-0.947-2.563c0-0.567,0.203-1.054,0.607-1.458c0.402-0.404,0.914-0.605,1.533-0.605
				c0.541,0,0.959,0.133,1.248,0.397c0.291,0.265,0.568,0.638,0.834,1.116c0.529,0.922,1.164,1.609,1.902,2.063
				s1.744,0.681,3.02,0.681c1.035,0,1.883-0.229,2.547-0.689c0.662-0.461,0.992-0.986,0.992-1.581c0-0.909-0.344-1.571-1.031-1.987
				c-0.687-0.416-1.82-0.813-3.397-1.192c-1.779-0.441-3.228-0.904-4.345-1.392c-1.117-0.486-2.01-1.127-2.68-1.922
				c-0.668-0.795-1.002-1.773-1.002-2.934c0-1.035,0.309-2.014,0.928-2.936c0.617-0.92,1.529-1.656,2.734-2.205
				s2.66-0.823,4.363-0.823c1.338,0,2.541,0.14,3.607,0.417c1.065,0.277,1.955,0.65,2.67,1.117c0.711,0.467,1.254,0.984,1.627,1.552
				c0.373,0.568,0.559,1.123,0.559,1.665c0,0.594-0.199,1.08-0.596,1.459c-0.398,0.378-0.963,0.567-1.695,0.567
				c-0.529,0-0.98-0.151-1.354-0.454c-0.375-0.303-0.8-0.758-1.277-1.363c-0.391-0.505-0.852-0.908-1.383-1.211
				c-0.529-0.304-1.248-0.455-2.158-0.455c-0.934,0-1.709,0.199-2.328,0.596c-0.617,0.398-0.928,0.894-0.928,1.486
				c0,0.543,0.229,0.988,0.682,1.335c0.455,0.347,1.066,0.634,1.836,0.861s1.83,0.505,3.182,0.833
				c1.603,0.392,2.912,0.857,3.928,1.399c1.017,0.543,1.785,1.185,2.31,1.922C164.113,50.912,164.375,51.754,164.375,52.701z"/>
			<path fill="#ffffff" d="M183.174,50.221h-10.109c0.013,1.174,0.248,2.209,0.709,3.104s1.072,1.571,1.836,2.024
				c0.765,0.455,1.607,0.683,2.527,0.683c0.619,0,1.184-0.072,1.695-0.218c0.511-0.146,1.006-0.373,1.486-0.683
				c0.479-0.31,0.92-0.64,1.324-0.993c0.403-0.353,0.928-0.834,1.571-1.438c0.265-0.228,0.644-0.341,1.136-0.341
				c0.53,0,0.959,0.146,1.287,0.436c0.327,0.29,0.491,0.7,0.491,1.23c0,0.468-0.183,1.013-0.549,1.638
				c-0.365,0.625-0.918,1.226-1.656,1.798c-0.737,0.575-1.666,1.051-2.782,1.43c-1.115,0.379-2.4,0.568-3.853,0.568
				c-3.32,0-5.899-0.947-7.742-2.84c-1.844-1.895-2.765-4.462-2.765-7.705c0-1.525,0.228-2.944,0.683-4.25
				c0.453-1.306,1.115-2.426,1.986-3.36c0.87-0.934,1.942-1.65,3.219-2.148c1.276-0.498,2.688-0.748,4.24-0.748
				c2.021,0,3.752,0.426,5.196,1.278c1.445,0.852,2.527,1.953,3.246,3.304c0.719,1.35,1.08,2.726,1.08,4.127
				c0,1.299-0.373,2.143-1.117,2.527S184.523,50.221,183.174,50.221z M173.064,47.287h9.371c-0.127-1.767-0.604-3.089-1.431-3.967
				c-0.825-0.877-1.916-1.314-3.267-1.314c-1.286,0-2.344,0.444-3.172,1.334C173.742,44.229,173.24,45.544,173.064,47.287z"/>
			<path fill="#ffffff" d="M196.918,52v4.316c0,1.048-0.246,1.832-0.738,2.355s-1.117,0.786-1.875,0.786
				c-0.744,0-1.357-0.267-1.836-0.796c-0.48-0.529-0.719-1.312-0.719-2.348V41.929c0-2.322,0.838-3.483,2.518-3.483
				c0.857,0,1.478,0.271,1.855,0.813c0.377,0.543,0.586,1.345,0.623,2.404c0.619-1.06,1.254-1.861,1.902-2.404
				c0.649-0.542,1.518-0.813,2.604-0.813s2.139,0.271,3.162,0.813c1.021,0.543,1.533,1.263,1.533,2.158
				c0,0.632-0.217,1.152-0.652,1.562s-0.906,0.615-1.412,0.615c-0.188,0-0.646-0.117-1.371-0.351
				c-0.727-0.233-1.367-0.351-1.922-0.351c-0.758,0-1.375,0.199-1.855,0.597c-0.479,0.398-0.852,0.987-1.116,1.771
				c-0.265,0.782-0.447,1.713-0.55,2.792C196.967,49.131,196.918,50.449,196.918,52z"/>
		</g>
	</g>
	<path fill="#9C69C4" d="M236.855,24.57c-0.494,0.062-1.767-0.672-3.113-0.365c0.295,0.752,1.412,1.975,2.197,1.098
		c0.356,0.078-0.299,0.521,0.551,0.365c-1.984,0.412-3.432,0.074-4.395-1.646c-1.078,0.824,0.668,0.881,0.916,1.463
		c0.413,0.371-0.646-0.438-1.101-0.365c-0.185,2.078,1.215,2.57,1.83,3.844c-0.525,4.014-0.289,8.303,0.551,11.9
		c0.354-0.318,1.506,0.164,1.28-0.732c0.789,0.982-1.397,0.549-1.098,1.646c-0.24-0.064-0.289-0.322-0.551-0.365
		c-0.33,0.66,0.033,0.541,0.184,1.098c-0.723,1.008,0.521,2.521,0.732,4.396c0.145,1.273,0.088,2.998,0.184,4.393
		c0.133,1.963,0.275,3.41-0.184,4.029c-1.52,2.051-4.379-0.59-4.943-2.197c-0.555,0.299-0.446,1.262-0.731,1.83
		c-4.515,3.42-7.582-6.717-11.533-6.773c-1.795-0.024-2.938,1.916-5.125,1.283c0.507-1.809,2.341-2.646,3.845-3.846
		c0.686-0.547,1.319-1.369,2.014-1.281c0.775,0.098,0.525,0.643,1.1,1.281c0.627,0.699,1.902,1.371,2.746,2.014
		c1.02-0.565,1.793-1.379,2.562-2.197c-1.781-4.014,3.035-7.275,1.83-10.252c-0.724-1.789-1.607-3.707-2.381-5.859
		c-1.646,0.213-2.347-0.814-2.38-0.912c-0.225-0.676-0.438-0.648,0-1.1c-0.375,0.582-0.364-0.518-0.549,0
		c-0.274,0.012-0.073-0.389-0.185-0.549c-1.639-2.434-5.149-4.107-7.506-6.043c-1.485-1.219-3.053-1.984-4.576-2.744
		c0.05-1.242-0.09-1.547,0.732-2.014c1.42-0.02,1.832,1.309,2.746,2.014c1.35,1.039,3.121,1.656,4.576,2.561
		c1.449,0.904,2.594,2.131,4.027,2.932c0.988-0.691,0.369-1.66,0.551-2.564c-0.215,0.031-0.156,0.334-0.184,0.549
		c-0.713-1.326,1.612-1.189,1.465-2.562c0.957-0.072,3.338-1.062,4.209,0.184c0.805-0.67,1.307-0.711,2.197-0.732
		c0.838-0.021-0.285,0.338,0.549,0.184c0.737-0.137-0.229,0.652,0.731,0.182c0.002,0.242-0.078,0.975,0.916,1.281
		c0.688-2.039,2.074-5.217,0.731-7.139c0.478-0.744,1.168-1.271,1.463-2.197c0.314-0.037,0.478,0.312,0.552,0
		c0.916,1.572,0.25,2.707,0,4.943c-0.166,1.477,0.25,3.232,0,4.209c-0.312,1.211-1.509,1.973-1.647,2.748
		c0.444,0.961,1.397,0.871,2.196,0.916C234.461,23.765,236.271,23.958,236.855,24.57z M233.195,24.386
		c0.383,0.143,0.41,1.492,1.281,0.916C233.77,25.39,233.797,23.794,233.195,24.386z M234.477,23.837
		c-0.567,0.062-0.875-0.426-1.281,0c0.039-0.311-0.207-0.453-0.184,0C233.301,23.867,233.99,24.248,234.477,23.837z M223.674,28.779
		c-0.373-0.053-0.357-0.494-0.73-0.547C222.703,28.796,223.461,29.269,223.674,28.779z M225.506,49.65
		c0.283-0.726-0.621-1.189-0.916-0.732C225.016,49.041,225.08,49.525,225.506,49.65z"/>
</g>
</svg>
