<?xml version="1.0" encoding="utf-8"?>
<!-- Generator: Adobe Illustrator 15.1.0, SVG Export Plug-In  -->
<!DOCTYPE svg PUBLIC "-//W3C//DTD SVG 1.1//EN" "http://www.w3.org/Graphics/SVG/1.1/DTD/svg11.dtd" [
	<!ENTITY ns_flows "http://ns.adobe.com/Flows/1.0/">
]>
<svg version="1.1"
	 xmlns="http://www.w3.org/2000/svg" xmlns:xlink="http://www.w3.org/1999/xlink" xmlns:a="http://ns.adobe.com/AdobeSVGViewerExtensions/3.0/"
	 x="0px" y="0px" width="121px" height="31px" viewBox="0 -2.738 121 31"
	 overflow="visible" enable-background="new 0 -2.738 121 31" xml:space="preserve">
<defs>
</defs>
<path fill="#FFCB08" d="M25.479,23.008c0,1.445-1.164,2.613-2.599,2.613H2.6c-1.436,0-2.6-1.168-2.6-2.613V2.616
	C0,1.17,1.164,0,2.6,0h20.28c1.435,0,2.599,1.17,2.599,2.616V23.008z"/>
<path fill="#FFCB08" d="M25.479,23.008c0,1.445-1.164,2.613-2.599,2.613H2.6c-1.436,0-2.6-1.168-2.6-2.613V2.616
	C0,1.17,1.164,0,2.6,0h20.28c1.435,0,2.599,1.17,2.599,2.616V23.008z"/>
<path fill="#FFFFFF" d="M17.284,18.487v3.594c0,0.566-0.128,0.994-0.384,1.277c-0.256,0.283-0.594,0.428-1.014,0.428
	c-0.406,0-0.737-0.145-0.988-0.428c-0.254-0.283-0.38-0.711-0.38-1.277v-4.309c0-0.678-0.023-1.208-0.069-1.586
	c-0.046-0.375-0.17-0.685-0.375-0.922c-0.203-0.241-0.524-0.362-0.964-0.362c-0.879,0-1.46,0.304-1.738,0.911
	c-0.279,0.61-0.418,1.479-0.418,2.616v3.654c0,0.559-0.127,0.982-0.379,1.27c-0.253,0.289-0.586,0.434-1,0.434
	c-0.406,0-0.74-0.145-0.997-0.434c-0.262-0.287-0.39-0.711-0.39-1.27v-7.734c0-0.508,0.117-0.896,0.349-1.159
	c0.233-0.266,0.54-0.395,0.92-0.395c0.368,0,0.674,0.121,0.922,0.369c0.247,0.248,0.368,0.589,0.368,1.026v0.258
	c0.467-0.563,0.967-0.976,1.498-1.238c0.532-0.266,1.122-0.399,1.773-0.399c0.676,0,1.256,0.135,1.742,0.407
	c0.485,0.272,0.886,0.681,1.201,1.229c0.453-0.556,0.937-0.964,1.457-1.236c0.518-0.266,1.093-0.401,1.723-0.401
	c0.734,0,1.369,0.146,1.9,0.437c0.532,0.291,0.929,0.708,1.192,1.249c0.231,0.489,0.345,1.257,0.345,2.306v5.279
	c0,0.566-0.128,0.994-0.384,1.277c-0.257,0.283-0.595,0.428-1.014,0.428c-0.408,0-0.74-0.146-1-0.434
	c-0.26-0.287-0.39-0.713-0.39-1.271v-4.545c0-0.582-0.024-1.045-0.073-1.396c-0.049-0.35-0.182-0.643-0.399-0.88
	c-0.216-0.238-0.545-0.358-0.985-0.358c-0.354,0-0.689,0.106-1.009,0.318c-0.318,0.211-0.566,0.493-0.743,0.852
	C17.384,16.525,17.284,17.333,17.284,18.487z"/>
<path fill="#FFFFFF" d="M37.223,14.289v0.324c0.473-0.625,0.991-1.084,1.552-1.381c0.561-0.292,1.206-0.438,1.934-0.438
	c0.709,0,1.342,0.151,1.901,0.464c0.557,0.311,0.974,0.749,1.25,1.316c0.178,0.331,0.292,0.687,0.345,1.069
	c0.052,0.385,0.078,0.873,0.078,1.466v5.031c0,0.541-0.123,0.949-0.369,1.227c-0.247,0.277-0.566,0.418-0.96,0.418
	c-0.402,0-0.726-0.145-0.974-0.428c-0.249-0.283-0.374-0.691-0.374-1.217v-4.508c0-0.891-0.123-1.568-0.37-2.044
	c-0.247-0.472-0.737-0.708-1.472-0.708c-0.479,0-0.916,0.146-1.31,0.431c-0.394,0.289-0.682,0.682-0.866,1.184
	c-0.132,0.405-0.197,1.157-0.197,2.258v3.387c0,0.547-0.127,0.957-0.38,1.23c-0.253,0.275-0.578,0.414-0.979,0.414
	c-0.388,0-0.705-0.145-0.955-0.428s-0.374-0.691-0.374-1.217v-7.812c0-0.517,0.111-0.9,0.335-1.155
	c0.223-0.254,0.527-0.379,0.914-0.379c0.237,0,0.45,0.055,0.642,0.166c0.189,0.115,0.342,0.28,0.457,0.508
	C37.167,13.691,37.223,13.966,37.223,14.289z"/>
<path fill="#FFFFFF" d="M55.211,20.25c0,0.742-0.18,1.381-0.542,1.916c-0.362,0.531-0.895,0.932-1.6,1.207
	c-0.706,0.275-1.565,0.412-2.575,0.412c-0.964,0-1.792-0.15-2.48-0.447c-0.689-0.297-1.198-0.668-1.527-1.113
	c-0.328-0.445-0.493-0.893-0.493-1.34c0-0.299,0.106-0.553,0.317-0.762c0.208-0.215,0.475-0.318,0.796-0.318
	c0.282,0,0.499,0.068,0.651,0.207c0.15,0.139,0.295,0.336,0.433,0.586c0.275,0.48,0.606,0.84,0.99,1.078
	c0.383,0.238,0.907,0.357,1.57,0.357c0.537,0,0.98-0.119,1.324-0.363c0.345-0.242,0.518-0.516,0.518-0.826
	c0-0.475-0.18-0.822-0.538-1.041c-0.357-0.217-0.947-0.424-1.767-0.623c-0.925-0.23-1.679-0.473-2.26-0.727
	c-0.58-0.256-1.044-0.588-1.393-1.005c-0.347-0.415-0.521-0.926-0.521-1.537c0-0.54,0.16-1.05,0.483-1.534
	c0.321-0.481,0.795-0.864,1.423-1.151c0.625-0.288,1.383-0.431,2.268-0.431c0.695,0,1.321,0.072,1.876,0.216
	c0.555,0.146,1.017,0.341,1.389,0.584c0.371,0.244,0.653,0.515,0.847,0.811c0.193,0.299,0.29,0.588,0.29,0.873
	c0,0.31-0.104,0.564-0.309,0.761c-0.208,0.196-0.502,0.295-0.882,0.295c-0.275,0-0.51-0.078-0.703-0.236
	c-0.194-0.157-0.416-0.395-0.666-0.713c-0.203-0.263-0.444-0.476-0.719-0.631c-0.275-0.159-0.649-0.238-1.123-0.238
	c-0.486,0-0.889,0.105-1.211,0.312c-0.321,0.207-0.483,0.466-0.483,0.779c0,0.281,0.118,0.514,0.354,0.697
	c0.236,0.182,0.554,0.332,0.955,0.451c0.4,0.119,0.952,0.262,1.653,0.433c0.834,0.207,1.516,0.451,2.044,0.734
	s0.929,0.619,1.202,1.006C55.075,19.313,55.211,19.752,55.211,20.25z"/>
<path fill="#FFFFFF" d="M57.23,13.031h0.295v-1.623c0-0.436,0.012-0.777,0.034-1.025s0.086-0.46,0.192-0.638
	c0.105-0.186,0.256-0.335,0.454-0.451c0.196-0.116,0.416-0.171,0.659-0.171c0.341,0,0.65,0.126,0.926,0.386
	c0.183,0.171,0.3,0.378,0.349,0.627c0.049,0.248,0.074,0.6,0.074,1.055v1.841h0.984c0.382,0,0.671,0.093,0.871,0.272
	c0.2,0.183,0.302,0.415,0.302,0.701c0,0.363-0.145,0.617-0.429,0.76c-0.287,0.146-0.694,0.22-1.226,0.22h-0.502v4.97
	c0,0.422,0.015,0.744,0.044,0.975c0.03,0.23,0.108,0.414,0.236,0.555c0.128,0.143,0.336,0.213,0.625,0.213
	c0.156,0,0.371-0.027,0.639-0.082c0.271-0.059,0.48-0.086,0.633-0.086c0.214,0,0.411,0.09,0.584,0.26
	c0.173,0.178,0.263,0.393,0.263,0.652c0,0.436-0.238,0.768-0.709,1c-0.475,0.232-1.153,0.348-2.038,0.348
	c-0.841,0-1.478-0.145-1.91-0.426c-0.432-0.285-0.717-0.676-0.852-1.18c-0.134-0.5-0.202-1.172-0.202-2.01v-5.188h-0.354
	c-0.387,0-0.683-0.092-0.887-0.277c-0.205-0.185-0.305-0.42-0.305-0.703c0-0.284,0.106-0.518,0.319-0.7
	C56.513,13.123,56.823,13.031,57.23,13.031z"/>
<path fill="#FFFFFF" d="M66.485,19.883v2.258c0,0.547-0.129,0.957-0.385,1.23c-0.255,0.275-0.581,0.414-0.976,0.414
	c-0.386,0-0.706-0.141-0.953-0.418c-0.25-0.277-0.375-0.686-0.375-1.227v-7.528c0-1.212,0.438-1.818,1.311-1.818
	c0.445,0,0.769,0.141,0.963,0.423c0.196,0.284,0.306,0.704,0.326,1.258c0.321-0.555,0.651-0.974,0.991-1.258
	c0.336-0.283,0.788-0.423,1.352-0.423c0.565,0,1.113,0.141,1.643,0.423c0.534,0.284,0.799,0.66,0.799,1.129
	c0,0.33-0.113,0.601-0.338,0.816c-0.229,0.217-0.473,0.323-0.735,0.323c-0.098,0-0.336-0.062-0.715-0.185
	c-0.376-0.12-0.709-0.184-0.998-0.184c-0.395,0-0.715,0.105-0.964,0.314c-0.25,0.206-0.442,0.516-0.582,0.924
	c-0.137,0.408-0.232,0.896-0.283,1.461C66.511,18.383,66.485,19.071,66.485,19.883z"/>
<path fill="#FFFFFF" d="M78.722,22.26v-0.348c-0.318,0.408-0.658,0.754-1.014,1.031c-0.354,0.275-0.743,0.482-1.162,0.617
	c-0.42,0.135-0.899,0.205-1.438,0.205c-0.649,0-1.231-0.139-1.746-0.408c-0.518-0.27-0.912-0.643-1.197-1.119
	c-0.333-0.574-0.503-1.398-0.503-2.477v-5.355c0-0.54,0.121-0.944,0.364-1.212c0.244-0.269,0.565-0.401,0.966-0.401
	c0.406,0,0.735,0.133,0.985,0.403c0.248,0.272,0.372,0.676,0.372,1.21v4.328c0,0.623,0.054,1.152,0.158,1.578
	c0.105,0.424,0.294,0.76,0.565,1c0.273,0.24,0.643,0.359,1.107,0.359c0.455,0,0.881-0.133,1.282-0.404
	c0.4-0.27,0.692-0.625,0.875-1.061c0.151-0.383,0.227-1.221,0.227-2.514v-3.288c0-0.533,0.125-0.938,0.374-1.21
	c0.25-0.27,0.575-0.403,0.976-0.403c0.401,0,0.723,0.132,0.966,0.4c0.241,0.268,0.362,0.671,0.362,1.212v7.831
	c0,0.514-0.117,0.902-0.349,1.16c-0.232,0.258-0.534,0.389-0.902,0.389c-0.37,0-0.67-0.137-0.911-0.404
	C78.845,23.116,78.722,22.741,78.722,22.26z"/>
<path fill="#FFFFFF" d="M93.156,20.438c0,0.336-0.099,0.697-0.302,1.076c-0.197,0.385-0.503,0.746-0.913,1.096
	c-0.412,0.348-0.928,0.625-1.553,0.838c-0.621,0.211-1.323,0.318-2.104,0.318c-1.661,0-2.957-0.488-3.889-1.463
	c-0.934-0.973-1.398-2.277-1.398-3.916c0-1.109,0.213-2.09,0.64-2.942c0.426-0.85,1.044-1.509,1.851-1.976
	c0.807-0.464,1.77-0.698,2.896-0.698c0.696,0,1.332,0.103,1.918,0.307c0.577,0.204,1.071,0.471,1.474,0.793
	c0.403,0.324,0.711,0.667,0.926,1.035c0.213,0.364,0.319,0.707,0.319,1.024c0,0.322-0.12,0.597-0.359,0.824
	c-0.239,0.224-0.53,0.334-0.869,0.334c-0.225,0-0.409-0.059-0.558-0.172c-0.146-0.115-0.313-0.303-0.495-0.561
	c-0.331-0.499-0.672-0.877-1.029-1.128c-0.359-0.251-0.815-0.375-1.366-0.375c-0.794,0-1.433,0.31-1.92,0.936
	c-0.485,0.623-0.728,1.477-0.728,2.559c0,0.508,0.062,0.975,0.186,1.398c0.127,0.428,0.305,0.791,0.542,1.09
	c0.236,0.303,0.522,0.531,0.857,0.684c0.333,0.154,0.7,0.234,1.103,0.234c0.537,0,1-0.125,1.38-0.379
	c0.388-0.25,0.729-0.631,1.022-1.148c0.163-0.303,0.341-0.541,0.531-0.711c0.191-0.172,0.423-0.258,0.699-0.258
	c0.328,0,0.601,0.127,0.816,0.375C93.047,19.885,93.156,20.155,93.156,20.438z"/>
<path fill="#FFFFFF" d="M95.244,13.031h0.295v-1.623c0-0.436,0.012-0.777,0.035-1.025c0.022-0.248,0.088-0.46,0.191-0.638
	c0.106-0.186,0.258-0.335,0.453-0.451c0.196-0.116,0.417-0.171,0.661-0.171c0.34,0,0.649,0.126,0.926,0.386
	c0.182,0.171,0.299,0.378,0.348,0.627c0.05,0.248,0.074,0.6,0.074,1.055v1.841h0.985c0.378,0,0.671,0.093,0.87,0.272
	c0.2,0.183,0.302,0.415,0.302,0.701c0,0.363-0.144,0.617-0.429,0.76c-0.286,0.146-0.694,0.22-1.228,0.22h-0.501v4.97
	c0,0.422,0.016,0.744,0.043,0.975c0.03,0.23,0.109,0.414,0.238,0.555c0.129,0.143,0.337,0.213,0.623,0.213
	c0.159,0,0.371-0.027,0.64-0.082c0.271-0.059,0.481-0.086,0.631-0.086c0.219,0,0.411,0.09,0.585,0.26
	c0.177,0.178,0.26,0.393,0.26,0.652c0,0.436-0.232,0.768-0.705,1c-0.474,0.232-1.151,0.348-2.039,0.348
	c-0.841,0-1.478-0.145-1.912-0.426c-0.432-0.285-0.718-0.676-0.851-1.18c-0.135-0.5-0.202-1.172-0.202-2.01v-5.188h-0.354
	c-0.388,0-0.683-0.092-0.884-0.277c-0.207-0.185-0.307-0.42-0.307-0.703c0-0.284,0.106-0.518,0.319-0.7
	C94.525,13.123,94.838,13.031,95.244,13.031z"/>
<path fill="#FFFFFF" d="M111.894,18.29c0,0.803-0.123,1.547-0.376,2.227c-0.247,0.678-0.607,1.264-1.081,1.752
	c-0.473,0.49-1.038,0.865-1.693,1.127c-0.657,0.26-1.396,0.393-2.215,0.393c-0.814,0-1.546-0.137-2.195-0.4
	c-0.65-0.262-1.212-0.641-1.689-1.133c-0.476-0.49-0.836-1.07-1.082-1.742c-0.247-0.67-0.369-1.412-0.369-2.223
	c0-0.818,0.126-1.567,0.374-2.247c0.251-0.679,0.606-1.26,1.072-1.741c0.466-0.484,1.032-0.854,1.695-1.115
	c0.664-0.262,1.395-0.391,2.195-0.391c0.814,0,1.551,0.128,2.216,0.395c0.663,0.264,1.23,0.641,1.703,1.127
	c0.472,0.491,0.833,1.071,1.077,1.745C111.771,16.735,111.894,17.475,111.894,18.29z M109.197,18.29
	c0-1.104-0.242-1.961-0.724-2.576c-0.484-0.613-1.132-0.92-1.945-0.92c-0.524,0-0.989,0.137-1.387,0.411
	c-0.402,0.275-0.71,0.678-0.928,1.212c-0.217,0.533-0.325,1.158-0.325,1.873c0,0.703,0.106,1.324,0.321,1.848
	c0.212,0.531,0.517,0.936,0.914,1.215s0.866,0.42,1.404,0.42c0.813,0,1.461-0.309,1.945-0.924
	C108.955,20.229,109.197,19.375,109.197,18.29z"/>
<path fill="#FFFFFF" d="M116.276,19.883v2.258c0,0.547-0.129,0.957-0.386,1.23c-0.256,0.275-0.58,0.414-0.975,0.414
	c-0.387,0-0.706-0.141-0.954-0.418c-0.249-0.277-0.374-0.686-0.374-1.227v-7.528c0-1.212,0.436-1.818,1.308-1.818
	c0.447,0,0.77,0.141,0.966,0.423c0.196,0.284,0.306,0.704,0.325,1.258c0.32-0.555,0.652-0.974,0.989-1.258
	c0.337-0.283,0.789-0.423,1.354-0.423c0.565,0,1.112,0.141,1.644,0.423c0.533,0.284,0.797,0.66,0.797,1.129
	c0,0.33-0.111,0.601-0.337,0.816c-0.229,0.217-0.474,0.323-0.736,0.323c-0.098,0-0.334-0.062-0.713-0.185
	c-0.378-0.12-0.712-0.184-0.997-0.184c-0.396,0-0.718,0.105-0.968,0.314c-0.249,0.206-0.441,0.516-0.58,0.924
	c-0.138,0.408-0.232,0.896-0.286,1.461C116.3,18.383,116.276,19.071,116.276,19.883z"/>
<path fill="#FFFFFF" d="M32.68,12.617c-0.041-0.761-0.179-1.752-0.194-2.542c-0.007-0.438,0.105-0.831,0-1.171
	c-0.143-0.458-0.65-0.736-0.972-0.976c0.589-0.473,0.478-2.474-0.129-3.06c-0.52-0.501-1.254-0.257-2.008,0
	c-0.286,0.478-0.066,1.135-0.451,1.434c0.242,0.343,0.15,0.398,0.195,0.911c-0.011,0.315,0.695-0.093,0.582,0.325
	c-0.28,0.392-0.645-0.203-0.905-0.26c-0.674,0.048-1.037-0.214-1.425-0.455c-0.236-0.133-0.496-0.441-0.518-0.458
	c-0.618-0.444-1.311-0.987-1.814-1.431c-0.036-0.332-0.19-0.547-0.323-0.781c-0.465-0.067-0.692-0.027-0.908-0.392
	c0.082,0.31,0.479,0.453,0.195,0.782C24.14,4.717,24.334,4.593,24.197,5c0.222,0.18,0.356,0.044,0.583,0.195
	c0.635,0.923,1.311,1.935,2.589,2.733c0.391,0.326,0.982,0.447,1.358,0.783c0.189,0.593-0.402,0.793-0.452,1.3
	c-0.04,0.397,0.313,0.671,0.388,1.107c0.139,0.811-0.131,1.595-0.195,2.409c-0.093,0.245,0.178,0.125,0.131,0.326
	c-0.264,1.872,0.544,3.17,0.841,4.622c0.285,1.395,0.351,2.75,0.064,4.23c-0.009,0.297-0.328,0.281-0.518,0.393
	c0.43,0.514-0.214,0.504-0.454,0.846c0.363,0.428,1.644,0.225,1.748-0.389c0.476,0.264,0.642-0.295,0.971-0.393
	c0.021-0.539,0.104-1.055,0.128-1.627c0.056-1.229-0.218-2.443-0.192-3.584c0.021-0.928,0.384-1.73,0.388-2.603
	c0.145,0.028,0.027,0.323,0.065,0.457c0.027,0.162,0.25,0.002,0.194-0.131c0.169,0.091-0.046,0.339-0.064,0.456
	c0.28,0.106,0.582-0.267,0.84-0.39C32.439,14.649,32.738,13.713,32.68,12.617z M24.264,4.348
	C24.549,4.109,24.509,4.527,24.264,4.348L24.264,4.348z M31.774,14.829c0.093-1.545-0.792-2.832-0.194-4.103
	C31.803,11.874,32.135,13.716,31.774,14.829z"/>
<polygon fill="#FFFFFF" points="21.961,3.16 24.386,4.362 24.462,4.162 22.035,2.959 "/>
</svg>
