<?xml version="1.0" encoding="utf-8"?>
<!-- Generator: Adobe Illustrator 15.1.0, SVG Export Plug-In . SVG Version: 6.00 Build 0)  -->
<!DOCTYPE svg PUBLIC "-//W3C//DTD SVG 1.1//EN" "http://www.w3.org/Graphics/SVG/1.1/DTD/svg11.dtd">
<svg version="1.1" id="Warstwa_1" xmlns="http://www.w3.org/2000/svg" xmlns:xlink="http://www.w3.org/1999/xlink" x="0px" y="0px"
	 width="123.229px" height="45.414px" viewBox="0 0 123.229 45.414" enable-background="new 0 0 123.229 45.414"
	 xml:space="preserve">
<g>
	<path fill="#FFFFFF" d="M47.128,43.574h1.311c0.155,0,0.267,0.078,0.267,0.254c0,0.172-0.111,0.252-0.267,0.252h-1.562
		c-0.207,0-0.293-0.131-0.293-0.297v-3.805c0-0.168,0.086-0.297,0.293-0.297h1.562c0.155,0,0.267,0.079,0.267,0.252
		c0,0.174-0.111,0.254-0.267,0.254h-1.311v1.438h1.192c0.155,0,0.267,0.08,0.267,0.254c0,0.175-0.111,0.252-0.267,0.252h-1.192
		V43.574z"/>
	<path fill="#FFFFFF" d="M49.428,41.232c-0.037-0.101-0.057-0.162-0.057-0.226c0-0.157,0.119-0.252,0.247-0.252
		c0.179,0,0.241,0.086,0.284,0.209l0.746,2.275h0.016l0.748-2.275c0.041-0.123,0.104-0.209,0.281-0.209
		c0.131,0,0.248,0.095,0.248,0.252c0,0.062-0.018,0.125-0.057,0.226l-0.944,2.649c-0.058,0.162-0.11,0.234-0.284,0.234
		c-0.172,0-0.229-0.072-0.283-0.234L49.428,41.232z"/>
	<path fill="#FFFFFF" d="M53.048,42.646c0,0.562,0.36,1.002,0.969,1.002c0.724,0,0.909-0.447,1.113-0.447
		c0.099,0,0.197,0.09,0.197,0.242c0,0.266-0.673,0.674-1.314,0.674c-1.052,0-1.509-0.809-1.509-1.682
		c0-0.888,0.555-1.681,1.479-1.681c0.895,0,1.415,0.81,1.415,1.601c0,0.194-0.07,0.291-0.305,0.291H53.048z M54.851,42.238
		c0-0.469-0.271-1.014-0.868-1.014c-0.676-0.023-0.915,0.514-0.935,1.014H54.851z"/>
	<path fill="#FFFFFF" d="M56.288,41.047c0-0.18,0.104-0.291,0.27-0.291c0.167,0,0.273,0.111,0.273,0.291v0.277h0.01
		c0.123-0.254,0.428-0.568,0.744-0.568c0.191,0,0.302,0.123,0.302,0.277s-0.11,0.254-0.341,0.299
		c-0.32,0.055-0.715,0.295-0.715,0.932v1.564c0,0.178-0.106,0.289-0.273,0.289c-0.166,0-0.27-0.111-0.27-0.289V41.047z"/>
	<path fill="#FFFFFF" d="M58.536,41.287c-0.064-0.186-0.073-0.24-0.073-0.303c0-0.135,0.123-0.229,0.245-0.229
		c0.137,0,0.235,0.086,0.272,0.205l0.753,2.256h0.012l0.742-2.256c0.036-0.119,0.125-0.205,0.26-0.205
		c0.121,0,0.249,0.095,0.249,0.229c0,0.062-0.013,0.117-0.075,0.303l-1.373,3.922c-0.042,0.119-0.128,0.205-0.265,0.205
		c-0.123,0-0.249-0.09-0.249-0.229c0-0.062,0.016-0.117,0.081-0.302l0.347-0.922L58.536,41.287z"/>
	<path fill="#FFFFFF" d="M63.131,40.756c0.928,0,1.447,0.809,1.447,1.68c0,0.873-0.52,1.683-1.447,1.683
		c-0.927,0-1.443-0.81-1.443-1.683C61.688,41.564,62.204,40.756,63.131,40.756z M63.131,43.648c0.668,0,0.902-0.654,0.902-1.213
		c0-0.556-0.234-1.211-0.902-1.211c-0.665,0-0.902,0.655-0.902,1.211C62.229,42.994,62.466,43.648,63.131,43.648z"/>
	<path fill="#FFFFFF" d="M65.522,41.047c0-0.18,0.105-0.291,0.273-0.291c0.167,0,0.271,0.111,0.271,0.291v0.129l0.014,0.012
		c0.24-0.309,0.58-0.432,0.906-0.432c0.508,0,1.143,0.32,1.143,1.244v1.828c0,0.178-0.104,0.289-0.27,0.289
		c-0.17,0-0.271-0.111-0.271-0.289v-1.795c0-0.574-0.402-0.809-0.762-0.809c-0.357,0-0.76,0.233-0.76,0.809v1.795
		c0,0.178-0.104,0.289-0.271,0.289c-0.168,0-0.273-0.111-0.273-0.289V41.047z"/>
	<path fill="#FFFFFF" d="M69.564,42.646c0,0.562,0.36,1.002,0.97,1.002c0.725,0,0.91-0.447,1.113-0.447
		c0.1,0,0.197,0.09,0.197,0.242c0,0.266-0.672,0.674-1.314,0.674c-1.052,0-1.508-0.809-1.508-1.682c0-0.888,0.555-1.681,1.477-1.681
		c0.896,0,1.414,0.81,1.414,1.601c0,0.194-0.068,0.291-0.302,0.291H69.564z M71.37,42.238c0-0.469-0.272-1.014-0.871-1.014
		c-0.674-0.023-0.914,0.514-0.935,1.014H71.37z"/>
	<path fill="#FFFFFF" d="M75.261,43.828c0,0.178-0.104,0.289-0.271,0.289c-0.168,0-0.271-0.111-0.271-0.289V39.6
		c0-0.18,0.104-0.291,0.271-0.291c0.166,0,0.271,0.111,0.271,0.291V43.828z"/>
	<path fill="#FFFFFF" d="M76.695,42.646c0,0.562,0.36,1.002,0.97,1.002c0.724,0,0.907-0.447,1.112-0.447
		c0.1,0,0.197,0.09,0.197,0.242c0,0.266-0.674,0.674-1.313,0.674c-1.052,0-1.508-0.809-1.508-1.682c0-0.888,0.555-1.681,1.475-1.681
		c0.896,0,1.416,0.81,1.416,1.601c0,0.194-0.067,0.291-0.303,0.291H76.695z M78.499,42.238c0-0.469-0.271-1.014-0.871-1.014
		c-0.673-0.023-0.912,0.514-0.933,1.014H78.499z"/>
	<path fill="#FFFFFF" d="M82.652,43.854c0,0.191-0.148,0.265-0.254,0.265c-0.11,0-0.254-0.072-0.254-0.265v-0.231h-0.012
		c-0.234,0.334-0.545,0.496-0.896,0.496c-0.928,0-1.445-0.81-1.445-1.683c0-0.871,0.52-1.68,1.445-1.68
		c0.377,0,0.645,0.16,0.896,0.439h0.012v-0.174c0-0.191,0.144-0.267,0.254-0.267c0.104,0,0.254,0.074,0.254,0.267V43.854z
		 M81.238,43.648c0.666,0,0.9-0.654,0.9-1.213c0-0.556-0.234-1.211-0.9-1.211c-0.668,0-0.903,0.655-0.903,1.211
		C80.334,42.994,80.57,43.648,81.238,43.648z"/>
	<path fill="#FFFFFF" d="M83.736,41.047c0-0.18,0.105-0.291,0.275-0.291c0.166,0,0.271,0.111,0.271,0.291v0.277h0.014
		c0.123-0.254,0.426-0.568,0.74-0.568c0.191,0,0.301,0.123,0.301,0.277S85.229,41.287,85,41.332
		c-0.324,0.055-0.717,0.295-0.717,0.932v1.564c0,0.178-0.105,0.289-0.271,0.289c-0.17,0-0.275-0.111-0.275-0.289V41.047z"/>
	<path fill="#FFFFFF" d="M86.057,41.047c0-0.18,0.105-0.291,0.271-0.291c0.168,0,0.274,0.111,0.274,0.291v0.129l0.01,0.012
		c0.242-0.309,0.582-0.432,0.908-0.432c0.508,0,1.145,0.32,1.145,1.244v1.828c0,0.178-0.105,0.289-0.271,0.289
		c-0.168,0-0.271-0.111-0.271-0.289v-1.795c0-0.574-0.401-0.809-0.763-0.809c-0.356,0-0.758,0.233-0.758,0.809v1.795
		c0,0.178-0.105,0.289-0.273,0.289c-0.165,0-0.271-0.111-0.271-0.289V41.047L86.057,41.047z"/>
	<path fill="#FFFFFF" d="M90.796,40.756c0.452,0,1.093,0.242,1.093,0.58c0,0.119-0.08,0.225-0.246,0.225
		c-0.238,0-0.328-0.336-0.847-0.336c-0.31,0-0.573,0.14-0.573,0.414c0,0.576,1.752,0.514,1.752,1.467
		c0,0.683-0.586,1.013-1.197,1.013c-0.692,0-1.235-0.347-1.235-0.621c0-0.149,0.104-0.25,0.224-0.25
		c0.239,0,0.438,0.401,1.031,0.401c0.395,0,0.637-0.223,0.637-0.446c0-0.644-1.756-0.604-1.756-1.521
		C89.676,41.076,90.246,40.756,90.796,40.756z"/>
	<path fill="#FFFFFF" d="M96.932,43.666h-0.015c-0.153,0.297-0.442,0.451-0.874,0.451c-0.893,0-1.404-0.809-1.404-1.682
		c0-0.871,0.512-1.681,1.404-1.681c0.432,0,0.732,0.242,0.874,0.445h0.015V39.6c0-0.18,0.104-0.291,0.271-0.291
		c0.165,0,0.273,0.111,0.273,0.291v4.229c0,0.178-0.108,0.289-0.273,0.289c-0.167,0-0.271-0.111-0.271-0.289V43.666z M96.083,41.225
		c-0.666,0-0.901,0.656-0.901,1.211c0,0.56,0.235,1.213,0.901,1.213c0.67,0,0.903-0.653,0.903-1.213
		C96.986,41.881,96.753,41.225,96.083,41.225z"/>
	<path fill="#FFFFFF" d="M98.859,39.643c0.185,0,0.334,0.148,0.334,0.336c0,0.187-0.149,0.33-0.334,0.33s-0.336-0.145-0.336-0.33
		C98.523,39.791,98.675,39.643,98.859,39.643z M99.13,43.828c0,0.178-0.104,0.289-0.271,0.289s-0.273-0.111-0.273-0.289v-2.781
		c0-0.18,0.107-0.291,0.273-0.291c0.164,0,0.271,0.111,0.271,0.291V43.828z"/>
	<path fill="#FFFFFF" d="M100.936,43.828c0,0.178-0.104,0.289-0.271,0.289c-0.165,0-0.272-0.111-0.272-0.289v-2.564h-0.224
		c-0.178,0-0.271-0.088-0.271-0.233c0-0.15,0.094-0.236,0.271-0.236h0.224v-0.771c0-0.479,0.328-0.713,0.724-0.713h0.167
		c0.142,0,0.31,0.088,0.31,0.233c0,0.147-0.093,0.236-0.3,0.236h-0.137c-0.163,0-0.219,0.079-0.219,0.217v0.797h0.338
		c0.183,0,0.271,0.086,0.271,0.236c0,0.146-0.09,0.233-0.271,0.233h-0.338v2.564H100.936z"/>
	<path fill="#FFFFFF" d="M102.906,43.828c0,0.178-0.104,0.289-0.272,0.289c-0.166,0-0.271-0.111-0.271-0.289v-2.564h-0.223
		c-0.181,0-0.272-0.088-0.272-0.233c0-0.15,0.093-0.236,0.272-0.236h0.223v-0.771c0-0.479,0.328-0.713,0.724-0.713h0.168
		c0.14,0,0.308,0.088,0.308,0.233c0,0.147-0.092,0.236-0.295,0.236h-0.138c-0.168,0-0.224,0.079-0.224,0.217v0.797h0.339
		c0.18,0,0.272,0.086,0.272,0.236c0,0.146-0.094,0.233-0.272,0.233h-0.339V43.828z"/>
	<path fill="#FFFFFF" d="M104.507,42.646c0,0.562,0.356,1.002,0.97,1.002c0.725,0,0.908-0.447,1.113-0.447
		c0.098,0,0.197,0.09,0.197,0.242c0,0.266-0.674,0.674-1.314,0.674c-1.053,0-1.508-0.809-1.508-1.682
		c0-0.888,0.553-1.681,1.475-1.681c0.898,0,1.416,0.81,1.416,1.601c0,0.194-0.067,0.291-0.303,0.291H104.507z M106.311,42.238
		c0-0.469-0.271-1.014-0.871-1.014c-0.672-0.023-0.914,0.514-0.933,1.014H106.311z"/>
	<path fill="#FFFFFF" d="M107.745,41.047c0-0.18,0.104-0.291,0.271-0.291c0.17,0,0.272,0.111,0.272,0.291v0.277h0.012
		c0.123-0.254,0.429-0.568,0.743-0.568c0.188,0,0.303,0.123,0.303,0.277s-0.113,0.254-0.341,0.299
		c-0.319,0.055-0.717,0.295-0.717,0.932v1.564c0,0.178-0.104,0.289-0.272,0.289c-0.164,0-0.271-0.111-0.271-0.289V41.047z"/>
	<path fill="#FFFFFF" d="M110.406,42.646c0,0.562,0.359,1.002,0.971,1.002c0.727,0,0.909-0.447,1.111-0.447
		c0.1,0,0.199,0.09,0.199,0.242c0,0.266-0.674,0.674-1.315,0.674c-1.052,0-1.509-0.809-1.509-1.682c0-0.888,0.557-1.681,1.479-1.681
		c0.894,0,1.414,0.81,1.414,1.601c0,0.194-0.067,0.291-0.303,0.291H110.406z M112.211,42.238c0-0.469-0.271-1.014-0.869-1.014
		c-0.674-0.023-0.915,0.514-0.938,1.014H112.211z"/>
	<path fill="#FFFFFF" d="M113.646,41.047c0-0.18,0.104-0.291,0.271-0.291c0.166,0,0.271,0.111,0.271,0.291v0.129l0.013,0.012
		c0.241-0.309,0.579-0.432,0.905-0.432c0.511,0,1.146,0.32,1.146,1.244v1.828c0,0.178-0.104,0.289-0.271,0.289
		c-0.17,0-0.271-0.111-0.271-0.289v-1.795c0-0.574-0.402-0.809-0.761-0.809c-0.357,0-0.761,0.233-0.761,0.809v1.795
		c0,0.178-0.104,0.289-0.271,0.289c-0.168,0-0.271-0.111-0.271-0.289v-2.781H113.646z"/>
	<path fill="#FFFFFF" d="M117.514,40.082c0-0.18,0.104-0.291,0.271-0.291c0.168,0,0.271,0.111,0.271,0.291v0.711h0.223
		c0.182,0,0.273,0.086,0.273,0.236c0,0.146-0.093,0.234-0.273,0.234h-0.223v2.563c0,0.178-0.104,0.289-0.271,0.289
		s-0.271-0.111-0.271-0.289v-2.563h-0.224c-0.179,0-0.271-0.089-0.271-0.234c0-0.15,0.092-0.236,0.271-0.236h0.224V40.082z"/>
	<path fill="#FFFFFF" d="M119.861,43.828c0,0.178-0.104,0.289-0.271,0.289s-0.272-0.111-0.272-0.289V39.6
		c0-0.18,0.105-0.291,0.272-0.291s0.271,0.111,0.271,0.291V43.828z"/>
	<path fill="#FFFFFF" d="M120.77,41.287c-0.062-0.186-0.072-0.24-0.072-0.303c0-0.135,0.123-0.229,0.246-0.229
		c0.136,0,0.234,0.086,0.273,0.205l0.752,2.256h0.014l0.738-2.256c0.039-0.119,0.125-0.205,0.262-0.205
		c0.121,0,0.246,0.095,0.246,0.229c0,0.062-0.014,0.117-0.074,0.303l-1.37,3.922c-0.044,0.119-0.13,0.205-0.267,0.205
		c-0.125,0-0.246-0.09-0.246-0.229c0-0.062,0.012-0.117,0.078-0.302l0.349-0.922L120.77,41.287z"/>
	<path fill="#FFFFFF" d="M48.234,35.264h3.545c0.472,0,0.81,0.246,0.81,0.775c0,0.527-0.338,0.77-0.81,0.77h-4.317
		c-0.621,0-0.887-0.393-0.887-0.901V24.162c0-0.549,0.322-0.889,0.832-0.889c0.51,0,0.827,0.34,0.827,0.889V35.264z"/>
	<path fill="#FFFFFF" d="M55.533,32.438c0,1.713,1.093,3.053,2.96,3.053c2.207,0,2.771-1.357,3.395-1.357
		c0.3,0,0.602,0.262,0.602,0.736c0,0.811-2.056,2.055-4.018,2.055c-3.201,0-4.596-2.469-4.596-5.127
		c0-2.715,1.693-5.129,4.504-5.129c2.731,0,4.314,2.469,4.314,4.883c0,0.584-0.205,0.887-0.922,0.887L55.533,32.438L55.533,32.438z
		 M61.037,31.193c0-1.434-0.829-3.092-2.657-3.092c-2.057-0.076-2.789,1.564-2.847,3.092H61.037z"/>
	<path fill="#FFFFFF" d="M73.518,36.113c0,0.584-0.454,0.811-0.773,0.811c-0.34,0-0.772-0.227-0.772-0.811v-0.699h-0.037
		c-0.718,1.02-1.659,1.51-2.733,1.51c-2.829,0-4.412-2.469-4.412-5.127c0-2.66,1.583-5.129,4.412-5.129
		c1.148,0,1.96,0.49,2.733,1.338h0.037v-0.527c0-0.584,0.433-0.811,0.772-0.811c0.319,0,0.773,0.227,0.773,0.811V36.113z
		 M69.202,35.49c2.033,0,2.753-1.996,2.753-3.693c0-1.697-0.72-3.695-2.753-3.695c-2.039,0-2.754,1.998-2.754,3.695
		C66.448,33.494,67.163,35.49,69.202,35.49z"/>
	<path fill="#FFFFFF" d="M76.647,27.555c0-0.547,0.323-0.887,0.83-0.887c0.51,0,0.832,0.34,0.832,0.887v0.85h0.037
		c0.377-0.773,1.301-1.736,2.26-1.736c0.588,0,0.927,0.377,0.927,0.85c0,0.471-0.339,0.771-1.037,0.904
		c-0.979,0.17-2.187,0.906-2.187,2.846v4.771c0,0.545-0.322,0.885-0.832,0.885c-0.507,0-0.83-0.34-0.83-0.885V27.555z"/>
	<path fill="#FFFFFF" d="M83.529,27.555c0-0.547,0.322-0.887,0.83-0.887c0.511,0,0.83,0.34,0.83,0.887v0.395l0.037,0.039
		c0.734-0.943,1.771-1.32,2.771-1.32c1.546,0,3.486,0.98,3.486,3.807v5.564c0,0.545-0.322,0.885-0.827,0.885
		c-0.511,0-0.831-0.34-0.831-0.885v-5.471c0-1.752-1.225-2.467-2.318-2.467s-2.318,0.715-2.318,2.467v5.471
		c0,0.545-0.319,0.885-0.83,0.885c-0.508,0-0.83-0.34-0.83-0.885V27.555z"/>
	<path fill="#FFFFFF" d="M95.672,32.438c0,1.713,1.094,3.053,2.959,3.053c2.207,0,2.771-1.357,3.395-1.357
		c0.302,0,0.604,0.262,0.604,0.736c0,0.811-2.056,2.055-4.017,2.055c-3.205,0-4.6-2.469-4.6-5.127c0-2.715,1.694-5.129,4.504-5.129
		c2.735,0,4.317,2.469,4.317,4.883c0,0.584-0.206,0.887-0.925,0.887L95.672,32.438L95.672,32.438z M101.178,31.193
		c0-1.434-0.828-3.092-2.66-3.092c-2.053-0.076-2.789,1.564-2.846,3.092H101.178z"/>
	<path fill="#FFFFFF" d="M105.893,24.611c0-0.545,0.319-0.885,0.828-0.885c0.508,0,0.83,0.34,0.83,0.885v2.17h0.68
		c0.545,0,0.828,0.264,0.828,0.715c0,0.453-0.283,0.717-0.828,0.717h-0.68v7.826c0,0.545-0.322,0.885-0.83,0.885
		c-0.509,0-0.828-0.34-0.828-0.885v-7.826h-0.682c-0.545,0-0.827-0.264-0.827-0.717c0-0.451,0.282-0.715,0.827-0.715h0.682V24.611z"
		/>
	<path fill="#FFFFFF" d="M112.415,23.273c0.565,0,1.019,0.453,1.019,1.02c0,0.562-0.451,1.016-1.019,1.016
		c-0.563,0-1.019-0.453-1.019-1.016C111.396,23.727,111.85,23.273,112.415,23.273z M113.245,36.039c0,0.545-0.32,0.885-0.83,0.885
		c-0.509,0-0.828-0.34-0.828-0.885v-8.484c0-0.547,0.319-0.887,0.828-0.887c0.51,0,0.83,0.34,0.83,0.887V36.039z"/>
	<path fill="#FFFFFF" d="M120.463,26.668c1.698,0,2.697,0.584,2.697,1.262c0,0.342-0.283,0.699-0.678,0.699
		c-0.643,0-0.887-0.527-2.021-0.527c-2.053,0-2.862,1.998-2.862,3.695c0,1.697,0.811,3.693,2.862,3.693c1.172,0,1.472-0.564,2-0.564
		c0.379,0,0.64,0.244,0.64,0.695c0,0.623-0.92,1.303-2.64,1.303c-3.053,0-4.521-2.469-4.521-5.127
		C115.941,29.137,117.411,26.668,120.463,26.668z"/>
	<path fill="#606161" d="M42.167,15.482c0.16-0.238,0.238-0.506,0.238-0.818c0-0.422-0.152-0.793-0.452-1.092
		c-0.301-0.299-0.668-0.451-1.092-0.451c-0.398,0-0.746,0.135-1.036,0.398c0.595,0.186,1.138,0.525,1.62,1.006
		C41.743,14.822,41.983,15.143,42.167,15.482z"/>
	<polygon fill="#606161" points="38.786,15.617 38.278,15.617 38.278,17.371 37.377,18.479 37.768,18.801 38.805,17.562 	"/>
	<path fill="#606161" d="M34.896,15.494c0.183-0.342,0.423-0.66,0.735-0.969c0.471-0.471,1.012-0.807,1.609-1.002
		c-0.293-0.268-0.639-0.402-1.038-0.402c-0.427,0-0.792,0.152-1.093,0.451c-0.301,0.299-0.453,0.67-0.453,1.092
		C34.657,14.98,34.735,15.254,34.896,15.494z"/>
	<path fill="#606161" d="M36.698,20.205l0.089,0.055c0.495,0.307,1.116,0.479,1.747,0.479c0.622,0,1.238-0.166,1.735-0.473
		l0.086-0.051l0.83,0.98c0.146,0.174,0.46,0.115,0.551-0.084c0.032-0.066,0.065-0.195-0.054-0.336l-0.824-0.971l0.076-0.078
		c0.592-0.617,0.917-1.434,0.917-2.291c0-1.83-1.487-3.316-3.319-3.316c-1.83,0-3.319,1.486-3.319,3.316
		c0,0.855,0.323,1.666,0.909,2.285l0.073,0.074l-0.814,0.984c-0.11,0.133-0.09,0.256-0.054,0.334c0.088,0.188,0.42,0.242,0.555,0.08
		L36.698,20.205z M35.862,17.436c0-1.471,1.199-2.668,2.67-2.668c1.473,0,2.67,1.197,2.67,2.668c0,1.473-1.197,2.672-2.67,2.672
		C37.061,20.107,35.862,18.908,35.862,17.436z"/>
	<path id="zawijas_1_" fill="#606161" d="M6.208,41.439c-0.363-0.588-0.617-1.088-0.777-1.525c-0.129-0.371-0.224-0.797-0.277-1.271
		c-0.486,1.099-0.378,2.211,0.322,3.312c0.476,0.685,1.113,1.211,1.888,1.549c0.518,0.263,1.112,0.377,1.765,0.354
		c0.685-0.012,1.3-0.194,1.83-0.537c0.533-0.317,0.952-0.747,1.283-1.311c0.289-0.486,0.455-0.988,0.492-1.49
		c0.021-0.336-0.008-0.662-0.087-0.963c-0.058-0.25-0.149-0.492-0.286-0.74c-0.104-0.176-0.221-0.352-0.344-0.516
		c-0.147-0.17-0.303-0.318-0.486-0.467c-0.462-0.34-0.963-0.543-1.486-0.605c-0.676-0.08-1.3,0.101-1.847,0.531
		c-0.591,0.471-0.903,1.057-0.957,1.783c-0.029,0.344,0.036,0.691,0.188,1.023c0.136,0.299,0.34,0.559,0.607,0.771
		c0.232,0.192,0.496,0.322,0.807,0.399c0.283,0.066,0.561,0.07,0.813,0.015c0.418-0.092,0.757-0.297,1.005-0.608
		c0.324-0.375,0.448-0.791,0.371-1.244c-0.002-0.015-0.008-0.037-0.012-0.066c-0.009-0.025-0.031-0.094-0.045-0.154
		c-0.104-0.326-0.311-0.566-0.626-0.732C10,38.758,9.672,38.74,9.359,38.898C9.21,38.97,9.096,39.072,9.01,39.207
		c-0.008,0.014-0.017,0.029-0.023,0.043c0.13-0.082,0.271-0.121,0.424-0.121c0.268,0.014,0.473,0.121,0.611,0.32
		c0.274,0.361,0.258,0.74-0.037,1.119c-0.141,0.164-0.314,0.262-0.52,0.297c-0.254,0.062-0.59-0.023-0.863-0.232
		c-0.332-0.262-0.487-0.607-0.463-1.035c0.013-0.195,0.072-0.395,0.188-0.611c0.098-0.198,0.244-0.375,0.424-0.521
		c0.334-0.268,0.74-0.387,1.196-0.342c0.402,0.045,0.751,0.187,1.038,0.428c0.15,0.111,0.271,0.236,0.371,0.369
		c0.199,0.234,0.33,0.479,0.396,0.759c0.008,0.038,0.019,0.071,0.029,0.102l0.018,0.066c0.041,0.229,0.053,0.422,0.037,0.604
		c-0.028,0.366-0.156,0.739-0.374,1.108c-0.245,0.437-0.573,0.767-0.978,0.99c-0.412,0.256-0.879,0.395-1.384,0.406
		c-0.473,0.023-0.954-0.076-1.374-0.287C7.12,42.41,6.61,41.996,6.208,41.439z"/>
	<path id="kropla_1_" fill="#606161" d="M9.183,22.637l-0.021-0.031L8.402,21.4c-0.023-0.037-0.044-0.049-0.053-0.049
		c0,0-0.028,0.012-0.049,0.049l-0.739,1.168C7.549,22.584,7.54,22.6,7.536,22.609L7.515,22.64c-0.071,0.129-0.11,0.281-0.11,0.445
		c0,0.258,0.096,0.482,0.278,0.668c0.181,0.182,0.407,0.275,0.665,0.275c0.264,0,0.48-0.09,0.668-0.275
		c0.183-0.186,0.273-0.41,0.273-0.668C9.29,22.926,9.254,22.775,9.183,22.637z M9.031,23.195c-0.022,0.145-0.089,0.27-0.196,0.379
		c-0.136,0.133-0.301,0.201-0.489,0.201c-0.189,0-0.354-0.068-0.489-0.201c-0.136-0.135-0.203-0.301-0.201-0.488
		c-0.002-0.166,0.049-0.312,0.156-0.439l0.086-0.109L7.88,22.676c-0.005,0.029-0.009,0.064-0.009,0.098
		c0,0.172,0.059,0.314,0.184,0.436c0.236,0.242,0.617,0.242,0.864,0c0.017-0.014,0.028-0.029,0.042-0.045l0.092-0.105L9.031,23.195z
		"/>
	<path fill="#606161" d="M28.246,13.424c-0.298,0-0.542,0.244-0.542,0.543c0,0.297,0.244,0.537,0.542,0.537s0.542-0.24,0.542-0.537
		C28.788,13.668,28.543,13.424,28.246,13.424z M28.246,14.197c-0.131,0-0.233-0.104-0.233-0.23c0-0.131,0.103-0.236,0.233-0.236
		c0.128,0,0.231,0.105,0.231,0.236C28.477,14.094,28.374,14.197,28.246,14.197z"/>
	<path fill="#606161" d="M26.926,13.188c0.298,0,0.541-0.244,0.541-0.541c0-0.299-0.243-0.539-0.541-0.539
		c-0.297,0-0.541,0.24-0.541,0.539C26.385,12.943,26.629,13.188,26.926,13.188z M26.926,12.416c0.131,0,0.235,0.104,0.235,0.23
		s-0.104,0.232-0.235,0.232c-0.126,0-0.232-0.105-0.232-0.232S26.8,12.416,26.926,12.416z"/>
	
		<rect x="27.389" y="11.795" transform="matrix(-0.7058 -0.7084 0.7084 -0.7058 37.6229 42.2401)" fill="#606161" width="0.386" height="3.027"/>
	<path id="telefon_1_" fill="#606161" d="M34.727,28.029c0-0.428-0.2-0.627-0.628-0.627h-3.284c-0.428,0-0.629,0.199-0.629,0.627
		v6.113c0,0.428,0.201,0.627,0.629,0.627h3.284c0.428,0,0.628-0.199,0.628-0.627V28.029z M32.454,34.357
		c-0.248,0-0.453-0.201-0.453-0.453c0-0.246,0.205-0.449,0.453-0.449c0.25,0,0.45,0.203,0.45,0.449
		C32.904,34.156,32.704,34.357,32.454,34.357z M34.295,33.154H30.61v-5.33h3.686L34.295,33.154L34.295,33.154z"/>
	<circle fill="#606161" cx="18.098" cy="8.127" r="0.682"/>
	<path fill="#606161" d="M18.887,4.461c-0.191,0-0.35,0.156-0.35,0.35c0,0.189,0.158,0.35,0.35,0.35c0.19,0,0.348-0.16,0.348-0.35
		C19.235,4.617,19.078,4.461,18.887,4.461z"/>
	<path fill="#606161" d="M18.633,5.727c-0.111-0.215-0.282-0.363-0.514-0.439c-0.179-0.057-0.355-0.059-0.528-0.008L17.04,5.397
		L17.016,5.32l0.514-0.232c0.174-0.057,0.316-0.164,0.427-0.316c0.142-0.197,0.198-0.416,0.16-0.66
		c-0.04-0.238-0.159-0.432-0.357-0.572c-0.194-0.143-0.411-0.197-0.651-0.158c-0.238,0.037-0.434,0.158-0.58,0.354
		c-0.111,0.154-0.165,0.318-0.169,0.498L16.3,4.791h-0.08l-0.059-0.555c-0.003-0.182-0.059-0.352-0.172-0.504
		c-0.146-0.201-0.337-0.316-0.578-0.354c-0.242-0.039-0.459,0.014-0.656,0.158c-0.193,0.143-0.312,0.334-0.348,0.572
		c-0.04,0.248,0.01,0.461,0.154,0.658c0.113,0.156,0.256,0.262,0.422,0.316l0.513,0.23l-0.024,0.074l-0.546-0.111
		c-0.179-0.055-0.354-0.053-0.53,0.006c-0.232,0.074-0.404,0.221-0.517,0.441c-0.11,0.211-0.128,0.439-0.055,0.672
		c0.078,0.229,0.224,0.4,0.439,0.512c0.215,0.109,0.44,0.127,0.675,0.053c0.182-0.062,0.324-0.16,0.431-0.307l0.366-0.404
		l0.062,0.047l-0.266,0.473c-0.107,0.15-0.159,0.318-0.159,0.508c0,0.246,0.086,0.451,0.26,0.623c0.172,0.174,0.381,0.26,0.623,0.26
		c0.243,0,0.45-0.086,0.622-0.258c0.175-0.174,0.26-0.379,0.26-0.625c0-0.193-0.052-0.359-0.158-0.504l-0.266-0.469l0.061-0.047
		l0.365,0.4c0.11,0.15,0.251,0.25,0.436,0.309c0.232,0.074,0.46,0.055,0.676-0.051c0.216-0.113,0.363-0.285,0.438-0.516
		C18.764,6.168,18.746,5.943,18.633,5.727z M16.782,6.129c-0.146,0.141-0.324,0.217-0.53,0.217c-0.201,0-0.382-0.076-0.525-0.221
		c-0.144-0.141-0.218-0.32-0.218-0.525s0.072-0.385,0.218-0.529c0.279-0.279,0.776-0.279,1.056,0C16.926,5.216,17,5.395,17,5.6
		S16.924,5.984,16.782,6.129z"/>
	<circle fill="#606161" cx="12.7" cy="5.839" r="0.536"/>
	<circle fill="#606161" cx="13.661" cy="4.609" r="0.35"/>
	<polygon id="_x2B__1_" fill="#868686" points="29.563,40.309 28.731,40.309 28.731,39.477 28.254,39.477 28.254,40.309 
		27.422,40.309 27.422,40.783 28.254,40.783 28.254,41.617 28.731,41.617 28.731,40.783 29.563,40.783 	"/>
	<polygon fill="#868686" points="29.471,29.125 29.097,29.125 29.097,28.75 29.471,28.75 29.471,28.006 29.105,28.006 
		29.105,27.639 27.624,27.639 27.624,27.998 28.737,27.998 28.737,28.758 27.991,28.758 27.991,29.119 28.737,29.119 28.737,29.865 
		27.616,29.865 27.616,30.232 29.097,30.232 29.097,29.855 29.471,29.855 	"/>
	<polygon fill="#868686" points="24.393,30.232 24.393,27.639 23.65,27.639 23.65,27.998 23.281,27.998 23.281,28.377 23.65,28.377 
		23.655,30.232 	"/>
	<polygon fill="#868686" points="25.186,27.639 25.186,28.006 26.29,28.006 26.29,28.754 25.559,28.754 25.559,29.125 
		25.186,29.125 25.19,30.232 27.042,30.232 27.042,29.865 25.918,29.865 25.918,29.119 26.665,29.119 26.665,28.744 27.042,28.744 
		27.042,28.006 26.665,28.006 26.665,27.639 	"/>
	<path id="serce_1_" fill="#868686" d="M31.053,4.859l-0.119,0.115l-0.07-0.148c-0.055-0.117-0.113-0.215-0.18-0.309
		c-0.371-0.549-0.855-0.869-1.485-0.982c-0.14-0.023-0.28-0.035-0.415-0.035c-0.467,0-0.907,0.15-1.316,0.447
		c-0.523,0.383-0.846,0.908-0.963,1.566c-0.104,0.564-0.028,1.096,0.222,1.586l0.106,0.193c0.835,1.461,1.845,2.791,2.998,3.953
		c1.492-0.705,2.896-1.609,4.171-2.689c0.021-0.023,0.05-0.049,0.081-0.078c0.027-0.023,0.054-0.047,0.076-0.068
		c0.402-0.371,0.656-0.848,0.758-1.414c0.115-0.658-0.01-1.264-0.369-1.803c-0.369-0.543-0.855-0.863-1.486-0.977
		c-0.625-0.109-1.211,0.031-1.729,0.41C31.227,4.705,31.134,4.781,31.053,4.859z"/>
	<path fill="#868686" d="M12.715,21.355l-2.748,1.277c0.181,0.277,0.424,0.473,0.747,0.59l2.001-0.949
		C12.803,21.982,12.809,21.666,12.715,21.355z"/>
	<path fill="#868686" d="M11.767,20.35c-0.178-0.066-0.357-0.098-0.53-0.098c-0.211,0-0.426,0.049-0.637,0.148
		c-0.39,0.18-0.649,0.461-0.793,0.863c-0.123,0.342-0.129,0.684-0.013,1.01l2.756-1.283C12.372,20.686,12.114,20.477,11.767,20.35z"
		/>
	<polygon fill="#868686" points="13.911,26.348 12.797,23.041 11.208,23.779 13.028,26.76 	"/>
	<path fill="#868686" d="M6.26,13.605H5.526l-0.23-0.703c-0.003-0.02-0.016-0.035-0.035-0.051c-0.018-0.012-0.037-0.02-0.061-0.018
		c-0.021-0.002-0.038,0.006-0.055,0.018c-0.02,0.016-0.031,0.031-0.037,0.051l-0.23,0.703h-0.74c-0.023,0-0.041,0.002-0.058,0.018
		c-0.02,0.01-0.031,0.029-0.036,0.049s-0.005,0.039,0,0.061s0.017,0.037,0.036,0.053l0.597,0.432L4.452,14.92
		c-0.008,0.021-0.008,0.041,0,0.061c0.003,0.021,0.02,0.037,0.033,0.049c0.02,0.016,0.037,0.021,0.061,0.021
		s0.039-0.006,0.057-0.021L5.2,14.6l0.598,0.43c0.018,0.016,0.037,0.021,0.057,0.021c0.022,0,0.043-0.006,0.061-0.021
		c0.018-0.012,0.029-0.027,0.036-0.049c0.008-0.02,0.008-0.041,0-0.061l-0.23-0.703l0.599-0.432
		c0.018-0.016,0.031-0.031,0.035-0.053c0.007-0.021,0.007-0.041,0-0.061c-0.004-0.02-0.018-0.039-0.035-0.049
		C6.299,13.607,6.284,13.605,6.26,13.605z"/>
	<path id="lisc_1_" fill="#868686" d="M16.29,9.375c0.118-0.021,0.227-0.047,0.334-0.078c0.072-0.02,0.146-0.041,0.219-0.068
		L16.68,8.75c-0.042,0.02-0.086,0.037-0.128,0.055c-0.093,0.039-0.155,0.064-0.214,0.084c-0.074,0.029-0.148,0.053-0.229,0.074
		C16.031,8.984,15.95,9.004,15.87,9.02c-0.084,0.014-0.164,0.027-0.244,0.039c-0.086,0.008-0.174,0.016-0.254,0.02h-0.064
		c-0.098,0-0.193-0.006-0.289-0.016C14.881,9.051,14.743,9.029,14.606,9l-0.051-0.012c-0.123-0.029-0.24-0.053-0.36-0.074
		c-0.083-0.018-0.161-0.029-0.239-0.041c-0.219-0.031-0.443-0.055-0.65-0.062c-0.404-0.016-0.824,0.008-1.239,0.068
		c-0.397,0.061-0.802,0.152-1.198,0.277c-0.402,0.131-0.794,0.283-1.159,0.457L9.355,9.777L9.249,9.576l0.062-0.041
		c0.23-0.137,0.441-0.258,0.643-0.367c0.225-0.119,0.463-0.236,0.707-0.342c0.231-0.098,0.482-0.191,0.738-0.279
		c0.258-0.08,0.518-0.15,0.774-0.203c0.254-0.055,0.526-0.094,0.801-0.117c0.265-0.025,0.546-0.035,0.821-0.023
		c0.141,0.006,0.285,0.018,0.432,0.031c-0.234-0.389-0.559-0.711-0.966-0.963c-0.233-0.129-0.468-0.207-0.722-0.234
		c-0.227-0.027-0.441-0.025-0.652,0.008c-0.309,0.053-0.576,0.127-0.823,0.23c-0.38,0.158-0.724,0.359-1.044,0.605
		C9.518,8.254,9.063,8.697,8.667,9.189c-0.403,0.506-0.757,1.049-1.049,1.613c0.197-0.014,0.391-0.029,0.586-0.037
		c0.137-0.012,0.273-0.018,0.414-0.018c0.331,0,0.672,0.029,1.009,0.088c0.517,0.092,1.009,0.197,1.466,0.309
		c0.325,0.049,0.664,0.102,1.006,0.158c0.37,0.059,0.746,0.059,1.1-0.012c0.421-0.08,0.771-0.299,1.038-0.643
		c0.082-0.104,0.138-0.201,0.175-0.293c0.139-0.32,0.199-0.648,0.182-0.971l-0.008-0.174l0.164,0.055
		c0.07,0.023,0.143,0.045,0.219,0.062c0.105,0.029,0.217,0.051,0.33,0.066c0.115,0.018,0.223,0.029,0.328,0.029
		c0.121,0.004,0.225,0,0.338-0.008c0.087-0.008,0.18-0.018,0.271-0.033C16.258,9.381,16.277,9.377,16.29,9.375z"/>
	<path id="kosc_1_" fill="#868686" d="M33.766,36.332c-0.151-0.199-0.373-0.332-0.625-0.367c-0.315-0.045-0.623,0.072-0.832,0.299
		c-0.025,0.029-0.062,0.045-0.104,0.035c-0.039-0.004-0.072-0.027-0.09-0.064c-0.14-0.276-0.411-0.47-0.719-0.513
		c-0.522-0.074-1,0.298-1.072,0.809c-0.072,0.52,0.288,0.997,0.809,1.073c0.064,0.008,0.143,0.07,0.132,0.138l-0.562,3.985
		c-0.001,0.031-0.02,0.062-0.046,0.082c-0.026,0.019-0.06,0.021-0.091,0.019c-0.07-0.009-0.117-0.015-0.16-0.015
		c-0.472,0-0.875,0.353-0.941,0.816c-0.035,0.252,0.03,0.502,0.184,0.707c0.154,0.203,0.375,0.332,0.626,0.369
		c0.316,0.043,0.625-0.072,0.833-0.301c0.022-0.023,0.055-0.037,0.086-0.037c0,0,0.01,0,0.018,0
		c0.037,0.008,0.072,0.031,0.088,0.068c0.143,0.276,0.41,0.471,0.719,0.514c0.525,0.072,1.004-0.299,1.074-0.807
		c0.035-0.254-0.029-0.507-0.182-0.707c-0.154-0.199-0.375-0.334-0.627-0.369c-0.032-0.004-0.073-0.021-0.095-0.049
		c-0.02-0.021-0.042-0.06-0.037-0.088l0.559-3.986c0.005-0.031,0.022-0.062,0.05-0.078c0.025-0.02,0.059-0.027,0.091-0.023
		c0.07,0.014,0.115,0.014,0.157,0.014c0.473,0,0.877-0.348,0.943-0.815C33.985,36.787,33.922,36.537,33.766,36.332z"/>
	<path id="przecinek_1_" fill="#AEAEAF" d="M6.147,16.932v-1.146H4.541v1.521h0.913v0.127c-0.001,0.277-0.087,0.514-0.254,0.695
		c-0.157,0.164-0.393,0.291-0.707,0.373v0.434c0.542-0.078,0.948-0.275,1.207-0.584C5.991,18.025,6.143,17.547,6.147,16.932z"/>
	<path fill="#AEAEAF" d="M39.168,32.305c0.027,0.01,0.051,0.018,0.08,0.027c0.327,0.131,0.523,0.363,0.585,0.691
		c0.186-0.012,0.374-0.016,0.559-0.006c-0.052-0.383-0.151-0.752-0.287-1.096C39.76,31.961,39.439,32.094,39.168,32.305z"/>
	<path fill="#AEAEAF" d="M39.059,34.348c0.273-0.344,0.424-0.656,0.457-0.963c-0.367,0.047-0.723,0.135-1.059,0.258
		c-0.002,0.041-0.002,0.084-0.002,0.125c0,0.334,0.089,0.658,0.257,0.945C38.834,34.604,38.951,34.482,39.059,34.348z"/>
	<path fill="#AEAEAF" d="M41.995,34.402c0.016,0.016,0.031,0.035,0.045,0.053c0.084-0.219,0.131-0.451,0.131-0.688v-0.023
		c-0.2-0.088-0.412-0.162-0.625-0.223C41.596,33.803,41.744,34.09,41.995,34.402z"/>
	<path fill="#AEAEAF" d="M38.881,32.586c-0.166,0.199-0.289,0.436-0.359,0.684c0.312-0.104,0.643-0.174,0.979-0.217
		c-0.046-0.195-0.169-0.328-0.376-0.414C39.049,32.611,38.967,32.592,38.881,32.586z"/>
	<path fill="#AEAEAF" d="M41.875,34.771c-0.047-0.053-0.095-0.107-0.14-0.162c-0.327-0.404-0.503-0.789-0.536-1.17
		c-0.143-0.027-0.289-0.051-0.436-0.066c0.01,0.131,0.014,0.262,0.014,0.395c0,0.658-0.107,1.281-0.323,1.852
		C41.034,35.576,41.559,35.264,41.875,34.771z"/>
	<path fill="#AEAEAF" d="M40.733,33.037c0.162,0.014,0.321,0.037,0.477,0.066c0.046-0.283,0.188-0.496,0.427-0.639
		c-0.315-0.32-0.731-0.516-1.179-0.547C40.588,32.271,40.682,32.646,40.733,33.037z"/>
	<path fill="#AEAEAF" d="M40.446,33.768c0-0.141-0.006-0.281-0.016-0.418c-0.191-0.008-0.388-0.008-0.578,0.002
		c-0.023,0.393-0.201,0.787-0.535,1.207c-0.125,0.154-0.262,0.295-0.407,0.426c0.306,0.355,0.727,0.576,1.191,0.629
		C40.331,35.047,40.446,34.426,40.446,33.768z"/>
	<path fill="#AEAEAF" d="M41.536,33.174c0.2,0.053,0.397,0.117,0.59,0.193c-0.051-0.229-0.144-0.443-0.275-0.641
		C41.665,32.818,41.563,32.963,41.536,33.174z"/>
	<polygon id="kursor_1_" fill="#AEAEAF" points="36.691,34.691 36.691,35.338 37.011,35.338 37.011,35.975 37.492,35.975 
		37.492,35.494 37.171,35.494 37.171,34.852 36.85,34.852 36.85,34.053 37.817,34.053 37.817,33.893 37.492,33.893 37.492,33.572 
		37.171,33.572 37.171,33.254 36.85,33.254 36.85,32.932 36.535,32.932 36.535,32.611 36.214,32.611 36.214,32.293 35.895,32.293 
		35.895,31.975 35.57,31.975 35.57,31.652 35.41,31.652 35.41,35.018 35.57,35.018 35.57,34.691 35.895,34.691 35.895,34.373 
		36.372,34.373 36.372,34.691 	"/>
	<path fill="#AEAEAF" d="M16.737,41.992l0.518,1.262l1.629-0.23l-2.955-6.121l-1.461,0.111l-1.365,6.525l1.641,0.002l0.148-1.146
		L16.737,41.992z M15.424,38.588L16.404,41l-1.358,0.277L15.424,38.588z"/>
	<path fill="#AEAEAF" d="M20.12,36.385c-0.368-0.018-0.947-0.025-1.703-0.018l0.059,8.197c0.738-0.025,1.33-0.062,1.861-0.119
		c0.684-0.103,1.243-0.201,1.76-0.32c1.783-0.428,2.703-1.049,2.732-1.85c0.032-0.596-0.418-1.084-1.334-1.449
		c-0.518-0.223-1.035-0.369-1.584-0.451l-0.451-0.066l0.428-0.16c0.406-0.155,0.816-0.364,1.217-0.629
		c0.707-0.477,1.075-0.959,1.09-1.438c0.018-0.254-0.064-0.48-0.238-0.678C23.449,36.834,22.159,36.49,20.12,36.385z M22.561,42.174
		c-0.05,0.705-0.788,1.061-2.193,1.061c-0.099,0-0.201,0-0.305-0.006l-0.118-0.004L19.93,41.17l0.113-0.012
		c0.169-0.012,0.324-0.018,0.467-0.02h0.186c0.123,0,0.24,0,0.35,0.008C22.069,41.199,22.581,41.545,22.561,42.174z M19.833,39.51
		l-0.122,0.006l-0.001-1.873l0.112-0.006c0.315-0.018,0.562-0.025,0.75-0.018c0.881,0.045,1.318,0.359,1.298,0.932
		C21.83,39.154,21.143,39.473,19.833,39.51z"/>
	<path fill="#AEAEAF" d="M26.766,37.824c-1.173,0.398-1.918,0.939-2.221,1.611c-0.057,0.123-0.09,0.231-0.1,0.325
		c-0.148,0.896,0.244,1.75,1.197,2.615c0.632,0.558,1.48,1.084,2.527,1.567l0.24-1.315c-0.674-0.274-1.23-0.606-1.685-0.994
		c-0.711-0.584-0.944-1.159-0.689-1.717c0.2-0.438,0.67-0.76,1.396-0.953c0.497-0.135,1.033-0.203,1.596-0.203l0.125,0.003
		l0.328-1.472C28.512,37.348,27.598,37.527,26.766,37.824z"/>
	<path id="klawiatura_1_" fill="#AEAEAF" d="M33.09,22.816c0-0.211-0.092-0.309-0.299-0.309h-4.525l0.049-0.186
		c0.039-0.219,0.021-0.457-0.055-0.65c-0.034-0.08-0.092-0.199-0.193-0.334c-0.217-0.27-0.511-0.422-0.85-0.438
		c-0.287-0.016-0.491,0.049-0.676,0.203c-0.129,0.094-0.279,0.143-0.443,0.143l-0.047-0.002c-0.344-0.031-0.488-0.189-0.488-0.523
		c0-0.018,0.025-0.223,0.087-0.58c0.008-0.037-0.001-0.068-0.019-0.092c-0.047-0.053-0.176-0.104-0.201,0.055
		c-0.067,0.391-0.093,0.584-0.093,0.617c0,0.447,0.243,0.705,0.695,0.746c0.218,0.016,0.468-0.053,0.649-0.189
		c0.139-0.117,0.303-0.162,0.525-0.152c0.274,0.014,0.504,0.129,0.682,0.35c0.084,0.115,0.132,0.209,0.164,0.281
		c0.041,0.109,0.084,0.289,0.045,0.518l-0.062,0.234H23.62c-0.217,0-0.31,0.092-0.31,0.309v3.559c0,0.217,0.093,0.309,0.31,0.309
		h9.171c0.207,0,0.299-0.092,0.299-0.309V22.816z M27.032,23.178h0.797v0.797h-0.797V23.178z M27.032,24.197h0.797v0.799h-0.797
		V24.197z M26.008,23.178h0.799v0.797h-0.799V23.178z M26.008,24.197h0.799v0.799h-0.799V24.197z M24.993,23.178h0.797v0.797h-0.797
		V23.178z M24.993,24.197h0.797v0.799h-0.797V24.197z M24.767,26.016h-0.798v-0.795h0.798V26.016z M24.767,24.996h-0.798v-0.799
		h0.798V24.996z M24.767,23.975h-0.798v-0.797h0.798V23.975z M28.834,26.016h-3.857v-0.795h3.857V26.016z M28.85,24.996h-0.802
		v-0.799h0.802V24.996z M28.85,23.975h-0.802v-0.797h0.802V23.975z M29.869,26.016h-0.796v-0.795h0.796V26.016z M29.869,24.996
		h-0.796v-0.799h0.796V24.996z M29.869,23.975h-0.796v-0.797h0.796V23.975z M31.397,26.016h-0.795v-0.795h0.795V26.016z
		 M31.397,24.996h-0.795v-0.799h0.795V24.996z M31.397,23.975h-0.795v-0.797h0.795V23.975z M32.419,26.016h-0.797v-0.795h0.797
		V26.016z M32.419,24.996h-0.797v-0.799h0.797V24.996z M32.419,23.975h-0.797v-0.797h0.797V23.975z"/>
	<path fill="#AEAEAF" d="M41.444,6.729c-0.281,0-0.508,0.227-0.508,0.506c0,0.279,0.227,0.508,0.508,0.508
		c0.277,0,0.506-0.229,0.506-0.508C41.95,6.956,41.721,6.729,41.444,6.729z"/>
	<path fill="#AEAEAF" d="M41.846,5.828l0.496-0.377c0.105-0.082,0.184-0.191,0.234-0.316c0.049-0.127,0.072-0.268,0.072-0.418
		c0-0.17-0.045-0.328-0.135-0.473c-0.09-0.145-0.221-0.264-0.393-0.348c-0.171-0.091-0.38-0.136-0.623-0.136
		c-0.209,0-0.394,0.037-0.547,0.111c-0.15,0.076-0.262,0.164-0.338,0.277c-0.078,0.111-0.113,0.227-0.113,0.35V4.65
		c0.07-0.062,0.15-0.111,0.238-0.146c0.145-0.057,0.307-0.086,0.506-0.086c0.168,0,0.3,0.035,0.389,0.109
		c0.096,0.068,0.145,0.168,0.145,0.283c0,0.053-0.012,0.113-0.029,0.178c-0.019,0.072-0.055,0.135-0.11,0.186l-0.509,0.449
		c-0.045,0.041-0.084,0.096-0.123,0.17c-0.032,0.072-0.053,0.152-0.053,0.25c0,0.086,0.029,0.158,0.092,0.215
		c0.06,0.059,0.158,0.09,0.297,0.096h0.28v-0.09c-0.003-0.098,0.016-0.182,0.05-0.252C41.706,5.949,41.762,5.891,41.846,5.828z"/>
	<path id="ekierka_1_" fill="#AEAEAF" d="M12.967,3.854H2.04V14.78L12.967,3.854z M3.788,5.6h4.979l-4.979,4.979V5.6z"/>
	<path id="atomy_1_" fill="#AEAEAF" d="M33.379,18.172l-0.056-0.012l-0.309-3.227l0.046-0.025c0.664-0.34,1.076-1.018,1.076-1.764
		c0-1.092-0.891-1.982-1.984-1.982c-1.092,0-1.982,0.891-1.982,1.982c0,0.287,0.059,0.561,0.176,0.82l0.023,0.051l-1.678,1.541
		l-0.053-0.029c-0.36-0.213-0.775-0.326-1.198-0.326c-1.298,0-2.353,1.057-2.353,2.354c0,1.299,1.055,2.355,2.353,2.355
		c0.772,0,1.493-0.375,1.935-1.006l0.033-0.051l1.964,0.711l-0.003,0.061c-0.004,0.035-0.008,0.076-0.008,0.115
		c0,0.891,0.727,1.615,1.617,1.615c0.893,0,1.618-0.725,1.618-1.615C34.597,19,34.095,18.354,33.379,18.172z M30.645,13.148
		c0.152,0.297,0.385,0.52,0.693,0.666c0.373,0.174,0.758,0.189,1.143,0.043c0.386-0.135,0.666-0.393,0.843-0.768
		c0.101-0.229,0.149-0.455,0.144-0.68l0.154-0.033c0.014,0.031,0.027,0.064,0.039,0.098c0.016,0.031,0.027,0.064,0.043,0.096
		c0.152,0.438,0.133,0.861-0.055,1.27c-0.193,0.414-0.508,0.701-0.936,0.854c-0.191,0.072-0.387,0.109-0.574,0.109
		c-0.234,0-0.465-0.055-0.688-0.162c-0.41-0.189-0.699-0.504-0.854-0.93c-0.06-0.168-0.094-0.344-0.102-0.521L30.645,13.148z
		 M29.198,18.373c-0.227,0.49-0.598,0.824-1.098,0.998c-0.223,0.084-0.449,0.127-0.674,0.127c-0.269,0-0.54-0.064-0.799-0.189
		c-0.484-0.225-0.822-0.59-1.006-1.09c-0.072-0.203-0.111-0.408-0.121-0.609l0.148-0.041c0.183,0.352,0.462,0.617,0.83,0.785
		c0.443,0.213,0.896,0.234,1.354,0.057c0.459-0.158,0.8-0.465,1.008-0.91c0.117-0.27,0.178-0.543,0.17-0.807l0.151-0.037
		c0.019,0.039,0.036,0.078,0.05,0.117c0.017,0.039,0.031,0.074,0.05,0.113C29.437,17.393,29.417,17.891,29.198,18.373z
		 M29.702,18.229l0.018-0.072c0.053-0.193,0.078-0.398,0.078-0.602c0-0.541-0.191-1.074-0.535-1.494l-0.047-0.057l1.559-1.432
		l0.055,0.047c0.393,0.354,0.914,0.535,1.434,0.506l0.078-0.004l0.291,3.039l-0.063,0.016c-0.388,0.102-0.722,0.346-0.942,0.682
		l-0.035,0.055L29.702,18.229z M33.444,21.023c-0.156,0.061-0.318,0.094-0.478,0.094c-0.193,0-0.387-0.047-0.571-0.135
		c-0.338-0.16-0.579-0.42-0.707-0.773c-0.049-0.139-0.08-0.283-0.086-0.43l0.151-0.041c0.12,0.24,0.31,0.42,0.563,0.537
		c0.301,0.143,0.612,0.156,0.924,0.037c0.314-0.111,0.543-0.32,0.69-0.627c0.079-0.178,0.115-0.365,0.114-0.551l0.15-0.033
		c0.014,0.023,0.022,0.049,0.033,0.072c0.012,0.029,0.022,0.059,0.035,0.084c0.131,0.367,0.113,0.721-0.046,1.059
		C34.061,20.66,33.801,20.896,33.444,21.023z"/>
	<path fill="#AEAEAF" d="M4.098,31.908c-0.289,0-0.529,0.238-0.529,0.529c0,0.293,0.24,0.533,0.529,0.533
		c0.295,0,0.531-0.24,0.531-0.533C4.629,32.146,4.393,31.908,4.098,31.908z"/>
	<circle fill="#AEAEAF" cx="9.589" cy="30.721" r="0.398"/>
	<circle fill="#AEAEAF" cx="6.286" cy="33.079" r="0.874"/>
	<path fill="#AEAEAF" d="M9.518,27.883l0.045-0.033c0.228-0.174,0.445-0.355,0.645-0.533c0.864-0.787,1.209-1.393,1.017-1.807
		c-0.188-0.408-0.884-0.539-2.036-0.379c-0.018,0.002-0.035,0.004-0.051,0.006c0.014,0.016,0.024,0.031,0.038,0.049
		c0.407,0.043,0.673,0.188,0.788,0.436c0.146,0.311,0.018,0.701-0.382,1.16c-0.122,0.141-0.274,0.293-0.45,0.447
		C8.424,27.863,7.478,28.459,6.319,29c-1.157,0.543-2.225,0.883-3.166,1.016c-0.232,0.035-0.443,0.053-0.631,0.055l-0.061,0.002
		c-0.572,0-0.935-0.152-1.075-0.451c-0.115-0.248-0.056-0.547,0.177-0.889c-0.008-0.02-0.012-0.037-0.017-0.057
		c-0.012,0.008-0.024,0.021-0.038,0.033c-0.854,0.775-1.205,1.4-1.014,1.807c0.188,0.408,0.88,0.537,2.034,0.379
		c0.267-0.037,0.546-0.088,0.825-0.15l0.053-0.01l0.046,0.031c0.662,0.506,1.454,0.775,2.29,0.775c2.023,0,3.683-1.582,3.773-3.6
		L9.518,27.883z"/>
	<path fill="#AEAEAF" d="M2.333,29.391c0.174-0.004,0.369-0.021,0.582-0.053c0.921-0.133,1.963-0.467,3.096-0.996
		c1.14-0.535,2.066-1.113,2.754-1.732c0.16-0.145,0.301-0.283,0.415-0.41c-0.616-1.344-1.954-2.207-3.437-2.207
		c-2.081,0-3.775,1.693-3.775,3.775C1.967,28.334,2.09,28.881,2.333,29.391z"/>
	<circle fill="#AEAEAF" cx="10.842" cy="33.979" r="0.369"/>
	<circle fill="#AEAEAF" cx="9.684" cy="33.979" r="0.369"/>
	<circle fill="#AEAEAF" cx="12" cy="33.979" r="0.369"/>
	<path fill="#AEAEAF" d="M12.921,35.83c0.573-0.492,0.868-1.104,0.88-1.82c-0.012-0.729-0.309-1.346-0.885-1.842
		c-0.566-0.486-1.258-0.73-2.062-0.73s-1.505,0.244-2.079,0.73C8.192,32.666,7.9,33.289,7.909,34.01
		c-0.009,0.713,0.283,1.328,0.866,1.826c0.579,0.492,1.281,0.742,2.079,0.742c0.505,0,0.97-0.102,1.384-0.299l0.046-0.021
		l1.035,0.758l-0.442-1.147L12.921,35.83z M12.608,35.475c-0.488,0.424-1.063,0.63-1.753,0.63c-0.687,0-1.281-0.212-1.771-0.63
		c-0.48-0.408-0.708-0.889-0.7-1.465c-0.008-0.58,0.227-1.076,0.696-1.479c0.494-0.418,1.075-0.619,1.775-0.619
		c0.696,0,1.27,0.201,1.753,0.617c0.474,0.404,0.709,0.891,0.721,1.48C13.317,34.59,13.082,35.068,12.608,35.475z"/>
	<path id="kalkulator_1_" fill="#D6D7D7" d="M22.434,24.273c0-0.633-0.309-0.939-0.941-0.939H15.52
		c-0.637,0-0.945,0.307-0.945,0.939v10.229c0,0.635,0.309,0.943,0.945,0.943h5.973c0.633,0,0.941-0.309,0.941-0.943V24.273z
		 M16.694,34.521h-1.203v-1.205h1.203V34.521z M16.694,32.977h-1.203v-1.203h1.203V32.977z M16.694,31.434h-1.203v-1.205h1.203
		V31.434z M16.694,29.891h-1.203v-1.207h1.203V29.891z M18.314,34.521h-1.202v-1.205h1.202V34.521z M18.314,32.977h-1.202v-1.203
		h1.202V32.977z M18.314,31.434h-1.202v-1.205h1.202V31.434z M18.314,29.891h-1.202v-1.207h1.202V29.891z M19.917,34.521h-1.201
		v-1.205h1.201V34.521z M19.917,32.977h-1.201v-1.203h1.201V32.977z M19.917,31.434h-1.201v-1.205h1.201V31.434z M19.917,29.891
		h-1.201v-1.207h1.201V29.891z M21.52,34.521h-1.203v-1.205h1.203V34.521z M21.52,32.977h-1.203v-1.203h1.203V32.977z M21.52,31.434
		h-1.203v-1.205h1.203V31.434z M21.52,29.891h-1.203v-1.207h1.203V29.891z M21.52,26.598h-6.029v-2.17h6.029V26.598z"/>
	<path id="nutka_1_" fill="#D6D7D7" d="M3.268,33.766l-0.069-0.617l-1.8,0.316l1.869,7.697l-0.191-0.041
		c-0.211-0.053-0.428-0.078-0.647-0.078c-0.171,0-0.349,0.014-0.528,0.045c-0.576,0.102-1.059,0.328-1.426,0.67
		c-0.366,0.344-0.519,0.695-0.465,1.072c0.078,0.365,0.34,0.641,0.802,0.842c0.452,0.189,0.985,0.238,1.575,0.152
		c0.576-0.115,1.037-0.338,1.404-0.678c0.347-0.314,0.506-0.648,0.47-0.992l-0.704-5.951l2.779,1.525l0.98-2.654L3.268,33.766z"/>
	<path id="puzzel_1_" fill="#D6D7D7" d="M42.971,40.807c0.177-0.178,0.268-0.393,0.268-0.639c0-0.254-0.091-0.477-0.27-0.652
		c-0.172-0.174-0.38-0.262-0.621-0.262l-0.055-0.002c-0.188,0-0.36,0.057-0.508,0.162l-0.195,0.146l0.006-0.246
		c0.031-0.854,0.103-1.703,0.209-2.519c-0.801-0.114-1.611-0.187-2.411-0.213c0.101,0.176,0.156,0.379,0.156,0.59
		c0,0.312-0.111,0.582-0.337,0.81c-0.222,0.219-0.494,0.334-0.812,0.342c-0.321-0.008-0.594-0.123-0.814-0.342
		c-0.225-0.224-0.338-0.494-0.338-0.81c0-0.211,0.055-0.414,0.157-0.59c-0.802,0.026-1.594,0.099-2.406,0.213
		c0.108,0.818,0.177,1.67,0.206,2.527l0.007,0.243l-0.196-0.143c-0.158-0.117-0.325-0.174-0.512-0.174l-0.057,0.002
		c-0.237,0-0.446,0.088-0.621,0.262c-0.176,0.176-0.266,0.398-0.266,0.652c0,0.25,0.09,0.465,0.268,0.639
		c0.177,0.178,0.394,0.271,0.646,0.275c0.2,0,0.377-0.059,0.541-0.178l0.196-0.142l-0.007,0.238
		c-0.029,0.86-0.098,1.715-0.206,2.539c0.821,0.106,1.626,0.176,2.402,0.203c-0.11-0.177-0.16-0.371-0.153-0.584
		c0-0.32,0.113-0.597,0.338-0.818c0.218-0.219,0.484-0.33,0.785-0.33h0.054c0.308,0,0.57,0.111,0.788,0.33
		c0.226,0.224,0.337,0.5,0.337,0.822c0,0.213-0.052,0.405-0.16,0.58c0.785-0.027,1.597-0.097,2.415-0.203
		c-0.106-0.826-0.178-1.681-0.209-2.539L41.59,40.76l0.197,0.146c0.148,0.112,0.334,0.172,0.539,0.178
		C42.578,41.076,42.793,40.984,42.971,40.807z"/>
	<path id="_x40__1_" fill="#D6D7D7" d="M17.622,20.234c0-0.262-0.049-0.494-0.148-0.693c-0.102-0.205-0.256-0.393-0.469-0.551
		c-0.16-0.131-0.354-0.234-0.574-0.305c-0.223-0.064-0.473-0.098-0.742-0.098c-0.395,0-0.754,0.072-1.07,0.219
		c-0.316,0.143-0.592,0.355-0.817,0.631c-0.157,0.188-0.279,0.398-0.36,0.633c-0.079,0.221-0.12,0.465-0.12,0.73
		c0,0.299,0.058,0.576,0.175,0.826c0.112,0.232,0.293,0.447,0.531,0.637c0.193,0.145,0.416,0.254,0.665,0.326
		c0.239,0.074,0.514,0.113,0.808,0.113c0.295,0,0.569-0.045,0.831-0.133c0.261-0.084,0.502-0.207,0.724-0.369l-0.177-0.258
		c-0.193,0.135-0.406,0.242-0.633,0.312c-0.231,0.07-0.484,0.102-0.745,0.102c-0.355,0-0.67-0.064-0.938-0.191
		c-0.264-0.129-0.471-0.312-0.617-0.547c-0.141-0.236-0.217-0.508-0.225-0.83c0.008-0.312,0.076-0.594,0.201-0.85
		c0.138-0.258,0.331-0.477,0.581-0.648c0.153-0.117,0.333-0.207,0.532-0.26c0.201-0.061,0.418-0.09,0.654-0.09
		c0.307,0,0.582,0.057,0.814,0.17c0.229,0.104,0.411,0.26,0.538,0.457c0.124,0.188,0.189,0.412,0.196,0.666
		c-0.007,0.213-0.048,0.402-0.129,0.57c-0.072,0.174-0.174,0.32-0.295,0.424c-0.126,0.1-0.265,0.156-0.413,0.164h-0.001
		c-0.072,0-0.121-0.016-0.152-0.045c-0.029-0.031-0.044-0.078-0.044-0.139c0-0.012,0-0.025,0.007-0.043l0.347-1.402h-0.402
		l-0.144,0.248l-0.035-0.057c-0.052-0.086-0.121-0.156-0.204-0.197c-0.083-0.047-0.179-0.074-0.294-0.074
		c-0.202,0.01-0.391,0.066-0.556,0.172c-0.163,0.107-0.296,0.26-0.396,0.453c-0.09,0.18-0.144,0.402-0.152,0.656
		c0,0.254,0.063,0.447,0.189,0.572c0.119,0.127,0.305,0.188,0.549,0.188c0.138,0,0.261-0.029,0.368-0.086
		c0.108-0.049,0.2-0.137,0.272-0.262l0.063-0.105l0.011,0.125c0.01,0.113,0.052,0.193,0.127,0.246
		c0.141,0.1,0.454,0.113,0.742,0.018c0.127-0.043,0.246-0.107,0.355-0.193c0.186-0.15,0.331-0.332,0.432-0.541
		C17.577,20.721,17.622,20.484,17.622,20.234z M15.793,20.889c-0.037,0.16-0.108,0.291-0.213,0.385
		c-0.109,0.094-0.234,0.141-0.371,0.141c-0.105,0-0.191-0.037-0.252-0.111c-0.064-0.076-0.098-0.186-0.098-0.324
		c0-0.178,0.031-0.346,0.092-0.494c0.063-0.148,0.137-0.262,0.232-0.357c0.188-0.174,0.468-0.168,0.6-0.031
		c0.072,0.062,0.119,0.162,0.132,0.289L15.793,20.889z"/>
	<path fill="#D6D7D7" d="M5.008,23.283c0.02,0.023,0.046,0.039,0.078,0.045h0.018c0.027,0,0.049-0.004,0.065-0.014l1.72-0.98
		l-0.293-0.168l-0.865,0.529l-0.499-0.287l-0.003-1.035l-0.265-0.15L4.976,23.2C4.976,23.23,4.987,23.258,5.008,23.283z"/>
	
		<rect x="5.429" y="20.041" transform="matrix(0.5001 -0.866 0.866 0.5001 -14.2062 16.0204)" fill="#D6D7D7" width="2.686" height="0.547"/>
	<polygon fill="#D6D7D7" points="7.965,19.455 6.622,21.779 7.094,22.051 8.439,19.723 	"/>
	
		<rect x="4.673" y="19.603" transform="matrix(0.5003 -0.8659 0.8659 0.5003 -14.2035 15.1409)" fill="#D6D7D7" width="2.686" height="0.545"/>
	<rect x="8.989" y="18.818" fill="#D6D7D7" width="3.756" height="0.76"/>
	<path fill="#D6D7D7" d="M14.112,11.994H7.605c-0.492,0-0.714,0.221-0.714,0.715v4.658c0,0.492,0.222,0.713,0.714,0.713h6.507
		c0.493,0,0.713-0.221,0.713-0.713v-4.658C14.825,12.215,14.605,11.994,14.112,11.994z M14.065,17.318H7.653v-4.564h6.412V17.318z"
		/>
	<path id="lupka_1_" fill="#D6D7D7" d="M20.212,4.629c-0.519,0.621-0.737,1.32-0.666,2.148c0.07,0.811,0.417,1.482,1.028,1.996
		c0.621,0.521,1.352,0.754,2.166,0.682c0.557-0.049,1.051-0.236,1.471-0.555l0.075-0.057l0.05,0.041l3.072,2.578
		c0.131,0.109,0.271,0.164,0.416,0.164c0.266,0,0.523-0.189,0.622-0.463c0.089-0.252,0.018-0.506-0.204-0.691l-3.137-2.631
		l0.014-0.029c0.243-0.508,0.336-1.002,0.292-1.543c-0.078-0.811-0.435-1.484-1.055-2.002c-0.625-0.521-1.343-0.752-2.13-0.686
		C21.413,3.652,20.735,4.006,20.212,4.629z M22.293,4.371c0.593-0.051,1.102,0.109,1.561,0.496c0.455,0.379,0.716,0.873,0.777,1.461
		c0.043,0.594-0.131,1.123-0.512,1.58c-0.385,0.459-0.86,0.709-1.447,0.76c-0.074,0.006-0.146,0.01-0.221,0.01
		c-0.512,0-0.975-0.17-1.375-0.504c-0.447-0.377-0.7-0.863-0.75-1.457V6.709V6.68c-0.057-0.574,0.11-1.102,0.485-1.547
		C21.19,4.68,21.688,4.424,22.293,4.371z"/>
	<polygon id="gwiazdka_1_" fill="#FFFFFF" points="30.252,20.896 30.836,20.592 30.643,20.254 30.09,20.609 30.118,19.951 
		29.725,19.951 29.752,20.609 29.199,20.254 29.001,20.592 29.592,20.896 29.001,21.195 29.199,21.535 29.752,21.18 29.725,21.84 
		30.118,21.84 30.09,21.18 30.643,21.535 30.836,21.195 	"/>
	<circle fill="#FFFFFF" cx="37.883" cy="2.008" r="0.479"/>
	<path fill="#FFFFFF" d="M38.728,0c-0.366,0-0.665,0.299-0.665,0.666c0,0.365,0.299,0.662,0.665,0.662
		c0.37,0,0.666-0.297,0.666-0.662C39.394,0.299,39.098,0,38.728,0z"/>
	<path fill="#FFFFFF" d="M42.018,10.611l-2.357-4.08l-0.018-2.938h0.262c0.077,0,0.143-0.023,0.184-0.072
		c0.037-0.043,0.061-0.104,0.061-0.168c0-0.113-0.064-0.246-0.244-0.246h-3.612c-0.177,0-0.243,0.133-0.243,0.246
		c0,0.109,0.066,0.24,0.243,0.24h0.264v2.879l-2.38,4.15c0,0-0.029,0.115-0.035,0.135c0,1.076,0.602,1.674,1.688,1.674h4.539
		c1.089,0,1.688-0.602,1.688-1.689C42.055,10.742,42.023,10.625,42.018,10.611z M35.987,8.459l1.02-1.768
		c0,0,0.033-0.119,0.035-0.135V3.594h2.117V6.57c0,0,0.033,0.115,0.038,0.131l1.017,1.758H35.987z"/>
	<path fill="#FFFFFF" d="M37.436,0.658c-0.161,0-0.291,0.131-0.291,0.287c0,0.16,0.13,0.291,0.291,0.291
		c0.159,0,0.289-0.131,0.289-0.291C37.725,0.789,37.595,0.658,37.436,0.658z"/>
	<polygon id="sniezka_1_" fill="#FFFFFF" points="29.715,33.436 29.616,33.055 28.502,33.357 28.719,32.5 28.344,32.398 
		28.067,33.473 26.659,33.85 27.042,32.449 28.139,32.168 28.036,31.791 27.158,32.01 27.454,30.898 27.075,30.799 26.78,31.912 
		26.153,31.309 25.872,31.564 26.665,32.365 26.29,33.762 25.278,32.736 25.561,31.633 25.186,31.531 24.959,32.42 24.124,31.592 
		23.862,31.875 24.674,32.68 23.818,32.924 23.913,33.289 25.01,32.992 26.006,34.023 24.622,34.395 23.826,33.605 23.546,33.855 
		24.198,34.506 23.067,34.811 23.168,35.188 24.283,34.891 24.067,35.746 24.43,35.848 24.722,34.771 26.12,34.395 25.76,35.789 
		24.648,36.076 24.75,36.451 25.629,36.232 25.331,37.348 25.696,37.449 26.008,36.332 26.639,36.959 26.915,36.686 26.125,35.896 
		26.487,34.498 27.51,35.523 27.224,36.613 27.604,36.717 27.831,35.842 28.649,36.658 28.923,36.385 28.111,35.564 28.958,35.338 
		28.859,34.961 27.791,35.248 26.763,34.225 28.167,33.85 28.949,34.656 29.228,34.402 28.607,33.732 	"/>
	<path id="trybik_1_" fill="#FFFFFF" d="M14.017,29.432l0.021-0.201l-0.298-0.104l-0.027-0.336l0.271-0.154l-0.057-0.197
		l-0.312,0.037l-0.162-0.303l0.18-0.254l-0.129-0.156l-0.266,0.156l-0.272-0.215l0.058-0.303l-0.181-0.086l-0.183,0.256
		l-0.338-0.078l-0.063-0.318l-0.206-0.006l-0.057,0.318l-0.334,0.062l-0.188-0.27l-0.197,0.082l0.064,0.316l-0.273,0.195
		l-0.271-0.18l-0.156,0.158l0.197,0.262l-0.17,0.291l-0.328-0.051l-0.065,0.205l0.279,0.16l-0.038,0.338l-0.311,0.084l0.014,0.203
		l0.324,0.049l0.088,0.326l-0.241,0.201l0.095,0.178l0.312-0.084l0.218,0.258l-0.13,0.299l0.168,0.111l0.237-0.209l0.303,0.148
		l0.003,0.32l0.19,0.043l0.134-0.293l0.342,0.02L12.39,31l0.202-0.045v-0.312l0.318-0.135l0.232,0.213l0.162-0.115l-0.122-0.287
		l0.227-0.246l0.306,0.1l0.101-0.174l-0.229-0.217l0.111-0.311L14.017,29.432z M12.432,29.396c-0.087,0.084-0.191,0.129-0.311,0.129
		c-0.117,0-0.227-0.045-0.309-0.129c-0.086-0.086-0.129-0.189-0.129-0.311s0.043-0.225,0.131-0.307
		c0.16-0.166,0.451-0.166,0.617-0.002c0.088,0.088,0.129,0.189,0.129,0.309S12.52,29.311,12.432,29.396z"/>
	<polygon id="blyskawica_1_" fill="#FFFFFF" points="4.981,19.484 2.288,19.688 3.966,15.498 2.618,15.105 1.662,20.223 
		3.387,20.408 2.793,22.527 1.81,22.301 2.227,25.203 4.364,22.916 3.374,22.666 	"/>
	<path fill="#FFFFFF" d="M41.054,26.822c-0.259-0.021-0.507-0.086-0.732-0.18v2.904h0.761v-2.725h-0.029V26.822z"/>
	<path fill="#FFFFFF" d="M41.708,30.238c-0.08-0.086-0.18-0.125-0.291-0.125h-5.658c-0.111,0-0.207,0.039-0.291,0.125
		c-0.087,0.084-0.128,0.182-0.128,0.293c0,0.109,0.041,0.207,0.128,0.293c0.086,0.086,0.181,0.127,0.291,0.127h5.658
		c0.109,0,0.208-0.043,0.291-0.127c0.088-0.084,0.127-0.182,0.127-0.293C41.834,30.418,41.793,30.32,41.708,30.238z"/>
	<path fill="#FFFFFF" d="M36.137,26.822h-0.043v2.725h0.762v-2.898C36.633,26.738,36.393,26.801,36.137,26.822z"/>
	<path fill="#FFFFFF" d="M43.36,24.059c0-0.584-0.199-1.066-0.61-1.479c-0.397-0.395-0.872-0.6-1.419-0.613h-5.453
		c-0.568,0.014-1.056,0.221-1.447,0.613c-0.42,0.414-0.615,0.902-0.598,1.475c-0.018,0.58,0.178,1.064,0.598,1.482
		c0.219,0.213,0.463,0.369,0.729,0.471c0.281,0.096,0.594,0.137,0.924,0.111c0.443-0.039,0.818-0.229,1.106-0.561
		c0.296-0.35,0.423-0.721,0.381-1.131c-0.036-0.34-0.181-0.604-0.436-0.809c-0.271-0.225-0.567-0.312-0.911-0.275
		c-0.259,0.014-0.473,0.119-0.627,0.307c-0.156,0.184-0.225,0.4-0.202,0.646c0.011,0.166,0.081,0.301,0.221,0.422
		c0.153,0.113,0.315,0.164,0.507,0.154c0.248,0,0.367,0.176,0.372,0.34s-0.098,0.346-0.329,0.361
		c-0.357,0.021-0.693-0.082-0.992-0.309c-0.293-0.25-0.457-0.559-0.48-0.914c-0.039-0.434,0.082-0.824,0.365-1.152
		c0.279-0.34,0.662-0.533,1.107-0.557c0.496-0.053,1.007,0.098,1.414,0.428c0.398,0.322,0.633,0.754,0.691,1.283
		c0.061,0.604-0.125,1.16-0.545,1.664c-0.076,0.084-0.15,0.16-0.233,0.23v3.299h0.761V25.92h0.672v3.627h0.758v-3.311
		c-0.07-0.066-0.145-0.139-0.209-0.215c-0.428-0.484-0.613-1.041-0.553-1.66c0.041-0.529,0.27-0.965,0.678-1.291
		c0.425-0.346,0.889-0.482,1.432-0.428c0.435,0.023,0.811,0.217,1.092,0.561c0.271,0.316,0.4,0.699,0.377,1.139
		c-0.02,0.361-0.18,0.67-0.476,0.922c-0.302,0.229-0.637,0.334-0.997,0.311c-0.231-0.016-0.333-0.197-0.328-0.361
		c0.004-0.17,0.126-0.342,0.348-0.342c0.041,0.002,0.062,0.004,0.078,0.004c0.166,0,0.316-0.053,0.459-0.162
		c0.137-0.115,0.203-0.246,0.215-0.408c0.01-0.254-0.059-0.469-0.218-0.648c-0.156-0.197-0.358-0.299-0.603-0.312
		c-0.383-0.041-0.648,0.041-0.938,0.275c-0.255,0.205-0.391,0.469-0.418,0.803c-0.043,0.426,0.081,0.799,0.38,1.137
		c0.29,0.328,0.663,0.521,1.112,0.561c0.293,0.021,0.586-0.008,0.84-0.086c0.291-0.102,0.558-0.268,0.796-0.496
		C43.161,25.127,43.36,24.643,43.36,24.059z"/>
	<path fill="#FFFFFF" d="M22.336,10.377c-0.37-0.102-0.738-0.15-1.09-0.15c-0.66,0-1.305,0.178-1.912,0.531
		c-0.943,0.543-1.564,1.359-1.848,2.42c-0.285,1.062-0.155,2.039,0.395,2.992c0.551,0.953,1.357,1.576,2.406,1.857
		c0.344,0.094,0.695,0.141,1.037,0.141c0.678,0,1.343-0.184,1.973-0.547c0.955-0.553,1.556-1.336,1.842-2.395
		c0.279-1.051,0.15-2.039-0.393-3.02C24.179,11.26,23.391,10.66,22.336,10.377z M24.307,14.732l-0.652,0.373
		c0.147,0.5,0.24,1.01,0.278,1.512c0.007,0.078-0.016,0.146-0.062,0.195c-0.047,0.051-0.123,0.082-0.197,0.082
		c-0.109,0-0.238-0.061-0.252-0.234c-0.031-0.432-0.109-0.863-0.227-1.289l-1.773,1.027c0.303,0.314,0.637,0.598,0.99,0.848
		c0.095,0.066,0.133,0.174,0.1,0.281c-0.033,0.111-0.136,0.188-0.244,0.188c-0.053,0-0.101-0.018-0.15-0.051
		c-0.414-0.289-0.802-0.625-1.154-1.004l-0.653,0.379c-0.146,0.082-0.336-0.004-0.38-0.16c-0.027-0.115,0.019-0.225,0.123-0.283
		l0.564-0.328c-0.246-0.297-0.477-0.625-0.689-0.967l-1.24,0.715c-0.146,0.084-0.337,0-0.379-0.16
		c-0.031-0.115,0.014-0.223,0.121-0.283l1.242-0.719c-0.193-0.359-0.363-0.727-0.498-1.088l-0.568,0.328
		c-0.145,0.082-0.334-0.002-0.377-0.162c-0.03-0.113,0.015-0.221,0.122-0.283l0.657-0.381c-0.146-0.496-0.243-1.008-0.285-1.516
		c-0.006-0.076,0.016-0.145,0.062-0.197c0.049-0.051,0.124-0.078,0.199-0.078c0.105,0,0.237,0.062,0.252,0.232
		c0.033,0.434,0.112,0.869,0.23,1.293l1.77-1.02c-0.309-0.316-0.647-0.602-1.005-0.848c-0.098-0.068-0.134-0.176-0.103-0.285
		c0.05-0.156,0.256-0.234,0.395-0.137c0.42,0.291,0.814,0.629,1.17,1.004l0.65-0.375c0.145-0.082,0.336,0.002,0.378,0.16
		c0.032,0.115-0.015,0.223-0.12,0.285l-0.561,0.322c0.249,0.301,0.484,0.629,0.695,0.975l1.227-0.707
		c0.145-0.082,0.335,0.004,0.377,0.162c0.031,0.113-0.016,0.225-0.121,0.281l-1.225,0.707c0.193,0.359,0.359,0.721,0.494,1.084
		l0.561-0.324c0.145-0.082,0.336,0.004,0.379,0.162C24.458,14.562,24.411,14.67,24.307,14.732z"/>
	<path fill="#FFFFFF" d="M15.752,12.725c-0.441,1.666-0.158,3.344,0.8,4.723c0.968,1.391,2.542,2.314,4.21,2.475l0.107,0.01v1.035
		H18.24v0.828h6.152v-0.828h-2.699v-1.035l0.107-0.008c0.783-0.072,1.541-0.307,2.262-0.699l-0.41-0.717
		c-0.748,0.404-1.543,0.609-2.363,0.609c-1.516,0-2.977-0.727-3.912-1.947c-0.936-1.215-1.227-2.719-0.825-4.238
		c0.339-1.295,1.054-2.254,2.189-2.934L18.33,9.282C17.01,10.068,16.141,11.225,15.752,12.725z"/>
	<path fill="#FFFFFF" d="M22.293,13.338c-0.217-0.348-0.453-0.674-0.703-0.967l-1.963,1.133c0.129,0.367,0.297,0.734,0.49,1.096
		L22.293,13.338z"/>
	<path fill="#FFFFFF" d="M23.038,14.869c-0.131-0.359-0.293-0.725-0.486-1.084l-2.178,1.254c0.213,0.348,0.446,0.674,0.695,0.969
		L23.038,14.869z"/>
</g>
</svg>
