<svg fill="#ffffff" height="24" viewBox="0 0 24 24" width="24" xmlns="http://www.w3.org/2000/svg">
    <path d="M0 0h24v24H0z" fill="none"/>
    <path d="M20.4,3.8c0.6,0.6,0.9,1.3,0.9,2.2h1.9c0-1.4-0.5-2.5-1.5-3.5c-1-1-2.1-1.5-3.5-1.5c-1.4,0-2.6,0.5-3.6,1.5
				c-1,1-1.4,2.2-1.4,3.5v2H4C3.5,8,3,8.2,2.6,8.6C2.2,9,2,9.5,2,10v10c0,0.6,0.2,1,0.6,1.4C3,21.8,3.5,22,4,22h12
				c0.6,0,1-0.2,1.4-0.6C17.8,21,18,20.6,18,20V10c0-0.5-0.2-1-0.6-1.4C17,8.2,16.6,8,16,8h-1V6c0-0.8,0.3-1.6,0.9-2.2
				c0.6-0.6,1.3-0.9,2.2-0.9C19,2.9,19.7,3.2,20.4,3.8 M16,10v10H4V10H16 M8,15c0,0.6,0.2,1,0.6,1.4C8.9,16.8,9.4,17,10,17
				s1-0.2,1.4-0.6C11.8,16,12,15.6,12,15c0-0.5-0.2-1-0.6-1.4C11,13.2,10.6,13,10,13s-1.1,0.2-1.4,0.6C8.2,14,8,14.4,8,15z"/>
</svg>