<?xml version="1.0" encoding="UTF-8" standalone="no"?>
<svg
   xmlns:dc="http://purl.org/dc/elements/1.1/"
   xmlns:cc="http://creativecommons.org/ns#"
   xmlns:rdf="http://www.w3.org/1999/02/22-rdf-syntax-ns#"
   xmlns:svg="http://www.w3.org/2000/svg"
   xmlns="http://www.w3.org/2000/svg"
   xmlns:xlink="http://www.w3.org/1999/xlink"
   xmlns:sodipodi="http://sodipodi.sourceforge.net/DTD/sodipodi-0.dtd"
   xmlns:inkscape="http://www.inkscape.org/namespaces/inkscape"
   version="1.1"
   preserveAspectRatio="none"
   x="0px"
   y="0px"
   width="24px"
   height="24px"
   viewBox="0 0 24 24"
   id="svg18"
   sodipodi:docname="icon_ManageCourses2.svg"
   inkscape:version="0.92.3 (2405546, 2018-03-11)">
  <metadata
     id="metadata22">
    <rdf:RDF>
      <cc:Work
         rdf:about="">
        <dc:format>image/svg+xml</dc:format>
        <dc:type
           rdf:resource="http://purl.org/dc/dcmitype/StillImage" />
      </cc:Work>
    </rdf:RDF>
  </metadata>
  <sodipodi:namedview
     pagecolor="#ffffff"
     bordercolor="#666666"
     borderopacity="1"
     objecttolerance="10"
     gridtolerance="10"
     guidetolerance="10"
     inkscape:pageopacity="0"
     inkscape:pageshadow="2"
     inkscape:window-width="640"
     inkscape:window-height="480"
     id="namedview20"
     showgrid="false"
     inkscape:zoom="9.8333333"
     inkscape:cx="12"
     inkscape:cy="12"
     inkscape:window-x="0"
     inkscape:window-y="0"
     inkscape:window-maximized="0"
     inkscape:current-layer="svg18" />
  <defs
     id="defs8">
    <g
       id="Layer1_0_FILL">
      <path
         fill="#FFFFFF"
         fill-opacity="0"
         stroke="none"
         d=" M 0 0 L 0 24 24 24 24 0 0 0 Z"
         id="path2" />
    </g>
    <g
       id="Layer0_0_FILL">
      <path
         fill="#000000"
         stroke="none"
         d=" M 21.7 14 L 20.45 14.5 19.6 14 19.4 12.7 Q 19.4 12.5 19.15 12.5 L 17.15 12.5 Q 16.95 12.5 16.9 12.7 L 16.7 14 15.85 14.5 14.65 14 Q 14.45 13.95 14.3 14.1 L 13.3 15.85 Q 13.2 16 13.35 16.1 13.35 16.15 13.4 16.15 L 14.45 17 14.4 17.45 14.45 17.95 13.4 18.8 Q 13.2 18.9 13.3 19.1 L 14.3 20.85 Q 14.45 21 14.65 20.95 L 15.85 20.45 Q 16.5 20.9 16.7 20.95 L 16.9 22.25 Q 16.95 22.45 17.15 22.45 L 19.15 22.45 Q 19.4 22.45 19.4 22.25 L 19.6 20.95 20.45 20.45 21.7 20.95 Q 21.9 21.05 22 20.85 L 23 19.1 Q 23.1 18.9 22.95 18.8 L 21.9 17.95 21.9 17 22.95 16.15 Q 23.1 16.05 23 15.85 L 22 14.1 Q 21.9 13.9 21.7 14 M 17.1 18.5 Q 16.65 18.1 16.65 17.45 16.65 16.85 17.1 16.4 17.3 16.2 17.5 16.1 17.8 15.95 18.15 15.95 18.55 15.95 18.85 16.1 19.05 16.2 19.2 16.4 19.65 16.85 19.65 17.45 19.65 18.1 19.2 18.5 18.8 18.95 18.15 18.95 17.55 18.95 17.1 18.5 M 21 11 L 21 7 17 7 17 8 7 8 7 6 8 6 8 2 4 2 4 6 5 6 5 20 11.2 20 Q 10.971484375 19.3005859375 10.9 18.55 10.85 18.275 10.8 18 L 7 18 7 15 11.2 15 Q 11.4458984375 14.248046875 11.85 13.55 12.029296875 13.27109375 12.2 13 L 7 13 7 10 17 10 17 11 21 11 Z"
         id="path5" />
    </g>
  </defs>
  <g
     transform="matrix( 1, 0, 0, 1, 0,0) "
     id="g12">
    <use
       xlink:href="#Layer1_0_FILL"
       id="use10" />
  </g>
  <g
     transform="matrix( 1, 0, 0, 1, 0,0) "
     id="g16"
     style="fill:#00ffff">
    <use
       xlink:href="#Layer0_0_FILL"
       id="use14"
       style="fill:#00ffff" />
  </g>
</svg>
