<svg id="Layer_1" data-name="Layer 1" xmlns="http://www.w3.org/2000/svg" viewBox="0 0 128.98 35.43"><defs><style>.cls-1{fill:#fff;}.cls-2{fill:#6a94e6;}</style></defs><title>Artboard 9 copy 5MAUTHOR</title><path class="cls-1" d="M38.76,9.8h2.93l6,15.71H44.79l-1.47-4.16H37l-1.47,4.16H32.73Zm-1,9.46h4.79l-2.35-6.75h-.07Z"/><path class="cls-1" d="M58.6,25.51H56.14V23.93h0a3.45,3.45,0,0,1-1.37,1.38,3.73,3.73,0,0,1-1.86.52,4.18,4.18,0,0,1-3.25-1.11,4.89,4.89,0,0,1-1-3.36V14.14h2.51v7a3.08,3.08,0,0,0,.57,2.11,2.08,2.08,0,0,0,1.61.62,3.16,3.16,0,0,0,1.32-.24,2.31,2.31,0,0,0,.86-.65,2.47,2.47,0,0,0,.47-1,5,5,0,0,0,.14-1.23v-6.6H58.6Z"/><path class="cls-1" d="M60,14.14H61.9V10.73h2.51v3.41h2.27V16H64.41v6.07a6.17,6.17,0,0,0,0,.68,1.16,1.16,0,0,0,.15.48.73.73,0,0,0,.36.3,1.79,1.79,0,0,0,.66.1h.53a2.65,2.65,0,0,0,.53-.08v1.94l-.81.09a7.36,7.36,0,0,1-.81,0,5.54,5.54,0,0,1-1.6-.19,2.11,2.11,0,0,1-.95-.55A1.88,1.88,0,0,1,62,24a6.83,6.83,0,0,1-.14-1.25V16H60Z"/><path class="cls-1" d="M68.43,9.8h2.51v5.83h0a3.67,3.67,0,0,1,1.38-1.29,4.06,4.06,0,0,1,2-.52,4.25,4.25,0,0,1,2.95,1,3.71,3.71,0,0,1,1.08,2.9v7.81H75.91V18.36a3.1,3.1,0,0,0-.57-1.95,2.08,2.08,0,0,0-1.65-.61,2.72,2.72,0,0,0-1.14.23,2.46,2.46,0,0,0-.86.64,3,3,0,0,0-.55,1,3.45,3.45,0,0,0-.2,1.17v6.71H68.43Z"/><path class="cls-1" d="M86,25.82a6.21,6.21,0,0,1-2.43-.45,5.19,5.19,0,0,1-1.8-1.24,5.3,5.3,0,0,1-1.12-1.89,7.73,7.73,0,0,1,0-4.82,5.3,5.3,0,0,1,1.12-1.89,5.19,5.19,0,0,1,1.8-1.24,6.79,6.79,0,0,1,4.86,0,5.21,5.21,0,0,1,1.8,1.24,5.32,5.32,0,0,1,1.12,1.89,7.73,7.73,0,0,1,0,4.82,5.32,5.32,0,0,1-1.12,1.89,5.21,5.21,0,0,1-1.8,1.24A6.21,6.21,0,0,1,86,25.82Zm0-2a2.87,2.87,0,0,0,1.45-.35,3.05,3.05,0,0,0,1-.92,4,4,0,0,0,.58-1.29,5.76,5.76,0,0,0,0-2.92,3.86,3.86,0,0,0-.58-1.29,3.11,3.11,0,0,0-1-.91,3.17,3.17,0,0,0-2.9,0,3.11,3.11,0,0,0-1,.91A3.9,3.9,0,0,0,83,18.36a5.82,5.82,0,0,0,0,2.92,4,4,0,0,0,.58,1.29,3.05,3.05,0,0,0,1,.92A2.87,2.87,0,0,0,86,23.84Z"/><path class="cls-1" d="M93.58,14.14h2.35v2.2h0a2.51,2.51,0,0,1,.43-.9,4.21,4.21,0,0,1,.77-.8,3.84,3.84,0,0,1,1-.58,3,3,0,0,1,1.12-.22,5.47,5.47,0,0,1,.61,0l.34,0v2.42l-.54-.08a4.64,4.64,0,0,0-.54,0,2.87,2.87,0,0,0-1.2.25,2.75,2.75,0,0,0-1,.75,3.63,3.63,0,0,0-.66,1.22,5.27,5.27,0,0,0-.24,1.67v5.41H93.58Z"/><rect class="cls-2" x="2.83" y="2.83" width="28.35" height="28.35"/><path class="cls-1" d="M13.93,14.14v1.54h0a4.45,4.45,0,0,1,1.49-1.37,4,4,0,0,1,2-.48,4.57,4.57,0,0,1,2,.42,2.77,2.77,0,0,1,1.35,1.47,4.84,4.84,0,0,1,1.38-1.32,3.65,3.65,0,0,1,2.06-.57,6.07,6.07,0,0,1,1.67.22,3.37,3.37,0,0,1,1.32.71A3.24,3.24,0,0,1,28,16a5.14,5.14,0,0,1,.31,1.88v7.61H25.23V19.06c0-.38,0-.74,0-1.08a2.28,2.28,0,0,0-.24-.88,1.46,1.46,0,0,0-.58-.59,2.1,2.1,0,0,0-1-.22,2,2,0,0,0-1.07.25,1.83,1.83,0,0,0-.64.66,2.66,2.66,0,0,0-.31.92,6.87,6.87,0,0,0-.08,1v6.34H18.1V19.13c0-.34,0-.67,0-1a2.86,2.86,0,0,0-.19-.91,1.4,1.4,0,0,0-.55-.67,2.06,2.06,0,0,0-1.13-.25,2.32,2.32,0,0,0-.58.1,2,2,0,0,0-.71.37,2.18,2.18,0,0,0-.58.79,3.2,3.2,0,0,0-.24,1.35v6.6H11V14.14Z"/></svg>