<?xml version="1.0" encoding="utf-8"?>
<!-- Generator: Adobe Illustrator 15.1.0, SVG Export Plug-In . SVG Version: 6.00 Build 0)  -->
<!DOCTYPE svg PUBLIC "-//W3C//DTD SVG 1.1//EN" "http://www.w3.org/Graphics/SVG/1.1/DTD/svg11.dtd">
<svg version="1.1" id="Warstwa_1" xmlns="http://www.w3.org/2000/svg" xmlns:xlink="http://www.w3.org/1999/xlink" x="0px" y="0px"
	 width="146px" height="40px" viewBox="0 0 146 40" enable-background="new 0 0 146 40" xml:space="preserve">
<rect y="2" display="none" fill="#4D4D4D" width="1416" height="60"/>
<radialGradient id="SVGID_1_" cx="332.1904" cy="88.7178" r="632.9017" gradientTransform="matrix(1.0915 0 0 -1.1535 438.092 15.3295)" gradientUnits="userSpaceOnUse">
	<stop  offset="0" style="stop-color:#FFFFFF"/>
	<stop  offset="1" style="stop-color:#FFFFFF;stop-opacity:0"/>
</radialGradient>
<polygon display="none" opacity="0.5" fill="url(#SVGID_1_)" enable-background="new    " points="615.928,0 156.223,408 1416,408 
	1416,0 "/>
<path fill="#BAE32C" d="M31,30.85c0,1.933-2.125,2.15-4.027,2.15H5.342C3.438,33,2,32.782,2,30.85V10.481C2,8.551,3.438,7,5.342,7
	h21.631C28.875,7,31,8.552,31,10.481V30.85z"/>
<path fill="#41AAD3" d="M142,30.941c0,1.881-1.292,2.059-3.121,2.059h-12.585c-1.829,0-3.294-0.178-3.294-2.059v-20.55
	C123,8.51,124.465,7,126.294,7h12.585C140.708,7,142,8.51,142,10.391V30.941z"/>
<path fill="#FFAC27" d="M136,29.725c0,1.81-1.466,3.275-3.275,3.275h-12.449c-1.809,0-3.274-1.466-3.274-3.275v-19.45
	c0-1.809,1.466-3.275,3.274-3.275h12.449c1.81,0,3.275,1.466,3.275,3.275V29.725z"/>
<path fill="#7A7A7A" d="M20.78,26.273v4.199c0,0.663-0.15,1.16-0.45,1.492c-0.301,0.331-0.697,0.497-1.191,0.497
	c-0.479,0-0.867-0.166-1.162-0.497c-0.298-0.332-0.447-0.83-0.447-1.492v-5.033c0-0.793-0.026-1.41-0.08-1.851
	c-0.055-0.438-0.2-0.8-0.439-1.081c-0.24-0.281-0.617-0.423-1.133-0.423c-1.035,0-1.716,0.354-2.042,1.063
	c-0.329,0.711-0.492,1.729-0.492,3.056v4.269c0,0.655-0.147,1.151-0.444,1.486s-0.689,0.503-1.176,0.503
	c-0.477,0-0.869-0.168-1.175-0.503c-0.304-0.335-0.456-0.832-0.456-1.486v-9.035c0-0.594,0.137-1.045,0.411-1.354
	c0.272-0.309,0.633-0.462,1.082-0.462c0.433,0,0.792,0.144,1.081,0.433c0.29,0.29,0.436,0.688,0.436,1.197v0.303
	c0.547-0.656,1.133-1.138,1.756-1.447c0.625-0.309,1.32-0.463,2.084-0.463c0.793,0,1.476,0.158,2.047,0.476
	c0.57,0.315,1.041,0.794,1.412,1.435c0.533-0.647,1.104-1.128,1.711-1.44c0.609-0.312,1.283-0.468,2.024-0.468
	c0.864,0,1.608,0.17,2.233,0.509c0.624,0.34,1.09,0.825,1.4,1.458c0.27,0.57,0.404,1.469,0.404,2.695v6.166
	c0,0.662-0.15,1.159-0.452,1.491c-0.301,0.331-0.698,0.497-1.19,0.497c-0.479,0-0.87-0.168-1.176-0.503
	c-0.304-0.335-0.457-0.832-0.457-1.485v-5.311c0-0.68-0.027-1.225-0.086-1.631c-0.058-0.41-0.213-0.752-0.469-1.03
	c-0.255-0.276-0.64-0.417-1.156-0.417c-0.416,0-0.812,0.125-1.187,0.372s-0.665,0.578-0.873,0.995
	C20.896,23.984,20.78,24.925,20.78,26.273z"/>
<path fill="#7A7A7A" d="M44.938,30.254l-0.81-2.129h-6.894L36.423,30.3c-0.315,0.849-0.586,1.423-0.81,1.718
	c-0.225,0.297-0.59,0.445-1.098,0.445c-0.434,0-0.814-0.158-1.146-0.475c-0.333-0.315-0.498-0.674-0.498-1.075
	c0-0.231,0.039-0.472,0.116-0.718c0.076-0.246,0.203-0.588,0.382-1.03l4.337-11.012c0.123-0.316,0.271-0.695,0.443-1.139
	c0.176-0.443,0.36-0.812,0.558-1.105s0.455-0.53,0.774-0.711c0.319-0.182,0.716-0.271,1.186-0.271c0.479,0,0.878,0.09,1.197,0.271
	c0.318,0.181,0.578,0.415,0.775,0.701c0.196,0.285,0.363,0.591,0.498,0.919c0.135,0.329,0.307,0.765,0.514,1.314l4.432,10.943
	c0.348,0.833,0.521,1.438,0.521,1.815c0,0.395-0.166,0.754-0.494,1.082c-0.326,0.328-0.723,0.492-1.184,0.492
	c-0.271,0-0.502-0.047-0.695-0.145c-0.192-0.096-0.354-0.228-0.485-0.394s-0.272-0.42-0.423-0.763
	C45.175,30.818,45.046,30.516,44.938,30.254z M38.136,25.546h5.066l-2.558-7L38.136,25.546z"/>
<path fill="#7A7A7A" d="M59.109,30.682v-0.404c-0.379,0.479-0.775,0.881-1.191,1.203c-0.416,0.324-0.872,0.564-1.365,0.724
	c-0.494,0.157-1.057,0.237-1.688,0.237c-0.763,0-1.449-0.158-2.054-0.476c-0.605-0.315-1.074-0.752-1.404-1.307
	c-0.395-0.671-0.59-1.636-0.59-2.892v-6.26c0-0.632,0.142-1.104,0.428-1.417c0.286-0.312,0.663-0.468,1.133-0.468
	c0.479,0,0.864,0.158,1.157,0.473c0.294,0.317,0.438,0.787,0.438,1.412v5.055c0,0.734,0.062,1.349,0.186,1.846
	c0.125,0.497,0.346,0.888,0.665,1.169c0.321,0.28,0.754,0.422,1.302,0.422c0.532,0,1.034-0.158,1.503-0.474
	c0.472-0.317,0.813-0.729,1.03-1.239c0.178-0.448,0.267-1.427,0.267-2.938v-3.841c0-0.625,0.147-1.095,0.44-1.411
	c0.292-0.315,0.674-0.474,1.145-0.474s0.848,0.155,1.133,0.468c0.287,0.312,0.429,0.785,0.429,1.417v9.151
	c0,0.602-0.138,1.052-0.411,1.354c-0.274,0.301-0.626,0.451-1.059,0.451s-0.787-0.156-1.069-0.468
	C59.25,31.682,59.109,31.244,59.109,30.682z"/>
<path fill="#7A7A7A" d="M65.393,19.9h0.347v-1.897c0-0.509,0.012-0.908,0.04-1.197c0.027-0.289,0.102-0.538,0.226-0.746
	c0.123-0.216,0.3-0.392,0.532-0.526c0.23-0.135,0.488-0.203,0.775-0.203c0.399,0,0.763,0.151,1.086,0.452
	c0.216,0.2,0.353,0.445,0.41,0.735c0.059,0.289,0.086,0.7,0.086,1.232v2.15h1.158c0.447,0,0.788,0.105,1.022,0.317
	c0.235,0.212,0.354,0.485,0.354,0.816c0,0.424-0.169,0.722-0.505,0.892c-0.335,0.169-0.815,0.252-1.44,0.252h-0.59v5.809
	c0,0.494,0.02,0.875,0.053,1.14c0.033,0.267,0.127,0.481,0.277,0.649c0.149,0.164,0.396,0.246,0.734,0.246
	c0.186,0,0.436-0.03,0.752-0.099c0.316-0.063,0.562-0.097,0.74-0.097c0.255,0,0.482,0.101,0.688,0.306s0.308,0.458,0.308,0.759
	c0,0.508-0.277,0.898-0.833,1.168c-0.557,0.27-1.354,0.404-2.396,0.404c-0.987,0-1.735-0.166-2.243-0.497
	c-0.511-0.332-0.844-0.791-1.002-1.376c-0.158-0.586-0.235-1.369-0.235-2.349v-6.063H65.32c-0.455,0-0.803-0.105-1.041-0.322
	c-0.24-0.217-0.36-0.489-0.36-0.821c0-0.331,0.125-0.604,0.377-0.816C64.547,20.006,64.913,19.9,65.393,19.9z"/>
<path fill="#7A7A7A" d="M76.691,16.846v4.686c0.401-0.462,0.793-0.828,1.176-1.099c0.382-0.271,0.803-0.474,1.267-0.607
	c0.462-0.135,0.96-0.202,1.493-0.202c0.802,0,1.514,0.169,2.134,0.509c0.621,0.34,1.109,0.832,1.464,1.48
	c0.224,0.378,0.373,0.799,0.451,1.267c0.076,0.466,0.115,1.004,0.115,1.613v6.051c0,0.632-0.145,1.111-0.434,1.435
	s-0.674,0.485-1.15,0.485c-1.042,0-1.562-0.641-1.562-1.92V25.21c0-1.011-0.149-1.787-0.451-2.331
	c-0.301-0.544-0.871-0.816-1.711-0.816c-0.562,0-1.069,0.16-1.521,0.481c-0.451,0.319-0.789,0.756-1.013,1.312
	c-0.169,0.471-0.255,1.308-0.255,2.511v4.176c0,0.625-0.141,1.101-0.422,1.428c-0.281,0.328-0.674,0.492-1.174,0.492
	c-1.041,0-1.562-0.642-1.562-1.92V16.846c0-0.639,0.137-1.12,0.409-1.44c0.274-0.32,0.658-0.48,1.152-0.48
	c0.5,0,0.893,0.163,1.174,0.485C76.553,15.735,76.691,16.215,76.691,16.846z"/>
<path fill="#7A7A7A" d="M99.738,26.043c0,0.941-0.147,1.809-0.44,2.604c-0.294,0.795-0.718,1.476-1.272,2.047
	c-0.555,0.57-1.217,1.009-1.988,1.313c-0.771,0.304-1.639,0.457-2.604,0.457c-0.955,0-1.816-0.153-2.58-0.462
	c-0.765-0.309-1.424-0.75-1.983-1.325s-0.981-1.254-1.272-2.036c-0.289-0.783-0.434-1.648-0.434-2.598
	c0-0.957,0.146-1.831,0.439-2.626c0.293-0.796,0.711-1.474,1.261-2.037c0.546-0.562,1.21-0.996,1.989-1.3
	c0.78-0.305,1.639-0.457,2.58-0.457c0.957,0,1.824,0.154,2.604,0.462c0.777,0.31,1.445,0.748,2.001,1.319
	c0.555,0.57,0.978,1.248,1.266,2.035S99.738,25.094,99.738,26.043z M96.566,26.043c0-1.288-0.282-2.291-0.85-3.007
	c-0.566-0.718-1.329-1.076-2.285-1.076c-0.617,0-1.16,0.161-1.632,0.479c-0.469,0.32-0.833,0.793-1.086,1.418
	c-0.255,0.625-0.382,1.353-0.382,2.186c0,0.826,0.125,1.546,0.376,2.163c0.251,0.616,0.608,1.09,1.076,1.417
	c0.466,0.328,1.017,0.492,1.647,0.492c0.957,0,1.719-0.36,2.285-1.082C96.284,28.312,96.566,27.314,96.566,26.043z"/>
<path fill="#7A7A7A" d="M105.359,27.905v2.638c0,0.641-0.15,1.12-0.451,1.439s-0.684,0.479-1.145,0.479
	c-0.457,0-0.83-0.162-1.123-0.485c-0.293-0.324-0.439-0.803-0.439-1.435V21.75c0-1.418,0.513-2.127,1.539-2.127
	c0.523,0,0.902,0.166,1.134,0.497c0.231,0.332,0.358,0.821,0.382,1.469c0.378-0.647,0.766-1.137,1.162-1.469
	c0.396-0.331,0.928-0.497,1.59-0.497c0.664,0,1.309,0.166,1.934,0.497c0.625,0.332,0.938,0.771,0.938,1.319
	c0,0.385-0.135,0.703-0.4,0.953c-0.267,0.25-0.553,0.377-0.862,0.377c-0.114,0-0.394-0.072-0.839-0.215
	c-0.442-0.144-0.834-0.213-1.174-0.213c-0.463,0-0.84,0.121-1.134,0.364c-0.292,0.243-0.52,0.603-0.682,1.081
	c-0.161,0.479-0.274,1.047-0.335,1.706C105.391,26.152,105.359,26.957,105.359,27.905z"/>
<path fill="#6D6E70" d="M20.78,26.273v4.199c0,0.663-0.15,1.16-0.45,1.492c-0.301,0.331-0.697,0.497-1.191,0.497
	c-0.479,0-0.867-0.166-1.162-0.497c-0.298-0.332-0.447-0.83-0.447-1.492v-5.033c0-0.793-0.026-1.41-0.08-1.851
	c-0.055-0.438-0.2-0.8-0.439-1.081c-0.24-0.281-0.617-0.423-1.133-0.423c-1.035,0-1.716,0.354-2.042,1.063
	c-0.329,0.711-0.492,1.729-0.492,3.056v4.269c0,0.655-0.147,1.151-0.444,1.486s-0.689,0.503-1.176,0.503
	c-0.477,0-0.869-0.168-1.175-0.503c-0.304-0.335-0.456-0.832-0.456-1.486v-9.035c0-0.594,0.137-1.045,0.411-1.354
	c0.272-0.309,0.633-0.462,1.082-0.462c0.433,0,0.792,0.144,1.081,0.433c0.29,0.29,0.436,0.688,0.436,1.197v0.303
	c0.547-0.656,1.133-1.138,1.756-1.447c0.625-0.309,1.32-0.463,2.084-0.463c0.793,0,1.476,0.158,2.047,0.476
	c0.57,0.315,1.041,0.794,1.412,1.435c0.533-0.647,1.104-1.128,1.711-1.44c0.609-0.312,1.283-0.468,2.024-0.468
	c0.864,0,1.608,0.17,2.233,0.509c0.624,0.34,1.09,0.825,1.4,1.458c0.27,0.57,0.404,1.469,0.404,2.695v6.166
	c0,0.662-0.15,1.159-0.452,1.491c-0.301,0.331-0.698,0.497-1.19,0.497c-0.479,0-0.87-0.168-1.176-0.503
	c-0.304-0.335-0.457-0.832-0.457-1.485v-5.311c0-0.68-0.027-1.225-0.086-1.631c-0.058-0.41-0.213-0.752-0.469-1.03
	c-0.255-0.276-0.64-0.417-1.156-0.417c-0.416,0-0.812,0.125-1.187,0.372s-0.665,0.578-0.873,0.995
	C20.896,23.984,20.78,24.925,20.78,26.273z"/>
<path fill="#FFFFFF" d="M44.938,30.254l-0.81-2.129h-6.894L36.423,30.3c-0.315,0.849-0.586,1.423-0.81,1.718
	c-0.225,0.297-0.59,0.445-1.098,0.445c-0.434,0-0.814-0.158-1.146-0.475c-0.333-0.315-0.498-0.674-0.498-1.075
	c0-0.231,0.039-0.472,0.116-0.718c0.076-0.246,0.203-0.588,0.382-1.03l4.337-11.012c0.123-0.316,0.271-0.695,0.443-1.139
	c0.176-0.443,0.36-0.812,0.558-1.105s0.455-0.53,0.774-0.711c0.319-0.182,0.716-0.271,1.186-0.271c0.479,0,0.878,0.09,1.197,0.271
	c0.318,0.181,0.578,0.415,0.775,0.701c0.196,0.285,0.363,0.591,0.498,0.919c0.135,0.329,0.307,0.765,0.514,1.314l4.432,10.943
	c0.348,0.833,0.521,1.438,0.521,1.815c0,0.395-0.166,0.754-0.494,1.082c-0.326,0.328-0.723,0.492-1.184,0.492
	c-0.271,0-0.502-0.047-0.695-0.145c-0.192-0.096-0.354-0.228-0.485-0.394s-0.272-0.42-0.423-0.763
	C45.175,30.818,45.046,30.516,44.938,30.254z M38.136,25.546h5.066l-2.558-7L38.136,25.546z"/>
<path fill="#FFFFFF" d="M59.109,30.682v-0.404c-0.379,0.479-0.775,0.881-1.191,1.203c-0.416,0.324-0.872,0.564-1.365,0.724
	c-0.494,0.157-1.057,0.237-1.688,0.237c-0.763,0-1.449-0.158-2.054-0.476c-0.605-0.315-1.074-0.752-1.404-1.307
	c-0.395-0.671-0.59-1.636-0.59-2.892v-6.26c0-0.632,0.142-1.104,0.428-1.417c0.286-0.312,0.663-0.468,1.133-0.468
	c0.479,0,0.864,0.158,1.157,0.473c0.294,0.317,0.438,0.787,0.438,1.412v5.055c0,0.734,0.062,1.349,0.186,1.846
	c0.125,0.497,0.346,0.888,0.665,1.169c0.321,0.28,0.754,0.422,1.302,0.422c0.532,0,1.034-0.158,1.503-0.474
	c0.472-0.317,0.813-0.729,1.03-1.239c0.178-0.448,0.267-1.427,0.267-2.938v-3.841c0-0.625,0.147-1.095,0.44-1.411
	c0.292-0.315,0.674-0.474,1.145-0.474s0.848,0.155,1.133,0.468c0.287,0.312,0.429,0.785,0.429,1.417v9.151
	c0,0.602-0.138,1.052-0.411,1.354c-0.274,0.301-0.626,0.451-1.059,0.451s-0.787-0.156-1.069-0.468
	C59.25,31.682,59.109,31.244,59.109,30.682z"/>
<path fill="#FFFFFF" d="M65.393,19.9h0.347v-1.897c0-0.509,0.012-0.908,0.04-1.197c0.027-0.289,0.102-0.538,0.226-0.746
	c0.123-0.216,0.3-0.392,0.532-0.526c0.23-0.135,0.488-0.203,0.775-0.203c0.399,0,0.763,0.151,1.086,0.452
	c0.216,0.2,0.353,0.445,0.41,0.735c0.059,0.289,0.086,0.7,0.086,1.232v2.15h1.158c0.447,0,0.788,0.105,1.022,0.317
	c0.235,0.212,0.354,0.485,0.354,0.816c0,0.424-0.169,0.722-0.505,0.892c-0.335,0.169-0.815,0.252-1.44,0.252h-0.59v5.809
	c0,0.494,0.02,0.875,0.053,1.14c0.033,0.267,0.127,0.481,0.277,0.649c0.149,0.164,0.396,0.246,0.734,0.246
	c0.186,0,0.436-0.03,0.752-0.099c0.316-0.063,0.562-0.097,0.74-0.097c0.255,0,0.482,0.101,0.688,0.306s0.308,0.458,0.308,0.759
	c0,0.508-0.277,0.898-0.833,1.168c-0.557,0.27-1.354,0.404-2.396,0.404c-0.987,0-1.735-0.166-2.243-0.497
	c-0.511-0.332-0.844-0.791-1.002-1.376c-0.158-0.586-0.235-1.369-0.235-2.349v-6.063H65.32c-0.455,0-0.803-0.105-1.041-0.322
	c-0.24-0.217-0.36-0.489-0.36-0.821c0-0.331,0.125-0.604,0.377-0.816C64.547,20.006,64.913,19.9,65.393,19.9z"/>
<path fill="#FFFFFF" d="M76.691,16.846v4.686c0.401-0.462,0.793-0.828,1.176-1.099c0.382-0.271,0.803-0.474,1.267-0.607
	c0.462-0.135,0.96-0.202,1.493-0.202c0.802,0,1.514,0.169,2.134,0.509c0.621,0.34,1.109,0.832,1.464,1.48
	c0.224,0.378,0.373,0.799,0.451,1.267c0.076,0.466,0.115,1.004,0.115,1.613v6.051c0,0.632-0.145,1.111-0.434,1.435
	s-0.674,0.485-1.15,0.485c-1.042,0-1.562-0.641-1.562-1.92V25.21c0-1.011-0.149-1.787-0.451-2.331
	c-0.301-0.544-0.871-0.816-1.711-0.816c-0.562,0-1.069,0.16-1.521,0.481c-0.451,0.319-0.789,0.756-1.013,1.312
	c-0.169,0.471-0.255,1.308-0.255,2.511v4.176c0,0.625-0.141,1.101-0.422,1.428c-0.281,0.328-0.674,0.492-1.174,0.492
	c-1.041,0-1.562-0.642-1.562-1.92V16.846c0-0.639,0.137-1.12,0.409-1.44c0.274-0.32,0.658-0.48,1.152-0.48
	c0.5,0,0.893,0.163,1.174,0.485C76.553,15.735,76.691,16.215,76.691,16.846z"/>
<path fill="#FFFFFF" d="M99.738,26.043c0,0.941-0.147,1.809-0.44,2.604c-0.294,0.795-0.718,1.476-1.272,2.047
	c-0.555,0.57-1.217,1.009-1.988,1.313c-0.771,0.304-1.639,0.457-2.604,0.457c-0.955,0-1.816-0.153-2.58-0.462
	c-0.765-0.309-1.424-0.75-1.983-1.325s-0.981-1.254-1.272-2.036c-0.289-0.783-0.434-1.648-0.434-2.598
	c0-0.957,0.146-1.831,0.439-2.626c0.293-0.796,0.711-1.474,1.261-2.037c0.546-0.562,1.21-0.996,1.989-1.3
	c0.78-0.305,1.639-0.457,2.58-0.457c0.957,0,1.824,0.154,2.604,0.462c0.777,0.31,1.445,0.748,2.001,1.319
	c0.555,0.57,0.978,1.248,1.266,2.035S99.738,25.094,99.738,26.043z M96.566,26.043c0-1.288-0.282-2.291-0.85-3.007
	c-0.566-0.718-1.329-1.076-2.285-1.076c-0.617,0-1.16,0.161-1.632,0.479c-0.469,0.32-0.833,0.793-1.086,1.418
	c-0.255,0.625-0.382,1.353-0.382,2.186c0,0.826,0.125,1.546,0.376,2.163c0.251,0.616,0.608,1.09,1.076,1.417
	c0.466,0.328,1.017,0.492,1.647,0.492c0.957,0,1.719-0.36,2.285-1.082C96.284,28.312,96.566,27.314,96.566,26.043z"/>
<path fill="#FFFFFF" d="M105.359,27.905v2.638c0,0.641-0.15,1.12-0.451,1.439s-0.684,0.479-1.145,0.479
	c-0.457,0-0.83-0.162-1.123-0.485c-0.293-0.324-0.439-0.803-0.439-1.435V21.75c0-1.418,0.513-2.127,1.539-2.127
	c0.523,0,0.902,0.166,1.134,0.497c0.231,0.332,0.358,0.821,0.382,1.469c0.378-0.647,0.766-1.137,1.162-1.469
	c0.396-0.331,0.928-0.497,1.59-0.497c0.664,0,1.309,0.166,1.934,0.497c0.625,0.332,0.938,0.771,0.938,1.319
	c0,0.385-0.135,0.703-0.4,0.953c-0.267,0.25-0.553,0.377-0.862,0.377c-0.114,0-0.394-0.072-0.839-0.215
	c-0.442-0.144-0.834-0.213-1.174-0.213c-0.463,0-0.84,0.121-1.134,0.364c-0.292,0.243-0.52,0.603-0.682,1.081
	c-0.161,0.479-0.274,1.047-0.335,1.706C105.391,26.152,105.359,26.957,105.359,27.905z"/>
<path fill="#BAE32C" d="M132,30.941c0,1.881-1.749,2.059-3.553,2.059H116.35c-1.803,0-3.35-0.178-3.35-2.059v-20.55
	C113,8.51,114.547,7,116.35,7h12.098C130.251,7,132,8.51,132,10.391V30.941z"/>
<rect id="_x3C_Cięcie_na_plasterki_x3E__27_" fill="none" width="146" height="50"/>
</svg>
