<?xml version="1.0" encoding="utf-8"?>
<!-- Generator: Adobe Illustrator 15.1.0, SVG Export Plug-In  -->
<!DOCTYPE svg PUBLIC "-//W3C//DTD SVG 1.1//EN" "http://www.w3.org/Graphics/SVG/1.1/DTD/svg11.dtd" [
	<!ENTITY ns_flows "http://ns.adobe.com/Flows/1.0/">
]>
<svg version="1.1"
	 xmlns="http://www.w3.org/2000/svg" xmlns:xlink="http://www.w3.org/1999/xlink" xmlns:a="http://ns.adobe.com/AdobeSVGViewerExtensions/3.0/"
	 x="0px" y="0px" width="70px" height="50px" viewBox="-4.245 -3.499 70 50"
	 overflow="visible" enable-background="new -4.245 -3.499 70 50" xml:space="preserve">
<defs>
</defs>
<path opacity="0.65" enable-background="new    " d="M22.805,0.161c5.982-0.285,12.398-0.131,18.987,0
	c5.812,0.113,13.172-0.436,16.31,2.435C61.21,5.438,61.51,14.777,61.51,21.34c0,7.732,0.082,16.824-4.381,19.719
	c-2.523,1.635-8.65,1.596-13.146,1.703c-10.216,0.246-18.377,0.389-28.725,0c-4.531-0.17-9.81-0.57-11.929-2.678
	c-3.953-3.932-3.716-20.533-2.678-29.457c0.394-3.379,1.146-6.408,2.921-8.033C7.083-0.614,14.976,0.532,22.805,0.161z"/>
<path fill="#FFFFFF" enable-background="new    " d="M24.996,30.104c5.069-3.127,10.878-5.514,15.823-8.766
	c-5.3-2.895-10.724-5.668-16.066-8.52C24.915,18.5,24.428,24.828,24.996,30.104z"/>
</svg>
