<?xml version="1.0" encoding="UTF-8"?>
<!DOCTYPE svg PUBLIC "-//W3C//DTD SVG 1.1//EN" "http://www.w3.org/Graphics/SVG/1.1/DTD/svg11.dtd">
<!-- Creator: CorelDRAW X7 -->
<svg xmlns="http://www.w3.org/2000/svg" xml:space="preserve" width="0.666665in" height="0.197189in" version="1.1" style="shape-rendering:geometricPrecision; text-rendering:geometricPrecision; image-rendering:optimizeQuality; fill-rule:evenodd; clip-rule:evenodd"
viewBox="0 0 1247 369"
 xmlns:xlink="http://www.w3.org/1999/xlink">
 <defs>
  <style type="text/css">
   <![CDATA[
    .fil0 {fill:#FEFEFE}
    .fil1 {fill:#FEFEFE;fill-rule:nonzero}
   ]]>
  </style>
 </defs>
 <g id="Layer_x0020_1">
  <metadata id="CorelCorpID_0Corel-Layer"/>
  <g id="_653221512">
   <path class="fil0" d="M244 261l0 -261c-1,1 -2,1 -2,2l0 0c-20,23 -40,46 -60,69l0 0c-1,2 -2,5 -1,7l0 0c5,17 11,33 16,49l0 0c9,27 19,54 28,82l0 0c6,17 12,35 18,52l0 0c0,0 0,0 1,0z"/>
   <path class="fil0" d="M0 282c7,3 14,5 20,8l0 0c20,7 40,14 59,21l0 0c22,7 44,15 65,23l0 0c17,6 34,12 51,18l0 0c15,6 29,11 43,16l0 0c5,2 6,1 6,-4l0 0c0,-9 0,-17 0,-25l0 0c0,-20 0,-40 0,-60l0 0c0,-6 -1,-6 -7,-6l0 0c-2,0 -4,1 -6,1l0 0c-42,0 -84,0 -126,0l0 0c-1,0 -2,0 -4,0l0 0c-2,0 -3,-1 -2,-4l0 0c5,-13 9,-27 14,-41l0 0c8,-22 16,-44 24,-66l0 0c6,-19 13,-38 20,-57l0 0c0,-2 2,-5 3,-7l0 0c-1,-1 -1,-1 -2,-1l0 0c-52,61 -105,122 -158,184l0 0z"/>
   <path class="fil1" d="M309 120c1,2 1,3 1,4 0,1 0,3 0,6l0 63c2,0 4,1 6,1 3,0 5,0 7,0 3,0 6,0 9,0 3,0 6,-1 10,-1 0,2 0,3 0,3 0,1 0,1 0,2 0,1 -1,2 -1,3 -1,1 -3,2 -5,3 -1,0 -3,0 -6,0 -2,0 -5,0 -9,0 -5,0 -10,0 -14,0 -5,-1 -9,-1 -12,-1 0,-1 0,-1 0,-2 0,0 0,-1 0,-2 0,0 0,-1 0,-1 0,-1 -1,-1 -1,-2l0 -60c0,-3 0,-6 0,-8 0,-2 0,-4 0,-5 1,-1 2,-2 4,-2 2,-1 5,-1 10,-1l1 0zm43 5l0 -2c0,0 0,-1 0,-1 0,-1 0,-1 0,-1 1,-1 3,-1 6,-2 2,0 4,0 7,0 3,0 5,0 8,0 5,0 10,1 14,2 4,1 8,2 11,4 2,2 5,5 6,8 2,4 2,7 2,12 0,5 0,8 -2,12 -2,3 -4,5 -6,7 -3,2 -6,4 -9,5 -3,0 -6,1 -8,1 -1,0 -2,0 -3,0 -1,0 -2,0 -3,0 -1,-1 -2,-1 -3,-2 0,-1 -1,-2 -1,-4 0,0 1,0 1,-1 1,0 2,0 3,0 2,0 3,-1 5,-1 2,-1 3,-2 5,-3 1,-2 2,-3 3,-6 1,-2 1,-5 1,-8 0,-3 0,-6 -1,-8 -1,-2 -2,-3 -3,-4 -2,-2 -3,-3 -5,-3 -2,-1 -4,-1 -6,-1 -1,0 -2,0 -3,0 -1,0 -2,0 -3,0l0 54 0 14c0,2 0,4 -1,5 -1,1 -2,1 -4,2 -1,0 -4,0 -7,0l-4 0c0,-4 0,-8 0,-12 1,-4 1,-9 1,-14l-1 -53zm115 78c0,-2 -1,-4 -1,-6l0 -33c-1,0 -3,0 -6,0 -2,0 -5,0 -8,0l-18 0 0 31c0,2 0,3 -1,4 0,1 0,2 -1,3 -1,1 -1,1 -2,1 0,0 -1,0 -2,1 -1,0 -3,0 -4,0 -2,0 -4,0 -6,0 0,-3 0,-7 0,-10 0,-4 0,-8 0,-13l0 -40c0,-4 0,-8 0,-11 0,-3 0,-5 0,-8 1,-1 2,-1 4,-2 2,0 6,0 10,0 1,1 1,2 2,3 0,2 0,3 0,6l0 25 32 0 0 -25c0,-3 1,-5 2,-7 1,-1 2,-1 4,-2 2,0 6,0 10,0 0,3 0,7 0,10 0,4 0,8 0,13l0 40c0,4 0,8 0,11 0,3 0,5 0,8 0,1 -2,1 -4,1 -2,1 -5,1 -9,1l-2 -1zm87 -2c-1,-1 -2,-2 -2,-4 -1,-1 -1,-3 -2,-4 0,-2 -1,-4 -2,-6 0,-2 -1,-4 -2,-6l-29 0c-1,4 -3,8 -4,11 -2,4 -3,7 -4,10 -1,0 -1,1 -2,1 -1,1 -2,1 -4,1 -1,0 -3,0 -5,0 -2,-1 -4,-1 -5,-1 0,-1 0,-2 0,-3 0,-1 1,-2 1,-2 2,-5 4,-10 6,-16 3,-5 5,-11 8,-17 3,-8 6,-16 9,-23 3,-7 6,-13 8,-18 0,-1 0,-2 1,-3 0,0 1,0 2,0 0,0 0,0 0,-1 1,0 1,0 1,0 1,0 1,0 2,0 0,0 1,0 2,0 1,0 2,0 2,0 2,0 3,1 4,2 2,4 4,8 6,13 1,5 3,10 5,15 1,1 2,4 3,6 1,3 2,5 3,8 1,3 2,5 3,8 1,2 2,4 2,5l0 0c2,4 3,7 4,10 2,3 3,6 4,8 0,1 0,2 1,3 0,1 0,2 1,3l0 1c0,0 0,0 -1,1 -1,0 -2,0 -4,1 -2,0 -4,0 -5,0 -1,0 -3,0 -4,-1 -1,0 -2,0 -3,-1l0 -1zm-33 -30l21 0c0,-1 -1,-2 -1,-3 0,-1 -1,-2 -1,-3 -1,-2 -1,-3 -2,-5 0,-1 -1,-3 -1,-4 -1,-2 -2,-4 -2,-5 -1,-2 -1,-3 -1,-4 -1,0 -1,-1 -1,-2 0,-1 -1,-2 -1,-3 -1,3 -2,6 -4,10 -1,3 -2,7 -4,11l0 0 -3 8zm92 -46l0 -2c0,0 0,-1 0,-1 0,-1 0,-1 0,-1 1,-1 3,-1 6,-2 2,0 5,0 7,0 3,0 6,0 8,0 6,0 10,1 14,2 4,1 8,2 11,4 3,2 5,5 6,8 2,4 3,7 3,12 0,5 -1,8 -3,12 -2,3 -4,5 -6,7 -3,2 -6,4 -9,5 -3,0 -5,1 -8,1 -1,0 -2,0 -3,0 -1,0 -2,0 -3,0 -1,-1 -2,-1 -3,-2 0,-1 0,-2 0,-4 0,0 0,0 1,-1 0,0 1,0 2,0 2,0 3,-1 5,-1 2,-1 3,-2 5,-3 1,-2 2,-3 3,-6 1,-2 1,-5 1,-8 0,-3 0,-6 -1,-8 -1,-2 -2,-3 -3,-4 -1,-2 -3,-3 -5,-3 -2,-1 -4,-1 -6,-1 -1,0 -2,0 -3,0 -1,0 -2,0 -2,0l0 54 0 14c0,2 -1,4 -2,5 -1,1 -2,1 -4,2 -1,0 -4,0 -7,0l-4 0c1,-4 1,-8 1,-12 0,-4 0,-9 0,-14l-1 -53zm100 70c5,0 8,0 10,-1 3,0 4,-1 5,-2l0 1c1,-4 1,-9 2,-14 0,-5 1,-10 1,-15l0 -34c0,-2 0,-3 0,-4 0,-2 1,-3 1,-4 1,0 2,-1 2,-1 1,0 2,0 3,-1 1,0 2,0 4,0 1,0 3,0 5,0 0,3 0,7 0,11 0,4 0,8 0,13l0 20c0,6 0,12 -1,18 0,5 -1,10 -3,15 -3,3 -7,5 -13,7 -5,1 -11,1 -17,1 -6,0 -11,0 -15,-2 -4,-1 -7,-3 -9,-5 -3,-3 -5,-6 -6,-9 -1,-3 -2,-7 -3,-11 0,-2 0,-4 0,-6 0,-2 0,-4 0,-7l0 -23c0,-4 -1,-8 -1,-11 0,-3 0,-6 0,-9 1,-1 3,-1 5,-1 2,-1 6,-1 10,-1 1,1 1,3 2,4 0,2 0,4 0,6l0 34c0,3 0,5 0,7 0,3 1,5 1,7 1,5 3,9 5,12 3,4 7,5 12,5zm50 -71c0,0 0,-1 0,-1 0,-1 0,-1 0,-1 1,-1 2,-1 3,-1 1,0 2,0 3,0 2,0 4,-1 7,-1 3,0 6,0 9,0 5,0 10,1 13,2 4,1 7,2 9,4 3,1 4,3 5,6 1,2 2,4 2,7 0,4 -1,8 -2,10 -2,3 -4,5 -6,6 0,0 -1,1 -1,1 -1,0 -2,1 -2,1 1,0 3,1 4,2 1,0 3,1 4,2 1,1 3,2 4,4 1,1 2,3 3,5 1,1 1,4 1,6 0,5 -1,9 -2,13 -2,3 -5,6 -8,8 -3,3 -6,4 -10,5 -4,1 -9,2 -14,2 -4,0 -7,0 -11,0 -3,-1 -7,-1 -11,-1l0 -79zm16 70c1,0 2,1 4,1 1,0 2,0 3,0 4,0 8,-2 11,-5 3,-2 5,-7 5,-13 0,-1 0,-1 0,-2 0,0 0,0 0,-1 -1,-2 -1,-4 -2,-5 -1,-2 -2,-3 -4,-4 -1,0 -3,-1 -5,-1 -2,-1 -4,-1 -6,-1 -1,0 -2,0 -3,0 -1,0 -2,0 -3,0l0 31zm0 -40c1,0 1,0 2,0 1,0 2,0 2,0 1,0 2,0 2,0 1,0 1,0 1,0 2,0 3,0 5,-1l0 0c2,0 3,-2 5,-4 1,-2 1,-5 1,-8 0,-1 0,-2 0,-2 0,-3 -1,-6 -4,-7 -2,-2 -5,-2 -8,-2 -1,0 -2,0 -3,0 -1,0 -2,0 -3,0l0 24zm67 -34c1,2 1,3 1,4 1,1 1,3 1,6l0 63c1,0 3,1 6,1 2,0 4,0 6,0 3,0 6,0 9,0 3,0 7,-1 10,-1 0,2 0,3 0,3 0,1 0,1 0,2 0,1 0,2 -1,3 -1,1 -3,2 -4,3 -2,0 -4,0 -6,0 -3,0 -6,0 -9,0 -6,0 -10,0 -15,0 -5,-1 -8,-1 -11,-1 0,-1 -1,-1 -1,-2 0,0 0,-1 0,-2 0,0 0,-1 0,-1 0,-1 0,-1 -1,-2l0 -60c0,-3 0,-6 0,-8 0,-2 0,-4 0,-5 1,-1 3,-2 4,-2 2,-1 6,-1 10,-1l1 0zm46 84c-1,0 -1,0 -2,-1 0,0 -1,-1 -1,-2l0 -15c0,-4 1,-8 1,-12 0,-4 0,-8 0,-12 0,-3 0,-5 0,-8 0,-2 -1,-5 -1,-7l0 -11c0,-4 0,-6 0,-8 0,-2 0,-4 0,-4 1,-2 2,-3 5,-3 2,-1 5,-1 9,-1 1,0 2,1 2,2 0,2 1,4 1,7l0 15c0,3 0,6 -1,9 0,3 0,6 0,9 0,2 0,5 0,8 1,3 1,5 1,8l0 12c0,3 0,5 0,6 0,2 0,3 0,4l0 2c-1,1 -3,1 -5,1 -2,1 -5,1 -9,1zm55 -85c6,0 11,0 14,2 4,1 6,2 7,3 0,2 -1,4 -3,6 -1,1 -2,1 -3,1 -1,0 -2,0 -3,-1 -1,0 -3,-1 -5,-1 -2,0 -4,-1 -6,-1 -4,0 -7,1 -9,3 -2,1 -4,4 -4,7l0 1c1,2 1,3 2,5 1,1 2,2 4,3 1,2 3,3 5,5 2,2 4,3 6,5 0,0 0,0 0,0 0,0 0,0 0,0 2,1 3,3 5,4 1,1 3,2 4,3 3,3 5,6 7,9 1,2 2,6 2,9 0,7 -2,13 -7,17 -6,4 -13,6 -23,6 -5,0 -9,0 -13,-1 -3,-1 -6,-2 -7,-3 -2,-1 -2,-2 -2,-3 0,-1 0,-3 1,-4 1,-2 2,-4 3,-5 2,2 5,3 8,4 3,1 6,2 10,2 4,0 7,-1 10,-3 2,-2 3,-5 3,-9 0,-3 0,-5 -2,-7 -1,-2 -4,-5 -7,-7 -1,-1 -2,-2 -3,-3 0,0 -1,-1 -2,-2 -1,0 -1,0 -1,-1 -1,0 -1,0 -1,0l-2 -2c-2,-1 -4,-3 -5,-4 -2,-1 -3,-3 -4,-4 -3,-3 -5,-5 -6,-8 -1,-2 -1,-4 -1,-7 0,-2 0,-5 1,-7 1,-2 3,-4 5,-6 2,-2 5,-4 9,-5 3,-1 8,-1 13,-1zm85 84c-1,-2 -1,-4 -1,-6l0 -33c-2,0 -3,0 -6,0 -2,0 -5,0 -8,0l-18 0 0 31c0,2 0,3 -1,4 0,1 -1,2 -1,3 -1,1 -1,1 -2,1 -1,0 -1,0 -2,1 -2,0 -3,0 -5,0 -1,0 -3,0 -6,0 0,-3 1,-7 1,-10 0,-4 0,-8 0,-13l0 -40c0,-4 0,-8 0,-11 0,-3 -1,-5 -1,-8 1,-1 3,-1 5,-2 2,0 6,0 10,0 1,1 1,2 1,3 1,2 1,3 1,6l0 25 32 0 0 -25c0,-3 1,-5 2,-7 1,-1 2,-1 4,-2 2,0 6,0 10,0 0,3 0,7 0,10 0,4 0,8 0,13l0 40c0,4 0,8 0,11 0,3 0,5 0,8 -1,1 -2,1 -4,1 -2,1 -5,1 -9,1l-2 -1zm35 1c-1,0 -2,0 -2,-1 -1,0 -1,-1 -1,-2l0 -15c0,-4 0,-8 0,-12 0,-4 0,-8 0,-12 0,-3 0,-5 0,-8 0,-2 0,-5 0,-7l0 -11c0,-4 0,-6 0,-8 0,-2 0,-4 0,-4 1,-2 2,-3 4,-3 2,-1 5,-1 9,-1 2,0 2,1 3,2 0,2 0,4 0,7l0 15c0,3 0,6 0,9 0,3 0,6 0,9 0,2 0,5 0,8 0,3 0,5 0,8l0 12c0,3 0,5 0,6 0,2 0,3 0,4l0 2c-1,1 -2,1 -4,1 -2,1 -5,1 -9,1zm73 -43c1,3 3,6 5,9 1,3 3,6 5,8 -1,-3 -1,-6 -1,-9 0,-4 0,-7 0,-10l0 -30c0,-3 1,-5 2,-7 1,-1 1,-1 2,-1 1,0 1,-1 2,-1 1,0 3,0 4,0 1,0 3,0 6,0 0,4 0,8 0,12 -1,5 -1,9 -1,14l0 56c0,0 -1,0 -2,1 -2,1 -4,1 -5,1 -1,0 -2,0 -4,0 -1,0 -3,0 -4,-1 -2,-3 -4,-6 -6,-9 -2,-4 -5,-7 -7,-10l0 0c-1,-2 -3,-4 -4,-6 -1,-2 -3,-4 -4,-6l-6 -9c-1,-2 -2,-4 -3,-6 -2,-2 -3,-4 -4,-6 0,-1 -1,-2 -1,-3 -1,-1 -1,-2 -2,-2 0,0 0,-1 0,-1 0,0 0,0 0,0 0,4 0,8 0,11 0,4 1,7 1,10l0 29c0,2 0,3 -1,4 0,1 0,2 -1,3 0,0 -1,0 -2,1 0,0 -1,0 -2,0 -1,1 -3,1 -4,1 -2,0 -4,0 -6,0 0,-4 0,-8 0,-12 0,-5 0,-9 0,-14l0 -53c0,0 -1,-1 -1,-1 0,-1 -1,-1 -1,-1l0 -1c0,0 0,0 1,0 0,-1 1,-1 2,-1 1,0 2,0 3,-1 1,0 2,0 3,0 2,0 2,0 3,0 2,0 4,1 6,2 2,2 3,5 6,9 2,3 5,7 7,11 1,1 2,2 3,3 0,1 1,2 2,3 0,1 1,2 2,3 0,1 1,2 2,2l5 8zm82 -3c0,0 1,-1 1,-1 0,0 0,0 1,-1 0,0 1,0 1,0 1,0 3,0 5,0 1,0 3,0 5,0 2,0 4,0 6,0 2,0 3,0 4,0 1,1 1,3 1,6 1,3 1,5 1,7l0 30c-1,0 -3,1 -4,2 -2,1 -3,1 -5,2 -2,0 -5,1 -8,2 -3,0 -6,0 -10,0 -1,0 -2,0 -3,0 0,0 -1,0 -2,0 -5,0 -10,-1 -15,-3 -4,-1 -8,-4 -11,-7 -4,-3 -6,-8 -8,-13 -2,-5 -3,-11 -3,-19 0,-9 2,-16 4,-22 3,-6 6,-10 10,-13 3,-3 8,-6 13,-7 5,-2 10,-2 17,-2 3,0 6,0 9,0 2,1 4,1 6,2 2,1 3,2 4,2 1,1 2,2 3,3 0,1 -1,2 -1,3 -1,1 -2,2 -2,3l-1 0c-2,0 -3,0 -4,-1l0 0c0,0 0,0 0,0 -1,0 -1,0 -1,0 -4,-2 -8,-2 -12,-2 -9,0 -16,3 -20,8 -5,5 -8,14 -8,25 0,7 1,12 2,17 2,4 4,7 6,10 2,2 5,4 8,5 3,1 6,1 10,1 2,0 4,0 6,0 2,-1 3,-1 4,-2l0 -27c-1,0 -2,0 -3,0 -1,0 -2,-1 -3,-1 -1,-1 -1,-2 -2,-3 0,-1 -1,-2 -1,-4z"/>
   <path class="fil1" d="M291 312l0 -40 14 0c3,0 5,0 6,0 2,0 4,1 5,2 1,1 3,2 3,4 1,2 2,3 2,5 0,4 -2,7 -4,9 -2,3 -6,4 -11,4l-10 0 0 16 -5 0zm5 -21l10 0c3,0 6,-1 7,-2 1,-1 2,-3 2,-5 0,-2 0,-4 -1,-5 -1,-1 -2,-2 -3,-2 -1,0 -3,0 -5,0l-10 0 0 14zm53 21l0 -4c-2,3 -5,5 -9,5 -2,0 -3,0 -5,-1 -1,-1 -2,-2 -3,-3 0,-1 -1,-2 -1,-3 0,-1 0,-3 0,-5l0 -18 4 0 0 16c0,3 0,4 1,5 0,2 1,3 2,3 0,1 2,2 3,2 2,0 3,-1 4,-2 1,0 2,-1 3,-3 0,-1 1,-3 1,-5l0 -16 4 0 0 29 -4 0zm16 0l0 -29 4 0 0 4c1,-2 2,-3 3,-4 1,0 2,-1 3,-1 2,0 4,1 5,2l-1 4c-1,0 -3,-1 -4,-1 -1,0 -2,1 -3,1 0,1 -1,2 -1,3 -1,2 -1,4 -1,6l0 15 -5 0zm21 -9l4 0c1,2 1,3 2,4 2,1 3,2 6,2 2,0 3,-1 4,-2 2,-1 2,-2 2,-3 0,-1 0,-2 -1,-3 -1,0 -3,-1 -5,-1 -4,-1 -6,-2 -8,-3 -1,0 -2,-1 -3,-2 0,-2 -1,-3 -1,-4 0,-2 1,-3 1,-4 1,-1 2,-2 3,-3 0,0 1,-1 3,-1 1,-1 2,-1 4,-1 2,0 4,1 6,1 1,1 2,2 3,3 1,1 2,3 2,5l-5 0c0,-1 -1,-3 -2,-3 -1,-1 -2,-2 -4,-2 -2,0 -4,1 -5,1 -1,1 -1,2 -1,3 0,1 0,1 1,2 0,0 1,1 1,1 1,0 2,1 5,1 3,1 5,2 7,3 1,0 2,1 3,2 1,2 1,3 1,5 0,1 -1,3 -1,4 -1,2 -3,3 -4,4 -2,0 -4,1 -6,1 -4,0 -7,-1 -9,-3 -2,-1 -3,-3 -3,-7zm51 9l0 -4c-2,3 -5,5 -9,5 -1,0 -3,0 -4,-1 -2,-1 -3,-2 -4,-3 0,-1 -1,-2 -1,-3 0,-1 0,-3 0,-5l0 -18 4 0 0 16c0,3 1,4 1,5 0,2 1,3 2,3 1,1 2,2 3,2 2,0 3,-1 4,-2 2,0 2,-1 3,-3 1,-1 1,-3 1,-5l0 -16 5 0 0 29 -5 0zm16 -35l0 -5 5 0 0 5 -5 0zm0 35l0 -29 5 0 0 29 -5 0zm27 -4l1 4c-2,0 -3,1 -4,1 -2,0 -3,-1 -4,-1 -1,-1 -2,-2 -2,-2 0,-1 -1,-3 -1,-6l0 -17 -3 0 0 -4 3 0 0 -7 5 -3 0 10 5 0 0 4 -5 0 0 17c0,1 0,2 0,3 1,0 1,0 1,1 1,0 1,0 2,0 0,0 1,0 2,0zm26 -10c0,-6 2,-10 5,-12 2,-3 5,-4 9,-4 4,0 7,2 9,4 3,3 4,7 4,11 0,4 -1,7 -2,9 -1,2 -2,4 -5,5 -2,1 -4,2 -6,2 -4,0 -8,-1 -10,-4 -2,-3 -4,-6 -4,-11zm5 0c0,3 1,6 3,8 1,2 3,3 6,3 2,0 4,-1 6,-3 1,-2 2,-5 2,-9 0,-3 -1,-6 -2,-8 -2,-2 -4,-3 -6,-3 -3,0 -5,1 -6,3 -2,2 -3,5 -3,9zm33 14l0 -25 -4 0 0 -4 4 0 0 -3c0,-2 0,-4 0,-5 1,-1 2,-2 3,-3 1,-1 2,-1 5,-1 1,0 2,0 4,1l-1 4c-1,0 -2,0 -2,0 -2,0 -3,0 -4,1 0,0 0,1 0,3l0 3 5 0 0 4 -5 0 0 25 -5 0zm37 -35l0 -5 5 0 0 5 -5 0zm0 35l0 -29 5 0 0 29 -5 0zm17 0l0 -29 4 0 0 4c2,-3 5,-5 9,-5 2,0 3,1 5,1 1,1 2,2 3,3 0,1 1,2 1,3 0,1 0,3 0,5l0 18 -4 0 0 -18c0,-2 0,-3 -1,-4 0,-1 -1,-2 -2,-3 -1,0 -2,0 -3,0 -2,0 -4,0 -5,2 -2,1 -3,3 -3,7l0 16 -4 0zm34 0l0 -29 4 0 0 4c2,-3 5,-5 9,-5 2,0 4,1 5,1 1,1 2,2 3,3 1,1 1,2 2,3 0,1 0,3 0,5l0 18 -5 0 0 -18c0,-2 0,-3 0,-4 -1,-1 -1,-2 -2,-3 -1,0 -2,0 -4,0 -2,0 -3,0 -5,2 -1,1 -2,3 -2,7l0 16 -5 0zm33 -14c0,-6 1,-10 4,-12 2,-3 5,-4 9,-4 4,0 7,2 9,4 3,3 4,7 4,11 0,4 0,7 -1,9 -2,2 -3,4 -5,5 -2,1 -5,2 -7,2 -4,0 -7,-1 -10,-4 -2,-3 -3,-6 -3,-11zm5 0c0,3 0,6 2,8 2,2 4,3 6,3 2,0 4,-1 6,-3 1,-2 2,-5 2,-9 0,-3 -1,-6 -2,-8 -2,-2 -4,-3 -6,-3 -2,0 -4,1 -6,3 -2,2 -2,5 -2,9zm39 14l-11 -29 5 0 6 17c1,2 1,4 2,6 0,-1 1,-3 2,-5l6 -18 5 0 -11 29 -4 0zm42 -3c-2,1 -4,2 -5,3 -2,1 -4,1 -6,1 -3,0 -5,-1 -7,-2 -1,-2 -2,-4 -2,-7 0,-1 0,-2 1,-3 0,-2 1,-3 2,-3 1,-1 2,-2 4,-2 1,0 2,0 4,-1 4,0 7,-1 8,-1 0,-1 0,-1 0,-2 0,-2 0,-3 -1,-4 -1,-1 -3,-2 -5,-2 -3,0 -4,1 -5,2 -1,0 -2,2 -3,4l-4 -1c0,-2 1,-3 2,-5 1,-1 2,-2 4,-3 2,0 4,-1 6,-1 3,0 5,1 6,1 2,1 3,1 4,2 0,1 1,2 1,4 0,1 0,2 0,4l0 7c0,5 0,7 1,9 0,1 0,2 1,3l-5 0c-1,-1 -1,-2 -1,-3zm-1 -11c-1,0 -4,1 -7,1 -2,1 -4,1 -5,1 0,1 -1,1 -1,2 -1,1 -1,1 -1,2 0,2 0,3 1,4 1,1 3,1 5,1 1,0 3,0 4,-1 2,-1 3,-2 4,-4 0,-1 0,-2 0,-5l0 -1zm27 10l1 4c-1,0 -3,1 -4,1 -1,0 -3,-1 -4,-1 -1,-1 -1,-2 -2,-2 0,-1 0,-3 0,-6l0 -17 -4 0 0 -4 4 0 0 -7 4 -3 0 10 5 0 0 4 -5 0 0 17c0,1 1,2 1,3 0,0 0,0 0,1 1,0 1,0 2,0 1,0 1,0 2,0zm9 -31l0 -5 5 0 0 5 -5 0zm0 35l0 -29 5 0 0 29 -5 0zm15 -14c0,-6 1,-10 4,-12 2,-3 5,-4 9,-4 4,0 7,2 9,4 3,3 4,7 4,11 0,4 0,7 -2,9 -1,2 -2,4 -4,5 -2,1 -5,2 -7,2 -4,0 -7,-1 -10,-4 -2,-3 -3,-6 -3,-11zm5 0c0,3 0,6 2,8 1,2 3,3 6,3 2,0 4,-1 6,-3 1,-2 2,-5 2,-9 0,-3 -1,-6 -2,-8 -2,-2 -4,-3 -6,-3 -3,0 -5,1 -6,3 -2,2 -2,5 -2,9zm31 14l0 -29 4 0 0 4c2,-3 5,-5 9,-5 2,0 3,1 5,1 1,1 2,2 3,3 1,1 1,2 2,3 0,1 0,3 0,5l0 18 -5 0 0 -18c0,-2 0,-3 -1,-4 0,-1 -1,-2 -2,-3 0,0 -2,0 -3,0 -2,0 -4,0 -5,2 -2,1 -2,3 -2,7l0 16 -5 0z"/>
  </g>
 </g>
</svg>
