<?xml version="1.0" encoding="UTF-8"?>
<!DOCTYPE svg PUBLIC "-//W3C//DTD SVG 1.1//EN" "http://www.w3.org/Graphics/SVG/1.1/DTD/svg11.dtd">
<!-- Creator: CorelDRAW X7 -->
<svg xmlns="http://www.w3.org/2000/svg" xml:space="preserve" width="2.23564in" height="0.416937in" version="1.1" style="shape-rendering:geometricPrecision; text-rendering:geometricPrecision; image-rendering:optimizeQuality; fill-rule:evenodd; clip-rule:evenodd"
viewBox="0 0 2225 415"
 xmlns:xlink="http://www.w3.org/1999/xlink">
 <defs>
  <style type="text/css">
   <![CDATA[
    .fil4 {fill:none}
    .fil0 {fill:#FEFEFE}
    .fil2 {fill:#F47D22}
    .fil1 {fill:#FEFEFE;fill-rule:nonzero}
    .fil3 {fill:#EFA960;fill-rule:nonzero}
   ]]>
  </style>
    <clipPath id="id0">
     <path d="M18 0l221 0c10,0 18,8 18,18l0 211c0,10 -8,18 -18,18l-221 0c-10,0 -18,-8 -18,-18l0 -211c0,-10 8,-18 18,-18z"/>
    </clipPath>
 </defs>
 <g id="Layer_x0020_1">
  <metadata id="CorelCorpID_0Corel-Layer"/>
  <g id="_397280048">
   <path class="fil0" d="M1181 52c2,0 4,1 6,2l0 0 0 0c2,0 4,2 6,3l0 0c2,2 3,4 4,6 1,2 1,4 1,7 0,2 0,4 -1,6 -1,2 -2,4 -4,6l0 0c-2,2 -4,3 -6,4l0 0c-2,1 -4,1 -6,1 -3,0 -5,0 -7,-1 -2,-1 -4,-2 -6,-4l0 0c-1,-2 -2,-4 -3,-6 -1,-2 -2,-4 -2,-6 0,-3 1,-5 2,-7 1,-2 2,-4 4,-6l0 0c1,-1 3,-3 5,-3 2,-1 4,-2 7,-2zm-768 10l81 173c1,2 0,5 -2,5 0,1 -1,1 -1,1l0 0 -19 0c-2,0 -3,-1 -4,-3l-26 -54 -70 0 -26 55c0,1 -2,2 -3,2l0 0 -20 0c-2,0 -3,-2 -3,-4 0,-1 0,-1 0,-2l82 -173c1,-1 2,-2 3,-2l0 0 5 0c1,0 3,1 3,2zm-6 47l-23 50 47 0 -24 -50zm109 -49l17 0c2,0 4,2 4,4l0 152 63 0c2,0 4,2 4,4l0 17c0,2 -2,4 -4,4l-84 0c-2,0 -4,-2 -4,-4l0 -173c0,-2 2,-4 4,-4zm110 0l34 0c10,0 18,0 25,0 7,1 13,2 16,3l0 0c6,1 10,3 15,6 4,2 8,6 11,10l0 0c4,4 7,9 8,14 2,5 3,11 3,17 0,6 -1,12 -3,17 -1,5 -4,10 -7,14l0 0c-4,4 -8,7 -12,10 -5,3 -10,5 -16,6l0 0c-4,1 -10,2 -17,2 -8,1 -17,1 -28,1l-8 0 0 77c0,2 -2,4 -4,4l-17 0c-2,0 -4,-2 -4,-4l0 -173c0,-2 2,-4 4,-4zm21 24l0 52 25 0 0 0c6,0 11,0 15,-1 4,0 8,-1 10,-2 2,-1 5,-2 6,-4 2,-1 4,-3 5,-5 2,-2 3,-4 3,-7 1,-2 1,-4 1,-7 0,-5 -1,-10 -4,-14 -1,-2 -3,-4 -4,-5l-1 -1c-1,-1 -3,-2 -5,-3 -3,-1 -6,-1 -10,-2 -4,0 -9,-1 -14,-1l-27 0zm120 -24l17 0c2,0 4,2 4,4l0 68 81 0 0 -68c0,-2 1,-4 3,-4l18 0c2,0 4,2 4,4l0 173c0,2 -2,4 -4,4l-18 0c-2,0 -3,-2 -3,-4l0 -80 -81 0 0 80c0,2 -2,4 -4,4l-17 0c-2,0 -4,-2 -4,-4l0 -173c0,-2 2,-4 4,-4zm238 2l81 173c1,2 0,5 -2,5 -1,1 -1,1 -2,1l0 0 -18 0c-2,0 -3,-1 -4,-3l-26 -54 -70 0 -26 55c-1,1 -2,2 -4,2l0 0 -19 0c-2,0 -4,-2 -4,-4 0,-1 0,-1 1,-2l82 -173c0,-1 2,-2 3,-2l0 0 4 0c2,0 3,1 4,2zm-6 47l-24 50 48 0 -24 -50zm174 -4l16 0c2,0 4,2 4,4l0 128c0,2 -2,4 -4,4l-16 0c-3,0 -4,-2 -4,-4l0 -128c0,-2 1,-4 4,-4zm50 0l17 0c2,0 3,2 3,4l0 12c2,-1 3,-2 5,-4 4,-3 8,-6 12,-8l0 0c4,-3 9,-4 13,-5 5,-2 10,-2 15,-2 5,0 10,0 15,2l0 0c4,1 9,3 13,6 4,2 7,5 10,9 3,4 6,8 7,12l0 0c2,4 4,10 5,17l0 0c1,6 1,14 1,23l0 66c0,2 -2,4 -4,4l-16 0c-2,0 -4,-2 -4,-4l0 -61c0,-7 0,-14 0,-18 -1,-5 -1,-8 -2,-11l0 0 0 0c-1,-4 -2,-7 -4,-10 -1,-3 -3,-5 -5,-7l-1 0c-2,-2 -5,-3 -8,-4 -3,-1 -6,-1 -10,-1 -5,0 -9,0 -13,2 -4,1 -8,4 -12,7l0 0 0 0c-4,3 -7,6 -9,10 -2,4 -4,8 -5,12l0 0c-1,3 -2,7 -2,13 0,6 -1,13 -1,21l0 47c0,2 -1,4 -3,4l-17 0c-2,0 -4,-2 -4,-4l0 -128c0,-2 2,-4 4,-4zm215 20l-11 11c-1,2 -4,2 -5,0 -4,-4 -8,-7 -12,-9 -4,-1 -8,-2 -11,-2 -5,0 -8,1 -11,4l0 0c-2,1 -3,3 -4,4 -1,2 -1,4 -1,6 0,3 1,6 4,9l0 0c1,2 3,4 6,6 4,2 8,4 12,7 7,3 12,6 16,9 5,3 8,7 11,10l0 0c2,3 4,7 5,11 1,3 2,7 2,11 0,12 -4,22 -12,30l0 0c-4,4 -9,7 -14,9 -5,2 -11,3 -17,3 -4,0 -7,-1 -11,-1 -4,-1 -8,-3 -11,-4 -1,0 -1,0 -1,0 -3,-2 -7,-4 -9,-6 -3,-3 -6,-6 -9,-9 -1,-1 -1,-3 1,-5l0 0 10 -11c1,-2 4,-2 5,-1 1,1 1,1 1,1 4,4 8,7 12,10 4,2 8,3 12,3 3,0 5,-1 7,-2 3,-1 5,-2 7,-4l0 0c2,-2 3,-3 4,-5l0 0c1,-2 2,-5 2,-7 0,-2 -1,-4 -1,-5 -1,-2 -2,-4 -3,-5l0 0c-1,-2 -4,-3 -7,-5 -3,-3 -7,-5 -13,-8l0 0c-6,-3 -11,-6 -15,-9 -4,-3 -7,-6 -10,-10l0 0c-2,-3 -4,-6 -5,-10 -1,-4 -2,-7 -2,-12 0,-5 1,-10 3,-14 2,-5 5,-9 9,-12l0 0c3,-4 8,-7 12,-9 5,-1 10,-2 15,-2 7,0 13,1 20,4 6,3 13,8 19,14 1,1 1,4 0,5l0 0zm40 -68l17 0c2,0 4,2 4,4l0 44 22 0c2,0 4,2 4,4l0 14c0,2 -2,4 -4,4l-22 0 0 110c0,2 -2,4 -4,4l-17 0c-2,0 -3,-2 -3,-4l0 -110 -19 0c-2,0 -4,-2 -4,-4l0 -14c0,-2 2,-4 4,-4l19 0 0 -44c0,-2 1,-4 3,-4zm62 48l17 0c2,0 3,2 3,4l0 8c1,-1 1,-1 2,-2 3,-3 6,-5 9,-7l0 0 0 0c3,-2 6,-4 9,-5 3,-1 7,-1 10,-1 3,0 5,0 8,1 3,1 6,2 9,4 1,1 2,3 1,5l0 0 0 0 -9 14c-1,1 -3,2 -4,1l0 0c-2,0 -3,-1 -5,-1 -1,0 -2,-1 -3,-1 -2,0 -4,1 -6,2l0 0c-3,1 -5,2 -7,4l0 0 0 0c-2,2 -4,5 -6,8 -2,3 -3,7 -5,11 -1,4 -1,9 -2,16 0,7 -1,17 -1,28l0 43c0,2 -1,4 -3,4l-17 0c-2,0 -4,-2 -4,-4l0 -128c0,-2 2,-4 4,-4zm77 0l16 0c2,0 4,2 4,4l0 60c0,7 0,13 0,18 1,5 1,8 2,11l0 0c1,3 3,6 5,9 2,3 4,5 7,7 3,2 6,4 10,5 3,1 7,1 12,1 8,0 15,-2 21,-6l0 0c3,-2 5,-4 7,-6 2,-3 4,-6 5,-9 1,-2 1,-6 1,-11 1,-5 1,-11 1,-19l0 -60c0,-2 2,-4 4,-4l17 0c2,0 4,2 4,4l0 63c0,9 -1,17 -2,23 -1,7 -3,13 -5,18l0 0c-2,5 -5,9 -8,13 -4,4 -8,7 -12,10l0 0c-5,2 -10,5 -15,6 -6,1 -12,2 -18,2 -13,0 -24,-3 -33,-8l0 0c-5,-3 -9,-6 -12,-10 -4,-4 -7,-8 -9,-13l0 0c-2,-5 -4,-11 -5,-18 -1,-7 -1,-15 -1,-25l0 -61c0,-2 1,-4 4,-4zm275 34l-13 8c-2,1 -4,0 -5,-1l0 0c-5,-7 -12,-12 -19,-16 -7,-3 -15,-5 -24,-5 -8,0 -15,1 -21,3l0 0c-6,3 -11,6 -16,11l0 0c-5,5 -8,10 -11,15 -2,6 -3,12 -3,19 0,4 0,8 1,12 1,4 3,8 5,12 2,4 5,7 8,10 3,3 7,6 10,8l0 0 0 0c4,2 8,3 13,5 4,1 9,1 14,1 17,0 32,-7 43,-21 1,-2 4,-2 5,-1l13 9c2,1 2,3 1,5l0 0 0 0c-3,5 -7,9 -11,13 -5,4 -10,7 -15,10l0 0 0 0c-5,3 -11,5 -18,6 -6,1 -12,2 -19,2 -11,0 -21,-2 -29,-5 -9,-4 -17,-9 -24,-15 -7,-7 -13,-15 -16,-23 -4,-8 -6,-17 -6,-27 0,-13 4,-25 10,-36l0 -1c4,-5 8,-10 12,-14 5,-5 10,-9 16,-12l0 0 0 0c5,-3 11,-5 18,-7 6,-1 13,-2 20,-2 5,0 9,0 13,1 5,1 9,2 13,3 4,1 8,3 11,5 4,1 7,3 10,6l0 0c3,2 6,4 8,7 3,3 5,6 7,9 1,2 1,5 -1,6l0 0zm44 -82l16 0c2,0 4,2 4,4l0 44 22 0c3,0 4,2 4,4l0 14c0,2 -1,4 -4,4l-22 0 0 110c0,2 -2,4 -4,4l-16 0c-2,0 -4,-2 -4,-4l0 -110 -19 0c-2,0 -3,-2 -3,-4l0 -14c0,-2 1,-4 3,-4l19 0 0 -44c0,-2 2,-4 4,-4zm128 45c11,0 20,2 29,6 9,3 16,9 23,16 7,7 11,15 14,23 3,8 5,17 5,26 0,10 -2,18 -5,27 -3,8 -8,16 -15,23 -6,7 -14,12 -22,16 -9,3 -18,5 -29,5 -20,0 -38,-7 -51,-21l0 0c-6,-7 -11,-15 -15,-23 -3,-9 -5,-17 -5,-27 0,-18 7,-35 19,-48l0 -1c7,-7 15,-13 24,-16 8,-4 18,-6 28,-6zm0 24c-6,0 -12,1 -17,3 -6,2 -11,6 -15,11 -5,4 -8,9 -11,15 -2,6 -3,12 -3,19 0,4 0,8 1,12 2,4 3,8 5,12 2,3 5,7 7,9 3,3 6,6 10,8 3,2 7,3 11,4 4,1 8,2 12,2 9,0 17,-2 24,-6 3,-2 6,-5 9,-8 3,-2 5,-6 7,-9l0 0c2,-4 4,-8 5,-12 1,-4 2,-8 2,-12 0,-14 -5,-25 -14,-34l0 0 0 0c-5,-5 -10,-9 -15,-11 -6,-2 -11,-3 -18,-3zm91 -21l17 0c2,0 4,2 4,4l0 8c0,-1 1,-1 1,-2 3,-3 6,-5 9,-7l0 0 0 0c3,-2 6,-4 10,-5 3,-1 6,-1 10,-1 2,0 5,0 8,1 3,1 5,2 8,4 2,1 3,3 2,5l0 0 0 0 -9 14c-1,1 -3,2 -5,1l0 0c-1,0 -3,-1 -4,-1 -1,0 -2,-1 -3,-1 -2,0 -5,1 -7,2l0 0c-2,1 -4,2 -6,4l0 0 0 0c-3,2 -5,5 -6,8 -2,3 -4,7 -5,11 -1,4 -2,9 -2,16 -1,7 -1,17 -1,28l0 43c0,2 -2,4 -4,4l-17 0c-2,0 -3,-2 -3,-4l0 -128c0,-2 1,-4 3,-4z"/>
   <path class="fil1" d="M922 345l-7 5c0,0 -2,0 -2,-1 -2,-2 -4,-4 -6,-6 -2,-1 -4,-3 -7,-4 -2,-1 -4,-2 -7,-2 -3,-1 -6,-1 -8,-1 -4,0 -7,0 -10,1 -2,1 -5,2 -8,3 -3,2 -5,4 -7,6 -2,2 -4,4 -5,6 -2,3 -3,6 -4,8 0,3 -1,6 -1,10 0,4 1,9 3,13 1,4 4,7 7,11l0 0 0 0c3,3 7,5 11,7 4,1 9,2 14,2 6,0 11,-1 15,-3 5,-2 9,-5 13,-10 0,-1 2,-1 2,0l7 5c1,1 1,2 0,3l0 0 0 0c-2,2 -4,5 -7,7l0 0c-3,2 -6,4 -9,5 -3,2 -7,3 -10,4 -4,1 -8,1 -11,1 -8,0 -15,-1 -21,-4 -6,-2 -11,-6 -15,-11 -4,-5 -7,-9 -9,-14 -1,-6 -2,-11 -2,-17 0,-13 4,-23 13,-32 5,-4 10,-8 15,-10 6,-2 12,-3 18,-3 4,0 8,0 12,1 4,1 7,2 10,4l0 0c4,1 7,3 9,5 3,3 5,5 7,8 1,1 1,2 0,3l0 0zm-1 -2l-7 5c-3,-4 -8,-8 -13,-10 -5,-3 -10,-4 -16,-4 -7,0 -13,1 -19,5 -5,3 -10,7 -13,12 -3,6 -5,12 -5,19 0,10 4,18 11,25 7,7 15,10 26,10 12,0 21,-4 29,-14l7 5c-4,6 -10,10 -16,13 -6,3 -13,4 -20,4 -15,0 -26,-5 -35,-15 -7,-8 -10,-18 -10,-29 0,-12 4,-22 12,-31 9,-8 20,-12 32,-12 8,0 15,1 21,4 7,3 12,8 16,13zm12 6l8 0 0 9c3,-3 5,-6 8,-7 3,-2 5,-3 8,-3 2,0 5,1 7,2l-4 7c-1,-1 -3,-1 -4,-1 -3,0 -5,1 -8,3 -2,2 -4,5 -5,10 -1,3 -2,11 -2,21l0 21 -8 0 0 -62zm90 42l7 3c-3,4 -5,8 -8,10 -3,3 -6,5 -10,6 -3,2 -7,2 -12,2 -10,0 -18,-3 -24,-9 -5,-7 -8,-14 -8,-23 0,-7 2,-14 7,-20 6,-8 14,-12 25,-12 10,0 19,4 25,12 4,5 7,12 7,21l-56 0c0,7 3,13 7,17 4,5 10,7 16,7 3,0 7,0 10,-2 2,-1 5,-2 7,-4 2,-2 4,-4 7,-8zm0 -17c-1,-4 -3,-8 -5,-10 -2,-3 -4,-5 -8,-6 -3,-2 -7,-3 -10,-3 -6,0 -12,2 -16,6 -3,3 -5,7 -7,13l46 0zm109 -47l8 0 0 22 12 0 0 7 -12 0 0 55 -8 0 0 -55 -11 0 0 -7 11 0 0 -22zm84 64l7 3c-2,4 -5,8 -8,10 -3,3 -6,5 -9,6 -4,2 -8,2 -13,2 -10,0 -17,-3 -23,-9 -6,-7 -9,-14 -9,-23 0,-7 3,-14 8,-20 6,-8 14,-12 24,-12 11,0 19,4 25,12 5,5 7,12 7,21l-56 0c1,7 3,13 7,17 5,5 10,7 17,7 3,0 6,0 9,-2 3,-1 5,-2 7,-4 3,-2 5,-4 7,-8zm0 -17c-1,-4 -2,-8 -4,-10 -2,-3 -5,-5 -8,-6 -4,-2 -7,-3 -11,-3 -6,0 -11,2 -16,6 -3,3 -5,7 -7,13l46 0zm49 -38l0 -8 45 0 0 8 -18 0 0 75 -9 0 0 -75 -18 0zm108 55l6 3c-2,4 -4,8 -7,10 -3,3 -6,5 -10,6 -4,2 -8,2 -12,2 -10,0 -18,-3 -24,-9 -5,-7 -8,-14 -8,-23 0,-7 2,-14 7,-20 6,-8 14,-12 24,-12 11,0 19,4 26,12 4,5 6,12 6,21l-55 0c0,7 2,13 7,17 4,5 10,7 16,7 3,0 6,0 9,-2 3,-1 6,-2 8,-4 2,-2 4,-4 7,-8zm0 -17c-1,-4 -3,-8 -5,-10 -2,-3 -5,-5 -8,-6 -3,-2 -7,-3 -10,-3 -6,0 -12,2 -16,6 -3,3 -6,7 -7,13l46 0zm162 -12l-7 4c-5,-7 -12,-11 -22,-11 -7,0 -14,3 -19,8 -5,4 -7,10 -7,17 0,5 1,9 3,13 3,4 6,7 10,9 4,2 8,3 13,3 9,0 17,-3 22,-11l7 4c-3,5 -7,8 -12,11 -5,2 -11,3 -17,3 -10,0 -18,-3 -24,-9 -7,-6 -10,-13 -10,-22 0,-6 2,-12 5,-17 3,-5 7,-9 12,-12 5,-3 11,-4 18,-4 4,0 8,1 11,2 4,1 7,3 10,5 3,2 5,4 7,7zm15 -36l8 0 0 35c3,-5 6,-8 10,-10 4,-2 8,-3 13,-3 4,0 9,1 12,3 4,3 6,6 8,10 2,4 3,10 3,18l0 32 -8 0 0 -29c0,-7 -1,-12 -1,-15 -1,-4 -3,-7 -6,-9 -2,-2 -6,-3 -10,-3 -5,0 -9,2 -13,5 -3,3 -6,7 -7,12 -1,3 -1,8 -1,16l0 23 -8 0 0 -85zm95 69l7 -4c5,9 11,14 17,14 3,0 6,-1 8,-2 3,-1 5,-3 6,-5 1,-2 2,-5 2,-7 0,-3 -1,-6 -3,-8 -3,-4 -7,-9 -14,-14 -7,-5 -12,-9 -13,-11 -3,-4 -5,-8 -5,-13 0,-3 1,-7 3,-10 2,-3 4,-5 7,-7 3,-1 7,-2 11,-2 4,0 7,1 11,3 3,2 7,5 10,10l-6 6c-3,-5 -6,-7 -8,-9 -3,-1 -5,-2 -8,-2 -3,0 -6,1 -8,3 -2,2 -3,5 -3,8 0,2 0,3 1,5 1,2 2,4 4,6 1,1 5,3 11,8 7,5 12,10 15,14 2,4 4,8 4,13 0,6 -2,11 -7,15 -5,5 -10,7 -17,7 -5,0 -9,-1 -13,-4 -5,-3 -8,-7 -12,-14zm65 -69l8 0 0 35c3,-5 7,-8 10,-10 4,-2 9,-3 13,-3 5,0 9,1 12,3 4,3 6,6 8,10 2,4 3,10 3,18l0 32 -8 0 0 -29c0,-7 0,-12 -1,-15 -1,-4 -3,-7 -5,-9 -3,-2 -6,-3 -11,-3 -4,0 -9,2 -12,5 -4,3 -7,7 -8,12 -1,3 -1,8 -1,16l0 23 -8 0 0 -85zm147 23l8 0 0 9c2,-3 5,-6 7,-7 3,-2 6,-3 9,-3 2,0 4,1 7,2l-4 7c-2,-1 -3,-1 -5,-1 -2,0 -5,1 -7,3 -3,2 -5,5 -6,10 -1,3 -1,11 -1,21l0 21 -8 0 0 -62zm89 42l7 3c-2,4 -5,8 -8,10 -3,3 -6,5 -9,6 -4,2 -8,2 -13,2 -10,0 -17,-3 -23,-9 -6,-7 -9,-14 -9,-23 0,-7 3,-14 8,-20 6,-8 14,-12 24,-12 11,0 19,4 25,12 5,5 7,12 7,21l-56 0c1,7 3,13 7,17 5,5 10,7 17,7 3,0 6,0 9,-2 3,-1 5,-2 8,-4 2,-2 4,-4 6,-8zm0 -17c-1,-4 -2,-8 -4,-10 -2,-3 -5,-5 -8,-6 -4,-2 -7,-3 -11,-3 -6,0 -11,2 -15,6 -4,3 -6,7 -8,13l46 0zm-1013 -26l0 0 8 0c1,0 2,0 2,1l0 1 0 3 1 0 0 0c1,-2 2,-3 4,-4l0 0 0 0c1,-1 3,-2 4,-2 2,-1 4,-1 5,-1 2,0 3,0 4,1 2,0 3,1 4,1 1,1 1,2 1,3l0 0 0 0 -4 7c-1,0 -2,1 -3,0l0 0c0,0 -1,0 -2,0 0,0 -1,0 -1,0 -2,0 -4,0 -6,2 -1,1 -2,2 -3,4 -1,1 -2,3 -2,5 -1,2 -1,5 -1,8 -1,3 -1,8 -1,13l0 21c0,1 -1,2 -2,2l0 0 -8 0c-1,0 -2,-1 -2,-2l0 0 0 -62c0,-1 1,-1 2,-1zm91 41l6 3c1,1 2,2 1,3l0 0c-1,2 -2,4 -3,6 -2,2 -3,3 -5,5l0 0c-1,1 -3,2 -5,3 -1,2 -3,2 -5,3l0 0c-2,1 -4,1 -6,2 -2,0 -5,0 -7,0 -5,0 -10,-1 -14,-2 -4,-2 -8,-5 -11,-8 -3,-4 -5,-7 -7,-11 -1,-4 -2,-8 -2,-13 0,-4 1,-8 2,-11 1,-4 3,-7 6,-11l0 0c3,-4 7,-7 11,-9 4,-2 9,-3 15,-3 5,0 10,1 15,3 4,2 8,6 11,10l0 0c3,3 4,6 6,10 1,3 1,7 1,12 0,1 0,2 -1,2l0 0 0 0 -54 0c0,2 1,5 2,7 1,3 2,5 4,7 2,2 5,4 7,5 3,1 5,1 8,1 2,0 3,0 5,0 1,0 3,-1 4,-1 1,-1 3,-1 4,-2 1,-1 2,-1 3,-2l0 0c1,-1 2,-2 3,-3l0 0c1,-2 2,-4 3,-5 1,-1 2,-2 3,-1zm-4 -17c0,-1 0,-2 -1,-3 0,-1 -1,-3 -2,-4l0 0c-1,-1 -2,-2 -3,-3 -2,-1 -3,-2 -5,-2 -1,-1 -3,-2 -4,-2 -2,0 -4,-1 -5,-1 -3,0 -6,1 -8,2l0 0c-3,1 -5,2 -7,4l0 0c-1,1 -2,3 -3,5 -1,1 -2,2 -3,4l41 0zm89 -23l0 1 0 61c0,1 -1,2 -2,2l0 0 -8 0c-1,0 -1,-1 -1,-2l0 0 0 -6c-1,1 -2,1 -3,2 -2,2 -4,3 -6,4l0 0c-2,1 -4,2 -7,3 -2,0 -5,0 -7,0 -5,0 -9,-1 -13,-2 -4,-2 -8,-4 -11,-8l0 0c-3,-3 -5,-7 -7,-11 -2,-4 -3,-8 -3,-13 0,-5 1,-9 3,-13 2,-4 4,-8 7,-11l0 0 0 0c4,-3 7,-6 11,-7l0 0 0 0c4,-2 8,-3 13,-3 3,0 5,0 8,1l0 0 0 0c2,0 4,1 7,2l0 1c2,1 4,2 6,4 0,0 1,1 2,2l0 -7c0,-1 0,-1 1,-1l1 0 7 0c1,0 2,0 2,1zm-33 9c-4,0 -8,1 -12,2l0 1c-1,1 -3,2 -4,3 -1,1 -3,3 -4,5 -1,2 -1,3 -2,5 0,2 -1,4 -1,6 0,2 1,4 1,6 1,2 1,4 2,6 1,2 3,3 4,5 1,1 3,2 5,3l0 0c1,1 3,2 5,2 2,1 4,1 6,1 2,0 4,0 5,-1 2,0 4,-1 6,-2l0 0 0 0c2,-1 3,-2 5,-3 1,-2 2,-3 3,-5 1,-2 2,-3 2,-5l0 0c1,-2 1,-4 1,-7 0,-3 0,-6 -2,-9 -1,-2 -2,-5 -4,-7 -3,-2 -5,-4 -8,-5 -2,-1 -5,-1 -8,-1zm56 -33l0 0 8 0c1,0 2,1 2,2l0 0 0 21 10 0c1,0 2,0 2,1l0 1 0 6c0,1 -1,2 -2,2l0 0 -10 0 0 53c0,1 -1,2 -2,2l0 0 -8 0c-1,0 -2,-1 -2,-2l0 0 0 -53 -9 0c-1,0 -2,-1 -2,-2l0 0 0 -7c0,-1 1,-1 2,-1l0 0 9 0 0 -21c0,-1 1,-2 2,-2zm85 64l7 3c1,1 1,2 1,3l0 0c-2,2 -3,4 -4,6 -1,2 -3,3 -4,5l-1 0c-1,1 -3,2 -4,3 -2,2 -4,2 -6,3l0 0c-2,1 -4,1 -6,2 -2,0 -4,0 -7,0 -5,0 -10,-1 -14,-2 -4,-2 -8,-5 -11,-8 -3,-4 -5,-7 -6,-11 -2,-4 -3,-8 -3,-13 0,-4 1,-8 2,-11 2,-4 4,-7 6,-11l0 0c3,-4 7,-7 11,-9 5,-2 10,-3 15,-3 6,0 11,1 15,3 4,2 8,6 12,10l0 0c2,3 4,6 5,10 1,3 2,7 2,12 0,1 -1,2 -2,2l0 0 0 0 -54 0c1,2 1,5 2,7 1,3 3,5 5,7 2,2 4,4 6,5 3,1 6,1 9,1 1,0 3,0 4,0 1,0 3,-1 4,-1 2,-1 3,-1 4,-2 1,-1 2,-1 3,-2l0 0c1,-1 2,-2 3,-3l0 0c1,-2 2,-4 4,-5 0,-1 1,-2 2,-1zm-3 -17c-1,-1 -1,-2 -1,-3 -1,-1 -2,-3 -3,-4l0 0c-1,-1 -2,-2 -3,-3 -1,-1 -3,-2 -4,-2 -2,-1 -3,-2 -5,-2 -2,0 -3,-1 -5,-1 -3,0 -5,1 -8,2l0 0c-2,1 -4,2 -6,4l0 0c-2,1 -3,3 -4,5 -1,1 -2,2 -2,4l41 0zm49 -36l0 0 0 -8c0,-1 1,-2 2,-2l0 0 45 0c1,0 2,1 2,2l0 0 0 8c0,1 -1,2 -2,2l0 0 -17 0 0 73c0,1 0,2 -1,2l0 0 -9 0c-1,0 -2,-1 -2,-2l0 0 0 -73 -16 0c-1,0 -2,-1 -2,-2zm111 53l6 3c1,1 2,2 1,3l0 0c-1,2 -2,4 -4,6 -1,2 -2,3 -4,5l0 0c-2,1 -3,2 -5,3 -2,2 -3,2 -5,3l0 0c-2,1 -4,1 -6,2 -2,0 -5,0 -7,0 -5,0 -10,-1 -14,-2 -4,-2 -8,-5 -11,-8 -3,-4 -5,-7 -7,-11 -1,-4 -2,-8 -2,-13 0,-4 1,-8 2,-11 1,-4 3,-7 6,-11l0 0c3,-4 7,-7 11,-9 4,-2 9,-3 14,-3 6,0 11,1 15,3 5,2 9,6 12,10l0 0c2,3 4,6 5,10 2,3 2,7 2,12 0,1 0,2 -2,2l0 0 0 0 -53 0c0,2 1,5 2,7 1,3 2,5 4,7 2,2 4,4 7,5 2,1 5,1 8,1 2,0 3,0 5,0 1,0 2,-1 4,-1 1,-1 2,-1 4,-2 1,-1 2,-1 3,-2l0 0c1,-1 2,-2 3,-3l0 0c1,-2 2,-4 3,-5 1,-1 2,-2 3,-1zm-4 -17c0,-1 0,-2 -1,-3 -1,-1 -1,-3 -2,-4l0 0c-1,-1 -2,-2 -4,-3 -1,-1 -2,-2 -4,-2 -1,-1 -3,-2 -4,-2 -2,0 -4,-1 -5,-1 -3,0 -6,1 -8,2l0 0c-3,1 -5,2 -7,4l0 0c-1,1 -3,3 -4,5 0,1 -1,2 -2,4l41 0zm89 -23l0 1 0 61c0,1 -1,2 -2,2l0 0 -8 0c-1,0 -2,-1 -2,-2l0 0 0 -6c0,1 -1,1 -2,2 -2,2 -4,3 -6,4l0 0c-2,1 -4,2 -7,3 -2,0 -5,0 -7,0 -5,0 -9,-1 -13,-2 -4,-2 -8,-4 -11,-8l0 0c-3,-3 -6,-7 -7,-11 -2,-4 -3,-8 -3,-13 0,-5 1,-9 3,-13 1,-4 4,-8 7,-11l0 0 0 0c3,-3 7,-6 11,-7l0 0 0 0c4,-2 8,-3 13,-3 3,0 5,0 8,1 2,0 4,1 6,2l1 1c2,1 4,2 6,4 0,0 1,1 1,2l0 -7c0,-1 1,-1 2,-1l0 0 8 0c1,0 2,0 2,1zm-33 9c-5,0 -8,1 -12,2l0 1c-1,1 -3,2 -4,3 -2,1 -3,3 -4,5 -1,2 -2,3 -2,5 -1,2 -1,4 -1,6 0,2 0,4 1,6 0,2 1,4 2,6 1,2 2,3 4,5 1,1 3,2 4,3l0 0c2,1 4,2 6,2 2,1 3,1 5,1 2,0 4,0 6,-1 2,0 4,-1 6,-2l0 0 0 0c2,-1 3,-2 5,-3l0 0c1,-2 2,-3 3,-5l0 0 0 0c1,-2 2,-3 2,-5l0 0c1,-2 1,-4 1,-7 0,-3 -1,-6 -2,-9 -1,-2 -2,-5 -5,-7 -2,-2 -4,-4 -7,-5 -2,-1 -5,-1 -8,-1zm110 6l-7 4c0,0 -1,0 -2,-1 -3,-3 -6,-6 -9,-7 -3,-2 -7,-3 -12,-3 -3,0 -7,1 -9,2l0 0c-3,1 -6,3 -8,5l0 0c-3,2 -4,5 -5,7 -2,3 -2,6 -2,9 0,2 0,4 1,6 0,2 1,4 2,6 1,2 2,3 4,5 1,1 3,2 5,3l0 0 0 0c2,1 4,2 6,2 2,1 4,1 6,1 4,0 8,-1 12,-2 3,-2 6,-4 9,-8 1,-1 2,-1 3,0l6 4c1,0 1,2 0,3l0 0 0 0c-1,2 -3,4 -5,6 -2,2 -5,3 -7,4l0 0 0 0c-3,2 -6,3 -9,3 -3,1 -6,1 -9,1 -5,0 -10,-1 -14,-2 -4,-2 -8,-4 -12,-7 -3,-4 -6,-7 -7,-11 -2,-4 -3,-9 -3,-13 0,-3 1,-6 1,-9 1,-3 2,-6 4,-9l0 0c2,-3 3,-5 6,-7 2,-2 4,-4 7,-5l0 0 0 0c3,-2 6,-3 9,-4 3,-1 6,-1 10,-1 4,0 8,1 12,2 2,1 4,1 5,2l0 0 0 0c2,1 4,2 5,3l0 0c2,1 3,2 4,4 1,1 2,3 3,4 1,1 1,2 0,3l0 0 0 0zm14 -40l0 0 8 0c1,0 2,1 2,2l0 0 0 29c0,0 1,-1 2,-1 1,-2 3,-3 5,-5l1 0c2,-1 4,-2 6,-2 2,-1 4,-1 7,-1 2,0 5,0 7,1l0 0c2,1 4,2 6,3 2,1 4,3 5,4 2,2 3,4 4,6l0 0 0 0c1,2 1,5 2,8 0,3 0,7 0,11l0 32c0,1 0,2 -1,2l-1 0 -7 0c-1,0 -2,-1 -2,-2l0 0 0 -29c0,-4 0,-7 0,-9 -1,-2 -1,-4 -1,-5l0 0c0,-2 -1,-4 -2,-5 -1,-1 -2,-2 -3,-3l0 0c-1,-1 -2,-2 -4,-2 -1,-1 -3,-1 -5,-1 -4,0 -8,2 -11,4l0 0 0 0c-2,2 -4,4 -5,5 -1,2 -2,4 -2,6l0 0c-1,2 -1,4 -1,6 0,3 0,6 0,10l0 23c0,1 -1,2 -2,2l0 0 -8 0c-1,0 -2,-1 -2,-2l0 0 0 -85c0,-1 1,-2 2,-2zm94 70l7 -4c1,-1 2,-1 3,0l0 0 0 0c2,5 5,8 7,10l0 0c3,2 6,3 8,3 2,0 3,0 4,0 1,-1 2,-1 3,-2 1,0 2,-1 3,-2l0 0c1,-1 2,-1 2,-2l0 0c1,-1 1,-2 2,-3 0,-1 0,-2 0,-3 0,-1 0,-3 -1,-4 0,-1 -1,-2 -2,-3 -1,-2 -3,-4 -5,-6 -2,-2 -5,-5 -8,-7l0 0 0 0c-4,-3 -7,-5 -9,-7 -2,-2 -4,-4 -5,-5 -1,-2 -3,-4 -3,-7l0 0c-1,-2 -2,-4 -2,-7 0,-4 1,-7 3,-11 1,-1 2,-3 4,-4 1,-1 3,-2 4,-3 2,-1 4,-2 6,-2l0 0c2,-1 4,-1 6,-1 2,0 4,0 6,1 2,0 4,1 6,2l0 0c1,1 3,3 5,4 2,2 4,5 6,7 1,1 0,2 0,3l-1 0 -6 5c-1,1 -2,0 -3,0 -1,-2 -3,-4 -4,-5 -1,-2 -2,-2 -3,-3l0 0c-1,-1 -2,-1 -3,-1 -1,-1 -2,-1 -4,-1 -1,0 -2,0 -4,1 -1,0 -2,1 -3,2l0 0c0,1 -1,2 -2,3 0,1 0,2 0,3 0,1 0,1 0,2 0,1 0,2 1,2l0 0 0 0c0,1 1,2 1,3 1,0 2,1 3,2l0 0c0,1 1,2 3,3 2,1 4,3 7,5l0 1c4,2 7,5 9,7 3,3 5,5 6,7l0 0c2,2 3,5 4,7 0,2 1,4 1,7 0,3 -1,6 -2,9 -1,3 -3,5 -6,8 -2,2 -5,4 -8,5 -3,1 -6,2 -10,2 -5,0 -10,-2 -15,-4 -2,-2 -4,-4 -6,-6 -2,-3 -4,-5 -6,-9 0,-1 0,-2 1,-2l0 0zm66 -70l0 0 8 0c1,0 2,1 2,2l0 0 0 29c0,0 1,-1 2,-1 2,-2 4,-3 6,-5l0 0c2,-1 4,-2 6,-2 2,-1 5,-1 7,-1 2,0 5,0 7,1l0 0c2,1 4,2 6,3 2,1 4,3 5,4 2,2 3,4 4,6l0 0 0 0c1,2 2,5 2,8 0,3 1,7 1,11l0 32c0,1 -1,2 -2,2l0 0 -8 0c-1,0 -2,-1 -2,-2l0 0 0 -29c0,-4 0,-7 0,-9 0,-2 -1,-4 -1,-5l0 0c0,-2 -1,-4 -2,-5 0,-1 -1,-2 -3,-3l0 0c-1,-1 -2,-2 -3,-2 -2,-1 -4,-1 -6,-1 -4,0 -8,2 -11,4l0 0 0 0c-2,2 -3,4 -5,5 -1,2 -2,4 -2,6l0 0c0,2 -1,4 -1,6 0,3 0,6 0,10l0 23c0,1 -1,2 -2,2l0 0 -8 0c-1,0 -2,-1 -2,-2l0 0 0 -85c0,-1 1,-2 2,-2zm134 25l0 1 0 61c0,1 -1,2 -2,2l0 0 -8 0c-1,0 -2,-1 -2,-2l0 0 0 -6c-1,1 -1,1 -2,2 -2,2 -4,3 -6,4l0 0c-3,1 -5,2 -7,3 -3,0 -5,0 -8,0 -4,0 -9,-1 -13,-2 -3,-2 -7,-4 -10,-8l0 0c-4,-3 -6,-7 -8,-11 -1,-4 -2,-8 -2,-13 0,-5 1,-9 2,-13 2,-4 4,-8 8,-11l0 0 0 0c3,-3 7,-6 11,-7l0 0 0 0c4,-2 8,-3 13,-3 2,0 5,0 7,1 3,0 5,1 7,2l0 1c2,1 4,2 6,4 1,0 1,1 2,2l0 -7c0,-1 1,-1 2,-1l0 0 8 0c1,0 2,0 2,1zm-34 9c-4,0 -8,1 -11,2l0 1c-2,1 -3,2 -5,3 -1,1 -2,3 -3,5 -1,2 -2,3 -3,5 0,2 0,4 0,6 0,2 0,4 0,6 1,2 2,4 3,6 1,2 2,3 3,5 2,1 3,2 5,3l0 0c2,1 4,2 5,2 2,1 4,1 6,1 2,0 4,0 6,-1 2,0 4,-1 5,-2l0 0 0 0c2,-1 4,-2 5,-3l0 0c1,-2 3,-3 4,-5l0 0 0 0c1,-2 1,-3 2,-5l0 0c0,-2 0,-4 0,-7 0,-3 0,-6 -1,-9 -1,-2 -3,-5 -5,-7 -2,-2 -5,-4 -7,-5 -3,-1 -6,-1 -9,-1zm47 -10l0 0 8 0c1,0 2,0 2,1l0 1 0 3 0 0 0 0c1,-2 3,-3 4,-4l0 0 0 0c2,-1 3,-2 5,-2 1,-1 3,-1 5,-1 1,0 2,0 4,1l0 0 0 0c1,0 2,1 4,1 1,1 1,2 0,3l0 0 0 0 -4 7c0,0 -1,1 -2,0l0 0c-1,0 -2,0 -2,0 -1,0 -1,0 -2,0 -2,0 -4,0 -6,2 -1,1 -2,2 -3,4 -1,1 -1,3 -2,5 0,2 -1,5 -1,8 0,3 0,8 0,13l0 21c0,1 -1,2 -2,2l0 0 -8 0c-1,0 -2,-1 -2,-2l0 0 0 -62c0,-1 1,-1 2,-1zm90 41l7 3c1,1 1,2 1,3l0 0c-2,2 -3,4 -4,6 -1,2 -3,3 -4,5l0 0c-2,1 -4,2 -5,3 -2,2 -4,2 -6,3l0 0c-2,1 -4,1 -6,2 -2,0 -4,0 -7,0 -5,0 -10,-1 -14,-2 -4,-2 -8,-5 -11,-8 -3,-4 -5,-7 -6,-11 -2,-4 -2,-8 -2,-13 0,-4 0,-8 1,-11 2,-4 4,-7 6,-11l0 0c3,-4 7,-7 11,-9 5,-2 10,-3 15,-3 6,0 11,1 15,3 4,2 8,6 12,10l0 0c2,3 4,6 5,10 1,3 2,7 2,12 0,1 -1,2 -2,2l0 0 0 0 -54 0c1,2 1,5 2,7 1,3 3,5 5,7 2,2 4,4 7,5 2,1 5,1 8,1 1,0 3,0 4,0 2,0 3,-1 4,-1 2,-1 3,-1 4,-2 1,-1 2,-1 3,-2l0 0c1,-1 2,-2 3,-3l0 0c1,-2 2,-4 4,-5 0,-1 1,-2 2,-1zm-3 -17c-1,-1 -1,-2 -1,-3 -1,-1 -2,-3 -3,-4l0 0c-1,-1 -2,-2 -3,-3 -1,-1 -3,-2 -4,-2 -2,-1 -3,-2 -5,-2 -1,0 -3,-1 -5,-1 -3,0 -5,1 -8,2l0 0c-2,1 -4,2 -6,4l0 0c-2,1 -3,3 -4,5 -1,1 -2,2 -2,4l41 0z"/>
   <path class="fil2" d="M18 0l221 0c10,0 18,8 18,18l0 211c0,10 -8,18 -18,18l-221 0c-10,0 -18,-8 -18,-18l0 -211c0,-10 8,-18 18,-18z"/>
   <g style="clip-path:url(#id0)">
    <g>
     <g>
      <path id="1" class="fil3" d="M165 176c-4,-12 -8,-23 -12,-35 -6,-18 -12,-35 -18,-53 -4,-11 -8,-22 -11,-32 0,-2 0,-4 1,-5 13,-15 26,-31 39,-46 0,0 1,0 1,-1 0,58 0,115 0,172 0,0 0,0 0,0z"/>
      <path class="fil3" d="M5 190c35,-41 69,-81 104,-121 0,0 1,0 1,0 -1,2 -1,3 -2,5 -4,13 -9,25 -13,37 -5,15 -11,29 -16,44 -3,9 -6,18 -9,27 -1,2 0,2 2,2 1,0 1,0 2,0 28,0 55,0 83,0 1,0 3,0 4,0 4,0 4,0 4,4 0,13 0,26 0,39 0,6 0,11 0,16 0,4 0,4 -3,3 -10,-3 -19,-7 -29,-10 -11,-4 -22,-8 -33,-12 -14,-5 -29,-10 -43,-15 -13,-5 -26,-10 -39,-14 -4,-2 -8,-3 -13,-5z"/>
     </g>
    </g>
   </g>
   <path class="fil4" d="M18 0l221 0c10,0 18,8 18,18l0 211c0,10 -8,18 -18,18l-221 0c-10,0 -18,-8 -18,-18l0 -211c0,-10 8,-18 18,-18z"/>
   <g>
    <path class="fil1" d="M234 213l-12 -7 3 -6 12 6 0 0 -3 7zm3 -7c2,1 3,3 2,5 -1,2 -4,3 -5,2l3 -7zm-3 7l0 0 3 -7 0 0 2 5 -5 2zm3 -7c2,1 3,3 2,5 -1,2 -3,3 -5,2l3 -7zm-5 2l0 0 7 3 0 0 -7 -3 0 0zm7 3c-1,2 -3,3 -5,2 -2,-1 -3,-3 -2,-5l7 3zm-7 11l-6 -4 0 0 0 -1 1 0 0 0 0 0 0 -1 0 0 1 0 0 0 0 -1 0 0 0 0 0 -1 1 0 0 0 0 -1 0 0 0 0 1 0 0 -1 0 0 0 0 0 -1 1 0 0 0 0 -1 0 0 0 0 0 -1 1 0 0 0 0 -1 0 0 7 3 0 1 0 0 -1 1 0 0 0 0 0 1 0 0 -1 0 0 1 0 0 0 0 0 1 -1 0 0 0 0 1 0 0 0 0 -1 1 0 0 0 0 0 1 -1 0 0 0 0 1 0 0 0 0 -1 1 0 0 0 0 0 1 0 0 -1 0 0 0zm0 0c-1,2 -3,2 -5,1 -2,-1 -2,-4 -1,-5l6 4zm-10 10l0 -8 -3 1 1 0 0 0 0 0 0 -1 1 0 0 0 0 0 0 0 0 -1 1 0 0 0 0 0 0 -1 0 0 1 0 0 0 0 0 0 -1 1 0 0 0 0 0 0 -1 0 0 1 0 0 0 0 -1 0 0 0 0 1 0 0 -1 0 0 0 0 6 4 0 1 0 0 0 0 -1 0 0 1 0 0 0 0 -1 1 0 0 0 0 0 0 0 1 -1 0 0 0 0 1 0 0 -1 0 0 0 0 1 0 0 -1 0 0 0 0 1 0 0 -1 0 0 0 0 1 0 0 -1 0 0 0 0 1 0 0 -3 1zm3 -1c-2,1 -4,1 -6,0 -1,-2 -1,-4 0,-6l6 6zm-3 -7l0 0 0 8 0 0 -3 -7 3 -1zm0 8c-2,0 -4,-2 -4,-4 0,-2 2,-4 4,-4l0 8zm-6 5l-4 -6 0 0 0 0 0 0 1 0 0 -1 0 0 0 0 1 0 0 0 0 0 0 -1 1 0 0 0 0 0 0 0 1 0 0 -1 0 0 0 0 0 0 1 0 0 -1 0 0 0 0 1 0 0 0 0 -1 0 0 1 0 0 0 0 0 0 -1 0 0 6 6 -1 0 0 0 0 1 0 0 -1 0 0 0 0 0 -1 1 0 0 0 0 0 0 -1 1 0 0 0 0 0 0 -1 0 0 1 0 0 0 0 -1 0 0 0 0 1 -1 0 0 0 0 0 0 0 -1 1 0 0 0 0 -1 0 0 0 0 0 0 0zm0 0c-2,2 -4,1 -5,-1 -1,-2 -1,-4 1,-5l4 6zm-10 5l-3 -7 0 0 1 0 0 0 0 0 1 0 0 0 0 0 0 -1 1 0 0 0 0 0 0 0 1 0 0 0 0 0 1 -1 0 0 0 0 0 0 1 0 0 0 0 0 0 -1 1 0 0 0 0 0 0 0 1 0 0 0 0 -1 0 0 1 0 0 0 4 6 0 1 -1 0 0 0 0 0 -1 0 0 0 0 1 0 0 -1 0 0 0 0 0 -1 0 0 1 0 0 -1 0 0 0 0 0 0 0 -1 1 0 0 0 0 -1 0 0 0 0 0 -1 0 0 1 0 0 -1 0 0 0 0 0 -1 0 0 0 0 0zm0 0c-2,1 -4,0 -5,-2 -1,-2 0,-4 2,-5l3 7zm-1 -3l0 0 0 0 0 0 1 3 -1 -3zm1 3c-2,1 -4,0 -5,-2 -1,-2 0,-4 2,-5l3 7zm-11 3l-1 -7 0 0 0 0 1 0 0 0 0 -1 1 0 0 0 0 0 0 0 1 0 0 0 0 0 1 0 0 0 0 0 1 0 0 0 0 0 0 -1 1 0 0 0 0 0 1 0 0 0 0 0 0 0 1 0 0 0 0 0 1 -1 0 0 0 0 0 0 3 7 0 0 -1 1 0 0 0 0 0 0 -1 0 0 0 0 0 -1 0 0 0 0 0 -1 1 0 0 -1 0 0 0 0 0 -1 0 0 0 0 0 -1 0 0 0 0 0 -1 1 0 0 0 0 -1 0 0 0 0 0 -1 0 0 0 0 0 -1 0 0 0zm0 0c-2,1 -4,-1 -4,-3 -1,-2 1,-4 3,-4l1 7zm-12 1l0 -7 0 0 0 0 1 0 0 0 1 0 0 0 0 0 1 0 0 0 0 0 1 -1 0 0 0 0 1 0 0 0 0 0 1 0 0 0 0 0 1 0 0 0 0 0 1 0 0 0 0 0 1 0 0 0 0 0 1 0 0 0 0 0 1 0 0 0 1 7 0 0 -1 0 0 0 0 0 -1 0 0 1 0 0 -1 0 0 0 0 0 -1 0 0 0 -1 0 0 0 0 0 -1 0 0 0 0 0 -1 0 0 0 -1 0 0 0 0 0 -1 0 0 0 -1 0 0 0 0 0 -1 0 0 0 0 0 -1 0 0 0zm0 0c-2,0 -4,-2 -4,-4 0,-2 2,-3 4,-3l0 7zm-25 -5l3 -7 0 0 0 1 1 0 1 0 0 0 1 1 0 0 1 0 1 0 0 0 1 1 1 0 0 0 1 0 1 0 0 0 1 1 1 0 1 0 0 0 1 0 1 0 0 0 1 0 1 0 1 0 0 0 1 0 1 1 1 0 1 0 0 0 1 0 0 7 -1 0 -1 0 0 0 -1 0 -1 0 -1 0 -1 0 -1 0 -1 0 0 0 -1 0 -1 0 -1 -1 -1 0 0 0 -1 0 -1 0 -1 0 -1 0 0 -1 -1 0 -1 0 -1 0 0 0 -1 -1 -1 0 -1 0 0 0 -1 -1 -1 0 -1 0 0 -1 0 0zm0 0c-2,0 -3,-3 -2,-4 1,-2 3,-3 5,-3l-3 7zm-20 -14l6 -5 0 0 0 1 1 0 0 1 1 0 0 1 1 0 0 1 1 0 0 1 1 0 0 0 1 1 0 0 1 1 0 0 1 0 0 1 1 0 0 1 1 0 0 0 1 1 0 0 1 0 1 1 0 0 1 0 0 0 1 1 0 0 1 0 1 0 -3 7 -1 0 -1 0 0 0 -1 -1 -1 0 0 0 -1 -1 -1 0 0 -1 -1 0 -1 0 0 -1 -1 0 -1 -1 0 0 -1 0 0 -1 -1 0 -1 -1 0 0 -1 -1 0 0 -1 -1 0 0 -1 -1 -1 0 0 -1 -1 0 0 -1 -1 -1 0 0 -1 -1 0 0zm0 0c-1,-1 -1,-4 1,-5 1,-1 4,-1 5,0l-6 5zm-12 -19l7 -3 0 0 1 0 0 1 0 1 0 0 1 1 0 0 0 1 0 0 1 1 0 1 0 0 1 1 0 0 0 1 0 0 1 1 0 0 0 1 1 0 0 1 1 1 0 0 0 1 1 0 0 1 0 0 1 1 0 0 1 1 0 0 1 1 0 0 -6 5 0 0 -1 -1 0 0 -1 -1 0 -1 -1 0 0 -1 0 0 -1 -1 0 -1 -1 0 0 -1 -1 0 0 -1 0 -1 -1 0 0 -1 0 0 -1 -1 0 -1 0 0 -1 -1 0 -1 0 0 -1 -1 0 0 0 -1 -1 -1 0 0 0 -1 0 -1 -1 0 0 0zm0 0c0,-2 1,-5 2,-5 2,-1 5,0 5,2l-7 3zm-4 -23l8 0 0 0 0 1 0 1 0 0 0 1 0 1 0 0 0 1 0 0 0 1 0 1 0 0 0 1 0 1 1 0 0 1 0 0 0 1 0 1 0 0 0 1 0 0 1 1 0 1 0 0 0 1 0 0 0 1 1 1 0 0 0 1 0 0 0 1 -7 3 0 -1 0 -1 0 0 -1 -1 0 -1 0 0 0 -1 0 -1 -1 0 0 -1 0 -1 0 0 0 -1 0 -1 -1 -1 0 0 0 -1 0 -1 0 0 0 -1 0 -1 0 0 0 -1 0 -1 -1 -1 0 0 0 -1 0 -1 0 0 0 -1 0 -1 0 -1 0 0zm0 0c0,-2 2,-3 4,-3 2,0 4,1 4,3l-8 0zm4 -20l7 2 0 0 0 1 -1 0 0 1 0 0 0 1 0 0 0 1 0 0 -1 1 0 0 0 1 0 1 0 0 0 1 0 0 0 1 0 0 -1 1 0 1 0 0 0 1 0 0 0 1 0 1 0 0 0 1 0 0 0 1 0 1 0 0 0 1 0 0 -8 0 0 0 0 -1 0 -1 0 0 0 -1 0 -1 0 0 0 -1 1 -1 0 0 0 -1 0 -1 0 0 0 -1 0 -1 0 0 0 -1 0 -1 0 0 1 -1 0 -1 0 0 0 -1 0 0 0 -1 1 -1 0 0 0 -1 0 -1 0 0 0 -1 1 0 0 0zm0 0c0,-2 3,-4 5,-3 1,1 3,3 2,5l-7 -2zm10 -19l6 5 0 0 -1 0 0 1 0 0 -1 1 0 0 0 1 -1 0 0 1 0 0 -1 1 0 0 0 1 -1 0 0 1 0 0 0 1 -1 0 0 1 0 0 0 1 -1 0 0 1 0 0 0 1 -1 0 0 1 0 0 0 1 -1 0 0 1 0 0 0 1 -7 -2 0 -1 0 -1 0 0 1 -1 0 -1 0 0 0 -1 1 0 0 -1 0 -1 0 0 1 -1 0 0 0 -1 1 0 0 -1 0 -1 1 0 0 -1 0 0 1 -1 0 0 0 -1 1 -1 0 0 0 -1 1 0 0 -1 1 0 0 -1 0 0 1 -1 0 0zm0 0c1,-2 4,-2 5,-1 2,2 2,4 1,6l-6 -5zm3 2l0 0 0 0 0 0 -3 -2 3 2zm-3 -2c1,-2 4,-2 5,-1 2,2 2,4 1,6l-6 -5zm20 -17l3 7 0 0 0 1 -1 0 0 0 -1 1 -1 0 0 0 -1 1 0 0 -1 0 -1 1 0 0 -1 1 0 0 -1 0 0 1 -1 0 0 1 -1 0 -1 1 0 0 -1 1 0 0 -1 1 0 0 -1 1 0 0 -1 1 0 0 -1 1 0 1 -1 0 0 1 -6 -5 0 -1 1 0 1 -1 0 -1 1 0 0 -1 1 0 0 -1 1 -1 1 0 0 -1 1 0 0 -1 1 -1 1 0 0 -1 1 0 1 -1 0 0 1 -1 1 0 0 0 1 -1 1 0 0 -1 1 0 1 -1 0 0 1 0 1 -1 1 0 0 -1 0 0zm0 0c2,0 4,0 5,2 1,2 0,4 -2,5l-3 -7zm26 -5l0 8 0 0 0 0 -1 0 -1 0 -1 0 -1 0 0 0 -1 0 -1 0 -1 0 0 0 -1 0 -1 0 -1 0 0 0 -1 1 -1 0 -1 0 0 0 -1 0 -1 0 0 1 -1 0 -1 0 0 0 -1 0 -1 1 0 0 -1 0 -1 0 0 1 -1 0 -1 0 -3 -7 1 0 1 0 0 -1 1 0 1 0 1 0 0 -1 1 0 1 0 1 0 1 -1 0 0 1 0 1 0 1 -1 1 0 0 0 1 0 1 0 1 0 1 0 1 -1 0 0 1 0 1 0 1 0 1 0 1 0 1 0 1 0 0 0 1 0 0 0zm0 0c2,0 4,2 4,4 0,2 -2,4 -4,4l0 -8zm27 6l-3 6 0 0 -1 0 0 0 -1 0 -1 -1 0 0 -1 0 -1 0 0 -1 -1 0 -1 0 -1 0 0 -1 -1 0 -1 0 0 0 -1 0 -1 0 -1 -1 0 0 -1 0 -1 0 -1 0 0 0 -1 0 -1 0 -1 0 -1 0 0 0 -1 0 -1 0 -1 0 -1 0 0 -8 1 0 1 0 1 0 1 0 1 0 1 0 1 0 1 0 0 0 1 0 1 1 1 0 1 0 1 0 1 0 0 0 1 1 1 0 1 0 1 0 1 0 0 1 1 0 1 0 1 0 1 1 0 0 1 0 1 1 1 0 0 0 1 1 0 0zm0 0c2,0 3,3 2,5 -1,2 -3,2 -5,1l3 -6zm21 17l-6 4 0 0 0 0 -1 -1 0 -1 -1 0 0 -1 -1 0 0 -1 -1 0 0 -1 -1 0 -1 -1 0 0 -1 -1 0 0 -1 -1 0 0 -1 -1 0 0 -1 -1 -1 0 0 -1 -1 0 0 0 -1 -1 -1 0 0 -1 -1 0 -1 0 0 -1 -1 0 0 0 -1 -1 3 -6 1 0 1 0 0 1 1 0 1 1 1 0 0 0 1 1 1 0 0 1 1 0 1 1 0 0 1 1 1 0 0 1 1 0 1 1 0 0 1 1 1 0 0 1 1 1 0 0 1 1 1 1 0 0 1 1 0 1 1 0 1 1 0 1 0 0zm0 0c1,1 1,4 -1,5 -1,1 -4,1 -5,-1l6 -4zm-3 2l0 0 0 0 0 0 3 -2 -3 2zm3 -2c1,1 1,4 -1,5 -1,1 -4,1 -5,-1l6 -4zm10 18l-7 2 0 0 -1 -1 0 0 0 -1 0 0 0 -1 -1 0 0 -1 0 0 0 -1 -1 0 0 -1 0 0 0 -1 0 0 -1 -1 0 0 0 -1 -1 0 0 -1 0 0 0 -1 -1 0 0 -1 0 0 -1 -1 0 0 0 -1 0 0 -1 0 0 -1 0 0 -1 -1 6 -4 0 0 1 1 0 0 1 1 0 0 0 1 1 0 0 1 0 0 1 1 0 0 0 1 1 0 0 1 0 0 1 1 0 1 0 0 1 1 0 0 0 1 0 0 1 1 0 1 0 0 0 1 1 0 0 1 0 1 0 0 1 1 0 1 0 0zm0 0c0,2 -1,4 -3,4 -2,1 -4,0 -4,-2l7 -2zm3 21l-8 0 0 0 0 0 0 -1 0 -1 0 0 0 -1 0 -1 0 0 0 -1 0 -1 0 0 0 -1 0 -1 0 0 0 -1 0 0 0 -1 0 -1 -1 0 0 -1 0 0 0 -1 0 -1 0 0 0 -1 0 0 -1 -1 0 0 0 -1 0 0 0 -1 0 -1 0 0 7 -2 0 0 0 1 0 0 0 1 1 1 0 0 0 1 0 1 0 0 0 1 1 1 0 0 0 1 0 1 0 0 0 1 0 1 0 0 0 1 1 1 0 0 0 1 0 1 0 0 0 1 0 1 0 1 0 0 0 1 0 1 0 0 0 1 0 0zm0 0c0,2 -2,4 -4,4 -2,0 -4,-2 -4,-4l8 0zm-8 1l0 -1 8 0 0 1 -4 3 -4 -3zm8 0c0,2 -2,3 -4,3 -2,0 -4,-1 -4,-3l8 0zm-4 -4l0 0 0 7 0 0 0 0 0 -7zm0 7c-2,0 -4,-1 -4,-3 0,-3 2,-4 4,-4l0 7zm-98 -7l98 0 0 7 -98 0 -4 -3 4 -4zm0 7c-2,0 -4,-1 -4,-3 0,-3 2,-4 4,-4l0 7zm7 12l-7 3 0 0 0 -1 -1 0 0 -1 0 -1 0 0 0 -1 0 0 -1 -1 0 0 0 -1 0 0 0 -1 0 0 0 -1 -1 0 0 -1 0 -1 0 0 0 -1 0 0 0 -1 0 0 0 -1 0 -1 0 0 0 -1 0 0 -1 -1 0 -1 0 0 0 -1 0 0 8 -1 0 1 0 1 0 0 0 1 0 0 0 1 0 0 0 1 0 0 0 1 0 0 0 1 1 0 0 1 0 0 0 1 0 0 0 0 0 1 0 0 0 1 0 0 1 1 0 0 0 1 0 0 0 1 0 0 0 0 1 1 0 0 0 1 0 0zm0 0c1,2 0,4 -2,5 -2,0 -4,0 -5,-2l7 -3zm8 12l-6 5 0 0 0 0 0 0 -1 -1 0 0 0 -1 -1 0 0 -1 -1 0 0 0 0 -1 -1 0 0 -1 0 0 -1 -1 0 0 0 -1 0 0 -1 0 0 -1 0 0 -1 -1 0 0 0 -1 0 0 -1 -1 0 0 0 -1 0 0 -1 -1 0 0 0 -1 0 0 7 -3 0 0 0 1 0 0 1 0 0 1 0 0 0 1 0 0 1 1 0 0 0 0 0 1 1 0 0 1 0 0 0 0 0 1 1 0 0 0 0 1 1 0 0 1 0 0 0 0 1 1 0 0 0 0 1 1 0 0 0 0 1 1 0 0 0 0zm0 0c1,2 1,4 0,5 -2,2 -4,2 -6,0l6 -5zm12 8l-3 7 0 0 -1 0 0 0 -1 0 0 -1 -1 0 0 0 -1 0 0 -1 -1 0 0 0 -1 0 0 -1 0 0 -1 0 0 -1 -1 0 0 0 -1 -1 0 0 -1 0 0 -1 0 0 -1 0 0 -1 -1 0 0 0 -1 -1 0 0 0 0 -1 -1 0 0 -1 -1 6 -5 0 0 1 1 0 0 0 0 1 1 0 0 0 0 1 1 0 0 0 0 1 1 0 0 0 0 1 0 0 1 0 0 1 0 0 0 1 1 0 0 0 0 1 0 0 0 0 1 1 0 0 0 1 0 0 0 0 1 1 0 0 0 1 0 0 0zm0 0c2,1 2,3 2,5 -1,2 -3,3 -5,2l3 -7zm14 3l0 7 0 0 -1 0 0 0 -1 0 0 0 -1 0 -1 0 0 0 -1 0 0 0 -1 0 0 0 -1 0 0 0 -1 0 -1 0 0 0 -1 0 0 -1 -1 0 0 0 -1 0 0 0 -1 0 0 0 -1 -1 0 0 -1 0 0 0 -1 0 0 0 -1 -1 0 0 3 -7 0 0 0 1 1 0 0 0 1 0 0 0 0 0 1 0 0 0 1 1 0 0 1 0 0 0 0 0 1 0 0 0 1 0 0 0 1 0 0 1 1 0 0 0 1 0 0 0 0 0 1 0 0 0 1 0 0 0 1 0 0 0 1 0 0 0zm0 0c2,0 4,2 4,4 0,2 -2,3 -4,3l0 -7zm7 -1l2 8 0 0 -1 0 0 0 0 0 0 0 -1 0 0 0 0 0 -1 0 0 0 0 0 0 0 -1 0 0 0 0 0 0 0 -1 0 0 0 0 0 -1 0 0 0 0 0 0 0 -1 0 0 0 0 0 0 0 -1 0 0 0 0 0 -1 0 0 0 0 0 0 -7 0 0 0 0 1 0 0 0 0 0 0 0 1 0 0 0 0 0 0 0 0 0 1 0 0 0 0 0 0 0 1 0 0 0 0 0 0 0 1 0 0 0 0 0 0 0 1 0 0 -1 0 0 0 0 0 0 1 0 0 0 0 0 0 0 0 0zm0 0c2,0 4,1 5,3 0,2 -1,4 -3,5l-2 -8zm8 -2l2 7 0 0 0 1 0 0 -1 0 0 0 0 0 0 0 -1 0 0 0 0 0 0 0 -1 0 0 0 0 1 0 0 -1 0 0 0 0 0 -1 0 0 0 0 0 0 0 -1 0 0 0 0 0 0 0 -1 0 0 0 0 1 0 0 -1 0 0 0 0 0 -2 -8 1 0 0 0 0 0 0 0 1 0 0 0 0 0 0 0 0 0 1 0 0 0 0 0 0 0 1 0 0 0 0 -1 0 0 0 0 1 0 0 0 0 0 0 0 1 0 0 0 0 0 0 0 1 0 0 0 0 0 0 -1 0 0 1 0 0 0zm0 0c2,0 4,1 5,3 0,2 -1,4 -3,4l-2 -7zm6 -3l4 7 0 0 0 0 0 0 -1 0 0 0 0 0 0 1 -1 0 0 0 0 0 0 0 -1 0 0 0 0 0 0 1 0 0 -1 0 0 0 0 0 0 0 -1 0 0 0 0 0 0 1 -1 0 0 0 0 0 0 0 -1 0 0 0 0 0 0 0 -1 0 -2 -7 0 0 0 0 0 0 1 0 0 0 0 0 0 0 0 0 1 0 0 -1 0 0 0 0 0 0 1 0 0 0 0 0 0 0 1 0 0 0 0 -1 0 0 0 0 1 0 0 0 0 0 0 0 0 0 1 0 0 0 0 -1 0 0 0 0 0 0zm0 0c2,-1 4,0 5,2 1,2 1,4 -1,5l-4 -7zm6 -4l5 6 0 0 -1 0 0 1 0 0 0 0 0 0 0 0 -1 0 0 0 0 1 0 0 0 0 -1 0 0 0 0 0 0 1 0 0 -1 0 0 0 0 0 0 0 -1 0 0 1 0 0 0 0 0 0 -1 0 0 0 0 0 0 0 -1 1 0 0 0 0 -4 -7 0 0 1 0 0 0 0 0 0 0 0 0 1 -1 0 0 0 0 0 0 0 0 0 0 1 0 0 0 0 0 0 -1 0 0 0 0 1 0 0 0 0 0 0 0 0 0 0 -1 1 0 0 0 0 0 0 0 0 0 0 0 1 0 0 -1 0 0zm0 0c1,-1 4,-1 5,1 1,1 1,4 0,5l-5 -6zm5 -5l6 4 0 0 0 1 0 0 -1 0 0 0 0 1 0 0 0 0 -1 0 0 1 0 0 0 0 0 0 -1 1 0 0 0 0 0 0 0 0 -1 1 0 0 0 0 0 0 0 0 -1 1 0 0 0 0 0 0 0 0 -1 1 0 0 0 0 0 0 0 0 -5 -6 0 0 0 0 0 0 0 0 0 0 1 0 0 -1 0 0 0 0 0 0 0 0 1 0 0 0 0 -1 0 0 0 0 0 0 1 0 0 -1 0 0 0 0 0 0 0 0 1 0 0 -1 0 0 0 0 0 0 0 -1 1 0 0 0 0 0 0 0zm0 0c1,-2 4,-2 5,-1 2,1 2,4 1,5l-6 -4zm6 -9l6 4 0 0 0 0 0 1 0 0 -1 0 0 1 0 0 0 0 0 1 -1 0 0 0 0 1 0 0 0 0 -1 1 0 0 0 0 0 0 0 1 -1 0 0 0 0 1 0 0 0 0 -1 0 0 1 0 0 0 0 0 0 0 1 -1 0 0 0 0 0 -6 -4 0 0 0 -1 0 0 1 0 0 0 0 -1 0 0 0 0 1 0 0 -1 0 0 0 0 0 0 0 -1 1 0 0 0 0 0 0 -1 0 0 1 0 0 -1 0 0 0 0 0 0 0 -1 1 0 0 0 0 -1 0 0 0 0 1 -1 0 0 0 0zm0 0c1,-2 3,-2 5,-1 2,1 2,3 1,5l-6 -4zm6 4l0 0 -6 -4 0 0 5 -2 1 6zm-6 -4c1,-2 3,-3 5,-1 2,1 3,3 1,5l-6 -4zm2 5l-1 0 4 -7 0 1 -3 6 0 0zm3 -6c2,1 3,3 2,5 -1,2 -3,2 -5,1l3 -6zm-9 -34l7 -3 0 0 0 0 0 0 1 1 0 0 0 0 0 0 0 1 0 0 0 0 0 1 1 0 0 0 0 1 0 0 0 0 0 0 0 1 0 0 0 0 1 1 0 0 0 0 0 1 0 0 0 0 0 1 0 0 0 0 0 1 1 0 0 0 0 1 -8 2 0 -1 0 0 0 0 0 -1 0 0 0 0 0 0 0 -1 0 0 -1 0 0 -1 0 0 0 0 0 0 0 -1 0 0 0 0 0 -1 0 0 0 0 -1 0 0 -1 0 0 0 0 0 0 0 -1 0 0 0 0 0 0 -1 -1 0 0 0 0 0 0zm0 0c-1,-2 0,-4 2,-5 2,-1 4,0 5,2l-7 3zm3 -9l-8 0 7 -3 0 0 0 1 1 0 0 0 0 0 0 1 0 0 0 0 1 0 0 1 0 0 0 0 0 0 0 1 1 0 0 0 0 0 0 1 0 0 0 0 1 0 0 1 0 0 0 0 0 1 0 0 0 0 1 0 0 1 0 0 0 0 0 1 -7 3 0 0 0 -1 0 0 0 0 0 0 0 -1 -1 0 0 0 0 0 0 -1 0 0 0 0 0 0 0 0 -1 -1 0 0 0 0 0 0 0 -1 0 0 0 0 -1 0 0 0 0 -1 0 0 0 0 0 0 0 0 0 -1 -1 0 0 0 0 0 7 -2zm-7 2c-1,-2 -1,-4 1,-5 1,-2 4,-1 5,0l-6 5zm-1 -2l0 0 8 0 0 0 -7 2 -1 -2zm8 0c0,2 -2,3 -4,3 -2,0 -4,-1 -4,-3l8 0zm-12 -3l4 -6 0 0 0 0 1 0 0 0 0 0 0 0 1 1 0 0 0 0 0 0 0 0 1 1 0 0 0 0 0 0 1 0 0 1 0 0 0 0 0 0 1 0 0 1 0 0 0 0 0 0 1 1 0 0 0 0 0 0 0 0 1 1 0 0 0 0 -6 5 0 0 0 0 0 -1 -1 0 0 0 0 0 0 0 0 -1 0 0 0 0 -1 0 0 0 0 0 0 -1 0 0 0 0 -1 0 0 0 0 0 0 -1 0 0 -1 0 0 0 0 0 0 0 0 -1 0 0 -1 0 0 0 0 0 0 0 0 0 0 0zm0 0c-2,-2 -2,-4 -1,-6 1,-1 3,-2 5,0l-4 6zm-8 -5l4 -7 0 0 0 1 0 0 0 0 1 0 0 0 0 0 1 0 0 1 0 0 0 0 1 0 0 0 0 0 0 0 1 1 0 0 0 0 1 0 0 0 0 0 0 1 1 0 0 0 0 0 0 0 1 0 0 1 0 0 0 0 1 0 0 0 0 1 -4 6 -1 -1 0 0 0 0 0 0 0 0 -1 0 0 0 0 -1 0 0 -1 0 0 0 0 0 0 0 0 0 -1 -1 0 0 0 0 0 0 0 0 -1 0 0 0 0 0 0 -1 -1 0 0 0 0 0 0 0 -1 0 0 0 0 0 0 -1 -1 0 0 0zm0 0c-2,-1 -2,-3 -2,-5 1,-2 4,-2 6,-2l-4 7zm-8 -2l2 -8 0 0 0 0 0 0 1 0 0 0 0 0 1 1 0 0 0 0 1 0 0 0 0 0 0 0 1 0 0 0 0 0 1 1 0 0 0 0 1 0 0 0 0 0 1 0 0 0 0 0 0 1 1 0 0 0 0 0 1 0 0 0 0 0 1 0 -4 7 0 0 0 0 0 0 -1 0 0 0 0 0 0 0 -1 -1 0 0 0 0 0 0 -1 0 0 0 0 0 0 0 -1 0 0 0 0 0 0 -1 -1 0 0 0 0 0 -1 0 0 0 0 0 0 0 -1 0 0 0 0 0 0 0 -1 0 0 0 0 0zm0 0c-2,-1 -3,-3 -3,-5 1,-2 3,-3 5,-3l-2 8zm-8 -1l0 -8 0 0 0 0 0 0 1 0 0 0 0 0 0 0 1 0 0 0 0 0 1 0 0 0 0 0 1 0 0 0 0 0 1 0 0 0 0 0 1 0 0 0 0 0 1 1 0 0 0 0 1 0 0 0 0 0 1 0 0 0 0 0 0 0 1 0 -2 8 0 -1 0 0 -1 0 0 0 0 0 0 0 -1 0 0 0 0 0 0 0 -1 0 0 0 0 0 -1 0 0 0 0 0 0 0 -1 0 0 0 0 0 0 0 -1 0 0 0 0 0 -1 0 0 0 0 0 0 0 -1 0 0 0 0 0 0 0 0 0zm0 0c-3,0 -4,-2 -4,-4 0,-2 1,-4 4,-4l0 8zm-14 2l-3 -7 0 0 1 0 0 -1 1 0 0 0 1 0 0 0 1 0 0 0 1 -1 0 0 1 0 0 0 1 0 0 0 1 0 0 0 1 0 0 0 1 -1 0 0 1 0 0 0 1 0 0 0 1 0 0 0 1 0 0 0 1 0 0 0 1 0 1 0 0 8 -1 0 0 0 -1 0 0 0 -1 0 0 0 -1 0 0 0 0 0 -1 0 0 0 -1 0 0 0 -1 0 0 0 -1 0 0 0 0 0 -1 0 0 1 -1 0 0 0 0 0 -1 0 0 0 -1 0 0 0 0 0 -1 0 0 1 -1 0 0 0 0 0zm0 0c-2,1 -4,0 -5,-2 -1,-2 0,-4 2,-5l3 7zm-11 7l-5 -6 0 0 0 0 0 -1 1 0 0 0 1 -1 0 0 0 0 1 0 0 -1 1 0 0 0 1 -1 0 0 0 0 1 0 0 -1 1 0 0 0 1 0 0 -1 0 0 1 0 0 0 1 -1 0 0 1 0 0 0 1 0 0 -1 0 0 1 0 0 0 3 7 0 0 -1 0 0 0 0 1 -1 0 0 0 -1 0 0 0 0 0 -1 1 0 0 0 0 -1 0 0 0 0 1 -1 0 0 0 -1 0 0 0 0 1 -1 0 0 0 0 0 -1 1 0 0 0 0 -1 0 0 1 0 0 -1 0 0 1 0 0 0 0zm0 0c-2,1 -4,1 -6,-1 -1,-1 -1,-3 1,-5l5 6zm-3 -3l0 0 0 0 0 0 3 3 -3 -3zm3 3c-2,1 -4,1 -6,-1 -1,-1 -1,-3 1,-5l5 6zm-7 8l-6 -4 0 0 0 0 0 0 0 -1 0 0 1 0 0 -1 0 0 0 -1 1 0 0 0 0 -1 0 0 1 0 0 -1 0 0 0 0 1 -1 0 0 0 0 0 0 1 -1 0 0 0 0 0 -1 1 0 0 0 0 -1 1 0 0 0 0 0 0 -1 1 0 5 6 -1 0 0 0 0 0 0 1 0 0 -1 0 0 0 0 1 0 0 -1 0 0 0 0 0 0 1 0 0 -1 0 0 1 0 0 0 0 0 0 -1 1 0 0 0 0 0 0 0 1 -1 0 0 0 0 1 0 0 0 0 0 0 -1 1 0 0 0 0zm0 0c-1,2 -3,3 -5,2 -2,-2 -2,-4 -1,-6l6 4zm-8 7l0 8 -4 -5 0 -1 0 0 0 -1 1 0 0 -1 0 0 0 -1 0 0 0 0 1 -1 0 0 0 -1 0 0 0 -1 0 0 1 0 0 -1 0 0 0 -1 0 0 0 0 1 -1 0 0 0 -1 0 0 0 0 1 -1 0 0 0 -1 0 0 0 0 1 -1 6 4 0 0 0 1 0 0 -1 0 0 1 0 0 0 0 0 1 0 0 -1 0 0 1 0 0 0 0 0 1 0 0 0 1 -1 0 0 0 0 1 0 0 0 0 0 1 0 0 -1 1 0 0 0 0 0 1 0 0 0 1 0 0 -1 0 0 1 -3 -5zm3 5c0,2 -2,3 -4,2 -2,0 -4,-2 -3,-4l7 2zm77 3l-80 0 0 -8 80 0 4 3 -4 5zm0 -8c2,0 4,2 4,4 0,2 -2,4 -4,4l0 -8z"/>
    <path id="1" class="fil0" d="M224 203l11 6 1 0 0 1c-2,4 -5,7 -7,10 -2,3 -4,6 -7,8l0 0c-3,2 -5,4 -8,6 -3,2 -6,4 -9,5l0 0c-3,1 -7,2 -10,2 -4,1 -8,1 -12,1 -9,0 -17,-1 -24,-4 -7,-3 -13,-7 -18,-13 -5,-6 -9,-12 -11,-19 -3,-6 -4,-13 -4,-21 0,-7 1,-13 3,-19 2,-6 6,-12 10,-18l0 0c5,-6 12,-12 19,-15 7,-4 15,-5 24,-5 10,0 18,2 26,5 7,4 14,9 19,16l0 0c4,5 7,10 9,17 2,6 3,13 3,20l0 1 0 0 -98 0c0,6 1,11 3,16 2,5 5,10 9,14 4,4 8,7 13,9 5,2 10,3 16,3 3,0 5,-1 8,-1 3,0 5,-1 8,-2 3,-1 5,-2 7,-3 2,-2 4,-3 6,-5 2,-1 4,-3 6,-6 2,-2 4,-5 6,-9l0 0 1 0zm-1 -29c-1,-4 -2,-7 -3,-10 -2,-3 -3,-5 -5,-7l0 0c-2,-3 -4,-5 -6,-6 -3,-2 -5,-4 -8,-5 -3,-1 -6,-2 -9,-3 -3,-1 -6,-1 -9,-1 -6,0 -11,1 -15,2 -5,2 -9,5 -13,8l0 0c-3,2 -5,6 -7,9 -2,4 -4,8 -5,13l80 0z"/>
   </g>
  </g>
 </g>
</svg>
