<?xml version="1.0" encoding="utf-8"?>
<!-- Generator: Adobe Illustrator 15.1.0, SVG Export Plug-In  -->
<!DOCTYPE svg PUBLIC "-//W3C//DTD SVG 1.1//EN" "http://www.w3.org/Graphics/SVG/1.1/DTD/svg11.dtd" [
	<!ENTITY ns_flows "http://ns.adobe.com/Flows/1.0/">
]>
<svg version="1.1"
	 xmlns="http://www.w3.org/2000/svg" xmlns:xlink="http://www.w3.org/1999/xlink" xmlns:a="http://ns.adobe.com/AdobeSVGViewerExtensions/3.0/"
	 x="0px" y="0px" width="111px" height="43px" viewBox="241 64 111 43" overflow="visible" enable-background="new 241 64 111 43"
	 xml:space="preserve">
<defs>
</defs>
<rect display="none" fill="#4D4D4D" width="1416" height="173"/>
<rect id="_x3C_Cięcie_na_plasterki_x3E__19_" x="241" y="64" display="none" fill="none" width="111" height="43"/>
<path fill="#CEEBF2" d="M283.149,103.815h1.137c0.133,0,0.23,0.071,0.23,0.222s-0.097,0.219-0.23,0.219h-1.357
	c-0.177,0-0.252-0.113-0.252-0.258v-3.303c0-0.145,0.075-0.258,0.252-0.258h1.357c0.133,0,0.23,0.069,0.23,0.219
	c0,0.151-0.097,0.222-0.23,0.222h-1.137v1.249h1.035c0.134,0,0.23,0.068,0.23,0.22s-0.096,0.22-0.23,0.22h-1.035V103.815z"/>
<path fill="#CEEBF2" d="M285.144,101.784c-0.031-0.085-0.048-0.141-0.048-0.194c0-0.139,0.101-0.22,0.215-0.22
	c0.156,0,0.208,0.075,0.246,0.184l0.649,1.973h0.011l0.649-1.973c0.037-0.108,0.091-0.184,0.246-0.184
	c0.112,0,0.215,0.081,0.215,0.22c0,0.054-0.016,0.109-0.048,0.194l-0.82,2.3c-0.048,0.141-0.097,0.205-0.247,0.205
	c-0.15,0-0.198-0.064-0.247-0.205L285.144,101.784z"/>
<path fill="#CEEBF2" d="M288.286,103.012c0,0.488,0.312,0.869,0.843,0.869c0.626,0,0.788-0.387,0.964-0.387
	c0.086,0,0.172,0.076,0.172,0.209c0,0.23-0.584,0.586-1.143,0.586c-0.912,0-1.309-0.703-1.309-1.459c0-0.773,0.483-1.46,1.282-1.46
	c0.777,0,1.229,0.703,1.229,1.39c0,0.166-0.06,0.252-0.264,0.252H288.286z M289.852,102.658c0-0.407-0.236-0.88-0.756-0.88
	c-0.584-0.022-0.793,0.444-0.81,0.88H289.852z"/>
<path fill="#CEEBF2" d="M291.096,101.622c0-0.156,0.091-0.252,0.236-0.252c0.145,0,0.236,0.096,0.236,0.252v0.241h0.012
	c0.106-0.22,0.369-0.493,0.644-0.493c0.166,0,0.262,0.107,0.262,0.242c0,0.134-0.096,0.219-0.295,0.258
	c-0.278,0.047-0.622,0.257-0.622,0.809v1.358c0,0.154-0.091,0.252-0.236,0.252c-0.145,0-0.236-0.098-0.236-0.252V101.622z"/>
<path fill="#CEEBF2" d="M293.048,101.831c-0.053-0.16-0.063-0.209-0.063-0.262c0-0.118,0.106-0.199,0.215-0.199
	c0.118,0,0.203,0.075,0.236,0.178l0.653,1.958h0.011l0.644-1.958c0.033-0.103,0.107-0.178,0.226-0.178
	c0.106,0,0.215,0.081,0.215,0.199c0,0.053-0.011,0.102-0.065,0.262l-1.19,3.407c-0.038,0.102-0.113,0.177-0.232,0.177
	c-0.106,0-0.214-0.082-0.214-0.198c0-0.055,0.011-0.103,0.07-0.264l0.3-0.799L293.048,101.831z"/>
<path fill="#CEEBF2" d="M297.04,101.37c0.803,0,1.254,0.703,1.254,1.46c0,0.756-0.451,1.459-1.254,1.459
	c-0.806,0-1.256-0.703-1.256-1.459C295.784,102.073,296.233,101.37,297.04,101.37z M297.04,103.881c0.578,0,0.783-0.568,0.783-1.051
	c0-0.483-0.205-1.052-0.783-1.052c-0.58,0-0.784,0.568-0.784,1.052C296.256,103.312,296.46,103.881,297.04,103.881z"/>
<path fill="#CEEBF2" d="M299.114,101.622c0-0.156,0.091-0.252,0.236-0.252c0.146,0,0.236,0.096,0.236,0.252v0.113l0.012,0.011
	c0.209-0.269,0.504-0.376,0.788-0.376c0.439,0,0.991,0.278,0.991,1.085v1.582c0,0.154-0.09,0.252-0.235,0.252
	c-0.145,0-0.235-0.098-0.235-0.252v-1.557c0-0.498-0.349-0.702-0.661-0.702s-0.66,0.204-0.66,0.702v1.557
	c0,0.154-0.091,0.252-0.236,0.252c-0.145,0-0.236-0.098-0.236-0.252V101.622z"/>
<path fill="#CEEBF2" d="M302.622,103.012c0,0.488,0.312,0.869,0.842,0.869c0.628,0,0.789-0.387,0.967-0.387
	c0.084,0,0.169,0.076,0.169,0.209c0,0.23-0.584,0.586-1.142,0.586c-0.911,0-1.309-0.703-1.309-1.459c0-0.773,0.483-1.46,1.283-1.46
	c0.776,0,1.228,0.703,1.228,1.39c0,0.166-0.06,0.252-0.262,0.252H302.622z M304.188,102.658c0-0.407-0.236-0.88-0.755-0.88
	c-0.585-0.022-0.793,0.444-0.811,0.88H304.188z"/>
<path fill="#CEEBF2" d="M307.567,104.037c0,0.154-0.09,0.252-0.235,0.252c-0.146,0-0.236-0.098-0.236-0.252v-3.67
	c0-0.154,0.09-0.251,0.236-0.251c0.145,0,0.235,0.097,0.235,0.251V104.037z"/>
<path fill="#CEEBF2" d="M308.812,103.012c0,0.488,0.312,0.869,0.843,0.869c0.627,0,0.788-0.387,0.964-0.387
	c0.087,0,0.172,0.076,0.172,0.209c0,0.23-0.584,0.586-1.142,0.586c-0.912,0-1.31-0.703-1.31-1.459c0-0.773,0.483-1.46,1.284-1.46
	c0.776,0,1.229,0.703,1.229,1.39c0,0.166-0.061,0.252-0.265,0.252H308.812z M310.377,102.658c0-0.407-0.234-0.88-0.754-0.88
	c-0.586-0.022-0.795,0.444-0.811,0.88H310.377z"/>
<path fill="#CEEBF2" d="M313.982,104.058c0,0.167-0.128,0.231-0.22,0.231c-0.098,0-0.22-0.064-0.22-0.231v-0.198h-0.011
	c-0.204,0.29-0.472,0.43-0.777,0.43c-0.804,0-1.255-0.703-1.255-1.459c0-0.757,0.451-1.46,1.255-1.46
	c0.327,0,0.557,0.141,0.777,0.38h0.011v-0.148c0-0.166,0.123-0.231,0.22-0.231c0.092,0,0.22,0.065,0.22,0.231V104.058z
	 M312.754,103.881c0.579,0,0.783-0.568,0.783-1.051c0-0.483-0.204-1.052-0.783-1.052s-0.783,0.568-0.783,1.052
	C311.971,103.312,312.175,103.881,312.754,103.881z"/>
<path fill="#CEEBF2" d="M314.925,101.622c0-0.156,0.092-0.252,0.238-0.252c0.144,0,0.234,0.096,0.234,0.252v0.241h0.012
	c0.107-0.22,0.37-0.493,0.643-0.493c0.167,0,0.263,0.107,0.263,0.242c0,0.134-0.096,0.219-0.295,0.258
	c-0.279,0.047-0.623,0.257-0.623,0.809v1.358c0,0.154-0.09,0.252-0.234,0.252c-0.146,0-0.238-0.098-0.238-0.252V101.622z"/>
<path fill="#CEEBF2" d="M316.938,101.622c0-0.156,0.09-0.252,0.234-0.252c0.146,0,0.236,0.096,0.236,0.252v0.113l0.011,0.011
	c0.209-0.269,0.504-0.376,0.79-0.376c0.438,0,0.992,0.278,0.992,1.085v1.582c0,0.154-0.092,0.252-0.236,0.252
	c-0.146,0-0.236-0.098-0.236-0.252v-1.557c0-0.498-0.35-0.702-0.661-0.702c-0.311,0-0.66,0.204-0.66,0.702v1.557
	c0,0.154-0.09,0.252-0.236,0.252c-0.144,0-0.234-0.098-0.234-0.252V101.622z"/>
<path fill="#CEEBF2" d="M321.051,101.37c0.391,0,0.95,0.21,0.95,0.505c0,0.102-0.069,0.193-0.215,0.193
	c-0.204,0-0.284-0.29-0.735-0.29c-0.268,0-0.499,0.118-0.499,0.359c0,0.498,1.523,0.446,1.523,1.271c0,0.597-0.51,0.881-1.041,0.881
	c-0.6,0-1.074-0.303-1.074-0.544c0-0.128,0.092-0.214,0.193-0.214c0.211,0,0.382,0.35,0.896,0.35c0.344,0,0.552-0.193,0.552-0.387
	c0-0.559-1.523-0.525-1.523-1.318C320.08,101.648,320.573,101.37,321.051,101.37z"/>
<path fill="#CEEBF2" d="M326.376,103.897h-0.01c-0.133,0.257-0.385,0.392-0.762,0.392c-0.772,0-1.218-0.703-1.218-1.459
	c0-0.757,0.446-1.46,1.218-1.46c0.376,0,0.637,0.21,0.762,0.386h0.01v-1.389c0-0.154,0.091-0.251,0.236-0.251
	s0.236,0.097,0.236,0.251v3.67c0,0.154-0.091,0.252-0.236,0.252s-0.236-0.098-0.236-0.252V103.897z M325.641,101.778
	c-0.579,0-0.785,0.568-0.785,1.052c0,0.482,0.206,1.051,0.785,1.051c0.579,0,0.783-0.568,0.783-1.051
	C326.424,102.347,326.22,101.778,325.641,101.778z"/>
<path fill="#CEEBF2" d="M328.05,100.404c0.162,0,0.289,0.13,0.289,0.291s-0.127,0.289-0.289,0.289s-0.29-0.128-0.29-0.289
	S327.889,100.404,328.05,100.404z M328.286,104.037c0,0.154-0.092,0.252-0.236,0.252c-0.146,0-0.236-0.098-0.236-0.252v-2.415
	c0-0.156,0.091-0.252,0.236-0.252c0.144,0,0.236,0.096,0.236,0.252V104.037z"/>
<path fill="#CEEBF2" d="M329.852,104.037c0,0.154-0.092,0.252-0.236,0.252c-0.146,0-0.236-0.098-0.236-0.252v-2.227h-0.194
	c-0.156,0-0.236-0.075-0.236-0.203c0-0.13,0.08-0.203,0.236-0.203h0.194v-0.672c0-0.413,0.284-0.616,0.628-0.616h0.144
	c0.125,0,0.268,0.074,0.268,0.203c0,0.128-0.08,0.203-0.257,0.203h-0.117c-0.146,0-0.193,0.071-0.193,0.188v0.693h0.294
	c0.156,0,0.236,0.073,0.236,0.203c0,0.128-0.08,0.203-0.236,0.203h-0.294V104.037z"/>
<path fill="#CEEBF2" d="M331.563,104.037c0,0.154-0.092,0.252-0.236,0.252c-0.146,0-0.236-0.098-0.236-0.252v-2.227h-0.193
	c-0.156,0-0.236-0.075-0.236-0.203c0-0.13,0.08-0.203,0.236-0.203h0.193v-0.672c0-0.413,0.284-0.616,0.628-0.616h0.144
	c0.123,0,0.268,0.074,0.268,0.203c0,0.128-0.08,0.203-0.257,0.203h-0.117c-0.146,0-0.194,0.071-0.194,0.188v0.693h0.295
	c0.156,0,0.236,0.073,0.236,0.203c0,0.128-0.08,0.203-0.236,0.203h-0.295V104.037z"/>
<path fill="#CEEBF2" d="M332.951,103.012c0,0.488,0.312,0.869,0.841,0.869c0.628,0,0.79-0.387,0.966-0.387
	c0.087,0,0.172,0.076,0.172,0.209c0,0.23-0.584,0.586-1.143,0.586c-0.911,0-1.309-0.703-1.309-1.459c0-0.773,0.483-1.46,1.282-1.46
	c0.779,0,1.229,0.703,1.229,1.39c0,0.166-0.059,0.252-0.263,0.252H332.951z M334.517,102.658c0-0.407-0.234-0.88-0.756-0.88
	c-0.584-0.022-0.793,0.444-0.81,0.88H334.517z"/>
<path fill="#CEEBF2" d="M335.761,101.622c0-0.156,0.092-0.252,0.236-0.252c0.146,0,0.236,0.096,0.236,0.252v0.241h0.011
	c0.106-0.22,0.369-0.493,0.645-0.493c0.167,0,0.263,0.107,0.263,0.242c0,0.134-0.096,0.219-0.295,0.258
	c-0.278,0.047-0.623,0.257-0.623,0.809v1.358c0,0.154-0.09,0.252-0.236,0.252c-0.144,0-0.236-0.098-0.236-0.252V101.622z"/>
<path fill="#CEEBF2" d="M338.073,103.012c0,0.488,0.312,0.869,0.843,0.869c0.627,0,0.789-0.387,0.966-0.387
	c0.085,0,0.17,0.076,0.17,0.209c0,0.23-0.584,0.586-1.142,0.586c-0.912,0-1.31-0.703-1.31-1.459c0-0.773,0.484-1.46,1.283-1.46
	c0.777,0,1.229,0.703,1.229,1.39c0,0.166-0.061,0.252-0.263,0.252H338.073z M339.64,102.658c0-0.407-0.236-0.88-0.756-0.88
	c-0.586-0.022-0.793,0.444-0.811,0.88H339.64z"/>
<path fill="#CEEBF2" d="M340.884,101.622c0-0.156,0.091-0.252,0.236-0.252c0.144,0,0.234,0.096,0.234,0.252v0.113l0.012,0.011
	c0.208-0.269,0.502-0.376,0.788-0.376c0.44,0,0.992,0.278,0.992,1.085v1.582c0,0.154-0.09,0.252-0.236,0.252
	s-0.238-0.098-0.238-0.252v-1.557c0-0.498-0.348-0.702-0.659-0.702s-0.66,0.204-0.66,0.702v1.557c0,0.154-0.091,0.252-0.234,0.252
	c-0.146,0-0.236-0.098-0.236-0.252V101.622z"/>
<path fill="#CEEBF2" d="M344.241,100.786c0-0.156,0.09-0.252,0.236-0.252c0.146,0,0.236,0.096,0.236,0.252v0.618h0.192
	c0.156,0,0.238,0.073,0.238,0.203c0,0.128-0.082,0.203-0.238,0.203h-0.192v2.227c0,0.154-0.09,0.252-0.236,0.252
	c-0.146,0-0.236-0.098-0.236-0.252v-2.227h-0.193c-0.156,0-0.236-0.075-0.236-0.203c0-0.13,0.08-0.203,0.236-0.203h0.193V100.786z"
	/>
<path fill="#CEEBF2" d="M346.279,104.037c0,0.154-0.09,0.252-0.236,0.252c-0.144,0-0.234-0.098-0.234-0.252v-3.67
	c0-0.154,0.09-0.251,0.234-0.251c0.146,0,0.236,0.097,0.236,0.251V104.037z"/>
<path fill="#CEEBF2" d="M347.067,101.831c-0.054-0.16-0.064-0.209-0.064-0.262c0-0.118,0.106-0.199,0.214-0.199
	c0.117,0,0.205,0.075,0.236,0.178l0.655,1.958h0.009l0.644-1.958c0.032-0.103,0.107-0.178,0.226-0.178
	c0.106,0,0.215,0.081,0.215,0.199c0,0.053-0.011,0.102-0.066,0.262l-1.189,3.407c-0.039,0.102-0.114,0.177-0.231,0.177
	c-0.108,0-0.215-0.082-0.215-0.198c0-0.055,0.011-0.103,0.069-0.264l0.3-0.799L347.067,101.831z"/>
<path fill="#CEEBF2" d="M284.108,96.604h3.076c0.409,0,0.705,0.214,0.705,0.672c0,0.459-0.296,0.671-0.705,0.671h-3.746
	c-0.541,0-0.77-0.345-0.77-0.786V86.965c0-0.473,0.278-0.769,0.72-0.769c0.443,0,0.72,0.296,0.72,0.769V96.604z"/>
<path fill="#CEEBF2" d="M290.442,94.15c0,1.488,0.95,2.65,2.568,2.65c1.915,0,2.405-1.179,2.946-1.179
	c0.262,0,0.524,0.229,0.524,0.639c0,0.704-1.783,1.783-3.486,1.783c-2.782,0-3.993-2.143-3.993-4.45c0-2.356,1.474-4.45,3.911-4.45
	c2.374,0,3.748,2.144,3.748,4.237c0,0.506-0.179,0.77-0.801,0.77H290.442z M295.219,93.07c0-1.243-0.719-2.685-2.307-2.685
	c-1.784-0.064-2.421,1.358-2.47,2.685H295.219z"/>
<path fill="#CEEBF2" d="M306.054,97.342c0,0.507-0.394,0.702-0.671,0.702c-0.295,0-0.672-0.195-0.672-0.702v-0.606h-0.031
	c-0.622,0.884-1.441,1.309-2.374,1.309c-2.455,0-3.83-2.143-3.83-4.45c0-2.307,1.375-4.45,3.83-4.45
	c0.999,0,1.702,0.425,2.374,1.161h0.031v-0.459c0-0.508,0.377-0.702,0.672-0.702c0.277,0,0.671,0.194,0.671,0.702V97.342z
	 M302.306,96.801c1.767,0,2.389-1.734,2.389-3.207c0-1.474-0.622-3.208-2.389-3.208s-2.389,1.734-2.389,3.208
	C299.917,95.066,300.539,96.801,302.306,96.801z"/>
<path fill="#CEEBF2" d="M308.771,89.912c0-0.475,0.279-0.769,0.721-0.769s0.719,0.294,0.719,0.769v0.736h0.034
	c0.329-0.672,1.129-1.505,1.963-1.505c0.508,0,0.802,0.326,0.802,0.734c0,0.411-0.294,0.671-0.9,0.786
	c-0.85,0.146-1.899,0.786-1.899,2.472v4.14c0,0.474-0.277,0.769-0.719,0.769s-0.721-0.295-0.721-0.769V89.912z"/>
<path fill="#CEEBF2" d="M314.744,89.912c0-0.475,0.279-0.769,0.721-0.769s0.719,0.294,0.719,0.769v0.344l0.034,0.033
	c0.639-0.819,1.537-1.146,2.405-1.146c1.342,0,3.026,0.85,3.026,3.304v4.828c0,0.474-0.279,0.769-0.719,0.769
	c-0.442,0-0.721-0.295-0.721-0.769v-4.746c0-1.521-1.063-2.144-2.013-2.144c-0.948,0-2.013,0.622-2.013,2.144v4.746
	c0,0.474-0.277,0.769-0.719,0.769s-0.721-0.295-0.721-0.769V89.912z"/>
<path fill="#CEEBF2" d="M325.283,94.15c0,1.488,0.95,2.65,2.569,2.65c1.915,0,2.407-1.179,2.946-1.179
	c0.261,0,0.522,0.229,0.522,0.639c0,0.704-1.782,1.783-3.484,1.783c-2.782,0-3.992-2.143-3.992-4.45c0-2.356,1.473-4.45,3.911-4.45
	c2.373,0,3.747,2.144,3.747,4.237c0,0.506-0.181,0.77-0.802,0.77H325.283z M330.062,93.07c0-1.243-0.721-2.685-2.308-2.685
	c-1.782-0.064-2.421,1.358-2.471,2.685H330.062z"/>
<path fill="#CEEBF2" d="M334.153,87.359c0-0.475,0.279-0.77,0.721-0.77c0.442,0,0.719,0.295,0.719,0.77v1.881h0.589
	c0.476,0,0.721,0.229,0.721,0.623c0,0.393-0.245,0.62-0.721,0.62h-0.589v6.792c0,0.474-0.277,0.769-0.719,0.769
	c-0.442,0-0.721-0.295-0.721-0.769v-6.792h-0.589c-0.474,0-0.721-0.228-0.721-0.62c0-0.394,0.247-0.623,0.721-0.623h0.589V87.359z"
	/>
<path fill="#CEEBF2" d="M339.816,86.196c0.492,0,0.884,0.394,0.884,0.884c0,0.491-0.392,0.885-0.884,0.885s-0.884-0.394-0.884-0.885
	C338.932,86.59,339.324,86.196,339.816,86.196z M340.535,97.275c0,0.474-0.279,0.769-0.719,0.769c-0.442,0-0.721-0.295-0.721-0.769
	v-7.363c0-0.475,0.278-0.769,0.721-0.769c0.44,0,0.719,0.294,0.719,0.769V97.275z"/>
<path fill="#CEEBF2" d="M346.803,89.144c1.473,0,2.339,0.507,2.339,1.095c0,0.295-0.245,0.606-0.589,0.606
	c-0.556,0-0.769-0.459-1.75-0.459c-1.782,0-2.487,1.734-2.487,3.208c0,1.473,0.705,3.207,2.487,3.207c1.015,0,1.276-0.49,1.734-0.49
	c0.328,0,0.557,0.212,0.557,0.605c0,0.539-0.802,1.128-2.292,1.128c-2.65,0-3.929-2.143-3.929-4.45
	C342.874,91.287,344.152,89.144,346.803,89.144z"/>
<path fill="#1778BD" d="M278.863,79.438c0.138-0.207,0.206-0.441,0.206-0.712c0-0.367-0.132-0.685-0.394-0.946
	c-0.26-0.262-0.58-0.393-0.946-0.393c-0.346,0-0.648,0.116-0.9,0.346c0.516,0.162,0.989,0.455,1.406,0.873
	C278.492,78.863,278.703,79.144,278.863,79.438z"/>
<polygon fill="#1778BD" points="275.927,79.557 275.485,79.557 275.485,81.076 274.705,82.036 275.043,82.318 275.942,81.241 "/>
<path fill="#1778BD" d="M272.551,79.446c0.159-0.296,0.367-0.57,0.636-0.841c0.409-0.408,0.879-0.701,1.397-0.872
	c-0.251-0.23-0.553-0.347-0.9-0.347c-0.368,0-0.687,0.131-0.949,0.393c-0.26,0.262-0.393,0.579-0.393,0.946
	C272.343,79.002,272.41,79.238,272.551,79.446z"/>
<path fill="#1778BD" d="M274.115,83.537l0.076,0.047c0.431,0.268,0.969,0.414,1.515,0.414c0.542,0,1.077-0.146,1.506-0.407
	l0.077-0.048l0.72,0.853c0.127,0.151,0.399,0.101,0.48-0.073c0.026-0.056,0.054-0.168-0.049-0.289l-0.712-0.845l0.064-0.065
	c0.514-0.54,0.796-1.245,0.796-1.989c0-1.589-1.292-2.881-2.881-2.881s-2.882,1.292-2.882,2.881c0,0.74,0.281,1.443,0.79,1.981
	l0.063,0.067l-0.706,0.851c-0.096,0.117-0.078,0.223-0.046,0.291c0.077,0.163,0.367,0.21,0.481,0.069L274.115,83.537z
	 M273.389,81.134c0-1.279,1.039-2.317,2.317-2.317c1.278,0,2.317,1.038,2.317,2.317c0,1.277-1.04,2.316-2.317,2.316
	C274.428,83.45,273.389,82.411,273.389,81.134z"/>
<path id="zawijas_2_" fill="#1778BD" d="M247.65,101.967c-0.316-0.512-0.538-0.944-0.675-1.325
	c-0.112-0.318-0.193-0.689-0.241-1.102c-0.422,0.952-0.328,1.919,0.281,2.872c0.412,0.598,0.964,1.051,1.637,1.346
	c0.45,0.226,0.967,0.328,1.533,0.309c0.594-0.012,1.127-0.169,1.589-0.469c0.46-0.275,0.824-0.646,1.113-1.137
	c0.249-0.42,0.393-0.856,0.426-1.292c0.019-0.293-0.007-0.575-0.076-0.837c-0.049-0.216-0.13-0.426-0.248-0.642
	c-0.087-0.153-0.191-0.309-0.298-0.447c-0.128-0.146-0.262-0.275-0.422-0.405c-0.402-0.295-0.836-0.473-1.29-0.526
	c-0.588-0.068-1.13,0.088-1.604,0.462c-0.511,0.41-0.784,0.917-0.831,1.549c-0.023,0.299,0.031,0.598,0.164,0.887
	c0.12,0.261,0.297,0.486,0.527,0.67c0.202,0.168,0.432,0.28,0.701,0.347c0.247,0.058,0.488,0.063,0.707,0.011
	c0.362-0.078,0.655-0.256,0.871-0.525c0.281-0.327,0.39-0.688,0.324-1.078c-0.002-0.013-0.008-0.035-0.012-0.062
	c-0.008-0.021-0.027-0.081-0.04-0.134c-0.09-0.283-0.268-0.492-0.544-0.635c-0.301-0.165-0.585-0.178-0.857-0.041
	c-0.131,0.062-0.229,0.151-0.303,0.267c-0.006,0.015-0.014,0.025-0.02,0.038c0.113-0.071,0.233-0.105,0.367-0.105
	c0.232,0.013,0.411,0.105,0.532,0.278c0.236,0.313,0.226,0.642-0.034,0.972c-0.121,0.14-0.271,0.225-0.451,0.258
	c-0.218,0.056-0.511-0.018-0.748-0.203c-0.289-0.226-0.425-0.528-0.404-0.898c0.01-0.168,0.063-0.342,0.162-0.53
	c0.087-0.173,0.211-0.323,0.37-0.45c0.29-0.235,0.644-0.336,1.039-0.297c0.347,0.037,0.65,0.16,0.9,0.367
	c0.13,0.101,0.236,0.207,0.323,0.322c0.173,0.204,0.286,0.42,0.345,0.658c0.006,0.033,0.016,0.062,0.023,0.09l0.017,0.058
	c0.036,0.198,0.046,0.364,0.033,0.524c-0.027,0.319-0.136,0.643-0.325,0.963c-0.212,0.375-0.499,0.665-0.848,0.857
	c-0.358,0.225-0.763,0.343-1.203,0.355c-0.408,0.02-0.828-0.066-1.192-0.25C248.442,102.809,247.998,102.45,247.65,101.967z"/>
<path id="kropla_2_" fill="#1778BD" d="M250.233,85.646l-0.018-0.025l-0.661-1.045c-0.021-0.033-0.037-0.045-0.045-0.045
	c-0.008,0-0.024,0.012-0.045,0.045l-0.639,1.01c-0.011,0.016-0.018,0.029-0.022,0.038l-0.017,0.026
	c-0.062,0.112-0.095,0.243-0.095,0.386c0,0.226,0.082,0.419,0.24,0.58c0.159,0.159,0.354,0.239,0.577,0.239
	c0.229,0,0.418-0.079,0.578-0.239c0.16-0.159,0.241-0.354,0.241-0.58C250.326,85.897,250.294,85.766,250.233,85.646z M250.1,86.132
	c-0.021,0.127-0.075,0.234-0.169,0.328c-0.118,0.118-0.261,0.177-0.424,0.177c-0.165,0-0.308-0.059-0.425-0.177
	c-0.119-0.115-0.177-0.259-0.176-0.425c-0.001-0.143,0.043-0.271,0.135-0.382l0.076-0.092l-0.015,0.119
	c-0.004,0.026-0.008,0.057-0.005,0.085c-0.002,0.15,0.049,0.271,0.154,0.379c0.21,0.208,0.539,0.211,0.753,0
	c0.013-0.013,0.024-0.025,0.036-0.04l0.08-0.093L250.1,86.132z"/>
<path fill="#1778BD" d="M266.778,77.65c-0.259,0-0.47,0.21-0.47,0.469c0,0.261,0.211,0.47,0.47,0.47s0.47-0.209,0.47-0.47
	C267.248,77.86,267.037,77.65,266.778,77.65z M266.778,78.323c-0.112,0-0.202-0.091-0.202-0.204c0-0.111,0.09-0.201,0.202-0.201
	s0.203,0.09,0.203,0.201C266.98,78.232,266.89,78.323,266.778,78.323z"/>
<path fill="#1778BD" d="M265.634,77.446c0.259,0,0.47-0.212,0.47-0.471s-0.21-0.469-0.47-0.469s-0.47,0.21-0.47,0.469
	S265.375,77.446,265.634,77.446z M265.634,76.774c0.112,0,0.203,0.09,0.203,0.201c0,0.112-0.091,0.203-0.203,0.203
	s-0.202-0.091-0.202-0.203C265.432,76.864,265.522,76.774,265.634,76.774z"/>
<rect x="266.035" y="76.235" transform="matrix(0.7078 0.7064 -0.7064 0.7078 132.553 -165.3822)" fill="#1778BD" width="0.335" height="2.627"/>
<path id="telefon_2_" fill="#1778BD" d="M272.402,90.326c0-0.37-0.173-0.543-0.544-0.543h-2.852c-0.371,0-0.543,0.173-0.543,0.543
	v5.308c0,0.37,0.172,0.544,0.543,0.544h2.852c0.371,0,0.544-0.174,0.544-0.544V90.326z M270.43,95.819
	c-0.216,0-0.391-0.176-0.391-0.392c0-0.215,0.175-0.393,0.391-0.393c0.217,0,0.392,0.178,0.392,0.393
	C270.822,95.644,270.647,95.819,270.43,95.819z M272.03,94.775h-3.2v-4.627h3.2V94.775z"/>
<circle fill="#1778BD" cx="257.971" cy="73.054" r="0.593"/>
<circle fill="#1778BD" cx="258.655" cy="70.173" r="0.302"/>
<path fill="#1778BD" d="M258.435,70.971c-0.096-0.19-0.246-0.317-0.445-0.382c-0.156-0.051-0.31-0.054-0.459-0.007l-0.479,0.099
	l-0.021-0.063l0.447-0.203c0.151-0.049,0.273-0.142,0.37-0.274c0.125-0.171,0.171-0.363,0.139-0.572
	c-0.035-0.207-0.138-0.376-0.309-0.499c-0.168-0.122-0.358-0.169-0.565-0.136c-0.208,0.033-0.378,0.136-0.503,0.307
	c-0.098,0.136-0.145,0.278-0.147,0.434l-0.053,0.482h-0.067l-0.053-0.481c-0.001-0.159-0.05-0.305-0.147-0.438
	c-0.129-0.174-0.292-0.274-0.501-0.306c-0.208-0.034-0.398,0.014-0.57,0.137c-0.169,0.122-0.271,0.29-0.305,0.497
	c-0.033,0.212,0.011,0.4,0.137,0.572c0.099,0.133,0.221,0.225,0.367,0.273l0.445,0.199l-0.021,0.065l-0.474-0.099
	c-0.156-0.047-0.307-0.043-0.462,0.006c-0.199,0.065-0.35,0.193-0.446,0.384c-0.095,0.184-0.11,0.381-0.045,0.583
	c0.066,0.198,0.193,0.348,0.38,0.443c0.187,0.097,0.383,0.11,0.585,0.047c0.159-0.052,0.281-0.14,0.375-0.266l0.319-0.35
	l0.055,0.039l-0.234,0.41c-0.092,0.131-0.138,0.277-0.138,0.439c0,0.216,0.075,0.393,0.227,0.543c0.148,0.147,0.33,0.223,0.54,0.223
	c0.21,0,0.393-0.075,0.54-0.223c0.152-0.15,0.225-0.329,0.225-0.543c0-0.168-0.044-0.311-0.137-0.438l-0.231-0.406l0.055-0.039
	l0.317,0.347c0.095,0.128,0.218,0.216,0.375,0.268c0.204,0.064,0.399,0.05,0.587-0.045c0.188-0.097,0.316-0.247,0.379-0.446
	C258.547,71.353,258.532,71.157,258.435,70.971z M256.826,71.315c-0.126,0.126-0.28,0.188-0.456,0.188
	c-0.176,0-0.334-0.064-0.458-0.189c-0.126-0.123-0.19-0.276-0.19-0.456c0-0.179,0.063-0.333,0.189-0.459
	c0.243-0.242,0.672-0.241,0.914,0c0.126,0.126,0.19,0.28,0.19,0.459C257.016,71.038,256.952,71.191,256.826,71.315z"/>
<circle fill="#1778BD" cx="253.285" cy="71.066" r="0.467"/>
<circle fill="#1778BD" cx="254.12" cy="70" r="0.302"/>
<polygon id="_x2B__2_" fill="#2F9BD6" points="267.921,100.985 267.199,100.985 267.199,100.265 266.787,100.265 266.787,100.985 
	266.064,100.985 266.064,101.398 266.787,101.398 266.787,102.121 267.199,102.121 267.199,101.398 267.921,101.398 "/>
<polygon fill="#2F9BD6" points="267.842,91.28 267.517,91.28 267.517,90.953 267.842,90.953 267.842,90.308 267.522,90.308 
	267.522,89.987 266.237,89.987 266.237,90.301 267.204,90.301 267.204,90.96 266.557,90.96 266.557,91.272 267.204,91.272 
	267.204,91.922 266.231,91.922 266.231,92.24 267.517,92.24 267.517,91.912 267.842,91.912 "/>
<polygon fill="#2F9BD6" points="263.435,92.24 263.435,89.987 262.788,89.987 262.788,90.302 262.469,90.302 262.469,90.627 
	262.788,90.627 262.794,92.24 "/>
<polygon fill="#2F9BD6" points="264.122,89.987 264.122,90.31 265.08,90.31 265.08,90.955 264.446,90.955 264.446,91.28 
	264.122,91.28 264.127,92.24 265.732,92.24 265.732,91.922 264.76,91.922 264.76,91.272 265.406,91.272 265.406,90.947 
	265.732,90.947 265.732,90.308 265.406,90.308 265.406,89.987 "/>
<path id="serce_2_" fill="#2F9BD6" d="M269.215,70.217l-0.102,0.101l-0.063-0.131c-0.047-0.098-0.099-0.186-0.156-0.269
	c-0.321-0.475-0.741-0.753-1.288-0.85c-0.123-0.023-0.244-0.033-0.361-0.033c-0.405,0-0.789,0.132-1.142,0.39
	c-0.455,0.332-0.736,0.788-0.836,1.359c-0.09,0.489-0.024,0.953,0.193,1.377l0.09,0.166c0.725,1.271,1.601,2.424,2.604,3.432
	c1.295-0.608,2.513-1.395,3.621-2.335c0.019-0.02,0.043-0.041,0.068-0.063s0.046-0.041,0.066-0.062
	c0.351-0.322,0.572-0.735,0.659-1.229c0.1-0.569-0.009-1.096-0.321-1.562c-0.319-0.476-0.742-0.753-1.291-0.851
	c-0.541-0.094-1.049,0.027-1.499,0.357C269.364,70.082,269.286,70.148,269.215,70.217z"/>
<path fill="#2F9BD6" d="M253.297,84.535l-2.381,1.109c0.153,0.24,0.366,0.407,0.648,0.512l1.734-0.824
	C253.375,85.078,253.38,84.803,253.297,84.535z"/>
<path fill="#2F9BD6" d="M252.474,83.66c-0.152-0.056-0.308-0.086-0.458-0.086c-0.184,0-0.37,0.045-0.553,0.131
	c-0.338,0.157-0.563,0.401-0.688,0.75c-0.108,0.297-0.112,0.592-0.012,0.877l2.393-1.115
	C252.998,83.955,252.774,83.772,252.474,83.66z"/>
<polygon fill="#2F9BD6" points="254.333,88.869 253.369,85.996 251.99,86.637 253.571,89.224 "/>
<path fill="#2F9BD6" d="M247.695,77.807h-0.639l-0.198-0.608c-0.004-0.018-0.016-0.031-0.031-0.046
	c-0.015-0.01-0.033-0.016-0.052-0.014c-0.02-0.002-0.035,0.004-0.05,0.014c-0.015,0.015-0.025,0.028-0.03,0.046l-0.201,0.608h-0.64
	c-0.02,0-0.036,0.003-0.052,0.018c-0.015,0.01-0.024,0.021-0.03,0.041c-0.006,0.019-0.006,0.034,0,0.054
	c0.006,0.018,0.015,0.032,0.03,0.044l0.519,0.378l-0.197,0.606c-0.005,0.02-0.005,0.038,0,0.055c0.005,0.018,0.015,0.03,0.031,0.042
	c0.015,0.013,0.033,0.018,0.052,0.018s0.035-0.005,0.05-0.018l0.518-0.376l0.519,0.376c0.015,0.013,0.03,0.018,0.05,0.018
	c0.019,0,0.036-0.005,0.051-0.018c0.015-0.012,0.025-0.024,0.033-0.042c0.004-0.02,0.004-0.035,0-0.055l-0.201-0.606l0.519-0.378
	c0.015-0.012,0.026-0.026,0.03-0.044c0.005-0.02,0.005-0.035,0-0.054c-0.004-0.02-0.015-0.031-0.03-0.041
	C247.731,77.81,247.715,77.807,247.695,77.807z"/>
<path id="lisc_2_" fill="#2F9BD6" d="M256.402,74.135c0.101-0.018,0.195-0.039,0.287-0.065c0.064-0.019,0.127-0.039,0.19-0.062
	l-0.139-0.415c-0.038,0.017-0.075,0.034-0.112,0.048c-0.08,0.033-0.133,0.056-0.186,0.075c-0.064,0.022-0.13,0.044-0.199,0.063
	c-0.068,0.018-0.137,0.033-0.208,0.048c-0.071,0.014-0.14,0.026-0.211,0.032c-0.075,0.01-0.148,0.016-0.221,0.018h-0.056
	c-0.083,0-0.167-0.002-0.251-0.012c-0.116-0.012-0.237-0.029-0.356-0.055l-0.045-0.011c-0.107-0.025-0.208-0.047-0.313-0.065
	c-0.069-0.013-0.138-0.023-0.207-0.035c-0.191-0.026-0.382-0.047-0.566-0.053c-0.349-0.016-0.714,0.006-1.073,0.06
	c-0.346,0.05-0.695,0.132-1.04,0.24c-0.35,0.113-0.689,0.246-1.007,0.396l-0.307,0.144l-0.092-0.175l0.055-0.034
	c0.2-0.122,0.382-0.226,0.558-0.318c0.194-0.104,0.4-0.205,0.612-0.298c0.203-0.087,0.419-0.168,0.642-0.243
	c0.224-0.071,0.45-0.13,0.673-0.177c0.221-0.047,0.455-0.08,0.696-0.101c0.23-0.023,0.472-0.03,0.711-0.021
	c0.123,0.006,0.248,0.014,0.375,0.026c-0.202-0.337-0.482-0.616-0.836-0.833c-0.203-0.115-0.408-0.182-0.627-0.208
	c-0.197-0.021-0.384-0.02-0.569,0.01c-0.266,0.046-0.5,0.11-0.713,0.198c-0.33,0.141-0.627,0.312-0.904,0.523
	c-0.436,0.329-0.832,0.711-1.177,1.139c-0.35,0.44-0.655,0.912-0.91,1.402c0.171-0.015,0.34-0.026,0.508-0.035
	c0.119-0.009,0.239-0.013,0.36-0.013c0.288,0,0.584,0.024,0.877,0.073c0.448,0.08,0.875,0.172,1.27,0.271
	c0.284,0.042,0.579,0.089,0.874,0.136c0.321,0.053,0.647,0.051,0.955-0.009c0.366-0.07,0.668-0.258,0.9-0.559
	c0.071-0.091,0.12-0.174,0.152-0.254c0.12-0.278,0.173-0.562,0.159-0.843l-0.006-0.15l0.142,0.046
	c0.061,0.021,0.123,0.038,0.188,0.056c0.092,0.023,0.188,0.044,0.285,0.057c0.102,0.017,0.195,0.024,0.287,0.026
	c0.104,0.005,0.196,0,0.292-0.006c0.078-0.009,0.158-0.016,0.236-0.029C256.374,74.141,256.388,74.137,256.402,74.135z"/>
<path id="kosc_2_" fill="#2F9BD6" d="M271.571,97.536c-0.131-0.176-0.326-0.29-0.543-0.32c-0.273-0.039-0.54,0.062-0.722,0.258
	c-0.023,0.026-0.056,0.038-0.091,0.033c-0.034-0.005-0.062-0.026-0.078-0.056c-0.122-0.242-0.354-0.41-0.622-0.447
	c-0.455-0.065-0.87,0.259-0.932,0.701c-0.063,0.45,0.251,0.867,0.702,0.933c0.056,0.008,0.124,0.062,0.115,0.118l-0.486,3.46
	c-0.003,0.028-0.019,0.054-0.041,0.069c-0.023,0.016-0.05,0.022-0.079,0.019c-0.062-0.01-0.1-0.013-0.139-0.013
	c-0.408,0-0.759,0.306-0.815,0.711c-0.031,0.217,0.025,0.434,0.158,0.609c0.133,0.178,0.326,0.291,0.544,0.322
	c0.274,0.036,0.54-0.062,0.723-0.258c0.02-0.022,0.047-0.034,0.076-0.034c0.004,0,0.009,0,0.014,0
	c0.034,0.005,0.063,0.025,0.078,0.056c0.122,0.242,0.355,0.41,0.622,0.448c0.456,0.063,0.871-0.259,0.933-0.702
	c0.03-0.218-0.026-0.435-0.159-0.611c-0.131-0.176-0.326-0.289-0.543-0.319c-0.027-0.005-0.064-0.02-0.082-0.042
	c-0.016-0.021-0.037-0.051-0.034-0.078l0.487-3.459c0.003-0.029,0.019-0.054,0.041-0.07c0.024-0.017,0.051-0.022,0.079-0.018
	c0.062,0.01,0.101,0.011,0.139,0.011c0.408,0,0.759-0.305,0.816-0.709C271.76,97.93,271.703,97.712,271.571,97.536z"/>
<path id="przecinek_2_" fill="#33C5F3" d="M247.596,80.693V79.7h-1.393v1.319h0.792v0.111c-0.002,0.242-0.076,0.445-0.223,0.602
	c-0.135,0.146-0.341,0.252-0.611,0.325v0.378c0.47-0.068,0.822-0.239,1.048-0.509C247.463,81.645,247.592,81.229,247.596,80.693z"/>
<path fill="#33C5F3" d="M276.259,94.038c0.024,0.008,0.045,0.015,0.068,0.024c0.285,0.112,0.456,0.314,0.509,0.599
	c0.161-0.01,0.325-0.012,0.487-0.006c-0.047-0.331-0.132-0.649-0.253-0.948C276.772,93.74,276.494,93.854,276.259,94.038z"/>
<path fill="#33C5F3" d="M276.164,95.812c0.238-0.297,0.367-0.572,0.396-0.836c-0.318,0.041-0.626,0.115-0.917,0.225
	c-0.003,0.035-0.004,0.07-0.004,0.107c0,0.289,0.078,0.572,0.224,0.818C275.969,96.033,276.07,95.928,276.164,95.812z"/>
<path fill="#33C5F3" d="M278.712,95.856c0.013,0.017,0.025,0.032,0.038,0.048c0.075-0.19,0.113-0.391,0.113-0.596v-0.021
	c-0.174-0.077-0.355-0.143-0.541-0.194C278.366,95.338,278.494,95.587,278.712,95.856z"/>
<path fill="#33C5F3" d="M276.009,94.28c-0.144,0.174-0.25,0.38-0.31,0.595c0.271-0.089,0.556-0.151,0.85-0.188
	c-0.04-0.171-0.144-0.285-0.326-0.357C276.155,94.304,276.084,94.288,276.009,94.28z"/>
<path fill="#33C5F3" d="M278.608,96.179c-0.042-0.045-0.083-0.092-0.121-0.142c-0.284-0.351-0.438-0.683-0.466-1.013
	c-0.123-0.026-0.249-0.045-0.377-0.058c0.008,0.111,0.011,0.227,0.011,0.342c0,0.571-0.094,1.111-0.28,1.607
	C277.878,96.877,278.334,96.605,278.608,96.179z"/>
<path fill="#33C5F3" d="M277.617,94.675c0.141,0.013,0.28,0.032,0.414,0.057c0.04-0.245,0.164-0.432,0.37-0.554
	c-0.274-0.279-0.634-0.445-1.022-0.477C277.492,94.008,277.572,94.336,277.617,94.675z"/>
<path fill="#33C5F3" d="M277.368,95.309c0-0.123-0.005-0.244-0.014-0.362c-0.167-0.009-0.337-0.007-0.501,0.003
	c-0.022,0.339-0.175,0.682-0.464,1.043c-0.109,0.135-0.229,0.261-0.355,0.371c0.267,0.309,0.632,0.502,1.036,0.547
	C277.268,96.42,277.368,95.883,277.368,95.309z"/>
<path fill="#33C5F3" d="M278.312,94.793c0.174,0.046,0.346,0.101,0.513,0.166c-0.044-0.198-0.124-0.385-0.24-0.555
	C278.425,94.484,278.337,94.61,278.312,94.793z"/>
<polygon id="kursor_1_" fill="#33C5F3" points="274.108,96.111 274.108,96.669 274.386,96.669 274.386,97.226 274.804,97.226 
	274.804,96.808 274.526,96.808 274.526,96.249 274.25,96.249 274.25,95.558 275.084,95.558 275.084,95.418 274.804,95.418 
	274.804,95.14 274.526,95.14 274.526,94.861 274.25,94.861 274.25,94.581 273.972,94.581 273.972,94.304 273.695,94.304 
	273.695,94.026 273.417,94.026 273.417,93.75 273.136,93.75 273.136,93.474 272.996,93.474 272.996,96.393 273.136,96.393 
	273.136,96.111 273.417,96.111 273.417,95.836 273.832,95.836 273.832,96.111 "/>
<path fill="#33C5F3" d="M256.788,102.446l0.449,1.099l1.415-0.204l-2.564-5.312l-1.268,0.097l-1.184,5.663l1.424,0.004l0.127-0.995
	L256.788,102.446z M255.65,99.49l0.85,2.096l-1.18,0.238L255.65,99.49z"/>
<path fill="#33C5F3" d="M259.725,97.58c-0.321-0.018-0.822-0.022-1.479-0.018l0.052,7.115c0.639-0.02,1.153-0.05,1.617-0.101
	c0.593-0.088,1.078-0.178,1.526-0.28c1.547-0.369,2.345-0.909,2.371-1.604c0.028-0.518-0.362-0.941-1.157-1.258
	c-0.448-0.193-0.897-0.322-1.376-0.393l-0.392-0.058l0.372-0.141c0.356-0.134,0.711-0.317,1.056-0.543
	c0.615-0.415,0.934-0.835,0.947-1.247c0.014-0.222-0.056-0.421-0.207-0.591C262.613,97.97,261.493,97.673,259.725,97.58z
	 M261.842,102.606c-0.042,0.61-0.683,0.919-1.903,0.919c-0.085,0-0.174-0.002-0.266-0.006l-0.1-0.002l-0.013-1.786l0.096-0.007
	c0.146-0.012,0.282-0.016,0.407-0.018l0.162-0.001c0.105,0,0.208,0.001,0.305,0.007C261.419,101.758,261.86,102.059,261.842,102.606
	z M259.477,100.292l-0.104,0.002l-0.003-1.622l0.098-0.005c0.273-0.016,0.487-0.024,0.65-0.016c0.765,0.041,1.145,0.312,1.129,0.809
	C261.208,99.982,260.613,100.261,259.477,100.292z"/>
<path fill="#33C5F3" d="M265.494,98.829c-1.016,0.347-1.666,0.816-1.929,1.399c-0.049,0.105-0.077,0.201-0.086,0.281
	c-0.127,0.775,0.213,1.519,1.041,2.271c0.547,0.482,1.285,0.941,2.194,1.359l0.208-1.141c-0.584-0.238-1.068-0.525-1.464-0.863
	c-0.617-0.506-0.818-1.008-0.596-1.49c0.174-0.379,0.58-0.657,1.208-0.828c0.432-0.115,0.899-0.176,1.388-0.176l0.106,0.002
	l0.286-1.277C267.01,98.416,266.216,98.57,265.494,98.829z"/>
<path id="klawiatura_2_" fill-rule="evenodd" clip-rule="evenodd" fill="#33C5F3" d="M270.983,85.803
	c0-0.186-0.08-0.268-0.258-0.268h-3.929l0.043-0.161c0.033-0.189,0.015-0.397-0.05-0.565c-0.028-0.067-0.077-0.174-0.168-0.289
	c-0.188-0.236-0.443-0.366-0.736-0.379c-0.248-0.014-0.426,0.04-0.585,0.175c-0.114,0.084-0.243,0.126-0.387,0.126l-0.041-0.003
	c-0.297-0.028-0.423-0.165-0.423-0.456c0-0.015,0.024-0.191,0.077-0.502c0.005-0.032,0-0.059-0.017-0.079
	c-0.039-0.044-0.152-0.091-0.176,0.046c-0.057,0.342-0.077,0.508-0.077,0.535c0,0.389,0.208,0.613,0.601,0.65
	c0.191,0.012,0.406-0.047,0.565-0.164c0.119-0.103,0.262-0.145,0.455-0.135c0.239,0.011,0.437,0.114,0.591,0.304
	c0.075,0.1,0.115,0.182,0.141,0.243c0.036,0.097,0.074,0.253,0.04,0.451l-0.054,0.203h-3.832c-0.188,0-0.268,0.08-0.268,0.268v3.09
	c0,0.186,0.08,0.267,0.268,0.267h7.961c0.181,0,0.258-0.081,0.258-0.267V85.803z M265.724,86.117h0.693v0.691h-0.693V86.117z
	 M265.724,87.001h0.693v0.692h-0.693V87.001z M264.838,86.117h0.69v0.691h-0.69V86.117z M264.838,87.001h0.69v0.692h-0.69V87.001z
	 M263.954,86.117h0.69v0.691h-0.69V86.117z M263.954,87.001h0.69v0.692h-0.69V87.001z M263.758,88.578h-0.692v-0.689h0.692V88.578z
	 M263.758,87.693h-0.692v-0.692h0.692V87.693z M263.758,86.809h-0.692v-0.691h0.692V86.809z M267.289,88.578h-3.348v-0.689h3.348
	V88.578z M267.301,87.693h-0.692v-0.692h0.692V87.693z M267.301,86.809h-0.692v-0.691h0.692V86.809z M268.188,88.578h-0.693v-0.689
	h0.693V88.578z M268.188,87.693h-0.693v-0.692h0.693V87.693z M268.188,86.809h-0.693v-0.691h0.693V86.809z M269.514,88.578h-0.692
	v-0.689h0.692V88.578z M269.514,87.693h-0.692v-0.692h0.692V87.693z M269.514,86.809h-0.692v-0.691h0.692V86.809z M270.4,88.578
	h-0.691v-0.689h0.691V88.578z M270.4,87.693h-0.691v-0.692h0.691V87.693z M270.4,86.809h-0.691v-0.691h0.691V86.809z"/>
<circle fill="#33C5F3" cx="278.234" cy="72.278" r="0.44"/>
<path fill="#33C5F3" d="M278.583,71.057l0.43-0.327c0.092-0.071,0.161-0.163,0.202-0.272c0.043-0.11,0.065-0.234,0.065-0.364
	c0-0.147-0.039-0.285-0.118-0.411c-0.078-0.125-0.192-0.228-0.341-0.301c-0.149-0.079-0.332-0.118-0.542-0.118
	c-0.183,0-0.342,0.032-0.475,0.096c-0.131,0.065-0.227,0.144-0.293,0.24c-0.066,0.099-0.1,0.196-0.1,0.303v0.132
	c0.061-0.053,0.132-0.094,0.208-0.123c0.125-0.052,0.268-0.078,0.438-0.078c0.146,0,0.261,0.033,0.34,0.095
	c0.08,0.06,0.124,0.146,0.124,0.247c0,0.044-0.007,0.098-0.023,0.154c-0.017,0.066-0.048,0.117-0.096,0.16l-0.44,0.391
	c-0.04,0.035-0.076,0.082-0.109,0.146c-0.029,0.064-0.044,0.135-0.046,0.217c0,0.075,0.027,0.137,0.08,0.189
	c0.052,0.049,0.139,0.076,0.258,0.081h0.243v-0.076c-0.002-0.085,0.013-0.159,0.044-0.22
	C278.461,71.161,278.511,71.108,278.583,71.057z"/>
<path id="ekierka_2_" fill="#33C5F3" d="M253.518,69.343h-9.487v9.484L253.518,69.343z M245.547,70.857h4.323l-4.323,4.324V70.857z"
	/>
<path id="atomy_2_" fill="#33C5F3" d="M271.234,81.773l-0.047-0.013l-0.271-2.801l0.041-0.022c0.576-0.295,0.934-0.882,0.934-1.529
	c0-0.95-0.772-1.722-1.721-1.722c-0.949,0-1.722,0.771-1.722,1.722c0,0.247,0.052,0.486,0.154,0.711l0.02,0.045l-1.458,1.338
	l-0.044-0.025c-0.313-0.186-0.672-0.283-1.039-0.283c-1.127,0-2.044,0.916-2.044,2.043c0,1.128,0.917,2.044,2.044,2.044
	c0.667,0,1.294-0.327,1.677-0.874l0.031-0.043l1.703,0.615l-0.004,0.053c-0.002,0.033-0.003,0.067-0.003,0.101
	c0,0.774,0.629,1.403,1.401,1.403c0.774,0,1.403-0.629,1.403-1.403C272.29,82.488,271.855,81.931,271.234,81.773z M268.861,77.413
	c0.131,0.255,0.334,0.448,0.602,0.574c0.324,0.153,0.656,0.167,0.99,0.041c0.335-0.119,0.582-0.343,0.733-0.67
	c0.089-0.195,0.13-0.393,0.125-0.585l0.131-0.032c0.014,0.028,0.025,0.056,0.038,0.085c0.011,0.027,0.022,0.057,0.035,0.083
	c0.132,0.378,0.116,0.747-0.048,1.102c-0.167,0.36-0.439,0.61-0.811,0.741c-0.166,0.062-0.334,0.095-0.5,0.095
	c-0.2,0-0.401-0.048-0.594-0.142c-0.357-0.166-0.608-0.436-0.743-0.806c-0.052-0.146-0.081-0.298-0.089-0.452L268.861,77.413z
	 M267.604,81.945c-0.198,0.426-0.518,0.716-0.952,0.865c-0.193,0.073-0.391,0.111-0.585,0.111c-0.234,0-0.469-0.055-0.695-0.164
	c-0.421-0.194-0.713-0.514-0.871-0.945c-0.063-0.175-0.1-0.354-0.106-0.53l0.129-0.034c0.159,0.305,0.4,0.533,0.719,0.683
	c0.384,0.183,0.781,0.2,1.177,0.049c0.398-0.14,0.691-0.405,0.874-0.793c0.102-0.233,0.152-0.469,0.147-0.699l0.13-0.031
	c0.016,0.034,0.031,0.069,0.044,0.103c0.014,0.032,0.027,0.064,0.042,0.097C267.813,81.095,267.794,81.526,267.604,81.945z
	 M268.042,81.819l0.016-0.062c0.043-0.17,0.066-0.344,0.066-0.521c0-0.471-0.165-0.933-0.463-1.295l-0.042-0.051l1.354-1.244
	l0.047,0.042c0.34,0.306,0.794,0.464,1.244,0.438l0.067-0.004l0.255,2.638l-0.057,0.014c-0.336,0.089-0.627,0.3-0.818,0.593
	l-0.03,0.046L268.042,81.819z M271.291,84.248c-0.137,0.052-0.278,0.078-0.416,0.078c-0.167,0-0.334-0.039-0.495-0.116
	c-0.294-0.137-0.502-0.362-0.616-0.67c-0.042-0.121-0.067-0.246-0.074-0.376l0.13-0.034c0.107,0.21,0.271,0.366,0.49,0.467
	c0.262,0.124,0.532,0.136,0.802,0.032c0.272-0.096,0.473-0.278,0.598-0.543c0.067-0.156,0.102-0.317,0.1-0.478l0.131-0.03
	c0.01,0.021,0.019,0.041,0.027,0.063c0.011,0.024,0.021,0.049,0.034,0.073c0.11,0.316,0.095,0.624-0.041,0.919
	C271.826,83.931,271.599,84.139,271.291,84.248z"/>
<circle fill="#33C5F3" cx="245.82" cy="94.155" r="0.461"/>
<circle fill="#33C5F3" cx="250.586" cy="92.662" r="0.346"/>
<circle fill="#33C5F3" cx="247.717" cy="94.711" r="0.759"/>
<path fill="#33C5F3" d="M250.522,90.201l0.039-0.028c0.199-0.153,0.387-0.309,0.56-0.465c0.753-0.683,1.049-1.211,0.883-1.565
	c-0.165-0.356-0.767-0.469-1.769-0.331c-0.013,0.002-0.028,0.003-0.042,0.007c0.011,0.013,0.021,0.026,0.03,0.041
	c0.357,0.037,0.586,0.163,0.688,0.378c0.125,0.269,0.013,0.607-0.334,1.007c-0.106,0.121-0.237,0.253-0.391,0.39
	c-0.613,0.549-1.434,1.067-2.439,1.536c-1.007,0.47-1.932,0.767-2.748,0.883c-0.202,0.028-0.386,0.045-0.548,0.047l-0.054,0.001
	c-0.496,0-0.81-0.132-0.931-0.392c-0.101-0.215-0.049-0.475,0.151-0.771c-0.004-0.016-0.008-0.033-0.012-0.05
	c-0.011,0.01-0.023,0.02-0.035,0.029c-0.741,0.672-1.046,1.213-0.881,1.566c0.164,0.355,0.767,0.469,1.768,0.331
	c0.232-0.032,0.473-0.077,0.716-0.131l0.047-0.011l0.037,0.029c0.575,0.439,1.263,0.671,1.99,0.671c1.755,0,3.194-1.371,3.273-3.124
	L250.522,90.201z"/>
<path fill="#33C5F3" d="M244.288,91.509c0.15-0.004,0.318-0.019,0.502-0.046c0.8-0.114,1.704-0.405,2.688-0.864
	c0.99-0.463,1.793-0.969,2.39-1.503c0.141-0.125,0.261-0.245,0.36-0.359c-0.533-1.164-1.696-1.913-2.981-1.913
	c-1.808,0-3.277,1.47-3.277,3.276C243.97,90.593,244.077,91.067,244.288,91.509z"/>
<circle fill="#33C5F3" cx="251.672" cy="95.492" r="0.321"/>
<circle fill="#33C5F3" cx="250.667" cy="95.492" r="0.321"/>
<circle fill="#33C5F3" cx="252.678" cy="95.492" r="0.321"/>
<path fill="#33C5F3" d="M253.477,97.1c0.495-0.428,0.752-0.96,0.763-1.581c-0.011-0.631-0.268-1.171-0.766-1.599
	c-0.492-0.422-1.094-0.635-1.791-0.635c-0.699,0-1.307,0.213-1.805,0.635c-0.506,0.434-0.759,0.971-0.751,1.6
	c-0.008,0.617,0.245,1.15,0.751,1.583c0.503,0.429,1.111,0.645,1.805,0.645c0.438,0,0.843-0.087,1.203-0.259l0.037-0.018l0.9,0.658
	l-0.383-0.998L253.477,97.1z M253.205,96.791c-0.425,0.367-0.923,0.545-1.522,0.545c-0.594,0-1.111-0.184-1.538-0.545
	c-0.416-0.356-0.614-0.771-0.606-1.271c-0.007-0.502,0.196-0.936,0.603-1.286c0.429-0.361,0.934-0.537,1.542-0.537
	c0.604,0,1.102,0.174,1.522,0.535c0.41,0.353,0.613,0.774,0.624,1.287C253.818,96.022,253.615,96.438,253.205,96.791z"/>
<path id="kalkulator_2_" fill="#6DCCE3" d="M261.734,87.068c0-0.55-0.267-0.816-0.819-0.816h-5.183
	c-0.551,0-0.819,0.267-0.819,0.816v8.877c0,0.553,0.268,0.817,0.819,0.817h5.183c0.552,0,0.819-0.265,0.819-0.817V87.068z
	 M256.751,95.961h-1.043v-1.043h1.043V95.961z M256.751,94.622h-1.043v-1.044h1.043V94.622z M256.751,93.282h-1.043v-1.044h1.043
	V93.282z M256.751,91.941h-1.043v-1.043h1.043V91.941z M258.158,95.961h-1.043v-1.043h1.043V95.961z M258.158,94.622h-1.043v-1.044
	h1.043V94.622z M258.158,93.282h-1.043v-1.044h1.043V93.282z M258.158,91.941h-1.043v-1.043h1.043V91.941z M259.549,95.961h-1.044
	v-1.043h1.044V95.961z M259.549,94.622h-1.044v-1.044h1.044V94.622z M259.549,93.282h-1.044v-1.044h1.044V93.282z M259.549,91.941
	h-1.044v-1.043h1.044V91.941z M260.939,95.961h-1.044v-1.043h1.044V95.961z M260.939,94.622h-1.044v-1.044h1.044V94.622z
	 M260.939,93.282h-1.044v-1.044h1.044V93.282z M260.939,91.941h-1.044v-1.043h1.044V91.941z M260.939,89.084h-5.232V87.2h5.232
	V89.084z"/>
<path id="nutka_2_" fill="#6DCCE3" d="M245.099,95.308l-0.061-0.537l-1.564,0.274l1.623,6.682l-0.164-0.039
	c-0.183-0.042-0.373-0.065-0.563-0.065c-0.148,0-0.303,0.015-0.457,0.041c-0.502,0.087-0.919,0.283-1.238,0.579
	c-0.318,0.301-0.451,0.605-0.406,0.932c0.068,0.318,0.296,0.559,0.698,0.73c0.392,0.164,0.856,0.209,1.368,0.131
	c0.5-0.099,0.899-0.291,1.22-0.588c0.3-0.272,0.438-0.562,0.407-0.859l-0.611-5.167l2.412,1.325l0.85-2.302L245.099,95.308z"/>
<path id="puzzel_1_" fill="#6DCCE3" d="M279.558,101.419c0.155-0.154,0.233-0.342,0.233-0.555c0-0.223-0.079-0.413-0.233-0.567
	c-0.149-0.151-0.33-0.228-0.539-0.228h-0.049c-0.16,0-0.311,0.05-0.438,0.142l-0.171,0.123l0.007-0.211
	c0.026-0.742,0.087-1.478,0.18-2.186c-0.696-0.1-1.399-0.162-2.094-0.185c0.09,0.153,0.137,0.33,0.137,0.512
	c0,0.27-0.099,0.506-0.293,0.701c-0.192,0.19-0.43,0.291-0.705,0.298c-0.278-0.007-0.516-0.107-0.708-0.298
	c-0.194-0.193-0.293-0.429-0.293-0.701c0-0.182,0.049-0.358,0.137-0.512c-0.696,0.022-1.38,0.085-2.087,0.185
	c0.094,0.711,0.154,1.45,0.178,2.193l0.006,0.211l-0.169-0.125c-0.138-0.098-0.284-0.147-0.445-0.147h-0.049
	c-0.206,0-0.387,0.076-0.538,0.228c-0.153,0.153-0.23,0.345-0.23,0.567c0,0.215,0.077,0.401,0.23,0.555
	c0.154,0.153,0.344,0.232,0.563,0.237c0.173,0,0.327-0.049,0.469-0.152l0.169-0.124l-0.006,0.21
	c-0.024,0.746-0.084,1.485-0.178,2.201c0.71,0.095,1.411,0.152,2.084,0.178c-0.094-0.153-0.139-0.323-0.134-0.508
	c0-0.277,0.099-0.519,0.293-0.711c0.189-0.19,0.419-0.287,0.682-0.287h0.047c0.265,0,0.495,0.097,0.684,0.287
	c0.194,0.195,0.293,0.435,0.293,0.714c0,0.184-0.046,0.354-0.139,0.505c0.68-0.023,1.384-0.083,2.096-0.178
	c-0.094-0.718-0.154-1.458-0.18-2.201l-0.007-0.213l0.172,0.127c0.13,0.098,0.288,0.147,0.468,0.152
	C279.217,101.651,279.405,101.572,279.558,101.419z"/>
<path id="_x40__1_" fill="#6DCCE3" d="M257.558,83.561c0-0.227-0.044-0.429-0.131-0.6c-0.086-0.182-0.222-0.342-0.405-0.479
	c-0.138-0.114-0.306-0.202-0.499-0.264c-0.194-0.056-0.411-0.087-0.645-0.087c-0.341,0-0.653,0.065-0.929,0.191
	c-0.274,0.123-0.514,0.308-0.711,0.549c-0.137,0.16-0.241,0.345-0.312,0.547c-0.069,0.193-0.104,0.405-0.104,0.634
	c0,0.261,0.05,0.501,0.15,0.717c0.098,0.203,0.255,0.392,0.462,0.556c0.167,0.123,0.361,0.219,0.576,0.283
	c0.21,0.063,0.448,0.095,0.703,0.095c0.256,0,0.492-0.037,0.721-0.114c0.225-0.072,0.435-0.18,0.628-0.321l-0.153-0.224
	c-0.169,0.119-0.354,0.212-0.55,0.273c-0.201,0.061-0.419,0.09-0.646,0.09c-0.309,0-0.582-0.057-0.814-0.168
	c-0.229-0.113-0.408-0.273-0.534-0.477c-0.125-0.205-0.189-0.439-0.197-0.719c0.006-0.27,0.067-0.518,0.176-0.737
	c0.119-0.224,0.288-0.413,0.503-0.562c0.133-0.105,0.29-0.182,0.462-0.228c0.173-0.052,0.365-0.078,0.567-0.078
	c0.267,0,0.506,0.05,0.708,0.148c0.198,0.091,0.356,0.225,0.467,0.397c0.106,0.163,0.164,0.357,0.169,0.576
	c-0.006,0.188-0.042,0.35-0.109,0.496c-0.066,0.152-0.154,0.277-0.26,0.368c-0.107,0.087-0.226,0.135-0.357,0.142l0,0
	c-0.063,0-0.106-0.011-0.133-0.037c-0.026-0.029-0.038-0.068-0.038-0.121c0-0.009,0-0.023,0.005-0.039l0.302-1.216h-0.35
	l-0.126,0.216l-0.029-0.051c-0.045-0.076-0.104-0.133-0.178-0.169c-0.073-0.044-0.155-0.064-0.255-0.064
	c-0.176,0.006-0.338,0.056-0.481,0.149c-0.142,0.093-0.257,0.224-0.345,0.391c-0.078,0.159-0.123,0.352-0.131,0.572
	c0,0.22,0.056,0.387,0.163,0.496c0.104,0.107,0.264,0.162,0.477,0.162c0.12,0,0.229-0.025,0.321-0.073
	c0.093-0.045,0.172-0.121,0.237-0.228l0.056-0.094L256,84.569c0.007,0.101,0.043,0.17,0.109,0.214
	c0.123,0.087,0.395,0.1,0.645,0.017c0.112-0.038,0.216-0.095,0.307-0.167c0.163-0.133,0.289-0.289,0.376-0.471
	C257.516,83.984,257.558,83.781,257.558,83.561z M255.969,84.127c-0.032,0.142-0.094,0.254-0.184,0.335
	c-0.095,0.084-0.203,0.126-0.321,0.126c-0.093,0-0.166-0.035-0.219-0.1c-0.056-0.066-0.085-0.16-0.085-0.283
	c0-0.154,0.027-0.298,0.08-0.426c0.054-0.127,0.119-0.229,0.2-0.311c0.163-0.15,0.408-0.146,0.521-0.028
	c0.063,0.056,0.103,0.141,0.115,0.252L255.969,84.127z"/>
<path fill="#6DCCE3" d="M246.607,86.208c0.019,0.019,0.041,0.033,0.069,0.039h0.017c0.021,0,0.039-0.005,0.055-0.015l1.492-0.85
	l-0.252-0.145l-0.753,0.46l-0.433-0.252l-0.003-0.896l-0.229-0.131l0.011,1.716C246.582,86.161,246.591,86.186,246.607,86.208z"/>
<rect x="246.974" y="83.393" transform="matrix(-0.4995 0.8663 -0.8663 -0.4995 444.543 -89.5543)" fill="#6DCCE3" width="2.331" height="0.474"/>
<rect x="247.63" y="83.774" transform="matrix(0.5005 -0.8658 0.8658 0.5005 51.5517 257.3653)" fill="#6DCCE3" width="2.334" height="0.473"/>
<rect x="246.315" y="83.014" transform="matrix(-0.5005 0.8657 -0.8657 -0.5005 443.4156 -89.3392)" fill="#6DCCE3" width="2.333" height="0.474"/>
<rect x="250.063" y="82.33" fill="#6DCCE3" width="3.26" height="0.66"/>
<path fill="#6DCCE3" d="M254.511,76.41h-5.648c-0.428,0-0.619,0.191-0.619,0.619v4.043c0,0.428,0.191,0.619,0.619,0.619h5.648
	c0.427,0,0.619-0.191,0.619-0.619v-4.043C255.129,76.602,254.938,76.41,254.511,76.41z M254.469,81.031h-5.565V77.07h5.565V81.031z"
	/>
<path id="lupka_2_" fill="#6DCCE3" d="M259.803,70.016c-0.449,0.537-0.637,1.147-0.576,1.863c0.06,0.705,0.36,1.287,0.891,1.735
	c0.539,0.452,1.174,0.653,1.881,0.593c0.483-0.043,0.912-0.206,1.276-0.483l0.066-0.05l0.042,0.035l2.667,2.24
	c0.114,0.093,0.236,0.143,0.362,0.143c0.231,0,0.452-0.166,0.537-0.4c0.081-0.223,0.017-0.441-0.177-0.604l-2.722-2.285l0.011-0.023
	c0.212-0.44,0.292-0.871,0.255-1.34c-0.069-0.701-0.377-1.285-0.916-1.737c-0.541-0.454-1.165-0.653-1.849-0.593
	C260.847,69.17,260.259,69.476,259.803,70.016z M261.613,69.791c0.513-0.044,0.955,0.098,1.354,0.433
	c0.395,0.329,0.622,0.756,0.675,1.27c0.037,0.513-0.113,0.973-0.445,1.371c-0.334,0.396-0.746,0.612-1.258,0.659
	c-0.064,0.003-0.127,0.008-0.189,0.008c-0.445,0-0.847-0.147-1.194-0.438c-0.388-0.326-0.607-0.751-0.652-1.266l-0.001-0.009
	l0.001-0.023c-0.046-0.499,0.097-0.953,0.422-1.343C260.654,70.061,261.087,69.839,261.613,69.791z"/>
<polygon id="gwiazdka_3_" fill="#CEEBF2" points="268.52,84.136 269.029,83.873 268.858,83.578 268.379,83.889 268.404,83.315 
	268.062,83.315 268.086,83.888 267.605,83.578 267.434,83.873 267.946,84.136 267.434,84.396 267.605,84.691 268.086,84.381 
	268.062,84.954 268.404,84.954 268.379,84.381 268.858,84.691 269.029,84.396 "/>
<circle fill="#CEEBF2" cx="275.143" cy="67.743" r="0.413"/>
<circle fill="#CEEBF2" cx="275.877" cy="66.575" r="0.577"/>
<path fill="#CEEBF2" d="M278.731,75.207l-2.046-3.54l-0.014-2.548h0.229c0.066,0,0.121-0.023,0.158-0.063
	c0.033-0.038,0.052-0.091,0.052-0.147c0-0.097-0.054-0.209-0.209-0.209h-3.138c-0.155,0-0.21,0.112-0.21,0.209
	c0,0.098,0.055,0.211,0.21,0.211h0.23v2.496l-2.067,3.604c0.001,0.001-0.026,0.102-0.029,0.115c0.002,0.937,0.522,1.454,1.465,1.454
	h3.939c0.944,0,1.464-0.521,1.464-1.464C278.763,75.321,278.736,75.221,278.731,75.207z M273.497,73.34l0.887-1.535
	c0-0.001,0.027-0.101,0.029-0.115l0-2.57h1.839V71.7c0.001,0.003,0.027,0.101,0.033,0.116l0.881,1.523H273.497z"/>
<circle fill="#CEEBF2" cx="274.753" cy="66.821" r="0.252"/>
<polygon id="sniezka_2_" fill="#CEEBF2" points="268.054,95.019 267.967,94.692 267,94.949 267.19,94.209 266.862,94.12 
	266.622,95.053 265.402,95.379 265.73,94.164 266.685,93.92 266.597,93.593 265.833,93.784 266.09,92.817 265.763,92.729 
	265.506,93.695 264.961,93.175 264.718,93.395 265.406,94.091 265.079,95.304 264.201,94.412 264.448,93.453 264.121,93.364 
	263.925,94.139 263.201,93.419 262.974,93.664 263.679,94.362 262.934,94.575 263.018,94.891 263.969,94.634 264.833,95.531 
	263.63,95.854 262.942,95.165 262.7,95.387 263.264,95.95 262.284,96.214 262.371,96.541 263.339,96.282 263.149,97.025 
	263.466,97.113 263.718,96.181 264.934,95.854 264.62,97.064 263.655,97.312 263.742,97.637 264.507,97.448 264.248,98.416 
	264.565,98.504 264.835,97.536 265.383,98.077 265.622,97.841 264.936,97.156 265.25,95.941 266.141,96.83 265.893,97.78 
	266.219,97.866 266.417,97.108 267.127,97.819 267.367,97.58 266.659,96.869 267.396,96.67 267.311,96.346 266.382,96.594 
	265.49,95.706 266.709,95.379 267.389,96.08 267.632,95.859 267.091,95.277 "/>
<path id="trybik_2_" fill="#CEEBF2" d="M254.427,91.543l0.019-0.171l-0.258-0.092l-0.024-0.29l0.236-0.137l-0.05-0.17l-0.271,0.03
	l-0.14-0.263l0.156-0.222l-0.113-0.133l-0.23,0.136l-0.237-0.186l0.05-0.264l-0.157-0.076l-0.159,0.225l-0.293-0.068l-0.054-0.275
	l-0.181-0.006l-0.051,0.275l-0.288,0.054l-0.163-0.232l-0.172,0.069l0.057,0.274l-0.238,0.172l-0.236-0.156l-0.133,0.138l0.17,0.227
	l-0.15,0.253l-0.283-0.045l-0.059,0.178l0.244,0.141l-0.034,0.292l-0.269,0.074l0.013,0.175l0.279,0.043l0.076,0.282l-0.209,0.176
	l0.084,0.154l0.27-0.073l0.189,0.224l-0.112,0.26l0.146,0.098l0.205-0.183l0.263,0.13l0.003,0.276l0.166,0.036l0.115-0.252
	l0.295,0.016l0.114,0.248l0.172-0.036v-0.272l0.276-0.117l0.204,0.184l0.14-0.101l-0.105-0.247l0.198-0.213l0.266,0.086l0.086-0.15
	l-0.199-0.189l0.098-0.27L254.427,91.543z M253.054,91.514c-0.077,0.074-0.167,0.112-0.271,0.112c-0.104,0-0.197-0.038-0.269-0.112
	c-0.075-0.073-0.112-0.165-0.112-0.269c0-0.104,0.037-0.194,0.113-0.269c0.14-0.141,0.392-0.142,0.536,0
	c0.075,0.076,0.113,0.166,0.113,0.269C253.165,91.349,253.126,91.439,253.054,91.514z"/>
<polygon id="blyskawica_2_" fill="#CEEBF2" points="246.585,82.91 244.248,83.086 245.705,79.45 244.534,79.111 243.704,83.552 
	245.204,83.712 244.686,85.551 243.833,85.354 244.194,87.874 246.048,85.89 245.188,85.674 "/>
<path fill="#CEEBF2" d="M277.896,89.279c-0.227-0.021-0.44-0.074-0.637-0.156v2.522h0.66v-2.364L277.896,89.279z"/>
<path fill="#CEEBF2" d="M278.464,92.243c-0.072-0.071-0.157-0.108-0.254-0.108h-4.911c-0.097,0-0.18,0.037-0.254,0.108
	c-0.074,0.073-0.11,0.16-0.11,0.256s0.036,0.181,0.11,0.254c0.076,0.074,0.158,0.11,0.254,0.11h4.911
	c0.096,0,0.182-0.037,0.254-0.11c0.074-0.073,0.109-0.156,0.109-0.254S278.537,92.316,278.464,92.243z"/>
<path fill="#CEEBF2" d="M273.63,89.279l-0.039,0.002v2.364h0.66v-2.518C274.059,89.208,273.85,89.259,273.63,89.279z"/>
<path fill="#CEEBF2" d="M279.897,86.882c0-0.508-0.174-0.928-0.532-1.284c-0.342-0.342-0.757-0.52-1.23-0.532h-4.734
	c-0.493,0.013-0.916,0.19-1.255,0.532c-0.364,0.363-0.534,0.781-0.519,1.28c-0.016,0.503,0.155,0.925,0.518,1.288
	c0.189,0.183,0.402,0.319,0.632,0.407c0.244,0.085,0.517,0.118,0.802,0.099c0.387-0.037,0.71-0.2,0.961-0.488
	c0.257-0.305,0.367-0.625,0.333-0.98c-0.035-0.296-0.157-0.527-0.38-0.705c-0.237-0.192-0.494-0.271-0.792-0.236
	c-0.223,0.011-0.411,0.104-0.544,0.266c-0.137,0.159-0.195,0.347-0.175,0.559c0.009,0.147,0.069,0.265,0.192,0.366
	c0.132,0.103,0.273,0.144,0.438,0.136c0.217,0,0.319,0.153,0.325,0.295c0.004,0.143-0.084,0.301-0.287,0.313
	c-0.311,0.021-0.602-0.07-0.86-0.269c-0.257-0.216-0.397-0.484-0.416-0.794c-0.037-0.378,0.072-0.714,0.317-1
	c0.241-0.294,0.574-0.46,0.96-0.481c0.43-0.045,0.872,0.084,1.226,0.373c0.347,0.277,0.55,0.65,0.602,1.111
	c0.053,0.524-0.107,1.009-0.475,1.444c-0.063,0.072-0.131,0.14-0.201,0.202v2.862h0.66v-3.148h0.582v3.148h0.66v-2.874
	c-0.064-0.059-0.125-0.121-0.184-0.187c-0.37-0.422-0.532-0.904-0.479-1.44c0.036-0.46,0.233-0.836,0.588-1.122
	c0.368-0.298,0.774-0.419,1.244-0.37c0.376,0.021,0.703,0.189,0.944,0.485c0.239,0.274,0.35,0.609,0.331,0.991
	c-0.018,0.312-0.157,0.58-0.414,0.797c-0.26,0.199-0.554,0.291-0.864,0.271c-0.203-0.013-0.291-0.171-0.287-0.313
	c0.005-0.147,0.109-0.297,0.302-0.297c0.037,0.002,0.052,0.002,0.068,0.002c0.144,0,0.273-0.045,0.398-0.139
	c0.118-0.102,0.177-0.215,0.185-0.355c0.012-0.221-0.05-0.404-0.188-0.563c-0.135-0.169-0.311-0.259-0.523-0.269
	c-0.332-0.035-0.562,0.032-0.813,0.236c-0.222,0.178-0.341,0.406-0.363,0.699c-0.037,0.369,0.07,0.691,0.329,0.984
	c0.253,0.289,0.577,0.453,0.967,0.49c0.253,0.016,0.507-0.009,0.73-0.078c0.251-0.088,0.483-0.23,0.688-0.431
	C279.723,87.807,279.897,87.387,279.897,86.882z"/>
<path fill="#CEEBF2" d="M261.649,75.005c-0.322-0.086-0.641-0.13-0.946-0.13c-0.574,0-1.133,0.155-1.661,0.461
	c-0.818,0.473-1.359,1.179-1.604,2.102c-0.248,0.918-0.134,1.768,0.344,2.598c0.476,0.824,1.178,1.367,2.086,1.611
	c0.301,0.081,0.605,0.122,0.902,0.122c0.589,0,1.165-0.159,1.712-0.476c0.829-0.48,1.352-1.158,1.599-2.077
	c0.243-0.913,0.131-1.771-0.341-2.622C263.248,75.771,262.564,75.25,261.649,75.005z M263.359,78.784l-0.565,0.327
	c0.128,0.433,0.209,0.874,0.243,1.313c0.004,0.064-0.015,0.124-0.055,0.169c-0.041,0.042-0.105,0.068-0.171,0.068
	c-0.093,0-0.207-0.054-0.218-0.205c-0.027-0.371-0.093-0.747-0.195-1.115l-1.542,0.89c0.265,0.273,0.555,0.519,0.861,0.734
	c0.083,0.059,0.115,0.153,0.087,0.247c-0.031,0.095-0.118,0.162-0.213,0.162c-0.045,0-0.089-0.014-0.131-0.043
	c-0.357-0.252-0.695-0.545-1.002-0.871l-0.566,0.328c-0.126,0.07-0.292-0.004-0.33-0.14c-0.026-0.101,0.015-0.194,0.106-0.248
	l0.49-0.282c-0.215-0.261-0.416-0.542-0.599-0.842l-1.078,0.622c-0.125,0.074-0.291,0-0.329-0.139
	c-0.025-0.1,0.015-0.194,0.106-0.247l1.079-0.622c-0.169-0.312-0.315-0.631-0.432-0.945l-0.494,0.285
	c-0.125,0.071-0.291-0.002-0.328-0.139c-0.026-0.101,0.014-0.194,0.105-0.247l0.572-0.331c-0.128-0.432-0.21-0.874-0.248-1.316
	c-0.005-0.065,0.014-0.124,0.055-0.169c0.041-0.044,0.105-0.07,0.173-0.07c0.092,0,0.204,0.053,0.217,0.203
	c0.029,0.376,0.098,0.755,0.2,1.123l1.536-0.887c-0.268-0.274-0.562-0.521-0.872-0.735c-0.084-0.058-0.118-0.153-0.088-0.246
	c0.042-0.138,0.221-0.203,0.341-0.12c0.366,0.252,0.708,0.546,1.017,0.872l0.564-0.326c0.124-0.072,0.291,0,0.329,0.14
	c0.026,0.1-0.014,0.194-0.106,0.246l-0.485,0.28c0.215,0.262,0.418,0.545,0.604,0.847l1.063-0.614
	c0.125-0.071,0.292,0.003,0.329,0.14c0.027,0.1-0.014,0.193-0.104,0.246l-1.064,0.614c0.168,0.31,0.312,0.626,0.429,0.939
	l0.487-0.28c0.126-0.071,0.291,0,0.328,0.139C263.49,78.639,263.45,78.732,263.359,78.784z"/>
<path fill="#CEEBF2" d="M255.935,77.042c-0.384,1.448-0.138,2.904,0.695,4.099c0.84,1.207,2.204,2.012,3.651,2.149l0.094,0.01v0.898
	h-2.279v0.718h5.339v-0.718h-2.341v-0.897l0.093-0.008c0.678-0.063,1.339-0.268,1.962-0.606l-0.355-0.625
	c-0.651,0.353-1.341,0.53-2.051,0.53c-1.315,0-2.586-0.631-3.398-1.688c-0.811-1.055-1.064-2.361-0.714-3.679
	c0.292-1.124,0.914-1.959,1.898-2.547l-0.356-0.623C257.025,74.735,256.272,75.74,255.935,77.042z"/>
<path fill="#CEEBF2" d="M261.611,77.579c-0.189-0.305-0.393-0.588-0.609-0.844l-1.705,0.983c0.114,0.318,0.257,0.637,0.425,0.949
	L261.611,77.579z"/>
<path fill="#CEEBF2" d="M262.257,78.907c-0.112-0.314-0.254-0.632-0.423-0.942l-1.89,1.09c0.186,0.301,0.388,0.583,0.604,0.839
	L262.257,78.907z"/>
</svg>
