<?xml version="1.0" encoding="utf-8"?>
<!-- Generator: Adobe Illustrator 15.1.0, SVG Export Plug-In . SVG Version: 6.00 Build 0)  -->
<!DOCTYPE svg PUBLIC "-//W3C//DTD SVG 1.1//EN" "http://www.w3.org/Graphics/SVG/1.1/DTD/svg11.dtd">
<svg version="1.1" id="Warstwa_1" xmlns="http://www.w3.org/2000/svg" xmlns:xlink="http://www.w3.org/1999/xlink" x="0px" y="0px"
	 width="146px" height="50px" viewBox="0 0 146 50" enable-background="new 0 0 146 50" xml:space="preserve">
<rect y="2" display="none" fill="#4D4D4D" width="1416" height="60"/>
<radialGradient id="SVGID_1_" cx="332.1904" cy="88.7178" r="632.9017" gradientTransform="matrix(1.0915 0 0 -1.1535 438.092 15.3295)" gradientUnits="userSpaceOnUse">
	<stop  offset="0" style="stop-color:#FFFFFF"/>
	<stop  offset="1" style="stop-color:#FFFFFF;stop-opacity:0"/>
</radialGradient>
<polygon display="none" opacity="0.5" fill="url(#SVGID_1_)" enable-background="new    " points="615.928,0 156.223,408 1416,408 
	1416,0 "/>
<path fill="#BAE32C" d="M31,30.85c0,1.933-2.125,2.15-4.027,2.15H5.342C3.438,33,2,32.782,2,30.85V10.481C2,8.551,3.438,7,5.342,7
	h21.631C28.875,7,31,8.552,31,10.481V30.85z"/>
<path fill="#41AAD3" d="M142,30.941c0,1.881-1.292,2.059-3.121,2.059h-12.585c-1.829,0-3.294-0.178-3.294-2.059v-20.55
	C123,8.51,124.465,7,126.294,7h12.585C140.708,7,142,8.51,142,10.391V30.941z"/>
<path fill="#FFAC27" d="M136,29.725c0,1.81-1.466,3.275-3.275,3.275h-12.449c-1.809,0-3.274-1.466-3.274-3.275v-19.45
	c0-1.809,1.466-3.275,3.274-3.275h12.449c1.81,0,3.275,1.466,3.275,3.275V29.725z"/>
<path fill="#7A7A7A" d="M20.78,26.273v4.199c0,0.663-0.15,1.16-0.45,1.492c-0.301,0.331-0.697,0.497-1.191,0.497
	c-0.479,0-0.867-0.166-1.162-0.497c-0.298-0.332-0.447-0.83-0.447-1.492v-5.033c0-0.793-0.026-1.41-0.08-1.851
	c-0.055-0.438-0.2-0.8-0.439-1.081c-0.24-0.281-0.617-0.423-1.133-0.423c-1.035,0-1.716,0.354-2.042,1.063
	c-0.329,0.711-0.492,1.729-0.492,3.056v4.269c0,0.655-0.147,1.151-0.444,1.486s-0.689,0.503-1.176,0.503
	c-0.477,0-0.869-0.168-1.175-0.503c-0.304-0.335-0.456-0.832-0.456-1.486v-9.035c0-0.594,0.137-1.045,0.411-1.354
	c0.272-0.309,0.633-0.462,1.082-0.462c0.433,0,0.792,0.144,1.081,0.433c0.29,0.29,0.436,0.688,0.436,1.197v0.303
	c0.547-0.656,1.133-1.138,1.756-1.447c0.625-0.309,1.32-0.463,2.084-0.463c0.793,0,1.476,0.158,2.047,0.476
	c0.57,0.315,1.041,0.794,1.412,1.435c0.533-0.647,1.104-1.128,1.711-1.44c0.609-0.312,1.283-0.468,2.024-0.468
	c0.864,0,1.608,0.17,2.233,0.509c0.624,0.34,1.09,0.825,1.4,1.458c0.27,0.57,0.404,1.469,0.404,2.695v6.166
	c0,0.662-0.15,1.159-0.452,1.491c-0.301,0.331-0.698,0.497-1.19,0.497c-0.479,0-0.87-0.168-1.176-0.503
	c-0.304-0.335-0.457-0.832-0.457-1.485v-5.311c0-0.68-0.027-1.225-0.086-1.631c-0.058-0.41-0.213-0.752-0.469-1.03
	c-0.255-0.276-0.64-0.417-1.156-0.417c-0.416,0-0.812,0.125-1.187,0.372s-0.665,0.578-0.873,0.995
	C20.896,23.984,20.78,24.925,20.78,26.273z"/>
<path fill="#7A7A7A" d="M44.938,30.254l-0.81-2.129h-6.894L36.423,30.3c-0.315,0.849-0.586,1.423-0.81,1.718
	c-0.225,0.297-0.59,0.445-1.098,0.445c-0.434,0-0.814-0.158-1.146-0.475c-0.333-0.315-0.498-0.674-0.498-1.075
	c0-0.231,0.039-0.472,0.116-0.718c0.076-0.246,0.203-0.588,0.382-1.03l4.337-11.012c0.123-0.316,0.271-0.695,0.443-1.139
	c0.176-0.443,0.36-0.812,0.558-1.105s0.455-0.53,0.774-0.711c0.319-0.182,0.716-0.271,1.186-0.271c0.479,0,0.878,0.09,1.197,0.271
	c0.318,0.181,0.578,0.415,0.775,0.701c0.196,0.285,0.363,0.591,0.498,0.919c0.135,0.329,0.307,0.765,0.514,1.314l4.432,10.943
	c0.348,0.833,0.521,1.438,0.521,1.815c0,0.395-0.166,0.754-0.494,1.082c-0.326,0.328-0.723,0.492-1.184,0.492
	c-0.271,0-0.502-0.047-0.695-0.145c-0.192-0.096-0.354-0.228-0.485-0.394s-0.272-0.42-0.423-0.763
	C45.175,30.818,45.046,30.516,44.938,30.254z M38.136,25.546h5.066l-2.558-7L38.136,25.546z"/>
<path fill="#7A7A7A" d="M59.109,30.682v-0.404c-0.379,0.479-0.775,0.881-1.191,1.203c-0.416,0.324-0.872,0.564-1.365,0.724
	c-0.494,0.157-1.057,0.237-1.688,0.237c-0.763,0-1.449-0.158-2.054-0.476c-0.605-0.315-1.074-0.752-1.404-1.307
	c-0.395-0.671-0.59-1.636-0.59-2.892v-6.26c0-0.632,0.142-1.104,0.428-1.417c0.286-0.312,0.663-0.468,1.133-0.468
	c0.479,0,0.864,0.158,1.157,0.473c0.294,0.317,0.438,0.787,0.438,1.412v5.055c0,0.734,0.062,1.349,0.186,1.846
	c0.125,0.497,0.346,0.888,0.665,1.169c0.321,0.28,0.754,0.422,1.302,0.422c0.532,0,1.034-0.158,1.503-0.474
	c0.472-0.317,0.813-0.729,1.03-1.239c0.178-0.448,0.267-1.427,0.267-2.938v-3.841c0-0.625,0.147-1.095,0.44-1.411
	c0.292-0.315,0.674-0.474,1.145-0.474s0.848,0.155,1.133,0.468c0.287,0.312,0.429,0.785,0.429,1.417v9.151
	c0,0.602-0.138,1.052-0.411,1.354c-0.274,0.301-0.626,0.451-1.059,0.451s-0.787-0.156-1.069-0.468
	C59.25,31.682,59.109,31.244,59.109,30.682z"/>
<path fill="#7A7A7A" d="M65.393,19.9h0.347v-1.897c0-0.509,0.012-0.908,0.04-1.197c0.027-0.289,0.102-0.538,0.226-0.746
	c0.123-0.216,0.3-0.392,0.532-0.526c0.23-0.135,0.488-0.203,0.775-0.203c0.399,0,0.763,0.151,1.086,0.452
	c0.216,0.2,0.353,0.445,0.41,0.735c0.059,0.289,0.086,0.7,0.086,1.232v2.15h1.158c0.447,0,0.788,0.105,1.022,0.317
	c0.235,0.212,0.354,0.485,0.354,0.816c0,0.424-0.169,0.722-0.505,0.892c-0.335,0.169-0.815,0.252-1.44,0.252h-0.59v5.809
	c0,0.494,0.02,0.875,0.053,1.14c0.033,0.267,0.127,0.481,0.277,0.649c0.149,0.164,0.396,0.246,0.734,0.246
	c0.186,0,0.436-0.03,0.752-0.099c0.316-0.063,0.562-0.097,0.74-0.097c0.255,0,0.482,0.101,0.688,0.306s0.308,0.458,0.308,0.759
	c0,0.508-0.277,0.898-0.833,1.168c-0.557,0.27-1.354,0.404-2.396,0.404c-0.987,0-1.735-0.166-2.243-0.497
	c-0.511-0.332-0.844-0.791-1.002-1.376c-0.158-0.586-0.235-1.369-0.235-2.349v-6.063H65.32c-0.455,0-0.803-0.105-1.041-0.322
	c-0.24-0.217-0.36-0.489-0.36-0.821c0-0.331,0.125-0.604,0.377-0.816C64.547,20.006,64.913,19.9,65.393,19.9z"/>
<path fill="#7A7A7A" d="M76.691,16.846v4.686c0.401-0.462,0.793-0.828,1.176-1.099c0.382-0.271,0.803-0.474,1.267-0.607
	c0.462-0.135,0.96-0.202,1.493-0.202c0.802,0,1.514,0.169,2.134,0.509c0.621,0.34,1.109,0.832,1.464,1.48
	c0.224,0.378,0.373,0.799,0.451,1.267c0.076,0.466,0.115,1.004,0.115,1.613v6.051c0,0.632-0.145,1.111-0.434,1.435
	s-0.674,0.485-1.15,0.485c-1.042,0-1.562-0.641-1.562-1.92V25.21c0-1.011-0.149-1.787-0.451-2.331
	c-0.301-0.544-0.871-0.816-1.711-0.816c-0.562,0-1.069,0.16-1.521,0.481c-0.451,0.319-0.789,0.756-1.013,1.312
	c-0.169,0.471-0.255,1.308-0.255,2.511v4.176c0,0.625-0.141,1.101-0.422,1.428c-0.281,0.328-0.674,0.492-1.174,0.492
	c-1.041,0-1.562-0.642-1.562-1.92V16.846c0-0.639,0.137-1.12,0.409-1.44c0.274-0.32,0.658-0.48,1.152-0.48
	c0.5,0,0.893,0.163,1.174,0.485C76.553,15.735,76.691,16.215,76.691,16.846z"/>
<path fill="#7A7A7A" d="M99.738,26.043c0,0.941-0.147,1.809-0.44,2.604c-0.294,0.795-0.718,1.476-1.272,2.047
	c-0.555,0.57-1.217,1.009-1.988,1.313c-0.771,0.304-1.639,0.457-2.604,0.457c-0.955,0-1.816-0.153-2.58-0.462
	c-0.765-0.309-1.424-0.75-1.983-1.325s-0.981-1.254-1.272-2.036c-0.289-0.783-0.434-1.648-0.434-2.598
	c0-0.957,0.146-1.831,0.439-2.626c0.293-0.796,0.711-1.474,1.261-2.037c0.546-0.562,1.21-0.996,1.989-1.3
	c0.78-0.305,1.639-0.457,2.58-0.457c0.957,0,1.824,0.154,2.604,0.462c0.777,0.31,1.445,0.748,2.001,1.319
	c0.555,0.57,0.978,1.248,1.266,2.035S99.738,25.094,99.738,26.043z M96.566,26.043c0-1.288-0.282-2.291-0.85-3.007
	c-0.566-0.718-1.329-1.076-2.285-1.076c-0.617,0-1.16,0.161-1.632,0.479c-0.469,0.32-0.833,0.793-1.086,1.418
	c-0.255,0.625-0.382,1.353-0.382,2.186c0,0.826,0.125,1.546,0.376,2.163c0.251,0.616,0.608,1.09,1.076,1.417
	c0.466,0.328,1.017,0.492,1.647,0.492c0.957,0,1.719-0.36,2.285-1.082C96.284,28.312,96.566,27.314,96.566,26.043z"/>
<path fill="#7A7A7A" d="M105.359,27.905v2.638c0,0.641-0.15,1.12-0.451,1.439s-0.684,0.479-1.145,0.479
	c-0.457,0-0.83-0.162-1.123-0.485c-0.293-0.324-0.439-0.803-0.439-1.435V21.75c0-1.418,0.513-2.127,1.539-2.127
	c0.523,0,0.902,0.166,1.134,0.497c0.231,0.332,0.358,0.821,0.382,1.469c0.378-0.647,0.766-1.137,1.162-1.469
	c0.396-0.331,0.928-0.497,1.59-0.497c0.664,0,1.309,0.166,1.934,0.497c0.625,0.332,0.938,0.771,0.938,1.319
	c0,0.385-0.135,0.703-0.4,0.953c-0.267,0.25-0.553,0.377-0.862,0.377c-0.114,0-0.394-0.072-0.839-0.215
	c-0.442-0.144-0.834-0.213-1.174-0.213c-0.463,0-0.84,0.121-1.134,0.364c-0.292,0.243-0.52,0.603-0.682,1.081
	c-0.161,0.479-0.274,1.047-0.335,1.706C105.391,26.152,105.359,26.957,105.359,27.905z"/>
<path fill="#6D6E70" d="M20.78,26.273v4.199c0,0.663-0.15,1.16-0.45,1.492c-0.301,0.331-0.697,0.497-1.191,0.497
	c-0.479,0-0.867-0.166-1.162-0.497c-0.298-0.332-0.447-0.83-0.447-1.492v-5.033c0-0.793-0.026-1.41-0.08-1.851
	c-0.055-0.438-0.2-0.8-0.439-1.081c-0.24-0.281-0.617-0.423-1.133-0.423c-1.035,0-1.716,0.354-2.042,1.063
	c-0.329,0.711-0.492,1.729-0.492,3.056v4.269c0,0.655-0.147,1.151-0.444,1.486s-0.689,0.503-1.176,0.503
	c-0.477,0-0.869-0.168-1.175-0.503c-0.304-0.335-0.456-0.832-0.456-1.486v-9.035c0-0.594,0.137-1.045,0.411-1.354
	c0.272-0.309,0.633-0.462,1.082-0.462c0.433,0,0.792,0.144,1.081,0.433c0.29,0.29,0.436,0.688,0.436,1.197v0.303
	c0.547-0.656,1.133-1.138,1.756-1.447c0.625-0.309,1.32-0.463,2.084-0.463c0.793,0,1.476,0.158,2.047,0.476
	c0.57,0.315,1.041,0.794,1.412,1.435c0.533-0.647,1.104-1.128,1.711-1.44c0.609-0.312,1.283-0.468,2.024-0.468
	c0.864,0,1.608,0.17,2.233,0.509c0.624,0.34,1.09,0.825,1.4,1.458c0.27,0.57,0.404,1.469,0.404,2.695v6.166
	c0,0.662-0.15,1.159-0.452,1.491c-0.301,0.331-0.698,0.497-1.19,0.497c-0.479,0-0.87-0.168-1.176-0.503
	c-0.304-0.335-0.457-0.832-0.457-1.485v-5.311c0-0.68-0.027-1.225-0.086-1.631c-0.058-0.41-0.213-0.752-0.469-1.03
	c-0.255-0.276-0.64-0.417-1.156-0.417c-0.416,0-0.812,0.125-1.187,0.372s-0.665,0.578-0.873,0.995
	C20.896,23.984,20.78,24.925,20.78,26.273z"/>
<path fill="#D0D2D3" d="M44.938,30.254l-0.81-2.129h-6.894L36.423,30.3c-0.315,0.849-0.586,1.423-0.81,1.718
	c-0.225,0.297-0.59,0.445-1.098,0.445c-0.434,0-0.814-0.158-1.146-0.475c-0.333-0.315-0.498-0.674-0.498-1.075
	c0-0.231,0.039-0.472,0.116-0.718c0.076-0.246,0.203-0.588,0.382-1.03l4.337-11.012c0.123-0.316,0.271-0.695,0.443-1.139
	c0.176-0.443,0.36-0.812,0.558-1.105s0.455-0.53,0.774-0.711c0.319-0.182,0.716-0.271,1.186-0.271c0.479,0,0.878,0.09,1.197,0.271
	c0.318,0.181,0.578,0.415,0.775,0.701c0.196,0.285,0.363,0.591,0.498,0.919c0.135,0.329,0.307,0.765,0.514,1.314l4.432,10.943
	c0.348,0.833,0.521,1.438,0.521,1.815c0,0.395-0.166,0.754-0.494,1.082c-0.326,0.328-0.723,0.492-1.184,0.492
	c-0.271,0-0.502-0.047-0.695-0.145c-0.192-0.096-0.354-0.228-0.485-0.394s-0.272-0.42-0.423-0.763
	C45.175,30.818,45.046,30.516,44.938,30.254z M38.136,25.546h5.066l-2.558-7L38.136,25.546z"/>
<path fill="#D0D2D3" d="M59.109,30.682v-0.404c-0.379,0.479-0.775,0.881-1.191,1.203c-0.416,0.324-0.872,0.564-1.365,0.724
	c-0.494,0.157-1.057,0.237-1.688,0.237c-0.763,0-1.449-0.158-2.054-0.476c-0.605-0.315-1.074-0.752-1.404-1.307
	c-0.395-0.671-0.59-1.636-0.59-2.892v-6.26c0-0.632,0.142-1.104,0.428-1.417c0.286-0.312,0.663-0.468,1.133-0.468
	c0.479,0,0.864,0.158,1.157,0.473c0.294,0.317,0.438,0.787,0.438,1.412v5.055c0,0.734,0.062,1.349,0.186,1.846
	c0.125,0.497,0.346,0.888,0.665,1.169c0.321,0.28,0.754,0.422,1.302,0.422c0.532,0,1.034-0.158,1.503-0.474
	c0.472-0.317,0.813-0.729,1.03-1.239c0.178-0.448,0.267-1.427,0.267-2.938v-3.841c0-0.625,0.147-1.095,0.44-1.411
	c0.292-0.315,0.674-0.474,1.145-0.474s0.848,0.155,1.133,0.468c0.287,0.312,0.429,0.785,0.429,1.417v9.151
	c0,0.602-0.138,1.052-0.411,1.354c-0.274,0.301-0.626,0.451-1.059,0.451s-0.787-0.156-1.069-0.468
	C59.25,31.682,59.109,31.244,59.109,30.682z"/>
<path fill="#D0D2D3" d="M65.393,19.9h0.347v-1.897c0-0.509,0.012-0.908,0.04-1.197c0.027-0.289,0.102-0.538,0.226-0.746
	c0.123-0.216,0.3-0.392,0.532-0.526c0.23-0.135,0.488-0.203,0.775-0.203c0.399,0,0.763,0.151,1.086,0.452
	c0.216,0.2,0.353,0.445,0.41,0.735c0.059,0.289,0.086,0.7,0.086,1.232v2.15h1.158c0.447,0,0.788,0.105,1.022,0.317
	c0.235,0.212,0.354,0.485,0.354,0.816c0,0.424-0.169,0.722-0.505,0.892c-0.335,0.169-0.815,0.252-1.44,0.252h-0.59v5.809
	c0,0.494,0.02,0.875,0.053,1.14c0.033,0.267,0.127,0.481,0.277,0.649c0.149,0.164,0.396,0.246,0.734,0.246
	c0.186,0,0.436-0.03,0.752-0.099c0.316-0.063,0.562-0.097,0.74-0.097c0.255,0,0.482,0.101,0.688,0.306s0.308,0.458,0.308,0.759
	c0,0.508-0.277,0.898-0.833,1.168c-0.557,0.27-1.354,0.404-2.396,0.404c-0.987,0-1.735-0.166-2.243-0.497
	c-0.511-0.332-0.844-0.791-1.002-1.376c-0.158-0.586-0.235-1.369-0.235-2.349v-6.063H65.32c-0.455,0-0.803-0.105-1.041-0.322
	c-0.24-0.217-0.36-0.489-0.36-0.821c0-0.331,0.125-0.604,0.377-0.816C64.547,20.006,64.913,19.9,65.393,19.9z"/>
<path fill="#D0D2D3" d="M76.691,16.846v4.686c0.401-0.462,0.793-0.828,1.176-1.099c0.382-0.271,0.803-0.474,1.267-0.607
	c0.462-0.135,0.96-0.202,1.493-0.202c0.802,0,1.514,0.169,2.134,0.509c0.621,0.34,1.109,0.832,1.464,1.48
	c0.224,0.378,0.373,0.799,0.451,1.267c0.076,0.466,0.115,1.004,0.115,1.613v6.051c0,0.632-0.145,1.111-0.434,1.435
	s-0.674,0.485-1.15,0.485c-1.042,0-1.562-0.641-1.562-1.92V25.21c0-1.011-0.149-1.787-0.451-2.331
	c-0.301-0.544-0.871-0.816-1.711-0.816c-0.562,0-1.069,0.16-1.521,0.481c-0.451,0.319-0.789,0.756-1.013,1.312
	c-0.169,0.471-0.255,1.308-0.255,2.511v4.176c0,0.625-0.141,1.101-0.422,1.428c-0.281,0.328-0.674,0.492-1.174,0.492
	c-1.041,0-1.562-0.642-1.562-1.92V16.846c0-0.639,0.137-1.12,0.409-1.44c0.274-0.32,0.658-0.48,1.152-0.48
	c0.5,0,0.893,0.163,1.174,0.485C76.553,15.735,76.691,16.215,76.691,16.846z"/>
<path fill="#D0D2D3" d="M99.738,26.043c0,0.941-0.147,1.809-0.44,2.604c-0.294,0.795-0.718,1.476-1.272,2.047
	c-0.555,0.57-1.217,1.009-1.988,1.313c-0.771,0.304-1.639,0.457-2.604,0.457c-0.955,0-1.816-0.153-2.58-0.462
	c-0.765-0.309-1.424-0.75-1.983-1.325s-0.981-1.254-1.272-2.036c-0.289-0.783-0.434-1.648-0.434-2.598
	c0-0.957,0.146-1.831,0.439-2.626c0.293-0.796,0.711-1.474,1.261-2.037c0.546-0.562,1.21-0.996,1.989-1.3
	c0.78-0.305,1.639-0.457,2.58-0.457c0.957,0,1.824,0.154,2.604,0.462c0.777,0.31,1.445,0.748,2.001,1.319
	c0.555,0.57,0.978,1.248,1.266,2.035S99.738,25.094,99.738,26.043z M96.566,26.043c0-1.288-0.282-2.291-0.85-3.007
	c-0.566-0.718-1.329-1.076-2.285-1.076c-0.617,0-1.16,0.161-1.632,0.479c-0.469,0.32-0.833,0.793-1.086,1.418
	c-0.255,0.625-0.382,1.353-0.382,2.186c0,0.826,0.125,1.546,0.376,2.163c0.251,0.616,0.608,1.09,1.076,1.417
	c0.466,0.328,1.017,0.492,1.647,0.492c0.957,0,1.719-0.36,2.285-1.082C96.284,28.312,96.566,27.314,96.566,26.043z"/>
<path fill="#D0D2D3" d="M105.359,27.905v2.638c0,0.641-0.15,1.12-0.451,1.439s-0.684,0.479-1.145,0.479
	c-0.457,0-0.83-0.162-1.123-0.485c-0.293-0.324-0.439-0.803-0.439-1.435V21.75c0-1.418,0.513-2.127,1.539-2.127
	c0.523,0,0.902,0.166,1.134,0.497c0.231,0.332,0.358,0.821,0.382,1.469c0.378-0.647,0.766-1.137,1.162-1.469
	c0.396-0.331,0.928-0.497,1.59-0.497c0.664,0,1.309,0.166,1.934,0.497c0.625,0.332,0.938,0.771,0.938,1.319
	c0,0.385-0.135,0.703-0.4,0.953c-0.267,0.25-0.553,0.377-0.862,0.377c-0.114,0-0.394-0.072-0.839-0.215
	c-0.442-0.144-0.834-0.213-1.174-0.213c-0.463,0-0.84,0.121-1.134,0.364c-0.292,0.243-0.52,0.603-0.682,1.081
	c-0.161,0.479-0.274,1.047-0.335,1.706C105.391,26.152,105.359,26.957,105.359,27.905z"/>
<path fill="#BAE32C" d="M132,30.941c0,1.881-1.749,2.059-3.553,2.059H116.35c-1.803,0-3.35-0.178-3.35-2.059v-20.55
	C113,8.51,114.547,7,116.35,7h12.098C130.251,7,132,8.51,132,10.391V30.941z"/>
<path fill="#A6A6A6" d="M4.123,41.934l-0.977-3.901v4.228c0,0.233-0.053,0.41-0.155,0.526c-0.103,0.118-0.241,0.176-0.413,0.176
	c-0.167,0-0.303-0.058-0.407-0.173c-0.104-0.116-0.157-0.292-0.157-0.529v-4.848c0-0.268,0.068-0.448,0.206-0.541
	c0.14-0.094,0.327-0.141,0.562-0.141h0.383c0.229,0,0.396,0.021,0.5,0.062s0.183,0.117,0.231,0.227s0.104,0.285,0.17,0.529
	l0.885,3.356l0.884-3.356c0.063-0.244,0.119-0.42,0.169-0.529c0.051-0.108,0.126-0.185,0.23-0.227
	c0.104-0.042,0.271-0.062,0.5-0.062h0.384c0.235,0,0.421,0.047,0.56,0.141c0.139,0.093,0.208,0.273,0.208,0.541v4.848
	c0,0.233-0.053,0.41-0.157,0.526c-0.104,0.118-0.242,0.176-0.416,0.176c-0.164,0-0.299-0.058-0.403-0.176
	C6.804,42.67,6.75,42.494,6.75,42.26v-4.228l-0.977,3.901c-0.062,0.254-0.113,0.44-0.155,0.56c-0.04,0.118-0.113,0.226-0.222,0.323
	c-0.107,0.098-0.256,0.146-0.447,0.146c-0.146,0-0.268-0.03-0.367-0.095c-0.1-0.062-0.178-0.143-0.232-0.239
	c-0.055-0.098-0.1-0.206-0.132-0.323C4.188,42.186,4.156,42.062,4.123,41.934z"/>
<path fill="#A6A6A6" d="M12.018,42.318v-0.146c-0.136,0.173-0.277,0.317-0.428,0.434c-0.15,0.119-0.312,0.205-0.49,0.262
	c-0.177,0.058-0.38,0.087-0.604,0.087c-0.275,0-0.521-0.058-0.739-0.172c-0.216-0.114-0.385-0.271-0.503-0.472
	C9.109,42.066,9.04,41.72,9.04,41.266v-2.261c0-0.228,0.051-0.399,0.153-0.512c0.102-0.113,0.238-0.169,0.406-0.169
	c0.172,0,0.312,0.057,0.416,0.17c0.105,0.113,0.158,0.283,0.158,0.51v1.827c0,0.264,0.021,0.487,0.067,0.666
	c0.044,0.18,0.124,0.321,0.239,0.422c0.113,0.103,0.27,0.153,0.465,0.153c0.191,0,0.373-0.057,0.541-0.172
	c0.17-0.113,0.293-0.264,0.369-0.446c0.065-0.162,0.098-0.515,0.098-1.062v-1.388c0-0.226,0.053-0.396,0.156-0.51
	c0.105-0.114,0.242-0.17,0.412-0.17c0.168,0,0.305,0.056,0.406,0.169c0.104,0.113,0.153,0.283,0.153,0.512v3.305
	c0,0.217-0.048,0.379-0.147,0.49c-0.098,0.108-0.224,0.162-0.38,0.162c-0.155,0-0.282-0.056-0.384-0.17
	C12.066,42.68,12.018,42.521,12.018,42.318z"/>
<path fill="#A6A6A6" d="M14.21,42.268V37.32c0-0.229,0.05-0.4,0.151-0.519c0.102-0.116,0.236-0.175,0.408-0.175
	c0.17,0,0.311,0.059,0.416,0.174c0.104,0.115,0.157,0.289,0.157,0.52v4.947c0,0.231-0.053,0.405-0.159,0.521
	c-0.107,0.115-0.246,0.173-0.414,0.173c-0.166,0-0.301-0.06-0.405-0.18C14.261,42.663,14.21,42.491,14.21,42.268z"/>
<path fill="#A6A6A6" d="M16.576,38.424h0.125v-0.685c0-0.185,0.004-0.328,0.015-0.433c0.009-0.104,0.036-0.193,0.081-0.271
	c0.043-0.077,0.108-0.142,0.189-0.188c0.084-0.05,0.178-0.074,0.279-0.074c0.145,0,0.273,0.055,0.391,0.162
	c0.076,0.073,0.126,0.162,0.146,0.267c0.022,0.104,0.032,0.252,0.032,0.444v0.777h0.416c0.16,0,0.283,0.039,0.368,0.115
	c0.084,0.077,0.126,0.175,0.126,0.296c0,0.151-0.061,0.26-0.18,0.321c-0.121,0.061-0.293,0.091-0.519,0.091h-0.211v2.098
	c0,0.179,0.005,0.315,0.021,0.412c0.011,0.097,0.045,0.173,0.1,0.234c0.054,0.06,0.143,0.09,0.263,0.09
	c0.066,0,0.157-0.013,0.271-0.036c0.112-0.023,0.2-0.035,0.264-0.035c0.093,0,0.174,0.037,0.248,0.11
	c0.073,0.073,0.11,0.166,0.11,0.274c0,0.185-0.1,0.324-0.299,0.422s-0.486,0.146-0.86,0.146c-0.354,0-0.624-0.06-0.806-0.18
	c-0.184-0.119-0.303-0.286-0.359-0.497c-0.057-0.212-0.085-0.495-0.085-0.85v-2.188h-0.149c-0.164,0-0.287-0.038-0.373-0.117
	c-0.086-0.078-0.13-0.177-0.13-0.295c0-0.121,0.046-0.219,0.136-0.296C16.273,38.462,16.404,38.424,16.576,38.424z"/>
<path fill="#A6A6A6" d="M20.1,37.792c-0.158,0-0.293-0.048-0.404-0.146c-0.112-0.098-0.168-0.235-0.168-0.414
	c0-0.162,0.057-0.295,0.171-0.399s0.25-0.157,0.401-0.157c0.146,0,0.275,0.047,0.39,0.143s0.171,0.232,0.171,0.416
	c0,0.175-0.057,0.312-0.167,0.41C20.381,37.743,20.251,37.792,20.1,37.792z M20.66,38.971v3.297c0,0.229-0.055,0.402-0.163,0.519
	c-0.108,0.118-0.245,0.176-0.41,0.176c-0.167,0-0.302-0.06-0.407-0.18c-0.103-0.119-0.154-0.291-0.154-0.515v-3.263
	c0-0.226,0.052-0.396,0.154-0.51c0.105-0.114,0.24-0.17,0.407-0.17c0.166,0,0.302,0.057,0.41,0.17
	C20.605,38.607,20.66,38.768,20.66,38.971z"/>
<path fill="#A6A6A6" d="M22.876,38.963v0.139c0.214-0.265,0.437-0.459,0.665-0.582c0.23-0.125,0.49-0.188,0.782-0.188
	c0.348,0,0.669,0.09,0.962,0.271c0.293,0.181,0.525,0.444,0.695,0.793c0.17,0.35,0.254,0.761,0.254,1.236
	c0,0.352-0.049,0.674-0.146,0.969c-0.098,0.293-0.232,0.539-0.404,0.738s-0.375,0.354-0.608,0.459
	c-0.234,0.108-0.486,0.162-0.752,0.162c-0.324,0-0.597-0.066-0.816-0.197c-0.221-0.13-0.431-0.322-0.631-0.576v1.715
	c0,0.5-0.181,0.75-0.543,0.75c-0.214,0-0.354-0.064-0.424-0.193c-0.07-0.13-0.104-0.318-0.104-0.566V38.97
	c0-0.217,0.047-0.379,0.141-0.485c0.096-0.107,0.224-0.16,0.388-0.16c0.16,0,0.292,0.054,0.392,0.164
	C22.826,38.598,22.876,38.757,22.876,38.963z M25.098,40.622c0-0.302-0.045-0.56-0.137-0.774c-0.09-0.217-0.218-0.383-0.379-0.498
	c-0.163-0.115-0.342-0.174-0.538-0.174c-0.313,0-0.577,0.125-0.791,0.372c-0.216,0.248-0.323,0.613-0.323,1.097
	c0,0.453,0.107,0.807,0.32,1.058c0.213,0.252,0.477,0.379,0.793,0.379c0.188,0,0.363-0.056,0.523-0.165s0.289-0.275,0.386-0.495
	C25.051,41.199,25.098,40.934,25.098,40.622z"/>
<path fill="#A6A6A6" d="M27.146,42.268V37.32c0-0.229,0.049-0.4,0.15-0.519c0.102-0.116,0.237-0.175,0.409-0.175
	c0.171,0,0.31,0.059,0.415,0.174s0.158,0.289,0.158,0.52v4.947c0,0.231-0.055,0.405-0.16,0.521
	c-0.105,0.115-0.244,0.173-0.413,0.173c-0.167,0-0.301-0.06-0.405-0.18C27.198,42.663,27.146,42.491,27.146,42.268z"/>
<path fill="#A6A6A6" d="M32.314,42.318c-0.272,0.215-0.539,0.375-0.793,0.481c-0.256,0.108-0.543,0.162-0.861,0.162
	c-0.291,0-0.546-0.058-0.766-0.173c-0.221-0.116-0.392-0.273-0.51-0.471c-0.119-0.198-0.178-0.412-0.178-0.644
	c0-0.312,0.097-0.579,0.294-0.797c0.196-0.221,0.466-0.369,0.812-0.444c0.071-0.017,0.25-0.054,0.533-0.113
	c0.286-0.059,0.53-0.111,0.733-0.16c0.204-0.049,0.425-0.108,0.664-0.178c-0.015-0.301-0.076-0.521-0.181-0.662
	c-0.107-0.141-0.328-0.211-0.664-0.211c-0.287,0-0.504,0.041-0.648,0.121c-0.145,0.082-0.27,0.201-0.374,0.363
	c-0.103,0.161-0.178,0.27-0.221,0.319c-0.042,0.052-0.136,0.078-0.276,0.078c-0.126,0-0.236-0.041-0.329-0.123
	c-0.093-0.083-0.139-0.188-0.139-0.315c0-0.201,0.071-0.396,0.212-0.586c0.141-0.189,0.361-0.345,0.66-0.468
	s0.671-0.185,1.117-0.185c0.5,0,0.891,0.06,1.175,0.179c0.286,0.118,0.487,0.305,0.604,0.562c0.117,0.258,0.176,0.598,0.176,1.021
	c0,0.267,0,0.495-0.002,0.682s-0.002,0.394-0.006,0.622c0,0.214,0.035,0.438,0.105,0.67c0.072,0.233,0.105,0.383,0.105,0.45
	c0,0.117-0.056,0.224-0.164,0.319c-0.109,0.096-0.233,0.145-0.373,0.145c-0.114,0-0.229-0.056-0.344-0.165
	C32.562,42.688,32.443,42.527,32.314,42.318z M32.243,40.667c-0.167,0.062-0.409,0.127-0.726,0.194
	c-0.317,0.068-0.537,0.119-0.658,0.152c-0.123,0.03-0.238,0.092-0.351,0.187c-0.11,0.094-0.166,0.224-0.166,0.391
	c0,0.173,0.064,0.32,0.196,0.441c0.129,0.12,0.3,0.182,0.51,0.182c0.227,0,0.432-0.05,0.623-0.147
	c0.188-0.1,0.329-0.228,0.416-0.383c0.104-0.173,0.155-0.457,0.155-0.852V40.667z"/>
<path fill="#A6A6A6" d="M34.355,38.424h0.125v-0.685c0-0.185,0.004-0.328,0.015-0.433c0.009-0.104,0.036-0.193,0.08-0.271
	c0.045-0.077,0.108-0.142,0.19-0.188c0.084-0.05,0.178-0.074,0.279-0.074c0.145,0,0.273,0.055,0.391,0.162
	c0.078,0.073,0.127,0.162,0.146,0.267c0.021,0.104,0.031,0.252,0.031,0.444v0.777h0.417c0.159,0,0.282,0.039,0.366,0.115
	c0.084,0.077,0.127,0.175,0.127,0.296c0,0.151-0.061,0.26-0.18,0.321c-0.121,0.061-0.293,0.091-0.518,0.091h-0.213v2.098
	c0,0.179,0.007,0.315,0.02,0.412c0.014,0.097,0.045,0.173,0.1,0.234c0.055,0.06,0.142,0.09,0.265,0.09
	c0.065,0,0.155-0.013,0.271-0.036c0.112-0.023,0.201-0.035,0.266-0.035c0.09,0,0.174,0.037,0.247,0.11s0.11,0.166,0.11,0.274
	c0,0.185-0.101,0.324-0.3,0.422c-0.2,0.098-0.485,0.146-0.86,0.146c-0.354,0-0.623-0.06-0.806-0.18
	c-0.181-0.119-0.302-0.286-0.358-0.497c-0.056-0.212-0.086-0.495-0.086-0.85v-2.188h-0.148c-0.164,0-0.288-0.038-0.374-0.117
	c-0.085-0.078-0.129-0.177-0.129-0.295c0-0.121,0.045-0.219,0.135-0.296C34.053,38.462,34.184,38.424,34.355,38.424z"/>
<path fill="#A6A6A6" d="M37.213,38.424h0.27v-0.342c0-0.357,0.043-0.641,0.136-0.852c0.089-0.209,0.241-0.363,0.457-0.459
	c0.213-0.097,0.508-0.145,0.881-0.145c0.663,0,0.993,0.163,0.993,0.49c0,0.104-0.035,0.195-0.104,0.27
	c-0.07,0.076-0.15,0.113-0.246,0.113c-0.043,0-0.119-0.008-0.228-0.025c-0.106-0.017-0.199-0.024-0.272-0.024
	c-0.205,0-0.338,0.061-0.396,0.182c-0.059,0.122-0.087,0.295-0.087,0.521v0.271h0.278c0.432,0,0.647,0.131,0.647,0.393
	c0,0.187-0.058,0.307-0.173,0.355c-0.114,0.051-0.271,0.075-0.475,0.075h-0.278v3.021c0,0.227-0.052,0.397-0.159,0.518
	c-0.107,0.119-0.245,0.177-0.414,0.177c-0.161,0-0.294-0.06-0.402-0.177c-0.104-0.119-0.158-0.291-0.158-0.518v-3.021H37.17
	c-0.168,0-0.299-0.038-0.39-0.115s-0.138-0.176-0.138-0.298C36.643,38.561,36.833,38.424,37.213,38.424z"/>
<path fill="#A6A6A6" d="M44.27,40.645c0,0.338-0.054,0.652-0.158,0.938c-0.105,0.288-0.258,0.534-0.457,0.74
	c-0.2,0.207-0.438,0.364-0.715,0.475c-0.276,0.109-0.588,0.165-0.935,0.165c-0.343,0-0.651-0.056-0.925-0.167
	c-0.275-0.11-0.514-0.271-0.713-0.478c-0.2-0.207-0.352-0.453-0.457-0.735c-0.104-0.282-0.156-0.595-0.156-0.938
	c0-0.346,0.053-0.662,0.158-0.949s0.256-0.531,0.453-0.735c0.195-0.204,0.435-0.36,0.715-0.471c0.277-0.11,0.588-0.164,0.925-0.164
	c0.343,0,0.655,0.056,0.935,0.166c0.28,0.11,0.52,0.271,0.719,0.477c0.201,0.207,0.352,0.451,0.455,0.736
	C44.217,39.986,44.27,40.301,44.27,40.645z M43.13,40.645c0-0.467-0.103-0.83-0.305-1.086c-0.204-0.261-0.478-0.391-0.82-0.391
	c-0.222,0-0.417,0.059-0.585,0.174c-0.169,0.116-0.3,0.287-0.391,0.512c-0.092,0.227-0.137,0.488-0.137,0.791
	c0,0.299,0.043,0.559,0.135,0.78c0.09,0.224,0.218,0.394,0.385,0.513c0.168,0.119,0.366,0.178,0.593,0.178
	c0.343,0,0.616-0.129,0.82-0.391C43.029,41.464,43.13,41.104,43.13,40.645z"/>
<path fill="#A6A6A6" d="M46.287,41.314v0.953c0,0.231-0.055,0.405-0.161,0.521c-0.108,0.115-0.247,0.173-0.411,0.173
	c-0.165,0-0.299-0.058-0.404-0.176c-0.104-0.116-0.156-0.29-0.156-0.519v-3.175c0-0.513,0.184-0.769,0.552-0.769
	c0.188,0,0.323,0.06,0.407,0.18c0.082,0.119,0.127,0.296,0.136,0.53c0.137-0.234,0.276-0.411,0.419-0.53
	c0.143-0.12,0.332-0.18,0.57-0.18s0.469,0.06,0.693,0.18c0.225,0.119,0.336,0.278,0.336,0.477c0,0.14-0.049,0.252-0.142,0.344
	c-0.097,0.091-0.199,0.137-0.312,0.137c-0.041,0-0.141-0.025-0.299-0.078c-0.16-0.052-0.302-0.076-0.423-0.076
	c-0.166,0-0.302,0.043-0.407,0.129c-0.104,0.09-0.186,0.219-0.244,0.392c-0.06,0.172-0.1,0.378-0.121,0.616
	C46.298,40.684,46.287,40.975,46.287,41.314z"/>
<path fill="#A6A6A6" d="M52.657,40.727v1.518c0,0.238-0.054,0.42-0.161,0.539s-0.251,0.18-0.428,0.18
	c-0.172,0-0.311-0.061-0.418-0.18c-0.106-0.119-0.16-0.301-0.16-0.539v-1.818c0-0.287-0.01-0.51-0.029-0.668
	c-0.018-0.158-0.072-0.289-0.157-0.391c-0.086-0.104-0.223-0.153-0.407-0.153c-0.371,0-0.615,0.128-0.733,0.384
	s-0.175,0.625-0.175,1.104v1.541c0,0.237-0.055,0.415-0.161,0.537c-0.105,0.12-0.246,0.182-0.423,0.182
	c-0.17,0-0.311-0.062-0.42-0.182c-0.11-0.122-0.166-0.3-0.166-0.537V38.98c0-0.215,0.051-0.379,0.147-0.49
	c0.099-0.11,0.228-0.166,0.39-0.166c0.154,0,0.283,0.052,0.388,0.156c0.104,0.104,0.155,0.248,0.155,0.433v0.108
	c0.196-0.236,0.408-0.41,0.631-0.522c0.224-0.11,0.474-0.167,0.748-0.167c0.285,0,0.529,0.057,0.734,0.172
	c0.205,0.114,0.374,0.287,0.508,0.518c0.19-0.233,0.396-0.407,0.614-0.521c0.218-0.112,0.46-0.169,0.726-0.169
	c0.31,0,0.578,0.062,0.802,0.184c0.225,0.123,0.392,0.299,0.503,0.526c0.098,0.206,0.145,0.53,0.145,0.974v2.228
	c0,0.239-0.053,0.42-0.16,0.539c-0.108,0.12-0.252,0.18-0.429,0.18c-0.172,0-0.312-0.062-0.422-0.182
	c-0.108-0.122-0.165-0.3-0.165-0.537v-1.918c0-0.245-0.011-0.442-0.029-0.589c-0.021-0.147-0.078-0.271-0.168-0.371
	c-0.092-0.102-0.229-0.151-0.416-0.151c-0.148,0-0.291,0.044-0.426,0.134c-0.134,0.09-0.238,0.209-0.314,0.359
	C52.699,39.898,52.657,40.238,52.657,40.727z"/>
<path fill="#A6A6A6" d="M61.702,40.923h-2.218c0.004,0.259,0.056,0.487,0.156,0.687c0.102,0.197,0.235,0.347,0.402,0.447
	c0.167,0.1,0.354,0.149,0.555,0.149c0.135,0,0.26-0.017,0.372-0.048c0.112-0.033,0.22-0.083,0.327-0.15
	c0.104-0.068,0.202-0.142,0.29-0.22s0.204-0.183,0.345-0.317c0.061-0.049,0.143-0.076,0.25-0.076c0.116,0,0.211,0.031,0.283,0.097
	c0.071,0.063,0.107,0.155,0.107,0.272c0,0.103-0.041,0.223-0.12,0.36c-0.082,0.138-0.202,0.271-0.364,0.397
	s-0.365,0.231-0.609,0.314c-0.246,0.084-0.527,0.126-0.847,0.126c-0.728,0-1.294-0.208-1.698-0.627
	c-0.404-0.418-0.606-0.983-0.606-1.701c0-0.337,0.05-0.649,0.149-0.938c0.1-0.287,0.246-0.535,0.437-0.74
	c0.19-0.207,0.427-0.364,0.706-0.475s0.589-0.166,0.93-0.166c0.443,0,0.823,0.095,1.141,0.283c0.316,0.188,0.555,0.43,0.711,0.729
	c0.158,0.298,0.237,0.602,0.237,0.91c0,0.287-0.081,0.475-0.245,0.559C62.229,40.881,61.999,40.923,61.702,40.923z M59.484,40.275
	h2.057c-0.027-0.39-0.132-0.682-0.312-0.875c-0.182-0.194-0.42-0.291-0.718-0.291c-0.282,0-0.514,0.099-0.694,0.295
	C59.634,39.602,59.523,39.891,59.484,40.275z"/>
<path fill="#A6A6A6" d="M66.034,40.473h-1.129v1.733c0,0.248-0.06,0.437-0.177,0.563c-0.114,0.127-0.262,0.192-0.438,0.192
	c-0.187,0-0.335-0.063-0.448-0.19c-0.113-0.125-0.171-0.312-0.171-0.558v-4.722c0-0.271,0.063-0.469,0.187-0.585
	c0.125-0.118,0.324-0.175,0.596-0.175h1.582c0.468,0,0.828,0.035,1.08,0.107c0.249,0.069,0.465,0.186,0.646,0.346
	c0.181,0.162,0.318,0.359,0.413,0.596c0.094,0.232,0.143,0.496,0.143,0.787c0,0.625-0.191,1.099-0.574,1.42
	C67.357,40.311,66.79,40.473,66.034,40.473z M65.734,37.663h-0.829v1.872h0.829c0.293,0,0.533-0.03,0.729-0.092
	c0.195-0.062,0.345-0.161,0.446-0.301c0.104-0.141,0.154-0.322,0.154-0.547c0-0.27-0.08-0.49-0.236-0.66
	C66.65,37.754,66.286,37.663,65.734,37.663z"/>
<path fill="#A6A6A6" d="M72.21,42.318v-0.146c-0.137,0.173-0.278,0.317-0.429,0.434c-0.149,0.119-0.313,0.205-0.49,0.262
	c-0.178,0.058-0.38,0.087-0.605,0.087c-0.274,0-0.521-0.058-0.738-0.172c-0.219-0.114-0.385-0.271-0.504-0.472
	c-0.142-0.244-0.213-0.591-0.213-1.045v-2.261c0-0.228,0.052-0.399,0.155-0.512c0.103-0.113,0.237-0.169,0.407-0.169
	c0.171,0,0.309,0.057,0.415,0.17c0.104,0.113,0.157,0.283,0.157,0.51v1.827c0,0.264,0.021,0.487,0.066,0.666
	c0.043,0.18,0.123,0.321,0.238,0.422c0.114,0.103,0.271,0.153,0.467,0.153c0.191,0,0.371-0.057,0.541-0.172
	c0.168-0.113,0.293-0.264,0.37-0.446c0.063-0.162,0.097-0.515,0.097-1.062v-1.388c0-0.226,0.052-0.396,0.156-0.51
	c0.105-0.114,0.243-0.17,0.411-0.17c0.169,0,0.306,0.056,0.408,0.169c0.101,0.113,0.151,0.283,0.151,0.512v3.305
	c0,0.217-0.047,0.379-0.146,0.49c-0.099,0.108-0.226,0.162-0.381,0.162s-0.281-0.056-0.384-0.17
	C72.26,42.68,72.21,42.521,72.21,42.318z"/>
<path fill="#A6A6A6" d="M75.448,37.279v1.742c0.214-0.224,0.431-0.394,0.653-0.513c0.22-0.118,0.493-0.177,0.822-0.177
	c0.375,0,0.706,0.09,0.99,0.27c0.283,0.181,0.503,0.44,0.659,0.781c0.157,0.342,0.235,0.747,0.235,1.215
	c0,0.344-0.043,0.661-0.131,0.95c-0.088,0.288-0.214,0.537-0.38,0.75c-0.165,0.213-0.366,0.375-0.604,0.492
	c-0.236,0.115-0.496,0.173-0.781,0.173c-0.174,0-0.339-0.021-0.493-0.062c-0.153-0.041-0.284-0.096-0.392-0.166
	c-0.108-0.067-0.201-0.137-0.277-0.211c-0.076-0.071-0.176-0.181-0.301-0.325v0.112c0,0.215-0.051,0.377-0.153,0.487
	c-0.103,0.109-0.231,0.165-0.39,0.165c-0.162,0-0.289-0.056-0.385-0.165c-0.096-0.11-0.144-0.272-0.144-0.487v-4.979
	c0-0.231,0.046-0.406,0.138-0.524c0.094-0.119,0.223-0.179,0.391-0.179c0.174,0,0.308,0.058,0.402,0.169
	C75.4,36.909,75.448,37.068,75.448,37.279z M75.503,40.667c0,0.455,0.104,0.804,0.31,1.048s0.477,0.366,0.812,0.366
	c0.286,0,0.531-0.125,0.737-0.375c0.205-0.249,0.309-0.606,0.309-1.072c0-0.3-0.042-0.56-0.128-0.776
	c-0.085-0.217-0.207-0.385-0.365-0.504c-0.157-0.119-0.343-0.178-0.553-0.178c-0.216,0-0.408,0.059-0.578,0.178
	c-0.168,0.119-0.301,0.291-0.397,0.516C75.551,40.091,75.503,40.357,75.503,40.667z"/>
<path fill="#A6A6A6" d="M79.607,42.268V37.32c0-0.229,0.05-0.4,0.149-0.519c0.101-0.116,0.238-0.175,0.409-0.175
	c0.173,0,0.311,0.059,0.416,0.174c0.104,0.115,0.158,0.289,0.158,0.52v4.947c0,0.231-0.053,0.405-0.16,0.521
	c-0.105,0.115-0.244,0.173-0.414,0.173c-0.166,0-0.301-0.06-0.405-0.18C79.657,42.663,79.607,42.491,79.607,42.268z"/>
<path fill="#A6A6A6" d="M82.484,37.792c-0.158,0-0.293-0.048-0.406-0.146c-0.111-0.098-0.167-0.235-0.167-0.414
	c0-0.162,0.057-0.295,0.171-0.399c0.115-0.104,0.25-0.157,0.4-0.157c0.147,0,0.276,0.047,0.391,0.143s0.171,0.232,0.171,0.416
	c0,0.175-0.056,0.312-0.166,0.41C82.77,37.743,82.637,37.792,82.484,37.792z M83.045,38.971v3.297c0,0.229-0.055,0.402-0.163,0.519
	c-0.106,0.118-0.243,0.176-0.409,0.176c-0.168,0-0.303-0.06-0.406-0.18c-0.104-0.119-0.155-0.291-0.155-0.515v-3.263
	c0-0.226,0.052-0.396,0.155-0.51s0.238-0.17,0.406-0.17c0.166,0,0.303,0.057,0.409,0.17C82.99,38.607,83.045,38.768,83.045,38.971z"
	/>
<path fill="#A6A6A6" d="M87.866,41.47c0,0.315-0.076,0.585-0.229,0.808c-0.15,0.225-0.376,0.396-0.675,0.512
	c-0.297,0.115-0.659,0.173-1.085,0.173c-0.407,0-0.756-0.062-1.047-0.188c-0.291-0.125-0.505-0.28-0.645-0.469
	c-0.139-0.188-0.207-0.378-0.207-0.568c0-0.125,0.045-0.231,0.133-0.321c0.088-0.088,0.201-0.133,0.337-0.133
	c0.118,0,0.21,0.03,0.274,0.089c0.062,0.059,0.125,0.14,0.183,0.245c0.116,0.204,0.256,0.356,0.417,0.457
	c0.162,0.1,0.384,0.149,0.662,0.149c0.227,0,0.412-0.051,0.559-0.152c0.146-0.103,0.217-0.219,0.217-0.35
	c0-0.201-0.076-0.347-0.225-0.438c-0.151-0.091-0.399-0.179-0.746-0.265c-0.391-0.097-0.707-0.199-0.953-0.306
	c-0.245-0.106-0.441-0.249-0.588-0.425c-0.146-0.174-0.221-0.391-0.221-0.646c0-0.229,0.068-0.445,0.205-0.648
	c0.135-0.203,0.336-0.365,0.6-0.486s0.583-0.181,0.958-0.181c0.293,0,0.558,0.03,0.792,0.091c0.232,0.062,0.429,0.143,0.585,0.246
	s0.274,0.218,0.358,0.344c0.082,0.125,0.123,0.248,0.123,0.368c0,0.131-0.045,0.237-0.131,0.321
	c-0.088,0.084-0.211,0.125-0.373,0.125c-0.115,0-0.215-0.033-0.295-0.1c-0.082-0.066-0.178-0.166-0.281-0.302
	c-0.086-0.11-0.188-0.2-0.305-0.267c-0.115-0.068-0.273-0.101-0.473-0.101c-0.205,0-0.375,0.044-0.511,0.132
	c-0.136,0.086-0.203,0.196-0.203,0.327c0,0.119,0.05,0.218,0.147,0.296c0.101,0.075,0.234,0.139,0.403,0.188
	c0.169,0.049,0.402,0.112,0.698,0.185c0.354,0.086,0.64,0.189,0.861,0.31c0.224,0.12,0.394,0.262,0.508,0.424
	C87.809,41.075,87.866,41.261,87.866,41.47z"/>
<path fill="#A6A6A6" d="M89.934,37.32v1.693c0.145-0.168,0.285-0.3,0.422-0.396c0.137-0.098,0.289-0.172,0.455-0.219
	c0.166-0.049,0.344-0.073,0.537-0.073c0.286,0,0.543,0.061,0.766,0.184c0.223,0.122,0.397,0.302,0.524,0.535
	c0.081,0.136,0.134,0.289,0.164,0.458c0.027,0.169,0.041,0.363,0.041,0.583v2.185c0,0.229-0.053,0.402-0.155,0.519
	c-0.104,0.118-0.242,0.176-0.412,0.176c-0.375,0-0.563-0.231-0.563-0.694v-1.927c0-0.364-0.053-0.645-0.161-0.841
	c-0.107-0.197-0.312-0.294-0.613-0.294c-0.203,0-0.385,0.058-0.547,0.172c-0.162,0.116-0.283,0.274-0.365,0.476
	c-0.061,0.168-0.09,0.472-0.09,0.906v1.508c0,0.227-0.051,0.397-0.151,0.518c-0.103,0.119-0.243,0.177-0.423,0.177
	c-0.371,0-0.561-0.231-0.561-0.694v-4.946c0-0.231,0.051-0.405,0.148-0.521s0.234-0.174,0.412-0.174c0.18,0,0.32,0.059,0.422,0.176
	C89.884,36.919,89.934,37.092,89.934,37.32z"/>
<path fill="#A6A6A6" d="M94.535,37.792c-0.158,0-0.292-0.048-0.405-0.146c-0.11-0.098-0.168-0.235-0.168-0.414
	c0-0.162,0.058-0.295,0.173-0.399c0.114-0.104,0.249-0.157,0.4-0.157c0.146,0,0.277,0.047,0.39,0.143
	c0.115,0.096,0.171,0.232,0.171,0.416c0,0.175-0.056,0.312-0.166,0.41C94.82,37.743,94.688,37.792,94.535,37.792z M95.096,38.971
	v3.297c0,0.229-0.053,0.402-0.162,0.519c-0.107,0.118-0.246,0.176-0.41,0.176c-0.166,0-0.301-0.06-0.405-0.18
	c-0.103-0.119-0.155-0.291-0.155-0.515v-3.263c0-0.226,0.053-0.396,0.155-0.51c0.104-0.114,0.239-0.17,0.405-0.17
	s0.303,0.057,0.41,0.17C95.043,38.607,95.096,38.768,95.096,38.971z"/>
<path fill="#A6A6A6" d="M97.297,38.955v0.138c0.199-0.265,0.417-0.459,0.654-0.583c0.238-0.125,0.51-0.185,0.816-0.185
	c0.299,0,0.565,0.065,0.801,0.194c0.236,0.133,0.412,0.317,0.527,0.558c0.075,0.14,0.123,0.289,0.146,0.45
	c0.021,0.162,0.031,0.369,0.031,0.619v2.123c0,0.229-0.051,0.402-0.154,0.519c-0.104,0.118-0.239,0.176-0.405,0.176
	c-0.169,0-0.306-0.06-0.412-0.18c-0.104-0.119-0.157-0.291-0.157-0.515v-1.9c0-0.376-0.052-0.664-0.155-0.864
	c-0.104-0.198-0.312-0.298-0.621-0.298c-0.202,0-0.386,0.061-0.552,0.182s-0.289,0.288-0.366,0.5
	c-0.056,0.17-0.083,0.487-0.083,0.952v1.431c0,0.23-0.055,0.404-0.161,0.521c-0.106,0.115-0.243,0.173-0.413,0.173
	c-0.163,0-0.298-0.06-0.402-0.18c-0.105-0.119-0.158-0.291-0.158-0.514v-3.297c0-0.218,0.047-0.38,0.142-0.486
	c0.094-0.107,0.222-0.16,0.386-0.16c0.1,0,0.188,0.023,0.27,0.07c0.082,0.049,0.146,0.119,0.193,0.213
	C97.273,38.702,97.297,38.818,97.297,38.955z"/>
<path fill="#A6A6A6" d="M105.575,39.159v3.313c0,0.379-0.041,0.704-0.121,0.979c-0.081,0.273-0.209,0.499-0.388,0.677
	c-0.176,0.179-0.408,0.312-0.695,0.397c-0.286,0.086-0.643,0.129-1.068,0.129c-0.391,0-0.738-0.055-1.047-0.165
	c-0.307-0.111-0.543-0.253-0.709-0.427c-0.167-0.174-0.25-0.354-0.25-0.537c0-0.14,0.047-0.252,0.141-0.34s0.207-0.131,0.34-0.131
	c0.168,0,0.312,0.073,0.437,0.221c0.062,0.076,0.125,0.15,0.19,0.229c0.063,0.078,0.136,0.143,0.216,0.196
	c0.078,0.055,0.174,0.096,0.284,0.122c0.111,0.025,0.236,0.039,0.382,0.039c0.293,0,0.521-0.041,0.683-0.122
	c0.163-0.083,0.276-0.198,0.34-0.345c0.065-0.148,0.104-0.307,0.115-0.476c0.01-0.168,0.02-0.438,0.025-0.813
	c-0.176,0.246-0.376,0.433-0.604,0.561c-0.229,0.129-0.5,0.191-0.815,0.191c-0.379,0-0.711-0.096-0.994-0.291
	c-0.284-0.194-0.502-0.469-0.654-0.818c-0.152-0.352-0.229-0.757-0.229-1.216c0-0.343,0.046-0.652,0.14-0.929
	c0.093-0.275,0.226-0.508,0.396-0.697c0.172-0.189,0.371-0.333,0.594-0.43c0.223-0.096,0.47-0.144,0.738-0.144
	c0.322,0,0.601,0.062,0.836,0.187c0.234,0.125,0.455,0.318,0.655,0.582v-0.153c0-0.198,0.05-0.351,0.146-0.459
	c0.098-0.108,0.221-0.163,0.374-0.163c0.22,0,0.363,0.07,0.437,0.214C105.539,38.682,105.575,38.889,105.575,39.159z M102.29,40.604
	c0,0.463,0.101,0.812,0.3,1.051c0.202,0.236,0.46,0.354,0.779,0.354c0.189,0,0.365-0.05,0.533-0.153
	c0.168-0.101,0.305-0.254,0.41-0.459c0.104-0.205,0.157-0.453,0.157-0.746c0-0.465-0.103-0.826-0.307-1.086
	c-0.203-0.258-0.472-0.39-0.804-0.39c-0.324,0-0.582,0.125-0.778,0.372C102.389,39.796,102.29,40.148,102.29,40.604z"/>
<path fill="#A6A6A6" d="M113.552,41.018c0,0.373-0.094,0.705-0.284,1s-0.468,0.526-0.832,0.693
	c-0.367,0.167-0.801,0.251-1.302,0.251c-0.6,0-1.096-0.114-1.487-0.343c-0.276-0.164-0.5-0.383-0.674-0.658
	c-0.174-0.273-0.26-0.54-0.26-0.8c0-0.15,0.051-0.28,0.156-0.388c0.104-0.106,0.236-0.16,0.396-0.16
	c0.129,0,0.239,0.043,0.329,0.125c0.089,0.084,0.167,0.207,0.231,0.373c0.076,0.195,0.16,0.357,0.251,0.49
	c0.09,0.129,0.216,0.237,0.379,0.322s0.378,0.129,0.644,0.129c0.366,0,0.664-0.086,0.893-0.258c0.227-0.171,0.343-0.385,0.343-0.641
	c0-0.203-0.062-0.368-0.187-0.495c-0.123-0.127-0.282-0.224-0.478-0.291c-0.194-0.066-0.456-0.138-0.782-0.214
	c-0.438-0.104-0.804-0.225-1.099-0.361s-0.529-0.325-0.701-0.562c-0.174-0.238-0.26-0.535-0.26-0.89
	c0-0.337,0.092-0.636,0.272-0.897c0.185-0.262,0.448-0.463,0.795-0.604c0.346-0.141,0.752-0.211,1.221-0.211
	c0.374,0,0.697,0.048,0.97,0.142c0.272,0.092,0.498,0.217,0.679,0.371c0.18,0.154,0.312,0.315,0.395,0.486
	c0.083,0.17,0.124,0.336,0.124,0.498c0,0.148-0.052,0.281-0.156,0.398c-0.103,0.119-0.231,0.179-0.388,0.179
	c-0.141,0-0.249-0.036-0.321-0.106c-0.074-0.07-0.153-0.188-0.239-0.35c-0.111-0.23-0.242-0.411-0.398-0.541
	c-0.154-0.13-0.404-0.194-0.747-0.194c-0.319,0-0.575,0.07-0.771,0.212c-0.196,0.139-0.293,0.309-0.293,0.506
	c0,0.123,0.034,0.229,0.101,0.316c0.066,0.089,0.158,0.166,0.273,0.23c0.116,0.063,0.234,0.113,0.354,0.15
	c0.118,0.037,0.314,0.09,0.59,0.158c0.343,0.081,0.653,0.17,0.931,0.268c0.279,0.098,0.518,0.217,0.711,0.355
	s0.346,0.314,0.457,0.529C113.497,40.448,113.552,40.709,113.552,41.018z"/>
<path fill="#A6A6A6" d="M118.764,40.645c0,0.338-0.053,0.652-0.158,0.938c-0.104,0.288-0.258,0.534-0.457,0.74
	c-0.199,0.207-0.437,0.364-0.715,0.475c-0.276,0.109-0.588,0.165-0.933,0.165c-0.344,0-0.653-0.056-0.927-0.167
	c-0.274-0.11-0.512-0.271-0.713-0.478c-0.2-0.209-0.353-0.453-0.456-0.735c-0.105-0.282-0.156-0.595-0.156-0.938
	c0-0.346,0.053-0.662,0.158-0.949c0.104-0.287,0.256-0.531,0.452-0.735c0.197-0.204,0.436-0.36,0.715-0.471s0.588-0.164,0.927-0.164
	c0.343,0,0.653,0.056,0.933,0.166c0.28,0.11,0.521,0.271,0.719,0.477c0.201,0.207,0.353,0.451,0.455,0.736
	C118.711,39.986,118.764,40.301,118.764,40.645z M117.626,40.645c0-0.467-0.103-0.83-0.306-1.086
	c-0.203-0.261-0.477-0.391-0.819-0.391c-0.222,0-0.417,0.059-0.587,0.174c-0.168,0.116-0.298,0.287-0.391,0.512
	c-0.09,0.227-0.137,0.488-0.137,0.791c0,0.299,0.045,0.559,0.135,0.78c0.09,0.224,0.219,0.394,0.386,0.513s0.366,0.178,0.593,0.178
	c0.343,0,0.616-0.129,0.818-0.391C117.523,41.462,117.626,41.104,117.626,40.645z"/>
<path fill="#A6A6A6" d="M119.656,42.268V37.32c0-0.229,0.05-0.4,0.152-0.519c0.101-0.116,0.236-0.175,0.407-0.175
	c0.173,0,0.312,0.059,0.416,0.174s0.157,0.289,0.157,0.52v4.947c0,0.231-0.053,0.405-0.16,0.521
	c-0.105,0.115-0.244,0.173-0.414,0.173c-0.166,0-0.301-0.06-0.404-0.18C119.708,42.663,119.656,42.491,119.656,42.268z"/>
<path fill="#A6A6A6" d="M124.906,42.318v-0.146c-0.135,0.173-0.279,0.317-0.428,0.434c-0.15,0.119-0.313,0.205-0.49,0.262
	c-0.178,0.058-0.381,0.087-0.607,0.087c-0.273,0-0.52-0.058-0.736-0.172c-0.218-0.114-0.387-0.271-0.504-0.472
	c-0.142-0.244-0.213-0.591-0.213-1.045v-2.261c0-0.228,0.051-0.399,0.155-0.512c0.101-0.113,0.238-0.169,0.406-0.169
	c0.171,0,0.311,0.057,0.417,0.17c0.104,0.113,0.156,0.283,0.156,0.51v1.827c0,0.264,0.022,0.487,0.067,0.666
	c0.043,0.18,0.123,0.321,0.239,0.422c0.115,0.103,0.271,0.153,0.467,0.153c0.191,0,0.371-0.057,0.539-0.172
	c0.17-0.113,0.294-0.264,0.371-0.446c0.062-0.162,0.095-0.515,0.095-1.062v-1.388c0-0.226,0.054-0.396,0.158-0.51
	s0.242-0.17,0.411-0.17c0.168,0,0.306,0.056,0.406,0.169c0.104,0.113,0.154,0.283,0.154,0.512v3.305c0,0.217-0.049,0.379-0.147,0.49
	c-0.099,0.108-0.224,0.162-0.38,0.162c-0.154,0-0.282-0.056-0.383-0.17C124.956,42.68,124.906,42.521,124.906,42.318z"/>
<path fill="#A6A6A6" d="M127.161,38.424h0.125v-0.685c0-0.185,0.006-0.328,0.015-0.433c0.01-0.104,0.036-0.193,0.081-0.271
	c0.044-0.077,0.108-0.142,0.191-0.188c0.082-0.05,0.175-0.074,0.276-0.074c0.146,0,0.274,0.055,0.392,0.162
	c0.077,0.073,0.126,0.162,0.147,0.267c0.021,0.104,0.031,0.252,0.031,0.444v0.777h0.415c0.161,0,0.284,0.039,0.369,0.115
	c0.083,0.077,0.126,0.175,0.126,0.296c0,0.151-0.061,0.26-0.182,0.321c-0.12,0.061-0.291,0.091-0.518,0.091h-0.211v2.098
	c0,0.179,0.007,0.315,0.02,0.412c0.012,0.097,0.045,0.173,0.099,0.234c0.055,0.06,0.142,0.09,0.265,0.09
	c0.067,0,0.156-0.013,0.271-0.036s0.2-0.035,0.266-0.035c0.091,0,0.173,0.037,0.247,0.11c0.073,0.073,0.11,0.166,0.11,0.274
	c0,0.185-0.101,0.324-0.302,0.422c-0.198,0.098-0.484,0.146-0.857,0.146c-0.355,0-0.624-0.06-0.807-0.18
	c-0.183-0.119-0.301-0.286-0.359-0.497c-0.057-0.212-0.084-0.495-0.084-0.85v-2.188h-0.15c-0.164,0-0.289-0.038-0.373-0.117
	c-0.086-0.078-0.129-0.177-0.129-0.295c0-0.121,0.045-0.219,0.135-0.296C126.857,38.462,126.989,38.424,127.161,38.424z"/>
<path fill="#A6A6A6" d="M130.684,37.792c-0.158,0-0.293-0.048-0.406-0.146c-0.112-0.098-0.168-0.235-0.168-0.414
	c0-0.162,0.058-0.295,0.172-0.399c0.115-0.104,0.249-0.157,0.4-0.157c0.147,0,0.276,0.047,0.391,0.143
	c0.113,0.096,0.171,0.232,0.171,0.416c0,0.175-0.056,0.312-0.166,0.41S130.836,37.792,130.684,37.792z M131.244,38.971v3.297
	c0,0.229-0.055,0.402-0.163,0.519c-0.108,0.118-0.244,0.176-0.412,0.176c-0.166,0-0.3-0.06-0.403-0.18
	c-0.104-0.119-0.156-0.291-0.156-0.515v-3.263c0-0.226,0.052-0.396,0.156-0.51c0.104-0.114,0.237-0.17,0.403-0.17
	c0.167,0,0.304,0.057,0.412,0.17C131.189,38.607,131.244,38.768,131.244,38.971z"/>
<path fill="#A6A6A6" d="M136.658,40.645c0,0.338-0.051,0.652-0.157,0.938c-0.106,0.288-0.258,0.534-0.458,0.74
	c-0.199,0.207-0.438,0.364-0.713,0.475c-0.278,0.109-0.589,0.165-0.936,0.165c-0.343,0-0.65-0.056-0.926-0.167
	c-0.273-0.11-0.512-0.271-0.712-0.478c-0.2-0.209-0.353-0.453-0.456-0.735c-0.105-0.282-0.156-0.595-0.156-0.938
	c0-0.346,0.051-0.662,0.157-0.949s0.257-0.531,0.453-0.735s0.437-0.36,0.715-0.471c0.279-0.11,0.589-0.164,0.927-0.164
	c0.344,0,0.654,0.056,0.935,0.166c0.278,0.11,0.519,0.271,0.718,0.477c0.198,0.207,0.35,0.451,0.454,0.736
	C136.607,39.986,136.658,40.301,136.658,40.645z M135.521,40.645c0-0.467-0.102-0.83-0.307-1.086
	c-0.204-0.261-0.476-0.391-0.82-0.391c-0.222,0-0.416,0.059-0.584,0.174c-0.17,0.116-0.3,0.287-0.391,0.512
	c-0.093,0.227-0.138,0.488-0.138,0.791c0,0.299,0.045,0.559,0.135,0.78c0.09,0.224,0.219,0.394,0.386,0.513
	c0.168,0.119,0.365,0.178,0.592,0.178c0.345,0,0.616-0.129,0.82-0.391C135.42,41.462,135.521,41.104,135.521,40.645z"/>
<path fill="#A6A6A6" d="M138.582,38.955v0.138c0.199-0.265,0.417-0.459,0.654-0.583c0.236-0.125,0.509-0.185,0.814-0.185
	c0.301,0,0.567,0.065,0.801,0.194c0.237,0.133,0.412,0.317,0.528,0.558c0.075,0.14,0.124,0.289,0.146,0.45
	c0.022,0.162,0.035,0.369,0.035,0.619v2.123c0,0.229-0.053,0.402-0.155,0.519c-0.104,0.118-0.239,0.176-0.405,0.176
	c-0.169,0-0.307-0.06-0.411-0.18c-0.106-0.119-0.157-0.291-0.157-0.515v-1.9c0-0.376-0.052-0.664-0.156-0.864
	c-0.104-0.198-0.312-0.298-0.621-0.298c-0.202,0-0.387,0.061-0.553,0.182s-0.287,0.288-0.365,0.5
	c-0.055,0.17-0.081,0.487-0.081,0.952v1.431c0,0.23-0.054,0.404-0.161,0.521c-0.107,0.115-0.245,0.173-0.414,0.173
	c-0.164,0-0.297-0.06-0.403-0.18c-0.104-0.119-0.157-0.291-0.157-0.514v-3.297c0-0.218,0.047-0.38,0.142-0.486
	c0.094-0.107,0.223-0.16,0.386-0.16c0.1,0,0.189,0.023,0.27,0.07c0.08,0.049,0.146,0.119,0.193,0.213
	C138.557,38.702,138.582,38.818,138.582,38.955z"/>
<rect id="_x3C_Cięcie_na_plasterki_x3E__27_" fill="none" width="146" height="50"/>
</svg>
