<?xml version="1.0" encoding="UTF-8" standalone="no"?>
<svg xmlns:rdf="http://www.w3.org/1999/02/22-rdf-syntax-ns#" xmlns="http://www.w3.org/2000/svg" version="1.1" xmlns:cc="http://creativecommons.org/ns#" xmlns:dc="http://purl.org/dc/elements/1.1/" viewBox="0 0 32 32">
 <metadata>
  <rdf:RDF>
   <cc:Work rdf:about="">
    <dc:format>image/svg+xml</dc:format>
    <dc:type rdf:resource="http://purl.org/dc/dcmitype/StillImage"/>
    <dc:title/>
   </cc:Work>
  </rdf:RDF>
 </metadata>
 <desc/>
 <path style="enable-background:accumulate;color:#000000;" fill-rule="nonzero" fill="#1b90fd" d="m7.03,4.1c-1.02,0-1.84,0.82-1.84,1.84v1.12h-1.9c-1.02,0-1.84,0.82-1.84,1.84v14.7c0,1.02,0.82,1.84,1.84,1.84h14.6c1.31,2.04,3.61,3.39,6.21,3.39,4.06,0,7.36-3.29,7.36-7.36,0-2.61-1.37-4.9-3.42-6.21v-2.3-4.11-2.96c0-1.02-0.82-1.84-1.84-1.84h-19.2zm18.2,12.9,0,3.36,3.36,0,0,0.0287,0,2.27,0,0.0287-3.36,0,0,3.36-0.0287,0-2.27,0-0.0287,0,0-3.36-3.36,0,0-2.3,3.36,0,0-3.36,2.33-0.0287z"/>
</svg>
