<?xml version="1.0" encoding="utf-8"?>
<!-- Generator: Adobe Illustrator 15.1.0, SVG Export Plug-In  -->
<!DOCTYPE svg PUBLIC "-//W3C//DTD SVG 1.1//EN" "http://www.w3.org/Graphics/SVG/1.1/DTD/svg11.dtd" [
	<!ENTITY ns_flows "http://ns.adobe.com/Flows/1.0/">
]>
<svg version="1.1"
	 xmlns="http://www.w3.org/2000/svg" xmlns:xlink="http://www.w3.org/1999/xlink" xmlns:a="http://ns.adobe.com/AdobeSVGViewerExtensions/3.0/"
	 x="0px" y="0px" width="280px" height="80px" viewBox="-1 -1 280 80" overflow="visible" enable-background="new -1 -1 280 80"
	 xml:space="preserve">
<defs>
</defs>
<path fill="#B9E22C" d="M57,48.866C57,52.702,53.338,54,49.558,54H6.628C2.849,54,0,52.702,0,48.866V8.444C0,4.609,2.849,0,6.628,0
	h42.93C53.338,0,57,4.609,57,8.444V48.866z"/>
<path fill="#41A9D2" d="M278,49.05c0,3.732-2.704,4.95-6.331,4.95h-24.977c-3.634,0-8.692-1.218-8.692-4.95V8.261
	C238,4.528,243.058,0,246.692,0h24.977C275.296,0,278,4.528,278,8.261V49.05z"/>
<path fill="#FFAB27" d="M267,49.147c0,3.592-2.298,4.853-5.885,4.853h-25.13c-3.587,0-7.985-1.261-7.985-4.853v-41.3
	C228,4.255,232.398,0,235.985,0h25.13C264.702,0,267,4.255,267,7.847V49.147z"/>
<path fill="#7A7A7A" d="M37.27,39.786v8.335c0,1.314-0.298,2.304-0.895,2.96c-0.599,0.66-1.383,0.989-2.364,0.989
	c-0.95,0-1.717-0.329-2.309-0.989c-0.59-0.656-0.884-1.646-0.884-2.96v-9.987c0-1.576-0.051-2.803-0.159-3.677
	c-0.106-0.871-0.399-1.586-0.873-2.144c-0.474-0.561-1.226-0.843-2.25-0.843c-2.05,0-3.403,0.708-4.053,2.115
	c-0.651,1.409-0.977,3.428-0.977,6.061v8.475c0,1.297-0.294,2.283-0.882,2.949c-0.588,0.667-1.365,1-2.331,1
	c-0.951,0-1.726-0.333-2.332-1c-0.604-0.666-0.905-1.652-0.905-2.949V30.189c0-1.178,0.272-2.075,0.815-2.688
	c0.542-0.613,1.259-0.917,2.145-0.917c0.858,0,1.573,0.287,2.148,0.86c0.574,0.571,0.859,1.363,0.859,2.378v0.597
	c1.087-1.302,2.251-2.259,3.489-2.871c1.24-0.61,2.62-0.917,4.136-0.917c1.578,0,2.93,0.314,4.062,0.94
	c1.134,0.627,2.065,1.578,2.803,2.848c1.057-1.286,2.19-2.24,3.399-2.857c1.207-0.622,2.546-0.931,4.018-0.931
	c1.713,0,3.189,0.335,4.433,1.008c1.238,0.674,2.162,1.639,2.778,2.897c0.534,1.129,0.802,2.914,0.802,5.347v12.238
	c0,1.314-0.298,2.304-0.895,2.96c-0.597,0.66-1.388,0.989-2.366,0.989c-0.948,0-1.726-0.333-2.33-1
	c-0.604-0.666-0.907-1.652-0.907-2.949v-10.54c0-1.348-0.056-2.426-0.173-3.236c-0.113-0.812-0.423-1.495-0.928-2.045
	c-0.507-0.548-1.273-0.83-2.298-0.83c-0.826,0-1.61,0.247-2.352,0.736c-0.745,0.492-1.321,1.151-1.734,1.976
	C37.5,35.24,37.27,37.107,37.27,39.786z"/>
<path fill="#7A7A7A" d="M85.219,47.683l-1.605-4.225H69.929l-1.607,4.318c-0.627,1.684-1.163,2.819-1.606,3.408
	c-0.446,0.59-1.175,0.886-2.184,0.886c-0.859,0-1.615-0.317-2.272-0.941c-0.662-0.626-0.986-1.341-0.986-2.138
	c0-0.457,0.075-0.932,0.227-1.42c0.155-0.491,0.406-1.172,0.76-2.046l8.609-21.858c0.244-0.626,0.54-1.378,0.885-2.263
	c0.344-0.878,0.713-1.608,1.103-2.192c0.389-0.578,0.902-1.051,1.537-1.41c0.636-0.358,1.419-0.539,2.355-0.539
	c0.948,0,1.741,0.18,2.373,0.539c0.635,0.358,1.15,0.826,1.542,1.392c0.388,0.566,0.715,1.173,0.985,1.822
	c0.267,0.651,0.61,1.519,1.024,2.606l8.789,21.721c0.692,1.651,1.037,2.854,1.037,3.604c0,0.779-0.329,1.495-0.976,2.146
	c-0.652,0.651-1.437,0.977-2.354,0.977c-0.537,0-0.996-0.096-1.379-0.287c-0.382-0.197-0.704-0.452-0.963-0.783
	c-0.258-0.329-0.539-0.835-0.839-1.516C85.69,48.803,85.435,48.204,85.219,47.683z M71.719,38.34h10.056L76.7,24.448L71.719,38.34z"
	/>
<path fill="#7A7A7A" d="M113.344,48.534V47.73c-0.748,0.949-1.536,1.745-2.367,2.388c-0.823,0.642-1.727,1.121-2.708,1.435
	c-0.977,0.313-2.094,0.472-3.351,0.472c-1.516,0-2.873-0.315-4.074-0.943c-1.201-0.627-2.132-1.49-2.788-2.594
	c-0.783-1.331-1.173-3.245-1.173-5.739v-12.42c0-1.256,0.283-2.195,0.848-2.812c0.568-0.621,1.318-0.931,2.251-0.931
	c0.948,0,1.717,0.313,2.297,0.939c0.58,0.63,0.872,1.561,0.872,2.804v10.034c0,1.453,0.121,2.674,0.371,3.662
	c0.242,0.985,0.682,1.76,1.319,2.316c0.633,0.562,1.493,0.84,2.581,0.84c1.056,0,2.051-0.314,2.985-0.941
	c0.935-0.628,1.618-1.446,2.046-2.458c0.347-0.888,0.523-2.831,0.523-5.831v-7.622c0-1.244,0.29-2.174,0.875-2.804
	c0.58-0.626,1.34-0.939,2.275-0.939c0.932,0,1.682,0.31,2.246,0.931c0.57,0.617,0.853,1.556,0.853,2.812v18.16
	c0,1.196-0.274,2.088-0.815,2.686c-0.546,0.596-1.242,0.897-2.1,0.897c-0.861,0-1.567-0.313-2.123-0.932
	C113.625,50.521,113.344,49.65,113.344,48.534z"/>
<path fill="#7A7A7A" d="M125.814,27.136h0.689v-3.768c0-1.01,0.026-1.803,0.076-2.375c0.056-0.574,0.207-1.068,0.451-1.481
	c0.244-0.428,0.594-0.776,1.054-1.044c0.46-0.269,0.973-0.402,1.54-0.402c0.794,0,1.513,0.297,2.159,0.897
	c0.424,0.396,0.699,0.882,0.813,1.458c0.116,0.574,0.171,1.388,0.171,2.446v4.271h2.296c0.888,0,1.564,0.207,2.033,0.632
	c0.468,0.417,0.701,0.958,0.701,1.619c0,0.841-0.333,1.43-0.998,1.765c-0.666,0.337-1.622,0.506-2.86,0.506h-1.173v11.525
	c0,0.983,0.037,1.736,0.104,2.265c0.068,0.527,0.251,0.955,0.553,1.286c0.295,0.326,0.781,0.491,1.456,0.491
	c0.368,0,0.866-0.065,1.495-0.196c0.625-0.128,1.112-0.194,1.468-0.194c0.506,0,0.959,0.202,1.364,0.607
	c0.405,0.408,0.611,0.908,0.611,1.506c0,1.009-0.553,1.783-1.652,2.318c-1.103,0.537-2.687,0.805-4.754,0.805
	c-1.96,0-3.444-0.329-4.454-0.989c-1.011-0.656-1.673-1.568-1.987-2.731c-0.315-1.164-0.467-2.715-0.467-4.661V31.658h-0.828
	c-0.902,0-1.591-0.214-2.065-0.645c-0.477-0.427-0.712-0.973-0.712-1.626c0-0.66,0.247-1.202,0.745-1.619
	C124.139,27.343,124.865,27.136,125.814,27.136z"/>
<path fill="#7A7A7A" d="M148.245,21.073v9.299c0.794-0.917,1.57-1.646,2.33-2.179c0.757-0.539,1.594-0.941,2.514-1.208
	c0.92-0.268,1.907-0.401,2.962-0.401c1.594,0,3.004,0.337,4.234,1.008c1.237,0.675,2.201,1.654,2.91,2.943
	c0.443,0.747,0.741,1.585,0.894,2.511c0.151,0.926,0.229,1.994,0.229,3.203v12.01c0,1.253-0.288,2.204-0.863,2.845
	c-0.57,0.641-1.332,0.965-2.283,0.965c-2.063,0-3.1-1.271-3.1-3.811V37.675c0-2.006-0.3-3.548-0.895-4.627
	c-0.598-1.081-1.73-1.62-3.397-1.62c-1.115,0-2.125,0.317-3.021,0.955c-0.896,0.634-1.564,1.503-2.009,2.604
	c-0.337,0.934-0.504,2.595-0.504,4.983v8.29c0,1.236-0.28,2.183-0.838,2.833c-0.56,0.651-1.337,0.977-2.329,0.977
	c-2.068,0-3.1-1.271-3.1-3.811V21.073c0-1.271,0.271-2.223,0.813-2.858c0.544-0.634,1.304-0.952,2.287-0.952
	c0.992,0,1.769,0.321,2.329,0.964C147.964,18.87,148.245,19.818,148.245,21.073z"/>
<path fill="#7A7A7A" d="M193.982,39.325c0,1.87-0.292,3.592-0.876,5.166c-0.579,1.578-1.421,2.933-2.523,4.064
	c-1.1,1.133-2.42,2.003-3.947,2.608c-1.533,0.604-3.25,0.907-5.164,0.907c-1.901,0-3.608-0.308-5.125-0.919
	c-1.515-0.612-2.823-1.487-3.935-2.629c-1.111-1.14-1.953-2.487-2.525-4.041c-0.573-1.553-0.862-3.273-0.862-5.156
	c0-1.896,0.292-3.632,0.873-5.209s1.415-2.925,2.502-4.042c1.086-1.117,2.403-1.977,3.948-2.584
	c1.547-0.601,3.252-0.904,5.125-0.904c1.895,0,3.614,0.305,5.164,0.917c1.543,0.612,2.868,1.483,3.969,2.617
	c1.104,1.132,1.943,2.481,2.518,4.043C193.695,35.722,193.982,37.443,193.982,39.325z M187.689,39.325
	c0-2.552-0.561-4.544-1.688-5.967c-1.123-1.424-2.636-2.135-4.531-2.135c-1.227,0-2.305,0.318-3.241,0.952
	c-0.933,0.636-1.652,1.573-2.159,2.812c-0.504,1.242-0.759,2.688-0.759,4.338c0,1.639,0.255,3.068,0.747,4.295
	c0.499,1.222,1.21,2.163,2.136,2.812c0.923,0.65,2.017,0.976,3.275,0.976c1.895,0,3.408-0.715,4.531-2.146
	C187.128,43.831,187.689,41.852,187.689,39.325z"/>
<path fill="#7A7A7A" d="M205.142,43.022v5.237c0,1.27-0.301,2.22-0.897,2.857c-0.595,0.634-1.357,0.953-2.272,0.953
	c-0.907,0-1.645-0.324-2.227-0.965c-0.584-0.641-0.876-1.592-0.876-2.845V30.806c0-2.814,1.018-4.221,3.056-4.221
	c1.042,0,1.791,0.328,2.249,0.987c0.46,0.66,0.71,1.626,0.759,2.916c0.751-1.29,1.518-2.256,2.309-2.916
	c0.781-0.659,1.837-0.987,3.154-0.987c1.317,0,2.594,0.328,3.836,0.987c1.24,0.66,1.861,1.529,1.861,2.618
	c0,0.766-0.265,1.396-0.793,1.893c-0.528,0.499-1.099,0.749-1.709,0.749c-0.233,0-0.786-0.144-1.666-0.429
	c-0.88-0.281-1.655-0.423-2.331-0.423c-0.918,0-1.669,0.24-2.25,0.724c-0.583,0.482-1.032,1.198-1.356,2.146
	c-0.318,0.949-0.542,2.078-0.663,3.388C205.203,39.545,205.142,41.14,205.142,43.022z"/>
<g>
	<g>
		<path fill="#4D4D4D" d="M37.27,39.786v8.335c0,1.314-0.298,2.304-0.895,2.96c-0.599,0.66-1.383,0.989-2.364,0.989
			c-0.95,0-1.717-0.329-2.309-0.989c-0.59-0.656-0.884-1.646-0.884-2.96v-9.987c0-1.576-0.051-2.803-0.159-3.677
			c-0.106-0.871-0.399-1.586-0.873-2.144c-0.474-0.561-1.226-0.843-2.25-0.843c-2.05,0-3.403,0.708-4.053,2.115
			c-0.651,1.409-0.977,3.428-0.977,6.061v8.475c0,1.297-0.294,2.283-0.882,2.949c-0.588,0.667-1.365,1-2.331,1
			c-0.951,0-1.726-0.333-2.332-1c-0.604-0.666-0.905-1.652-0.905-2.949V30.189c0-1.178,0.272-2.075,0.815-2.688
			c0.542-0.613,1.259-0.917,2.145-0.917c0.858,0,1.573,0.287,2.148,0.86c0.574,0.571,0.859,1.363,0.859,2.378v0.597
			c1.087-1.302,2.251-2.259,3.489-2.871c1.24-0.61,2.62-0.917,4.136-0.917c1.578,0,2.93,0.314,4.062,0.94
			c1.134,0.627,2.065,1.578,2.803,2.848c1.057-1.286,2.19-2.24,3.399-2.857c1.207-0.622,2.546-0.931,4.018-0.931
			c1.713,0,3.189,0.335,4.433,1.008c1.238,0.674,2.162,1.639,2.778,2.897c0.534,1.129,0.802,2.914,0.802,5.347v12.238
			c0,1.314-0.298,2.304-0.895,2.96c-0.597,0.66-1.388,0.989-2.366,0.989c-0.948,0-1.726-0.333-2.33-1
			c-0.604-0.666-0.907-1.652-0.907-2.949v-10.54c0-1.348-0.056-2.426-0.173-3.236c-0.113-0.812-0.423-1.495-0.928-2.045
			c-0.507-0.548-1.273-0.83-2.298-0.83c-0.826,0-1.61,0.247-2.352,0.736c-0.745,0.492-1.321,1.151-1.734,1.976
			C37.5,35.24,37.27,37.107,37.27,39.786z"/>
		<path fill="#4D4D4D" d="M85.219,47.683l-1.605-4.225H69.929l-1.607,4.318c-0.627,1.684-1.163,2.819-1.606,3.408
			c-0.446,0.59-1.175,0.886-2.184,0.886c-0.859,0-1.615-0.317-2.272-0.941c-0.662-0.626-0.986-1.341-0.986-2.138
			c0-0.457,0.075-0.932,0.227-1.42c0.155-0.491,0.406-1.172,0.76-2.046l8.609-21.858c0.244-0.626,0.54-1.378,0.885-2.263
			c0.344-0.878,0.713-1.608,1.103-2.192c0.389-0.578,0.902-1.051,1.537-1.41c0.636-0.358,1.419-0.539,2.355-0.539
			c0.948,0,1.741,0.18,2.373,0.539c0.635,0.358,1.15,0.826,1.542,1.392c0.388,0.566,0.715,1.173,0.985,1.822
			c0.267,0.651,0.61,1.519,1.024,2.606l8.789,21.721c0.692,1.651,1.037,2.854,1.037,3.604c0,0.779-0.329,1.495-0.976,2.146
			c-0.652,0.651-1.437,0.977-2.354,0.977c-0.537,0-0.996-0.096-1.379-0.287c-0.382-0.197-0.704-0.452-0.963-0.783
			c-0.258-0.329-0.539-0.835-0.839-1.516C85.69,48.803,85.435,48.204,85.219,47.683z M71.719,38.34h10.056L76.7,24.448L71.719,38.34
			z"/>
		<path fill="#4D4D4D" d="M113.344,48.534V47.73c-0.748,0.949-1.536,1.745-2.367,2.388c-0.823,0.642-1.727,1.121-2.708,1.435
			c-0.977,0.313-2.094,0.472-3.351,0.472c-1.516,0-2.873-0.315-4.074-0.943c-1.201-0.627-2.132-1.49-2.788-2.594
			c-0.783-1.331-1.173-3.245-1.173-5.739v-12.42c0-1.256,0.283-2.195,0.848-2.812c0.568-0.621,1.318-0.931,2.251-0.931
			c0.948,0,1.717,0.313,2.297,0.939c0.58,0.63,0.872,1.561,0.872,2.804v10.034c0,1.453,0.121,2.674,0.371,3.662
			c0.242,0.985,0.682,1.76,1.319,2.316c0.633,0.562,1.493,0.84,2.581,0.84c1.056,0,2.051-0.314,2.985-0.941
			c0.935-0.628,1.618-1.446,2.046-2.458c0.347-0.888,0.523-2.831,0.523-5.831v-7.622c0-1.244,0.29-2.174,0.875-2.804
			c0.58-0.626,1.34-0.939,2.275-0.939c0.932,0,1.682,0.31,2.246,0.931c0.57,0.617,0.853,1.556,0.853,2.812v18.16
			c0,1.196-0.274,2.088-0.815,2.686c-0.546,0.596-1.242,0.897-2.1,0.897c-0.861,0-1.567-0.313-2.123-0.932
			C113.625,50.521,113.344,49.65,113.344,48.534z"/>
		<path fill="#4D4D4D" d="M125.814,27.136h0.689v-3.768c0-1.01,0.026-1.803,0.076-2.375c0.056-0.574,0.207-1.068,0.451-1.481
			c0.244-0.428,0.594-0.776,1.054-1.044c0.46-0.269,0.973-0.402,1.54-0.402c0.794,0,1.513,0.297,2.159,0.897
			c0.424,0.396,0.699,0.882,0.813,1.458c0.116,0.574,0.171,1.388,0.171,2.446v4.271h2.296c0.888,0,1.564,0.207,2.033,0.632
			c0.468,0.417,0.701,0.958,0.701,1.619c0,0.841-0.333,1.43-0.998,1.765c-0.666,0.337-1.622,0.506-2.86,0.506h-1.173v11.525
			c0,0.983,0.037,1.736,0.104,2.265c0.068,0.527,0.251,0.955,0.553,1.286c0.295,0.326,0.781,0.491,1.456,0.491
			c0.368,0,0.866-0.065,1.495-0.196c0.625-0.128,1.112-0.194,1.468-0.194c0.506,0,0.959,0.202,1.364,0.607
			c0.405,0.408,0.611,0.908,0.611,1.506c0,1.009-0.553,1.783-1.652,2.318c-1.103,0.537-2.687,0.805-4.754,0.805
			c-1.96,0-3.444-0.329-4.454-0.989c-1.011-0.656-1.673-1.568-1.987-2.731c-0.315-1.164-0.467-2.715-0.467-4.661V31.658h-0.828
			c-0.902,0-1.591-0.214-2.065-0.645c-0.477-0.427-0.712-0.973-0.712-1.626c0-0.66,0.247-1.202,0.745-1.619
			C124.139,27.343,124.865,27.136,125.814,27.136z"/>
		<path fill="#4D4D4D" d="M148.245,21.073v9.299c0.794-0.917,1.57-1.646,2.33-2.179c0.757-0.539,1.594-0.941,2.514-1.208
			c0.92-0.268,1.907-0.401,2.962-0.401c1.594,0,3.004,0.337,4.234,1.008c1.237,0.675,2.201,1.654,2.91,2.943
			c0.443,0.747,0.741,1.585,0.894,2.511c0.151,0.926,0.229,1.994,0.229,3.203v12.01c0,1.253-0.288,2.204-0.863,2.845
			c-0.57,0.641-1.332,0.965-2.283,0.965c-2.063,0-3.1-1.271-3.1-3.811V37.675c0-2.006-0.3-3.548-0.895-4.627
			c-0.598-1.081-1.73-1.62-3.397-1.62c-1.115,0-2.125,0.317-3.021,0.955c-0.896,0.634-1.564,1.503-2.009,2.604
			c-0.337,0.934-0.504,2.595-0.504,4.983v8.29c0,1.236-0.28,2.183-0.838,2.833c-0.56,0.651-1.337,0.977-2.329,0.977
			c-2.068,0-3.1-1.271-3.1-3.811V21.073c0-1.271,0.271-2.223,0.813-2.858c0.544-0.634,1.304-0.952,2.287-0.952
			c0.992,0,1.769,0.321,2.329,0.964C147.964,18.87,148.245,19.818,148.245,21.073z"/>
		<path fill="#4D4D4D" d="M193.982,39.325c0,1.87-0.292,3.592-0.876,5.166c-0.579,1.578-1.421,2.933-2.523,4.064
			c-1.1,1.133-2.42,2.003-3.947,2.608c-1.533,0.604-3.25,0.907-5.164,0.907c-1.901,0-3.608-0.308-5.125-0.919
			c-1.515-0.612-2.823-1.487-3.935-2.629c-1.111-1.14-1.953-2.487-2.525-4.041c-0.573-1.553-0.862-3.273-0.862-5.156
			c0-1.896,0.292-3.632,0.873-5.209s1.415-2.925,2.502-4.042c1.086-1.117,2.403-1.977,3.948-2.584
			c1.547-0.601,3.252-0.904,5.125-0.904c1.895,0,3.614,0.305,5.164,0.917c1.543,0.612,2.868,1.483,3.969,2.617
			c1.104,1.132,1.943,2.481,2.518,4.043C193.695,35.722,193.982,37.443,193.982,39.325z M187.689,39.325
			c0-2.552-0.561-4.544-1.688-5.967c-1.123-1.424-2.636-2.135-4.531-2.135c-1.227,0-2.305,0.318-3.241,0.952
			c-0.933,0.636-1.652,1.573-2.159,2.812c-0.504,1.242-0.759,2.688-0.759,4.338c0,1.639,0.255,3.068,0.747,4.295
			c0.499,1.222,1.21,2.163,2.136,2.812c0.923,0.65,2.017,0.976,3.275,0.976c1.895,0,3.408-0.715,4.531-2.146
			C187.128,43.831,187.689,41.852,187.689,39.325z"/>
		<path fill="#4D4D4D" d="M205.142,43.022v5.237c0,1.27-0.301,2.22-0.897,2.857c-0.595,0.634-1.357,0.953-2.272,0.953
			c-0.907,0-1.645-0.324-2.227-0.965c-0.584-0.641-0.876-1.592-0.876-2.845V30.806c0-2.814,1.018-4.221,3.056-4.221
			c1.042,0,1.791,0.328,2.249,0.987c0.46,0.66,0.71,1.626,0.759,2.916c0.751-1.29,1.518-2.256,2.309-2.916
			c0.781-0.659,1.837-0.987,3.154-0.987c1.317,0,2.594,0.328,3.836,0.987c1.24,0.66,1.861,1.529,1.861,2.618
			c0,0.766-0.265,1.396-0.793,1.893c-0.528,0.499-1.099,0.749-1.709,0.749c-0.233,0-0.786-0.144-1.666-0.429
			c-0.88-0.281-1.655-0.423-2.331-0.423c-0.918,0-1.669,0.24-2.25,0.724c-0.583,0.482-1.032,1.198-1.356,2.146
			c-0.318,0.949-0.542,2.078-0.663,3.388C205.203,39.545,205.142,41.14,205.142,43.022z"/>
	</g>
</g>
<path fill="#B9E22C" d="M255,49.05c0,3.732-0.458,4.95-4.035,4.95h-24.014c-3.578,0-6.951-1.218-6.951-4.95V8.261
	C220,4.528,223.373,0,226.951,0h24.014C254.542,0,255,4.528,255,8.261V49.05z"/>
<path fill="#7A7A7A" d="M4.209,70.869L2.27,63.122v8.392c0,0.465-0.101,0.812-0.308,1.045c-0.204,0.233-0.478,0.347-0.819,0.347
	c-0.331,0-0.599-0.112-0.807-0.342c-0.209-0.23-0.314-0.58-0.314-1.049v-9.621c0-0.532,0.138-0.889,0.41-1.072
	c0.276-0.186,0.648-0.28,1.116-0.28h0.758c0.456,0,0.787,0.042,0.993,0.124c0.204,0.086,0.359,0.235,0.458,0.449
	c0.099,0.216,0.212,0.566,0.337,1.053l1.757,6.661l1.755-6.661c0.126-0.487,0.24-0.837,0.337-1.053
	c0.1-0.213,0.251-0.362,0.459-0.449c0.206-0.082,0.536-0.124,0.992-0.124h0.757c0.468,0,0.837,0.094,1.113,0.28
	c0.276,0.184,0.413,0.541,0.413,1.072v9.621c0,0.465-0.104,0.812-0.309,1.045c-0.208,0.233-0.481,0.347-0.829,0.347
	c-0.323,0-0.593-0.114-0.796-0.347c-0.213-0.233-0.319-0.58-0.319-1.045v-8.392l-1.935,7.747c-0.125,0.503-0.226,0.871-0.308,1.105
	c-0.081,0.234-0.227,0.45-0.442,0.643c-0.214,0.196-0.508,0.288-0.888,0.288c-0.286,0-0.529-0.06-0.727-0.184
	c-0.196-0.125-0.349-0.287-0.459-0.475c-0.111-0.197-0.196-0.41-0.262-0.644C4.341,71.365,4.275,71.121,4.209,70.869z"/>
<path fill="#7A7A7A" d="M19.878,71.628V71.34c-0.268,0.343-0.55,0.63-0.848,0.862c-0.299,0.232-0.622,0.404-0.973,0.519
	c-0.354,0.113-0.753,0.168-1.205,0.168c-0.542,0-1.03-0.112-1.462-0.338c-0.434-0.228-0.765-0.541-1.001-0.94
	c-0.279-0.479-0.422-1.169-0.422-2.072v-4.485c0-0.452,0.103-0.793,0.307-1.016c0.201-0.226,0.472-0.335,0.807-0.335
	c0.338,0,0.615,0.109,0.825,0.339c0.208,0.224,0.312,0.564,0.312,1.012v3.624c0,0.524,0.042,0.966,0.133,1.322
	c0.087,0.357,0.245,0.635,0.472,0.837c0.229,0.204,0.539,0.306,0.928,0.306c0.38,0,0.735-0.113,1.071-0.343
	c0.334-0.225,0.58-0.521,0.735-0.886c0.126-0.32,0.189-1.022,0.189-2.107v-2.752c0-0.448,0.103-0.788,0.313-1.012
	c0.208-0.229,0.479-0.339,0.817-0.339c0.335,0,0.604,0.109,0.804,0.335c0.205,0.223,0.308,0.564,0.308,1.016v6.558
	c0,0.433-0.097,0.756-0.292,0.972c-0.196,0.218-0.446,0.322-0.755,0.322c-0.308,0-0.561-0.109-0.762-0.337
	C19.978,72.347,19.878,72.032,19.878,71.628z"/>
<path fill="#7A7A7A" d="M24.231,71.529v-9.818c0-0.454,0.098-0.797,0.298-1.03c0.204-0.23,0.474-0.348,0.812-0.348
	c0.342,0,0.618,0.115,0.824,0.346c0.211,0.228,0.316,0.574,0.316,1.032v9.818c0,0.459-0.105,0.803-0.318,1.034
	c-0.212,0.23-0.486,0.342-0.822,0.342c-0.328,0-0.598-0.117-0.803-0.354C24.333,72.312,24.231,71.974,24.231,71.529z"/>
<path fill="#7A7A7A" d="M28.925,63.9h0.25v-1.36c0-0.366,0.009-0.651,0.028-0.86c0.02-0.207,0.074-0.386,0.159-0.533
	c0.09-0.153,0.217-0.278,0.382-0.376c0.161-0.098,0.347-0.145,0.55-0.145c0.289,0,0.544,0.106,0.775,0.324
	c0.156,0.144,0.249,0.318,0.292,0.524c0.042,0.207,0.062,0.503,0.062,0.884V63.9h0.825c0.318,0,0.562,0.074,0.73,0.227
	c0.167,0.153,0.251,0.348,0.251,0.589c0,0.301-0.121,0.516-0.359,0.637c-0.239,0.123-0.581,0.181-1.028,0.181h-0.418v4.164
	c0,0.355,0.014,0.627,0.039,0.818c0.025,0.19,0.091,0.345,0.197,0.463c0.108,0.12,0.282,0.179,0.522,0.179
	c0.131,0,0.313-0.023,0.539-0.069c0.223-0.048,0.399-0.07,0.525-0.07c0.182,0,0.346,0.072,0.49,0.219
	c0.146,0.146,0.221,0.329,0.221,0.542c0,0.367-0.198,0.646-0.595,0.839c-0.398,0.196-0.964,0.288-1.706,0.288
	c-0.705,0-1.24-0.117-1.6-0.354c-0.364-0.24-0.601-0.569-0.713-0.987c-0.113-0.421-0.169-0.983-0.169-1.686v-4.346h-0.299
	c-0.322,0-0.57-0.077-0.74-0.23c-0.171-0.157-0.254-0.352-0.254-0.588c0-0.241,0.09-0.436,0.268-0.589
	C28.328,63.974,28.587,63.9,28.925,63.9z"/>
<path fill="#7A7A7A" d="M35.918,62.647c-0.314,0-0.582-0.095-0.802-0.29c-0.225-0.194-0.335-0.465-0.335-0.82
	c0-0.321,0.112-0.586,0.343-0.792c0.228-0.208,0.491-0.312,0.794-0.312c0.291,0,0.549,0.093,0.775,0.283
	c0.222,0.187,0.336,0.459,0.336,0.821c0,0.35-0.107,0.62-0.33,0.814C36.48,62.548,36.221,62.647,35.918,62.647z M37.03,64.988v6.542
	c0,0.454-0.105,0.796-0.319,1.029c-0.217,0.233-0.488,0.347-0.818,0.347c-0.33,0-0.597-0.117-0.804-0.354
	c-0.205-0.24-0.307-0.578-0.307-1.022v-6.476c0-0.448,0.102-0.788,0.307-1.012c0.207-0.229,0.475-0.339,0.804-0.339
	c0.33,0,0.601,0.109,0.818,0.339C36.924,64.266,37.03,64.582,37.03,64.988z"/>
<path fill="#7A7A7A" d="M41.433,64.97v0.276c0.421-0.528,0.864-0.913,1.318-1.158c0.455-0.249,0.976-0.368,1.55-0.368
	c0.692,0,1.331,0.177,1.912,0.539c0.583,0.356,1.043,0.884,1.382,1.574c0.335,0.692,0.506,1.508,0.506,2.455
	c0,0.696-0.098,1.338-0.294,1.92c-0.191,0.581-0.461,1.07-0.805,1.468c-0.339,0.396-0.742,0.701-1.205,0.913
	c-0.466,0.213-0.964,0.317-1.497,0.317c-0.641,0-1.184-0.128-1.617-0.388c-0.441-0.262-0.857-0.641-1.25-1.146v3.403
	c0,0.991-0.36,1.492-1.083,1.492c-0.421,0-0.701-0.13-0.841-0.386c-0.135-0.257-0.205-0.633-0.205-1.125v-9.767
	c0-0.431,0.094-0.754,0.282-0.967c0.188-0.214,0.444-0.317,0.764-0.317c0.323,0,0.58,0.108,0.781,0.324
	C41.331,64.247,41.433,64.561,41.433,64.97z M45.842,68.263c0-0.596-0.09-1.111-0.272-1.539c-0.181-0.429-0.435-0.758-0.754-0.989
	c-0.323-0.227-0.679-0.341-1.067-0.341c-0.623,0-1.146,0.245-1.573,0.737c-0.426,0.49-0.637,1.217-0.637,2.174
	c0,0.899,0.209,1.602,0.632,2.099c0.425,0.502,0.949,0.752,1.577,0.752c0.372,0,0.717-0.109,1.038-0.326
	c0.319-0.219,0.573-0.546,0.766-0.985C45.744,69.409,45.842,68.882,45.842,68.263z"/>
<path fill="#7A7A7A" d="M49.908,71.529v-9.818c0-0.454,0.098-0.797,0.297-1.03c0.2-0.23,0.472-0.348,0.813-0.348
	c0.341,0,0.613,0.115,0.824,0.346c0.206,0.228,0.312,0.574,0.312,1.032v9.818c0,0.459-0.106,0.803-0.319,1.034
	c-0.212,0.23-0.482,0.342-0.817,0.342c-0.331,0-0.597-0.117-0.805-0.354C50.009,72.312,49.908,71.974,49.908,71.529z"/>
<path fill="#7A7A7A" d="M60.166,71.628c-0.542,0.425-1.069,0.747-1.575,0.959c-0.511,0.213-1.079,0.317-1.712,0.317
	c-0.577,0-1.083-0.112-1.521-0.342c-0.437-0.23-0.776-0.539-1.008-0.935c-0.235-0.392-0.356-0.816-0.356-1.275
	c0-0.621,0.196-1.149,0.584-1.584c0.393-0.437,0.928-0.732,1.61-0.881c0.143-0.034,0.497-0.106,1.062-0.222
	c0.564-0.117,1.049-0.224,1.455-0.321c0.404-0.095,0.842-0.215,1.316-0.352c-0.029-0.597-0.147-1.037-0.36-1.314
	c-0.212-0.28-0.649-0.42-1.316-0.42c-0.571,0-1,0.078-1.292,0.242c-0.288,0.16-0.535,0.401-0.739,0.719
	c-0.208,0.32-0.351,0.534-0.436,0.636c-0.086,0.103-0.27,0.152-0.546,0.152c-0.255,0-0.473-0.078-0.66-0.243
	c-0.184-0.163-0.273-0.372-0.273-0.625c0-0.4,0.14-0.788,0.418-1.162c0.28-0.377,0.717-0.686,1.31-0.93
	c0.596-0.244,1.333-0.364,2.218-0.364c0.99,0,1.768,0.117,2.336,0.353c0.565,0.234,0.965,0.606,1.198,1.113
	c0.234,0.511,0.348,1.183,0.348,2.025c0,0.531,0,0.98-0.003,1.352c0,0.37-0.004,0.784-0.013,1.236c0,0.424,0.071,0.868,0.213,1.329
	c0.138,0.464,0.208,0.761,0.208,0.894c0,0.231-0.106,0.442-0.327,0.635c-0.216,0.191-0.462,0.283-0.736,0.283
	c-0.232,0-0.459-0.107-0.687-0.325C60.659,72.359,60.421,72.044,60.166,71.628z M60.021,68.354c-0.329,0.123-0.81,0.251-1.441,0.386
	c-0.627,0.136-1.063,0.235-1.305,0.298c-0.246,0.063-0.474,0.188-0.695,0.371c-0.219,0.187-0.326,0.445-0.326,0.776
	c0,0.343,0.126,0.635,0.388,0.875c0.255,0.24,0.595,0.358,1.012,0.358c0.444,0,0.855-0.095,1.235-0.292
	c0.374-0.196,0.649-0.45,0.826-0.758c0.204-0.342,0.306-0.909,0.306-1.692V68.354z"/>
<path fill="#7A7A7A" d="M64.216,63.9h0.246v-1.36c0-0.366,0.01-0.651,0.028-0.86c0.021-0.207,0.072-0.386,0.16-0.533
	c0.09-0.153,0.216-0.278,0.379-0.376c0.164-0.098,0.348-0.145,0.552-0.145c0.288,0,0.543,0.106,0.778,0.324
	c0.154,0.144,0.25,0.318,0.289,0.524c0.042,0.207,0.063,0.503,0.063,0.884V63.9h0.827c0.316,0,0.561,0.074,0.728,0.227
	c0.167,0.153,0.253,0.348,0.253,0.589c0,0.301-0.121,0.516-0.359,0.637c-0.239,0.123-0.584,0.181-1.029,0.181h-0.42v4.164
	c0,0.355,0.011,0.627,0.04,0.818c0.023,0.19,0.089,0.345,0.196,0.463c0.107,0.12,0.281,0.179,0.522,0.179
	c0.135,0,0.311-0.023,0.536-0.069c0.227-0.048,0.405-0.07,0.529-0.07c0.179,0,0.346,0.072,0.492,0.219
	c0.143,0.146,0.217,0.329,0.217,0.542c0,0.367-0.201,0.646-0.594,0.839c-0.395,0.196-0.962,0.288-1.706,0.288
	c-0.704,0-1.239-0.117-1.598-0.354c-0.364-0.24-0.601-0.569-0.715-0.987c-0.11-0.421-0.167-0.983-0.167-1.686v-4.346h-0.296
	c-0.326,0-0.572-0.077-0.741-0.23c-0.172-0.157-0.258-0.352-0.258-0.588c0-0.241,0.09-0.436,0.271-0.589
	C63.614,63.974,63.874,63.9,64.216,63.9z"/>
<path fill="#7A7A7A" d="M69.884,63.9h0.537v-0.679c0-0.71,0.088-1.271,0.268-1.689c0.18-0.417,0.48-0.722,0.907-0.913
	c0.425-0.19,1.009-0.286,1.751-0.286c1.314,0,1.972,0.324,1.972,0.971c0,0.211-0.072,0.391-0.206,0.54
	c-0.141,0.148-0.301,0.223-0.489,0.223c-0.091,0-0.24-0.016-0.454-0.051c-0.213-0.03-0.394-0.049-0.543-0.049
	c-0.404,0-0.666,0.121-0.785,0.363c-0.115,0.241-0.171,0.582-0.171,1.03v0.54h0.552c0.858,0,1.287,0.26,1.287,0.78
	c0,0.37-0.112,0.606-0.343,0.703c-0.228,0.1-0.541,0.15-0.944,0.15h-0.552v5.996c0,0.449-0.104,0.789-0.316,1.024
	c-0.215,0.238-0.486,0.352-0.818,0.352c-0.321,0-0.589-0.114-0.797-0.352c-0.213-0.235-0.318-0.575-0.318-1.024v-5.996h-0.618
	c-0.335,0-0.594-0.075-0.773-0.229c-0.181-0.151-0.273-0.35-0.273-0.589C68.756,64.171,69.132,63.9,69.884,63.9z"/>
<path fill="#7A7A7A" d="M83.891,68.305c0,0.674-0.104,1.296-0.314,1.867c-0.208,0.566-0.511,1.056-0.908,1.465
	c-0.396,0.411-0.868,0.722-1.417,0.943c-0.548,0.218-1.169,0.325-1.855,0.325c-0.678,0-1.294-0.107-1.835-0.332
	c-0.545-0.22-1.018-0.536-1.416-0.947c-0.399-0.414-0.699-0.898-0.906-1.46c-0.208-0.562-0.31-1.184-0.31-1.861
	c0-0.686,0.103-1.316,0.31-1.882c0.212-0.573,0.512-1.056,0.902-1.461c0.39-0.404,0.86-0.715,1.42-0.935
	c0.551-0.216,1.165-0.324,1.835-0.324c0.682,0,1.299,0.108,1.855,0.328c0.556,0.223,1.03,0.538,1.426,0.948
	c0.396,0.409,0.697,0.895,0.903,1.459C83.787,67.002,83.891,67.625,83.891,68.305z M81.629,68.305c0-0.924-0.2-1.644-0.607-2.158
	c-0.4-0.516-0.944-0.772-1.625-0.772c-0.437,0-0.826,0.115-1.162,0.345c-0.334,0.229-0.592,0.567-0.777,1.017
	c-0.179,0.449-0.268,0.97-0.268,1.568c0,0.59,0.087,1.108,0.268,1.549c0.178,0.443,0.433,0.78,0.764,1.017
	c0.335,0.234,0.725,0.352,1.175,0.352c0.682,0,1.226-0.256,1.625-0.773C81.429,69.932,81.629,69.217,81.629,68.305z"/>
<path fill="#7A7A7A" d="M87.896,69.639v1.891c0,0.459-0.106,0.803-0.322,1.034c-0.213,0.23-0.487,0.342-0.816,0.342
	c-0.324,0-0.59-0.114-0.799-0.347c-0.209-0.233-0.314-0.576-0.314-1.029v-6.303c0-1.017,0.364-1.523,1.099-1.523
	c0.372,0,0.642,0.116,0.806,0.353c0.165,0.239,0.257,0.591,0.271,1.055c0.268-0.464,0.545-0.816,0.828-1.055
	c0.286-0.237,0.662-0.353,1.135-0.353c0.472,0,0.931,0.116,1.375,0.353c0.448,0.239,0.668,0.555,0.668,0.948
	c0,0.276-0.094,0.505-0.284,0.682c-0.19,0.183-0.395,0.272-0.616,0.272c-0.079,0-0.282-0.051-0.596-0.154
	c-0.315-0.105-0.593-0.152-0.838-0.152c-0.329,0-0.598,0.084-0.806,0.26c-0.209,0.175-0.371,0.432-0.486,0.775
	c-0.118,0.343-0.196,0.751-0.241,1.225C87.916,68.383,87.896,68.958,87.896,69.639z"/>
<path fill="#7A7A7A" d="M100.538,68.472v3.008c0,0.476-0.106,0.833-0.318,1.072c-0.217,0.237-0.498,0.354-0.85,0.354
	c-0.341,0-0.617-0.117-0.83-0.354c-0.212-0.24-0.318-0.597-0.318-1.072v-3.605c0-0.573-0.016-1.015-0.056-1.328
	c-0.038-0.315-0.141-0.573-0.312-0.777c-0.172-0.198-0.441-0.302-0.809-0.302c-0.736,0-1.222,0.255-1.455,0.764
	c-0.232,0.507-0.351,1.237-0.351,2.188v3.06c0,0.471-0.104,0.826-0.317,1.067c-0.21,0.24-0.492,0.358-0.835,0.358
	s-0.621-0.118-0.84-0.358c-0.213-0.242-0.32-0.597-0.32-1.067v-6.476c0-0.426,0.094-0.75,0.291-0.973
	c0.192-0.22,0.451-0.328,0.77-0.328c0.309,0,0.566,0.103,0.774,0.308c0.203,0.207,0.307,0.495,0.307,0.86v0.215
	c0.39-0.471,0.808-0.814,1.25-1.037c0.446-0.223,0.941-0.33,1.487-0.33c0.564,0,1.054,0.111,1.459,0.336
	c0.406,0.229,0.739,0.573,1.005,1.03c0.376-0.465,0.784-0.807,1.218-1.034c0.435-0.223,0.917-0.333,1.442-0.333
	c0.617,0,1.148,0.12,1.591,0.362c0.446,0.245,0.779,0.591,1,1.044c0.192,0.409,0.291,1.054,0.291,1.933v4.421
	c0,0.476-0.111,0.833-0.324,1.072c-0.216,0.237-0.498,0.354-0.849,0.354c-0.342,0-0.622-0.118-0.838-0.358
	c-0.216-0.242-0.325-0.597-0.325-1.067v-3.805c0-0.489-0.023-0.877-0.059-1.171c-0.045-0.291-0.156-0.538-0.335-0.737
	c-0.185-0.2-0.458-0.299-0.826-0.299c-0.296,0-0.579,0.09-0.847,0.267c-0.264,0.177-0.471,0.413-0.62,0.713
	C100.624,66.83,100.538,67.503,100.538,68.472z"/>
<path fill="#7A7A7A" d="M118.492,68.859h-4.401c0.003,0.513,0.108,0.968,0.308,1.363c0.2,0.391,0.468,0.687,0.802,0.886
	c0.329,0.197,0.696,0.297,1.101,0.297c0.266,0,0.515-0.033,0.735-0.095c0.221-0.063,0.439-0.163,0.646-0.298
	c0.208-0.135,0.405-0.282,0.578-0.436c0.176-0.157,0.403-0.366,0.685-0.631c0.119-0.102,0.282-0.149,0.494-0.149
	c0.229,0,0.417,0.062,0.56,0.191c0.144,0.125,0.215,0.307,0.215,0.536c0,0.207-0.076,0.445-0.239,0.719
	c-0.16,0.275-0.399,0.535-0.722,0.789c-0.32,0.251-0.721,0.459-1.213,0.625c-0.484,0.167-1.044,0.249-1.678,0.249
	c-1.442,0-2.566-0.414-3.368-1.243c-0.804-0.829-1.204-1.954-1.204-3.375c0-0.667,0.098-1.29,0.298-1.863
	c0.197-0.57,0.487-1.062,0.865-1.469c0.38-0.41,0.847-0.724,1.4-0.943c0.556-0.219,1.172-0.326,1.846-0.326
	c0.882,0,1.634,0.185,2.264,0.559c0.629,0.372,1.099,0.856,1.414,1.447c0.313,0.594,0.471,1.193,0.471,1.808
	c0,0.569-0.164,0.94-0.485,1.107C119.536,68.773,119.08,68.859,118.492,68.859z M114.091,67.573h4.077
	c-0.052-0.771-0.26-1.352-0.62-1.736c-0.36-0.385-0.833-0.577-1.423-0.577c-0.56,0-1.021,0.193-1.379,0.584
	C114.387,66.235,114.165,66.81,114.091,67.573z"/>
<path fill="#7A7A7A" d="M127.089,67.965h-2.241v3.44c0,0.492-0.116,0.866-0.346,1.12c-0.233,0.252-0.523,0.38-0.875,0.38
	c-0.368,0-0.667-0.123-0.89-0.375c-0.228-0.251-0.34-0.622-0.34-1.11v-9.368c0-0.542,0.125-0.93,0.372-1.163
	c0.245-0.231,0.642-0.348,1.178-0.348h3.141c0.928,0,1.643,0.073,2.147,0.217c0.493,0.139,0.917,0.368,1.277,0.686
	c0.359,0.323,0.634,0.714,0.822,1.181c0.188,0.463,0.282,0.987,0.282,1.566c0,1.239-0.381,2.176-1.139,2.816
	C129.718,67.645,128.588,67.965,127.089,67.965z M126.495,62.389h-1.646v3.718h1.646c0.579,0,1.06-0.062,1.448-0.184
	c0.389-0.123,0.684-0.321,0.887-0.598c0.205-0.276,0.303-0.639,0.303-1.086c0-0.535-0.155-0.973-0.466-1.31
	C128.312,62.571,127.587,62.389,126.495,62.389z"/>
<path fill="#7A7A7A" d="M139.347,71.628V71.34c-0.27,0.343-0.553,0.63-0.85,0.862c-0.297,0.232-0.621,0.404-0.973,0.519
	c-0.352,0.113-0.753,0.168-1.205,0.168c-0.543,0-1.03-0.112-1.463-0.338c-0.431-0.228-0.764-0.541-1.001-0.94
	c-0.28-0.479-0.421-1.169-0.421-2.072v-4.485c0-0.452,0.103-0.793,0.307-1.016c0.202-0.226,0.473-0.335,0.807-0.335
	c0.342,0,0.618,0.109,0.828,0.339c0.209,0.224,0.31,0.564,0.31,1.012v3.624c0,0.524,0.045,0.966,0.131,1.322
	c0.09,0.357,0.246,0.635,0.474,0.837c0.229,0.204,0.538,0.306,0.928,0.306c0.379,0,0.736-0.113,1.069-0.343
	c0.339-0.225,0.583-0.521,0.736-0.886c0.127-0.32,0.188-1.022,0.188-2.107v-2.752c0-0.448,0.109-0.788,0.314-1.012
	c0.211-0.229,0.483-0.339,0.817-0.339c0.332,0,0.602,0.109,0.805,0.335c0.204,0.223,0.307,0.564,0.307,1.016v6.558
	c0,0.433-0.098,0.756-0.292,0.972c-0.196,0.218-0.443,0.322-0.753,0.322c-0.307,0-0.564-0.109-0.763-0.337
	C139.443,72.347,139.347,72.032,139.347,71.628z"/>
<path fill="#7A7A7A" d="M145.774,61.627v3.459c0.425-0.441,0.854-0.781,1.295-1.015c0.437-0.235,0.98-0.351,1.633-0.351
	c0.745,0,1.4,0.177,1.963,0.535c0.563,0.354,1.001,0.872,1.309,1.549c0.314,0.679,0.468,1.48,0.468,2.406
	c0,0.688-0.085,1.317-0.26,1.891c-0.171,0.569-0.421,1.067-0.752,1.487c-0.328,0.422-0.727,0.744-1.2,0.975
	c-0.471,0.23-0.989,0.342-1.554,0.342c-0.345,0-0.674-0.041-0.977-0.123c-0.304-0.084-0.563-0.193-0.778-0.328
	c-0.214-0.137-0.399-0.274-0.545-0.417c-0.151-0.143-0.352-0.362-0.602-0.647v0.222c0,0.427-0.099,0.748-0.304,0.969
	c-0.203,0.218-0.459,0.325-0.774,0.325c-0.323,0-0.574-0.107-0.761-0.325c-0.191-0.221-0.287-0.542-0.287-0.969v-9.884
	c0-0.46,0.091-0.807,0.277-1.041c0.182-0.236,0.439-0.354,0.771-0.354c0.345,0,0.612,0.114,0.801,0.337
	C145.681,60.892,145.774,61.212,145.774,61.627z M145.881,68.354c0,0.901,0.204,1.594,0.613,2.079
	c0.413,0.484,0.951,0.724,1.613,0.724c0.568,0,1.053-0.248,1.463-0.741c0.409-0.495,0.613-1.204,0.613-2.128
	c0-0.597-0.081-1.11-0.254-1.542c-0.17-0.436-0.412-0.765-0.726-0.998c-0.313-0.236-0.677-0.353-1.096-0.353
	c-0.429,0-0.81,0.117-1.145,0.353c-0.338,0.233-0.6,0.573-0.793,1.018C145.979,67.208,145.881,67.74,145.881,68.354z"/>
<path fill="#7A7A7A" d="M154.029,71.529v-9.818c0-0.454,0.097-0.797,0.298-1.03c0.2-0.23,0.469-0.348,0.813-0.348
	c0.339,0,0.614,0.115,0.825,0.346c0.204,0.228,0.311,0.574,0.311,1.032v9.818c0,0.459-0.107,0.803-0.319,1.034
	c-0.208,0.23-0.481,0.342-0.816,0.342c-0.332,0-0.6-0.117-0.806-0.354C154.125,72.312,154.029,71.974,154.029,71.529z"/>
<path fill="#7A7A7A" d="M159.738,62.647c-0.315,0-0.582-0.095-0.803-0.29c-0.224-0.194-0.334-0.465-0.334-0.82
	c0-0.321,0.114-0.586,0.342-0.792c0.229-0.208,0.495-0.312,0.795-0.312c0.291,0,0.551,0.093,0.774,0.283
	c0.224,0.187,0.335,0.459,0.335,0.821c0,0.35-0.106,0.62-0.327,0.814C160.302,62.548,160.041,62.647,159.738,62.647z
	 M160.848,64.988v6.542c0,0.454-0.104,0.796-0.319,1.029c-0.212,0.233-0.486,0.347-0.817,0.347c-0.325,0-0.596-0.117-0.802-0.354
	c-0.208-0.24-0.308-0.578-0.308-1.022v-6.476c0-0.448,0.1-0.788,0.308-1.012c0.206-0.229,0.477-0.339,0.802-0.339
	c0.331,0,0.605,0.109,0.817,0.339C160.744,64.266,160.848,64.582,160.848,64.988z"/>
<path fill="#7A7A7A" d="M170.422,69.946c0,0.625-0.151,1.158-0.458,1.604c-0.297,0.447-0.744,0.783-1.337,1.013
	c-0.593,0.23-1.308,0.342-2.156,0.342c-0.806,0-1.5-0.123-2.077-0.372c-0.574-0.248-1-0.56-1.277-0.931
	c-0.275-0.375-0.411-0.75-0.411-1.128c0-0.249,0.087-0.46,0.262-0.64c0.176-0.175,0.397-0.262,0.669-0.262
	c0.237,0,0.418,0.058,0.543,0.173c0.126,0.117,0.246,0.281,0.361,0.49c0.232,0.403,0.513,0.703,0.831,0.906
	c0.321,0.198,0.759,0.296,1.315,0.296c0.449,0,0.819-0.102,1.107-0.302c0.29-0.204,0.432-0.434,0.432-0.694
	c0-0.396-0.148-0.688-0.448-0.869c-0.298-0.182-0.792-0.356-1.481-0.523c-0.773-0.192-1.401-0.397-1.892-0.61
	c-0.486-0.212-0.872-0.49-1.165-0.842c-0.29-0.346-0.437-0.775-0.437-1.288c0-0.449,0.134-0.876,0.404-1.284
	c0.266-0.403,0.666-0.722,1.191-0.963c0.522-0.244,1.155-0.36,1.898-0.36c0.584,0,1.107,0.06,1.573,0.181
	c0.461,0.123,0.851,0.284,1.164,0.49c0.309,0.204,0.545,0.43,0.705,0.68c0.164,0.25,0.247,0.489,0.247,0.728
	c0,0.261-0.089,0.473-0.26,0.642c-0.175,0.164-0.422,0.247-0.742,0.247c-0.226,0-0.424-0.067-0.585-0.199
	c-0.164-0.132-0.352-0.33-0.56-0.597c-0.167-0.221-0.368-0.397-0.601-0.531c-0.231-0.133-0.544-0.197-0.941-0.197
	c-0.407,0-0.747,0.086-1.014,0.259c-0.27,0.175-0.403,0.392-0.403,0.651c0,0.239,0.101,0.435,0.298,0.584
	c0.196,0.151,0.464,0.279,0.8,0.378c0.332,0.1,0.793,0.22,1.387,0.365c0.694,0.17,1.267,0.376,1.707,0.613
	c0.442,0.237,0.779,0.52,1.006,0.842C170.307,69.162,170.422,69.533,170.422,69.946z"/>
<path fill="#7A7A7A" d="M174.528,61.711v3.359c0.282-0.334,0.563-0.596,0.833-0.791c0.275-0.191,0.573-0.337,0.903-0.433
	c0.327-0.098,0.68-0.144,1.062-0.144c0.57,0,1.078,0.12,1.519,0.362c0.446,0.246,0.794,0.599,1.044,1.061
	c0.16,0.271,0.268,0.573,0.322,0.911c0.053,0.334,0.083,0.72,0.083,1.154v4.338c0,0.454-0.104,0.796-0.31,1.029
	c-0.206,0.233-0.482,0.347-0.82,0.347c-0.744,0-1.111-0.458-1.111-1.376v-3.822c0-0.724-0.111-1.284-0.325-1.67
	c-0.211-0.39-0.619-0.585-1.219-0.585c-0.398,0-0.759,0.115-1.081,0.344c-0.321,0.227-0.566,0.542-0.726,0.941
	c-0.118,0.335-0.174,0.938-0.174,1.801v2.991c0,0.449-0.104,0.789-0.307,1.024c-0.202,0.238-0.477,0.352-0.835,0.352
	c-0.74,0-1.113-0.458-1.113-1.376v-9.818c0-0.458,0.098-0.804,0.293-1.032c0.198-0.231,0.466-0.346,0.82-0.346
	c0.358,0,0.633,0.118,0.835,0.348C174.424,60.914,174.528,61.257,174.528,61.711z"/>
<path fill="#7A7A7A" d="M183.657,62.647c-0.312,0-0.578-0.095-0.802-0.29c-0.224-0.194-0.334-0.465-0.334-0.82
	c0-0.321,0.112-0.586,0.34-0.792c0.228-0.208,0.497-0.312,0.796-0.312c0.291,0,0.552,0.093,0.774,0.283
	c0.225,0.187,0.341,0.459,0.341,0.821c0,0.35-0.111,0.62-0.332,0.814C184.222,62.548,183.959,62.647,183.657,62.647z
	 M184.772,64.988v6.542c0,0.454-0.11,0.796-0.32,1.029c-0.218,0.233-0.489,0.347-0.821,0.347c-0.329,0-0.596-0.117-0.801-0.354
	c-0.207-0.24-0.309-0.578-0.309-1.022v-6.476c0-0.448,0.102-0.788,0.309-1.012c0.205-0.229,0.472-0.339,0.801-0.339
	c0.332,0,0.604,0.109,0.821,0.339C184.663,64.266,184.772,64.582,184.772,64.988z"/>
<path fill="#7A7A7A" d="M189.141,64.955v0.272c0.394-0.526,0.829-0.909,1.297-1.156c0.471-0.246,1.01-0.368,1.618-0.368
	c0.594,0,1.126,0.128,1.59,0.388c0.468,0.257,0.815,0.626,1.049,1.103c0.148,0.277,0.242,0.575,0.289,0.897
	c0.043,0.319,0.063,0.729,0.063,1.226v4.213c0,0.454-0.102,0.796-0.309,1.029c-0.206,0.233-0.476,0.347-0.8,0.347
	c-0.335,0-0.606-0.117-0.816-0.354c-0.211-0.24-0.316-0.578-0.316-1.022v-3.773c0-0.748-0.103-1.315-0.307-1.714
	c-0.21-0.394-0.617-0.59-1.231-0.59c-0.405,0-0.768,0.12-1.1,0.36c-0.328,0.241-0.568,0.572-0.725,0.992
	c-0.113,0.336-0.166,0.966-0.166,1.889v2.836c0,0.459-0.105,0.803-0.316,1.034c-0.215,0.23-0.485,0.342-0.821,0.342
	c-0.321,0-0.589-0.117-0.799-0.354c-0.211-0.24-0.314-0.578-0.314-1.022v-6.542c0-0.431,0.093-0.754,0.278-0.967
	c0.19-0.214,0.446-0.317,0.768-0.317c0.203,0,0.376,0.046,0.537,0.14c0.162,0.092,0.287,0.233,0.386,0.421
	C189.09,64.452,189.141,64.683,189.141,64.955z"/>
<path fill="#7A7A7A" d="M205.565,65.36v6.577c0,0.752-0.077,1.397-0.237,1.941c-0.163,0.54-0.417,0.988-0.768,1.341
	c-0.352,0.356-0.812,0.616-1.38,0.789c-0.571,0.169-1.275,0.257-2.121,0.257c-0.776,0-1.469-0.109-2.08-0.327
	c-0.608-0.22-1.078-0.501-1.407-0.847c-0.329-0.347-0.493-0.704-0.493-1.065c0-0.278,0.09-0.502,0.277-0.675
	c0.188-0.176,0.414-0.262,0.678-0.262c0.328,0,0.614,0.144,0.864,0.438c0.121,0.148,0.247,0.299,0.375,0.452
	c0.131,0.154,0.27,0.282,0.429,0.39c0.156,0.107,0.347,0.189,0.562,0.241c0.223,0.051,0.474,0.076,0.763,0.076
	c0.58,0,1.034-0.078,1.356-0.24c0.318-0.166,0.545-0.393,0.673-0.685c0.128-0.295,0.205-0.61,0.229-0.942
	c0.017-0.335,0.035-0.872,0.049-1.615c-0.348,0.487-0.75,0.856-1.203,1.112c-0.452,0.255-0.99,0.38-1.618,0.38
	c-0.752,0-1.408-0.192-1.977-0.58c-0.562-0.386-0.993-0.927-1.294-1.624c-0.302-0.697-0.453-1.5-0.453-2.414
	c0-0.681,0.092-1.296,0.276-1.841c0.184-0.548,0.445-1.008,0.784-1.386c0.342-0.375,0.737-0.659,1.18-0.85
	c0.445-0.191,0.932-0.284,1.464-0.284c0.641,0,1.194,0.12,1.659,0.368c0.466,0.245,0.903,0.629,1.304,1.158v-0.308
	c0-0.393,0.094-0.697,0.286-0.915c0.196-0.214,0.443-0.319,0.744-0.319c0.434,0,0.721,0.14,0.866,0.423
	C205.494,64.414,205.565,64.821,205.565,65.36z M199.048,68.231c0,0.916,0.199,1.609,0.597,2.08
	c0.397,0.469,0.916,0.706,1.543,0.706c0.376,0,0.728-0.1,1.062-0.305c0.333-0.2,0.602-0.505,0.811-0.911
	c0.211-0.406,0.314-0.901,0.314-1.482c0-0.923-0.201-1.64-0.606-2.157c-0.404-0.511-0.934-0.768-1.594-0.768
	c-0.647,0-1.158,0.245-1.547,0.737C199.241,66.621,199.048,67.323,199.048,68.231z"/>
<path fill="#7A7A7A" d="M221.403,69.05c0,0.738-0.187,1.399-0.566,1.981c-0.377,0.588-0.93,1.046-1.653,1.379
	c-0.725,0.33-1.586,0.495-2.581,0.495c-1.19,0-2.179-0.224-2.95-0.681c-0.551-0.323-1-0.759-1.339-1.304
	c-0.347-0.544-0.519-1.076-0.519-1.587c0-0.301,0.102-0.554,0.312-0.768c0.207-0.213,0.467-0.32,0.785-0.32
	c0.261,0,0.481,0.083,0.657,0.249c0.177,0.167,0.332,0.413,0.456,0.736c0.156,0.39,0.326,0.711,0.5,0.974
	c0.179,0.258,0.43,0.471,0.755,0.642c0.321,0.17,0.748,0.256,1.277,0.256c0.725,0,1.314-0.172,1.77-0.514
	c0.453-0.339,0.68-0.761,0.68-1.273c0-0.399-0.125-0.728-0.372-0.982c-0.239-0.252-0.556-0.444-0.942-0.576
	c-0.388-0.131-0.909-0.274-1.556-0.422c-0.867-0.205-1.596-0.444-2.181-0.718c-0.587-0.275-1.049-0.648-1.392-1.119
	c-0.343-0.475-0.518-1.059-0.518-1.763c0-0.669,0.186-1.263,0.547-1.78c0.363-0.524,0.886-0.922,1.575-1.201
	c0.683-0.281,1.492-0.42,2.421-0.42c0.74,0,1.384,0.092,1.925,0.278c0.541,0.186,0.988,0.434,1.35,0.737
	c0.356,0.308,0.619,0.63,0.782,0.967c0.166,0.338,0.245,0.667,0.245,0.988c0,0.293-0.101,0.559-0.31,0.792
	c-0.202,0.234-0.459,0.353-0.768,0.353c-0.279,0-0.495-0.072-0.638-0.212c-0.147-0.141-0.307-0.373-0.476-0.693
	c-0.219-0.457-0.486-0.817-0.791-1.072c-0.308-0.259-0.8-0.385-1.483-0.385c-0.631,0-1.14,0.138-1.531,0.415
	c-0.387,0.28-0.583,0.617-0.583,1.009c0,0.246,0.071,0.454,0.2,0.631c0.133,0.176,0.313,0.328,0.543,0.456
	c0.234,0.125,0.463,0.224,0.703,0.295c0.236,0.074,0.625,0.181,1.172,0.317c0.68,0.161,1.294,0.337,1.85,0.53
	c0.551,0.194,1.02,0.429,1.408,0.707c0.384,0.274,0.687,0.625,0.907,1.049C221.292,67.917,221.403,68.438,221.403,69.05z"/>
<path fill="#7A7A7A" d="M231.747,68.305c0,0.674-0.11,1.296-0.315,1.867c-0.208,0.566-0.513,1.056-0.908,1.465
	c-0.393,0.411-0.865,0.722-1.417,0.943c-0.548,0.218-1.166,0.325-1.854,0.325c-0.681,0-1.293-0.107-1.836-0.332
	c-0.544-0.22-1.014-0.536-1.413-0.947c-0.4-0.414-0.703-0.898-0.909-1.46c-0.207-0.562-0.308-1.184-0.308-1.861
	c0-0.686,0.101-1.316,0.312-1.882c0.205-0.573,0.508-1.056,0.899-1.461c0.392-0.404,0.863-0.715,1.418-0.935
	c0.556-0.216,1.166-0.324,1.836-0.324c0.686,0,1.298,0.108,1.854,0.328c0.556,0.223,1.032,0.538,1.425,0.948
	c0.401,0.409,0.701,0.895,0.906,1.459C231.637,67.002,231.747,67.625,231.747,68.305z M229.485,68.305
	c0-0.924-0.201-1.644-0.606-2.158c-0.403-0.516-0.941-0.772-1.627-0.772c-0.44,0-0.826,0.115-1.163,0.345
	c-0.336,0.229-0.591,0.567-0.773,1.017c-0.182,0.449-0.271,0.97-0.271,1.568c0,0.59,0.088,1.108,0.27,1.549
	c0.18,0.443,0.435,0.78,0.763,1.017c0.333,0.234,0.726,0.352,1.175,0.352c0.686,0,1.224-0.256,1.627-0.773
	C229.284,69.932,229.485,69.217,229.485,68.305z"/>
<path fill="#7A7A7A" d="M233.52,71.529v-9.818c0-0.454,0.096-0.797,0.298-1.03c0.199-0.23,0.471-0.348,0.811-0.348
	c0.342,0,0.619,0.115,0.826,0.346c0.209,0.228,0.311,0.574,0.311,1.032v9.818c0,0.459-0.104,0.803-0.313,1.034
	c-0.213,0.23-0.488,0.342-0.823,0.342c-0.33,0-0.597-0.117-0.805-0.354C233.621,72.312,233.52,71.974,233.52,71.529z"/>
<path fill="#7A7A7A" d="M243.936,71.628V71.34c-0.268,0.343-0.554,0.63-0.849,0.862c-0.297,0.232-0.622,0.404-0.975,0.519
	c-0.351,0.113-0.75,0.168-1.202,0.168c-0.543,0-1.032-0.112-1.463-0.338c-0.431-0.228-0.763-0.541-1.001-0.94
	c-0.277-0.479-0.42-1.169-0.42-2.072v-4.485c0-0.452,0.102-0.793,0.308-1.016c0.201-0.226,0.47-0.335,0.805-0.335
	c0.343,0,0.614,0.109,0.829,0.339c0.205,0.224,0.31,0.564,0.31,1.012v3.624c0,0.524,0.046,0.966,0.131,1.322
	c0.089,0.357,0.245,0.635,0.477,0.837c0.227,0.204,0.537,0.306,0.926,0.306c0.38,0,0.736-0.113,1.07-0.343
	c0.335-0.225,0.58-0.521,0.736-0.886c0.121-0.32,0.187-1.022,0.187-2.107v-2.752c0-0.448,0.107-0.788,0.316-1.012
	c0.206-0.229,0.476-0.339,0.813-0.339c0.338,0,0.607,0.109,0.811,0.335c0.201,0.223,0.303,0.564,0.303,1.016v6.558
	c0,0.433-0.097,0.756-0.294,0.972c-0.194,0.218-0.444,0.322-0.751,0.322c-0.309,0-0.563-0.109-0.764-0.337
	C244.037,72.347,243.936,72.032,243.936,71.628z"/>
<path fill="#7A7A7A" d="M248.412,63.9h0.245v-1.36c0-0.366,0.011-0.651,0.027-0.86c0.025-0.207,0.074-0.386,0.162-0.533
	c0.091-0.153,0.217-0.278,0.383-0.376c0.164-0.098,0.347-0.145,0.552-0.145c0.288,0,0.542,0.106,0.772,0.324
	c0.154,0.144,0.252,0.318,0.294,0.524c0.044,0.207,0.061,0.503,0.061,0.884V63.9h0.824c0.319,0,0.561,0.074,0.729,0.227
	c0.166,0.153,0.251,0.348,0.251,0.589c0,0.301-0.117,0.516-0.358,0.637c-0.239,0.123-0.579,0.181-1.027,0.181h-0.419v4.164
	c0,0.355,0.016,0.627,0.041,0.818c0.021,0.19,0.091,0.345,0.196,0.463c0.108,0.12,0.282,0.179,0.521,0.179
	c0.134,0,0.31-0.023,0.537-0.069c0.225-0.048,0.401-0.07,0.528-0.07c0.18,0,0.348,0.072,0.485,0.219
	c0.152,0.146,0.223,0.329,0.223,0.542c0,0.367-0.196,0.646-0.593,0.839c-0.396,0.196-0.965,0.288-1.7,0.288
	c-0.707,0-1.243-0.117-1.605-0.354c-0.36-0.24-0.602-0.569-0.71-0.987c-0.113-0.421-0.171-0.983-0.171-1.686v-4.346h-0.296
	c-0.327,0-0.57-0.077-0.74-0.23c-0.17-0.157-0.255-0.352-0.255-0.588c0-0.241,0.085-0.436,0.27-0.589
	C247.808,63.974,248.067,63.9,248.412,63.9z"/>
<path fill="#7A7A7A" d="M255.402,62.647c-0.317,0-0.58-0.095-0.804-0.29c-0.223-0.194-0.335-0.465-0.335-0.82
	c0-0.321,0.116-0.586,0.343-0.792c0.229-0.208,0.495-0.312,0.796-0.312c0.292,0,0.549,0.093,0.771,0.283
	c0.227,0.187,0.341,0.459,0.341,0.821c0,0.35-0.114,0.62-0.329,0.814C255.962,62.548,255.706,62.647,255.402,62.647z
	 M256.514,64.988v6.542c0,0.454-0.108,0.796-0.322,1.029c-0.214,0.233-0.486,0.347-0.818,0.347c-0.33,0-0.594-0.117-0.802-0.354
	c-0.206-0.24-0.309-0.578-0.309-1.022v-6.476c0-0.448,0.103-0.788,0.309-1.012c0.208-0.229,0.472-0.339,0.802-0.339
	c0.332,0,0.604,0.109,0.818,0.339C256.406,64.266,256.514,64.582,256.514,64.988z"/>
<path fill="#7A7A7A" d="M267.26,68.305c0,0.674-0.104,1.296-0.31,1.867c-0.214,0.566-0.512,1.056-0.913,1.465
	c-0.392,0.411-0.866,0.722-1.412,0.943c-0.552,0.218-1.167,0.325-1.855,0.325c-0.681,0-1.292-0.107-1.838-0.332
	c-0.548-0.22-1.018-0.536-1.415-0.947c-0.395-0.414-0.697-0.898-0.907-1.46c-0.204-0.562-0.308-1.184-0.308-1.861
	c0-0.686,0.104-1.316,0.316-1.882c0.205-0.573,0.503-1.056,0.895-1.461c0.393-0.404,0.86-0.715,1.418-0.935
	c0.555-0.216,1.166-0.324,1.838-0.324c0.682,0,1.299,0.108,1.855,0.328c0.555,0.223,1.027,0.538,1.424,0.948
	c0.395,0.409,0.695,0.895,0.901,1.459C267.156,67.002,267.26,67.625,267.26,68.305z M265,68.305c0-0.924-0.2-1.644-0.604-2.158
	c-0.404-0.516-0.944-0.772-1.626-0.772c-0.441,0-0.83,0.115-1.16,0.345c-0.34,0.229-0.597,0.567-0.781,1.017
	c-0.177,0.449-0.271,0.97-0.271,1.568c0,0.59,0.086,1.108,0.271,1.549c0.179,0.443,0.434,0.78,0.765,1.017
	c0.334,0.234,0.723,0.352,1.177,0.352c0.682,0,1.222-0.256,1.626-0.773S265,69.217,265,68.305z"/>
<path fill="#7A7A7A" d="M271.08,64.955v0.272c0.394-0.526,0.829-0.909,1.296-1.156c0.47-0.246,1.01-0.368,1.621-0.368
	c0.591,0,1.121,0.128,1.591,0.388c0.465,0.257,0.816,0.626,1.044,1.103c0.149,0.277,0.244,0.575,0.286,0.897
	c0.047,0.319,0.066,0.729,0.066,1.226v4.213c0,0.454-0.101,0.796-0.303,1.029c-0.206,0.233-0.477,0.347-0.806,0.347
	c-0.335,0-0.607-0.117-0.815-0.354c-0.212-0.24-0.316-0.578-0.316-1.022v-3.773c0-0.748-0.101-1.315-0.308-1.714
	c-0.209-0.394-0.615-0.59-1.232-0.59c-0.401,0-0.769,0.12-1.095,0.36c-0.329,0.241-0.572,0.572-0.727,0.992
	c-0.111,0.336-0.165,0.966-0.165,1.889v2.836c0,0.459-0.108,0.803-0.317,1.034c-0.214,0.23-0.483,0.342-0.817,0.342
	c-0.326,0-0.595-0.117-0.805-0.354c-0.207-0.24-0.311-0.578-0.311-1.022v-6.542c0-0.431,0.093-0.754,0.282-0.967
	c0.185-0.214,0.438-0.317,0.761-0.317c0.201,0,0.378,0.046,0.54,0.14c0.158,0.092,0.282,0.233,0.38,0.421
	C271.031,64.452,271.08,64.683,271.08,64.955z"/>
</svg>
