<svg id="Layer_1" data-name="Layer 1" xmlns="http://www.w3.org/2000/svg" viewBox="0 0 128.98 35.43"><defs><style>.cls-1{fill:#fff;}.cls-2{fill:#6a94e6;}</style></defs><title>Artboard 9 copy 4MAUTHOR</title><path class="cls-1" d="M38.76,9.8h2.93l6,15.71H44.79l-1.47-4.16H37l-1.47,4.16H32.73Zm-1,9.46h4.79l-2.35-6.75h-.07Z"/><path class="cls-1" d="M58.6,25.51H56.14V23.93h0a3.45,3.45,0,0,1-1.37,1.38,3.73,3.73,0,0,1-1.86.52,4.18,4.18,0,0,1-3.25-1.11,4.89,4.89,0,0,1-1-3.36V14.14h2.51v7a3.08,3.08,0,0,0,.57,2.11,2.08,2.08,0,0,0,1.61.62,3.16,3.16,0,0,0,1.32-.24,2.31,2.31,0,0,0,.86-.65,2.47,2.47,0,0,0,.47-1,5,5,0,0,0,.14-1.23v-6.6H58.6Z"/><path class="cls-1" d="M60,14.14H61.9V10.73h2.51v3.41h2.27V16H64.41v6.07a6.17,6.17,0,0,0,0,.68,1.16,1.16,0,0,0,.15.48.73.73,0,0,0,.36.3,1.79,1.79,0,0,0,.66.1h.53a2.65,2.65,0,0,0,.53-.08v1.94l-.81.09a7.36,7.36,0,0,1-.81,0,5.54,5.54,0,0,1-1.6-.19,2.11,2.11,0,0,1-.95-.55A1.88,1.88,0,0,1,62,24a6.83,6.83,0,0,1-.14-1.25V16H60Z"/><path class="cls-1" d="M68.43,9.8h2.51v5.83h0a3.67,3.67,0,0,1,1.38-1.29,4.06,4.06,0,0,1,2-.52,4.25,4.25,0,0,1,2.95,1,3.71,3.71,0,0,1,1.08,2.9v7.81H75.91V18.36a3.1,3.1,0,0,0-.57-1.95,2.08,2.08,0,0,0-1.65-.61,2.72,2.72,0,0,0-1.14.23,2.46,2.46,0,0,0-.86.64,3,3,0,0,0-.55,1,3.45,3.45,0,0,0-.2,1.17v6.71H68.43Z"/><path class="cls-1" d="M86,25.82a6.21,6.21,0,0,1-2.43-.45,5.19,5.19,0,0,1-1.8-1.24,5.3,5.3,0,0,1-1.12-1.89,7.73,7.73,0,0,1,0-4.82,5.3,5.3,0,0,1,1.12-1.89,5.19,5.19,0,0,1,1.8-1.24,6.79,6.79,0,0,1,4.86,0,5.21,5.21,0,0,1,1.8,1.24,5.32,5.32,0,0,1,1.12,1.89,7.73,7.73,0,0,1,0,4.82,5.32,5.32,0,0,1-1.12,1.89,5.21,5.21,0,0,1-1.8,1.24A6.21,6.21,0,0,1,86,25.82Zm0-2a2.87,2.87,0,0,0,1.45-.35,3.05,3.05,0,0,0,1-.92,4,4,0,0,0,.58-1.29,5.76,5.76,0,0,0,0-2.92,3.86,3.86,0,0,0-.58-1.29,3.11,3.11,0,0,0-1-.91,3.17,3.17,0,0,0-2.9,0,3.11,3.11,0,0,0-1,.91A3.9,3.9,0,0,0,83,18.36a5.82,5.82,0,0,0,0,2.92,4,4,0,0,0,.58,1.29,3.05,3.05,0,0,0,1,.92A2.87,2.87,0,0,0,86,23.84Z"/><path class="cls-1" d="M93.58,14.14h2.35v2.2h0a2.51,2.51,0,0,1,.43-.9,4.21,4.21,0,0,1,.77-.8,3.84,3.84,0,0,1,1-.58,3,3,0,0,1,1.12-.22,5.47,5.47,0,0,1,.61,0l.34,0v2.42l-.54-.08a4.64,4.64,0,0,0-.54,0,2.87,2.87,0,0,0-1.2.25,2.75,2.75,0,0,0-1,.75,3.63,3.63,0,0,0-.66,1.22,5.27,5.27,0,0,0-.24,1.67v5.41H93.58Z"/><path class="cls-1" d="M47.82,31.56a.7.7,0,0,0,.06.29.6.6,0,0,0,.17.21.8.8,0,0,0,.24.13.82.82,0,0,0,.28,0,.9.9,0,0,0,.52-.14.82.82,0,0,0,.3-.4h.47a1.25,1.25,0,0,1-.18.42,1.13,1.13,0,0,1-.29.3,1.28,1.28,0,0,1-.38.18,1.58,1.58,0,0,1-.44.06,1.41,1.41,0,0,1-.59-.11,1,1,0,0,1-.37-.27,1,1,0,0,1-.19-.37,1.53,1.53,0,0,1-.05-.39,2.21,2.21,0,0,1,.12-.75,1.82,1.82,0,0,1,.32-.58,1.43,1.43,0,0,1,.47-.37,1.25,1.25,0,0,1,.56-.13,1.15,1.15,0,0,1,.92.33,1.36,1.36,0,0,1,.29.93,1.18,1.18,0,0,1,0,.21l0,.16H47.84A1.71,1.71,0,0,0,47.82,31.56Zm1.71-1a.69.69,0,0,0-.11-.26.58.58,0,0,0-.21-.18.7.7,0,0,0-.32-.07,1,1,0,0,0-.37.06.88.88,0,0,0-.28.17,1,1,0,0,0-.21.26,1.56,1.56,0,0,0-.13.31h1.65A1.14,1.14,0,0,0,49.54,30.61Z"/><path class="cls-1" d="M53.3,32.31a1.69,1.69,0,0,1-1.16.38,1.66,1.66,0,0,1-1.25-.45A1.74,1.74,0,0,1,50.46,31a2.76,2.76,0,0,1,.15-.91A2.36,2.36,0,0,1,51,29.3a2,2,0,0,1,1.58-.72,2,2,0,0,1,.59.08,1.39,1.39,0,0,1,.47.25,1.2,1.2,0,0,1,.32.42,1.45,1.45,0,0,1,.12.6h-.52a.85.85,0,0,0-.27-.69,1.06,1.06,0,0,0-.7-.23,1.44,1.44,0,0,0-.72.17,1.6,1.6,0,0,0-.51.45,1.92,1.92,0,0,0-.3.62A2.5,2.5,0,0,0,51,31a1.83,1.83,0,0,0,.07.52,1.13,1.13,0,0,0,.21.4,1,1,0,0,0,.36.26,1.3,1.3,0,0,0,.52.09,1.17,1.17,0,0,0,.79-.26,1.38,1.38,0,0,0,.43-.72h.52A1.87,1.87,0,0,1,53.3,32.31Z"/><path class="cls-1" d="M54.43,30.8a1.72,1.72,0,0,1,.31-.57,1.56,1.56,0,0,1,.5-.4,1.45,1.45,0,0,1,.67-.15,1.06,1.06,0,0,1,1.18,1.18,2.21,2.21,0,0,1-.1.67,1.78,1.78,0,0,1-.31.58,1.53,1.53,0,0,1-.5.4,1.45,1.45,0,0,1-.66.15,1.36,1.36,0,0,1-.5-.09A1,1,0,0,1,54.4,32a1.33,1.33,0,0,1-.08-.48A2.11,2.11,0,0,1,54.43,30.8ZM55,32a.75.75,0,0,0,.58.21.79.79,0,0,0,.45-.13,1.2,1.2,0,0,0,.33-.33,1.6,1.6,0,0,0,.21-.44,1.64,1.64,0,0,0,.07-.45,1.11,1.11,0,0,0,0-.31.68.68,0,0,0-.14-.26.67.67,0,0,0-.23-.17.81.81,0,0,0-.33-.06.85.85,0,0,0-.47.13,1.19,1.19,0,0,0-.34.33,1.53,1.53,0,0,0-.21.44,1.73,1.73,0,0,0-.07.46A.8.8,0,0,0,55,32Z"/><path class="cls-1" d="M58.41,29.75l-.09.43h0a1.11,1.11,0,0,1,.45-.37,1.35,1.35,0,0,1,.57-.12.87.87,0,0,1,.6.18.71.71,0,0,1,.2.56,1.88,1.88,0,0,1,0,.24c0,.1,0,.2-.06.31L59.7,32.6h-.47l.36-1.66,0-.1,0-.12s0-.08,0-.12a.67.67,0,0,0,0-.1.34.34,0,0,0-.14-.3.61.61,0,0,0-.35-.1.86.86,0,0,0-.38.09,1.09,1.09,0,0,0-.32.24.8.8,0,0,0-.2.27,2.06,2.06,0,0,0-.12.33l-.33,1.57h-.46L58,29.75Z"/><path class="cls-1" d="M62.22,29.75l-.09.41h-.57l-.35,1.67v.09s0,.06,0,.09a.15.15,0,0,0,.08.15.45.45,0,0,0,.2,0h.14l.13,0-.08.43-.17,0h-.16l-.25,0a.54.54,0,0,1-.2-.07.39.39,0,0,1-.14-.14.43.43,0,0,1-.05-.23.74.74,0,0,1,0-.12l0-.12.38-1.77h-.48l.09-.41h.48l.18-.84h.47l-.18.84Z"/><path class="cls-1" d="M62.69,31.56a.7.7,0,0,0,.06.29.6.6,0,0,0,.17.21.8.8,0,0,0,.24.13.82.82,0,0,0,.28,0,.9.9,0,0,0,.52-.14.82.82,0,0,0,.3-.4h.47a1.25,1.25,0,0,1-.18.42,1.13,1.13,0,0,1-.29.3,1.28,1.28,0,0,1-.38.18,1.58,1.58,0,0,1-.44.06,1.41,1.41,0,0,1-.59-.11,1,1,0,0,1-.37-.27,1,1,0,0,1-.19-.37,1.53,1.53,0,0,1-.05-.39,2.21,2.21,0,0,1,.12-.75,1.82,1.82,0,0,1,.32-.58,1.43,1.43,0,0,1,.47-.37,1.25,1.25,0,0,1,.56-.13,1.15,1.15,0,0,1,.92.33,1.36,1.36,0,0,1,.29.93,1.18,1.18,0,0,1,0,.21l0,.16H62.71A1.71,1.71,0,0,0,62.69,31.56Zm1.71-1a.69.69,0,0,0-.11-.26.58.58,0,0,0-.21-.18.7.7,0,0,0-.32-.07,1,1,0,0,0-.37.06.88.88,0,0,0-.28.17,1,1,0,0,0-.21.26,1.56,1.56,0,0,0-.13.31h1.65A1.14,1.14,0,0,0,64.41,30.61Z"/><path class="cls-1" d="M66.15,29.75l-.09.43h0a1.11,1.11,0,0,1,.45-.37,1.35,1.35,0,0,1,.57-.12.87.87,0,0,1,.6.18.71.71,0,0,1,.2.56,1.88,1.88,0,0,1,0,.24c0,.1,0,.2-.06.31l-.35,1.62H67l.36-1.66,0-.1,0-.12s0-.08,0-.12a.67.67,0,0,0,0-.1.34.34,0,0,0-.14-.3.61.61,0,0,0-.35-.1.86.86,0,0,0-.38.09,1.09,1.09,0,0,0-.32.24.8.8,0,0,0-.2.27,2.06,2.06,0,0,0-.12.33l-.33,1.57H65.1l.59-2.84Z"/><path class="cls-1" d="M70,29.75l-.09.41h-.57L69,31.84v.09s0,.06,0,.09a.15.15,0,0,0,.08.15.45.45,0,0,0,.2,0h.14l.13,0-.08.43-.17,0h-.16l-.25,0a.54.54,0,0,1-.2-.07.39.39,0,0,1-.14-.14.43.43,0,0,1-.05-.23.74.74,0,0,1,0-.12l0-.12.38-1.77h-.48l.09-.41h.48l.18-.84h.47l-.18.84Z"/><path class="cls-1" d="M73.69,28.67a1.44,1.44,0,0,1,1.11.4,1.54,1.54,0,0,1,.38,1.1,3,3,0,0,1-.16,1,2.26,2.26,0,0,1-.45.76,1.9,1.9,0,0,1-.69.49,2.25,2.25,0,0,1-.89.17H71.48l.83-3.93ZM73,32.16a1.51,1.51,0,0,0,.73-.17,1.58,1.58,0,0,0,.52-.44,1.93,1.93,0,0,0,.31-.62,2.54,2.54,0,0,0,.1-.7,1.85,1.85,0,0,0,0-.42.91.91,0,0,0-.17-.36.85.85,0,0,0-.33-.25,1.34,1.34,0,0,0-.54-.09h-.84l-.64,3Z"/><path class="cls-1" d="M75.84,31.56a.7.7,0,0,0,.06.29.6.6,0,0,0,.17.21.8.8,0,0,0,.24.13.82.82,0,0,0,.28,0,.9.9,0,0,0,.52-.14.82.82,0,0,0,.3-.4h.47a1.25,1.25,0,0,1-.18.42,1.13,1.13,0,0,1-.29.3,1.28,1.28,0,0,1-.38.18,1.58,1.58,0,0,1-.44.06,1.41,1.41,0,0,1-.59-.11,1,1,0,0,1-.37-.27,1,1,0,0,1-.19-.37,1.53,1.53,0,0,1-.05-.39,2.21,2.21,0,0,1,.12-.75,1.82,1.82,0,0,1,.32-.58,1.43,1.43,0,0,1,.47-.37,1.25,1.25,0,0,1,.56-.13,1.15,1.15,0,0,1,.92.33,1.36,1.36,0,0,1,.29.93,1.18,1.18,0,0,1,0,.21l0,.16H75.85A1.71,1.71,0,0,0,75.84,31.56Zm1.71-1a.69.69,0,0,0-.11-.26.58.58,0,0,0-.21-.18.7.7,0,0,0-.32-.07,1,1,0,0,0-.37.06.88.88,0,0,0-.28.17,1,1,0,0,0-.21.26,1.56,1.56,0,0,0-.13.31h1.65A1.14,1.14,0,0,0,77.55,30.61Z"/><path class="cls-1" d="M78.91,32.6l-.41-2.84H79l.24,2.37h0l1.23-2.37H81L79.41,32.6Z"/><path class="cls-1" d="M81.44,31.56a.7.7,0,0,0,.06.29.6.6,0,0,0,.17.21.8.8,0,0,0,.24.13.82.82,0,0,0,.28,0,.9.9,0,0,0,.52-.14.82.82,0,0,0,.3-.4h.47a1.25,1.25,0,0,1-.18.42,1.13,1.13,0,0,1-.29.3,1.28,1.28,0,0,1-.38.18,1.58,1.58,0,0,1-.44.06,1.41,1.41,0,0,1-.59-.11,1,1,0,0,1-.37-.27,1,1,0,0,1-.19-.37,1.53,1.53,0,0,1-.05-.39,2.21,2.21,0,0,1,.12-.75,1.82,1.82,0,0,1,.32-.58,1.43,1.43,0,0,1,.47-.37,1.25,1.25,0,0,1,.56-.13,1.15,1.15,0,0,1,.92.33,1.36,1.36,0,0,1,.29.93,1.18,1.18,0,0,1,0,.21l0,.16H81.45A1.71,1.71,0,0,0,81.44,31.56Zm1.71-1a.69.69,0,0,0-.11-.26.58.58,0,0,0-.21-.18.7.7,0,0,0-.32-.07,1,1,0,0,0-.37.06.88.88,0,0,0-.28.17,1,1,0,0,0-.21.26,1.56,1.56,0,0,0-.13.31h1.65A1.14,1.14,0,0,0,83.15,30.61Z"/><path class="cls-1" d="M85.13,28.67l-.83,3.93h-.46l.82-3.93Z"/><path class="cls-1" d="M85.29,30.8a1.72,1.72,0,0,1,.31-.57,1.56,1.56,0,0,1,.5-.4,1.45,1.45,0,0,1,.67-.15A1.06,1.06,0,0,1,88,30.86a2.21,2.21,0,0,1-.1.67,1.78,1.78,0,0,1-.31.58,1.53,1.53,0,0,1-.5.4,1.45,1.45,0,0,1-.66.15,1.36,1.36,0,0,1-.5-.09,1,1,0,0,1-.61-.62,1.33,1.33,0,0,1-.08-.48A2.11,2.11,0,0,1,85.29,30.8ZM85.85,32a.75.75,0,0,0,.58.21.79.79,0,0,0,.45-.13,1.2,1.2,0,0,0,.33-.33,1.6,1.6,0,0,0,.21-.44,1.64,1.64,0,0,0,.07-.45,1.11,1.11,0,0,0,0-.31.68.68,0,0,0-.14-.26.67.67,0,0,0-.23-.17.81.81,0,0,0-.33-.06.85.85,0,0,0-.47.13,1.19,1.19,0,0,0-.34.33,1.53,1.53,0,0,0-.21.44,1.73,1.73,0,0,0-.07.46A.8.8,0,0,0,85.85,32Z"/><path class="cls-1" d="M89.25,29.75l-.1.41h0a1.16,1.16,0,0,1,.43-.37,1.23,1.23,0,0,1,.51-.1,1.25,1.25,0,0,1,.48.08,1,1,0,0,1,.56.61,1.52,1.52,0,0,1,.07.47,2.06,2.06,0,0,1-.11.65,1.94,1.94,0,0,1-.31.58,1.58,1.58,0,0,1-.49.42,1.4,1.4,0,0,1-.67.16l-.27,0a1,1,0,0,1-.26-.08.76.76,0,0,1-.22-.15.52.52,0,0,1-.13-.24h0l-.3,1.52H88l.82-3.93Zm1.33.55a.7.7,0,0,0-.56-.2.84.84,0,0,0-.47.14,1.22,1.22,0,0,0-.35.35A1.64,1.64,0,0,0,89,31a1.67,1.67,0,0,0-.07.47.77.77,0,0,0,.18.53.67.67,0,0,0,.53.21.92.92,0,0,0,.49-.13,1.2,1.2,0,0,0,.35-.33,1.53,1.53,0,0,0,.21-.45,1.76,1.76,0,0,0,.07-.48A.82.82,0,0,0,90.58,30.3Z"/><path class="cls-1" d="M92.52,29.75l-.1.42h0a1.36,1.36,0,0,1,.44-.37,1.17,1.17,0,0,1,.55-.13.88.88,0,0,1,.46.12.57.57,0,0,1,.25.4,1.25,1.25,0,0,1,.43-.37,1.16,1.16,0,0,1,.55-.14,1.22,1.22,0,0,1,.29,0,.84.84,0,0,1,.26.11.53.53,0,0,1,.18.2.6.6,0,0,1,.07.3,1.79,1.79,0,0,1,0,.29c0,.11,0,.2-.05.28l-.36,1.71H95l.39-1.8s0-.1,0-.16a1.27,1.27,0,0,0,0-.15.35.35,0,0,0-.12-.27A.45.45,0,0,0,95,30.1a.63.63,0,0,0-.2,0l-.2.08-.18.12-.14.15a.82.82,0,0,0-.17.29,3,3,0,0,0-.09.35L93.7,32.6h-.47L93.58,31c0-.11,0-.21.06-.31a1.26,1.26,0,0,0,0-.19.37.37,0,0,0-.1-.28.41.41,0,0,0-.29-.1.76.76,0,0,0-.38.11,1.31,1.31,0,0,0-.32.25.82.82,0,0,0-.2.29,2.69,2.69,0,0,0-.1.36l-.32,1.49h-.46l.6-2.84Z"/><path class="cls-1" d="M96.72,31.56a.7.7,0,0,0,.06.29.6.6,0,0,0,.17.21.8.8,0,0,0,.24.13.82.82,0,0,0,.28,0,.9.9,0,0,0,.52-.14.82.82,0,0,0,.3-.4h.47a1.25,1.25,0,0,1-.18.42,1.13,1.13,0,0,1-.29.3,1.28,1.28,0,0,1-.38.18,1.58,1.58,0,0,1-.44.06,1.41,1.41,0,0,1-.59-.11,1,1,0,0,1-.37-.27,1,1,0,0,1-.19-.37,1.53,1.53,0,0,1-.05-.39,2.21,2.21,0,0,1,.12-.75,1.82,1.82,0,0,1,.32-.58,1.43,1.43,0,0,1,.47-.37,1.25,1.25,0,0,1,.56-.13,1.15,1.15,0,0,1,.92.33,1.36,1.36,0,0,1,.29.93,1.18,1.18,0,0,1,0,.21l0,.16H96.73A1.71,1.71,0,0,0,96.72,31.56Zm1.71-1a.69.69,0,0,0-.11-.26.58.58,0,0,0-.21-.18.7.7,0,0,0-.32-.07,1,1,0,0,0-.37.06.88.88,0,0,0-.28.17,1,1,0,0,0-.21.26,1.56,1.56,0,0,0-.13.31h1.65A1.14,1.14,0,0,0,98.43,30.61Z"/><path class="cls-1" d="M100.17,29.75l-.09.43h0a1.11,1.11,0,0,1,.45-.37,1.35,1.35,0,0,1,.57-.12.87.87,0,0,1,.6.18.71.71,0,0,1,.2.56,1.88,1.88,0,0,1,0,.24c0,.1,0,.2-.06.31l-.35,1.62H101l.36-1.66,0-.1,0-.12s0-.08,0-.12a.67.67,0,0,0,0-.1.34.34,0,0,0-.14-.3.61.61,0,0,0-.35-.1.86.86,0,0,0-.38.09,1.09,1.09,0,0,0-.32.24.8.8,0,0,0-.2.27,2.06,2.06,0,0,0-.12.33l-.33,1.57h-.46l.59-2.84Z"/><path class="cls-1" d="M104,29.75l-.09.41h-.57L103,31.84v.09s0,.06,0,.09a.15.15,0,0,0,.08.15.45.45,0,0,0,.2,0h.14l.13,0-.08.43-.17,0h-.16l-.25,0a.54.54,0,0,1-.2-.07.39.39,0,0,1-.14-.14.43.43,0,0,1-.05-.23.74.74,0,0,1,0-.12l0-.12.38-1.77h-.48l.09-.41H103l.18-.84h.47l-.18.84Z"/><path class="cls-1" d="M107.87,28.67a1.25,1.25,0,0,1,.87.27,1,1,0,0,1,.3.81,1.32,1.32,0,0,1-.07.4,1.1,1.1,0,0,1-.24.4,1.35,1.35,0,0,1-.46.31,1.85,1.85,0,0,1-.72.12h-1.17L106,32.6h-.52l.82-3.93Zm-.23,1.88a.87.87,0,0,0,.65-.22.78.78,0,0,0,.22-.58.77.77,0,0,0-.05-.3.52.52,0,0,0-.14-.2.56.56,0,0,0-.21-.11.9.9,0,0,0-.25,0h-1.11l-.3,1.44Z"/><path class="cls-1" d="M110.3,28.67l-.83,3.93H109l.82-3.93Z"/><path class="cls-1" d="M110.69,30.2a1,1,0,0,1,.28-.29,1.15,1.15,0,0,1,.38-.17,1.71,1.71,0,0,1,.43-.05,2.35,2.35,0,0,1,.4,0,1,1,0,0,1,.33.12.64.64,0,0,1,.23.22.68.68,0,0,1,.08.35,1.29,1.29,0,0,1,0,.26l-.06.26-.18.78a1.7,1.7,0,0,1,0,.2.82.82,0,0,0,0,.21.18.18,0,0,0,0,.14.13.13,0,0,0,.1,0h.07l.07,0-.07.35-.14,0-.15,0a.39.39,0,0,1-.29-.1.34.34,0,0,1-.08-.29h0a1,1,0,0,1-.37.3,1.37,1.37,0,0,1-.58.1,1.32,1.32,0,0,1-.34,0,.7.7,0,0,1-.27-.14.68.68,0,0,1-.18-.25.87.87,0,0,1-.07-.37.79.79,0,0,1,.13-.49.85.85,0,0,1,.34-.27,1.72,1.72,0,0,1,.46-.12l.49-.05.32,0a.7.7,0,0,0,.22-.06.28.28,0,0,0,.13-.13.51.51,0,0,0,0-.23.3.3,0,0,0-.05-.19.4.4,0,0,0-.14-.11.62.62,0,0,0-.18-.06l-.2,0-.26,0a.74.74,0,0,0-.23.09.63.63,0,0,0-.18.16.52.52,0,0,0-.09.23h-.47A1,1,0,0,1,110.69,30.2Zm.13,2a.66.66,0,0,0,.36.1.87.87,0,0,0,.8-.37.91.91,0,0,0,.16-.35c0-.12.06-.25.09-.38h0a.61.61,0,0,1-.25.1l-.32,0-.34,0a1.33,1.33,0,0,0-.31.08.58.58,0,0,0-.23.16.44.44,0,0,0-.09.28A.33.33,0,0,0,110.82,32.15Z"/><path class="cls-1" d="M114.89,29.75l-.09.41h-.57l-.35,1.67v.09s0,.06,0,.09a.15.15,0,0,0,.08.15.45.45,0,0,0,.2,0h.14l.13,0-.08.43-.17,0H114l-.25,0a.54.54,0,0,1-.2-.07.39.39,0,0,1-.14-.14.43.43,0,0,1-.05-.23.74.74,0,0,1,0-.12l0-.12.38-1.77h-.48l.09-.41h.48l.18-.84h.47l-.18.84Z"/><path class="cls-1" d="M115,30.17l.08-.41h.48c0-.14.07-.28.1-.42a1.35,1.35,0,0,1,.13-.36.69.69,0,0,1,.25-.25.84.84,0,0,1,.44-.1h.2l.19,0-.08.4-.12,0h-.11a.47.47,0,0,0-.26.06.43.43,0,0,0-.14.17.87.87,0,0,0-.08.23c0,.08,0,.17-.06.26h.54l-.08.41H116l-.52,2.43H115l.53-2.43Z"/><path class="cls-1" d="M116.67,30.8a1.72,1.72,0,0,1,.31-.57,1.56,1.56,0,0,1,.5-.4,1.45,1.45,0,0,1,.67-.15,1.06,1.06,0,0,1,1.18,1.18,2.21,2.21,0,0,1-.1.67,1.78,1.78,0,0,1-.31.58,1.53,1.53,0,0,1-.5.4,1.45,1.45,0,0,1-.66.15,1.36,1.36,0,0,1-.5-.09,1,1,0,0,1-.61-.62,1.33,1.33,0,0,1-.08-.48A2.11,2.11,0,0,1,116.67,30.8Zm.56,1.23a.75.75,0,0,0,.58.21.79.79,0,0,0,.45-.13,1.2,1.2,0,0,0,.33-.33,1.6,1.6,0,0,0,.21-.44,1.64,1.64,0,0,0,.07-.45,1.11,1.11,0,0,0,0-.31.68.68,0,0,0-.14-.26.67.67,0,0,0-.23-.17.81.81,0,0,0-.33-.06.85.85,0,0,0-.47.13,1.19,1.19,0,0,0-.34.33,1.53,1.53,0,0,0-.21.44,1.73,1.73,0,0,0-.07.46A.8.8,0,0,0,117.23,32Z"/><path class="cls-1" d="M120.63,29.75l-.14.61h0a1.55,1.55,0,0,1,.42-.48,1,1,0,0,1,.61-.19h.16l-.11.5h-.28l-.14,0a.92.92,0,0,0-.34.17,1.21,1.21,0,0,0-.26.29,1.17,1.17,0,0,0-.15.32c0,.12-.06.24-.09.34l-.27,1.26h-.46l.59-2.84Z"/><path class="cls-1" d="M122.47,29.75l-.1.42h0a1.36,1.36,0,0,1,.44-.37,1.17,1.17,0,0,1,.55-.13.88.88,0,0,1,.46.12.57.57,0,0,1,.25.4,1.25,1.25,0,0,1,.43-.37,1.16,1.16,0,0,1,.55-.14,1.22,1.22,0,0,1,.29,0,.84.84,0,0,1,.26.11.53.53,0,0,1,.18.2.6.6,0,0,1,.07.3,1.79,1.79,0,0,1,0,.29c0,.11,0,.2-.05.28l-.36,1.71h-.47l.39-1.8s0-.1,0-.16a1.27,1.27,0,0,0,0-.15.35.35,0,0,0-.12-.27.45.45,0,0,0-.31-.11.63.63,0,0,0-.2,0l-.2.08-.18.12-.14.15a.82.82,0,0,0-.17.29,3,3,0,0,0-.09.35l-.31,1.47h-.47l.34-1.62c0-.11,0-.21.06-.31a1.26,1.26,0,0,0,0-.19.37.37,0,0,0-.1-.28.41.41,0,0,0-.29-.1.76.76,0,0,0-.38.11,1.31,1.31,0,0,0-.32.25.82.82,0,0,0-.2.29,2.69,2.69,0,0,0-.1.36l-.32,1.49h-.46l.6-2.84Z"/><rect class="cls-2" x="2.83" y="2.83" width="28.35" height="28.35"/><path class="cls-1" d="M13.93,14.14v1.54h0a4.44,4.44,0,0,1,1.49-1.36,4,4,0,0,1,2-.48,4.6,4.6,0,0,1,2,.42,2.77,2.77,0,0,1,1.35,1.47,4.82,4.82,0,0,1,1.38-1.32,3.65,3.65,0,0,1,2.06-.57,6.07,6.07,0,0,1,1.67.22,3.37,3.37,0,0,1,1.32.7A3.23,3.23,0,0,1,28,16a5.13,5.13,0,0,1,.31,1.88v7.61H25.23V19.06c0-.38,0-.74,0-1.08a2.28,2.28,0,0,0-.24-.88,1.47,1.47,0,0,0-.58-.59,2.11,2.11,0,0,0-1-.22,2,2,0,0,0-1.07.25,1.85,1.85,0,0,0-.64.66,2.67,2.67,0,0,0-.31.92,6.91,6.91,0,0,0-.08,1v6.34H18.1V19.13c0-.34,0-.67,0-1a2.84,2.84,0,0,0-.19-.91,1.4,1.4,0,0,0-.55-.67,2.08,2.08,0,0,0-1.13-.25,2.4,2.4,0,0,0-.58.1,2,2,0,0,0-.71.38,2.18,2.18,0,0,0-.58.79,3.21,3.21,0,0,0-.24,1.35v6.6H11V14.14Z"/></svg>